<?xml version="1.0"?>
<Project_Data Version="8.00">
<Project_Settings>
<ProfileName></ProfileName>
<ProjectWidth>1280</ProjectWidth>
<ProjectHeight>720</ProjectHeight>
<IsCustomProject>1</IsCustomProject>
<SavedProjectSettings>1</SavedProjectSettings>
<LastFlashTemplate>-1</LastFlashTemplate>
</Project_Settings>


<AutoSaveFile>C:\Users\Fernando\AppData\Local\TechSmith\Camtasia Studio\8.0\Auto-Saves\Redmineefbe2f0.autosave.camproj</AutoSaveFile>

<ProjectID>ECA2E476-5BB8-4582-8A2A-0855A698E1D8</ProjectID>

<PowerPointProject>0</PowerPointProject>

<PowerPointFilename></PowerPointFilename>


<Project_Notes>
</Project_Notes>

<Project_MetaData>
<Project_MetaData_Object>
<FieldArrayKey>8</FieldArrayKey>
<Value>Redmine</Value>
</Project_MetaData_Object>
<Project_MetaData_Object>
<FieldArrayKey>13</FieldArrayKey>
<Value>2014-11-30 05:03:21 PM</Value>
</Project_MetaData_Object>
<Project_MetaData_Object>
<FieldArrayKey>16</FieldArrayKey>
<Value>ENU</Value>
</Project_MetaData_Object>
</Project_MetaData>

<CSMLData>
<GoProject id="1" version="3.0" >
 <Project id="2" editRate="30/1" version="3.0" >
  <Author></Author>
  <Comment></Comment>
  <System></System>
  <SourceBin id="3"  >
    <Source id="4" src="C:\Users\Fernando\Downloads\New folder\Redmine.trec" lastMod="20141130T220310" rect="(0,0,1920,1080)" >
      <SourceTrack range="(0,1662)" type="0" editRate="30/1" trackRect="(0,0,1920,1080)" sampleRate="0/1" bitDepth="0" numChannels="0" filename="Redmine.trec!Strack0.tsc2" metaData="Redmine.trec;" />
      <SourceTrack range="(0,2470912)" type="2" editRate="44100/1" trackRect="(0,0,0,0)" sampleRate="44100/1" bitDepth="16" numChannels="2" filename="Redmine.trec!Maudio1.mp4" metaData="" />
      <SourceTrack range="(0,2426880)" type="2" editRate="44100/1" trackRect="(0,0,0,0)" sampleRate="44100/1" bitDepth="16" numChannels="2" filename="Redmine.trec!$audio2.mp4" metaData="" />
    </Source>
    <Source id="5" src="C:\Users\Fernando\Downloads\New folder\Redmine1.trec" lastMod="20141130T221110" rect="(0,0,1920,1080)" >
      <SourceTrack range="(0,1175)" type="0" editRate="30/1" trackRect="(0,0,1920,1080)" sampleRate="0/1" bitDepth="0" numChannels="0" filename="Redmine1.trec!Strack0.tsc2" metaData="Redmine1.trec;" />
      <SourceTrack range="(0,1743872)" type="2" editRate="44100/1" trackRect="(0,0,0,0)" sampleRate="44100/1" bitDepth="16" numChannels="2" filename="Redmine1.trec!Maudio1.mp4" metaData="" />
      <SourceTrack range="(0,1721344)" type="2" editRate="44100/1" trackRect="(0,0,0,0)" sampleRate="44100/1" bitDepth="16" numChannels="2" filename="Redmine1.trec!$audio2.mp4" metaData="" />
    </Source>
    <Source id="6" src="C:\Users\Fernando\Downloads\New folder\Redmine2.trec" lastMod="20141130T221715" rect="(0,0,1920,1080)" >
      <SourceTrack range="(0,2788)" type="0" editRate="30/1" trackRect="(0,0,1920,1080)" sampleRate="0/1" bitDepth="0" numChannels="0" filename="Redmine2.trec!Strack0.tsc2" metaData="Redmine2.trec;" />
      <SourceTrack range="(0,4124672)" type="2" editRate="44100/1" trackRect="(0,0,0,0)" sampleRate="44100/1" bitDepth="16" numChannels="2" filename="Redmine2.trec!Maudio1.mp4" metaData="" />
      <SourceTrack range="(0,4103168)" type="2" editRate="44100/1" trackRect="(0,0,0,0)" sampleRate="44100/1" bitDepth="16" numChannels="2" filename="Redmine2.trec!$audio2.mp4" metaData="" />
    </Source>
    <Source id="7" src="C:\Users\Fernando\Downloads\New folder\Redmine3.trec" lastMod="20141130T222312" rect="(0,0,1920,1080)" >
      <SourceTrack range="(0,2092)" type="0" editRate="30/1" trackRect="(0,0,1920,1080)" sampleRate="0/1" bitDepth="0" numChannels="0" filename="Redmine3.trec!Strack0.tsc2" metaData="Redmine3.trec;" />
      <SourceTrack range="(0,3088384)" type="2" editRate="44100/1" trackRect="(0,0,0,0)" sampleRate="44100/1" bitDepth="16" numChannels="2" filename="Redmine3.trec!Maudio1.mp4" metaData="" />
      <SourceTrack range="(0,3044352)" type="2" editRate="44100/1" trackRect="(0,0,0,0)" sampleRate="44100/1" bitDepth="16" numChannels="2" filename="Redmine3.trec!$audio2.mp4" metaData="" />
    </Source>
    <Source id="8" src="C:\Users\Fernando\Downloads\New folder\Redmine4.trec" lastMod="20141130T223005" rect="(0,0,1920,1080)" >
      <SourceTrack range="(0,2796)" type="0" editRate="30/1" trackRect="(0,0,1920,1080)" sampleRate="0/1" bitDepth="0" numChannels="0" filename="Redmine4.trec!Strack0.tsc2" metaData="Redmine4.trec;" />
      <SourceTrack range="(0,4124672)" type="2" editRate="44100/1" trackRect="(0,0,0,0)" sampleRate="44100/1" bitDepth="16" numChannels="2" filename="Redmine4.trec!Maudio1.mp4" metaData="" />
      <SourceTrack range="(0,4103168)" type="2" editRate="44100/1" trackRect="(0,0,0,0)" sampleRate="44100/1" bitDepth="16" numChannels="2" filename="Redmine4.trec!$audio2.mp4" metaData="" />
    </Source>
    <Source id="9" src="C:\Users\Fernando\Downloads\New folder\Redmine5.trec" lastMod="20141130T223443" rect="(0,0,1920,1080)" >
      <SourceTrack range="(0,1619)" type="0" editRate="30/1" trackRect="(0,0,1920,1080)" sampleRate="0/1" bitDepth="0" numChannels="0" filename="Redmine5.trec!Strack0.tsc2" metaData="Redmine5.trec;" />
      <SourceTrack range="(0,2405376)" type="2" editRate="44100/1" trackRect="(0,0,0,0)" sampleRate="44100/1" bitDepth="16" numChannels="2" filename="Redmine5.trec!Maudio1.mp4" metaData="" />
      <SourceTrack range="(0,2382848)" type="2" editRate="44100/1" trackRect="(0,0,0,0)" sampleRate="44100/1" bitDepth="16" numChannels="2" filename="Redmine5.trec!$audio2.mp4" metaData="" />
    </Source>
    <Source id="10" src="C:\Users\Fernando\Downloads\New folder\Redmine6.trec" lastMod="20141130T223902" rect="(0,0,1920,1080)" >
      <SourceTrack range="(0,2006)" type="0" editRate="30/1" trackRect="(0,0,1920,1080)" sampleRate="0/1" bitDepth="0" numChannels="0" filename="Redmine6.trec!Strack0.tsc2" metaData="Redmine6.trec;" />
      <SourceTrack range="(0,2956288)" type="2" editRate="44100/1" trackRect="(0,0,0,0)" sampleRate="44100/1" bitDepth="16" numChannels="2" filename="Redmine6.trec!Maudio1.mp4" metaData="" />
      <SourceTrack range="(0,2912256)" type="2" editRate="44100/1" trackRect="(0,0,0,0)" sampleRate="44100/1" bitDepth="16" numChannels="2" filename="Redmine6.trec!$audio2.mp4" metaData="" />
    </Source>
    <Source id="11" src="C:\Users\Fernando\Downloads\New folder\Redmine7.trec" lastMod="20141130T224147" rect="(0,0,1920,1080)" >
      <SourceTrack range="(0,1974)" type="0" editRate="30/1" trackRect="(0,0,1920,1080)" sampleRate="0/1" bitDepth="0" numChannels="0" filename="Redmine7.trec!Strack0.tsc2" metaData="Redmine7.trec;" />
      <SourceTrack range="(0,2889728)" type="2" editRate="44100/1" trackRect="(0,0,0,0)" sampleRate="44100/1" bitDepth="16" numChannels="2" filename="Redmine7.trec!Maudio1.mp4" metaData="" />
      <SourceTrack range="(0,2868224)" type="2" editRate="44100/1" trackRect="(0,0,0,0)" sampleRate="44100/1" bitDepth="16" numChannels="2" filename="Redmine7.trec!$audio2.mp4" metaData="" />
    </Source>
    <Source id="12" src="C:\Users\Fernando\Downloads\New folder\Redmine8.trec" lastMod="20141130T230035" rect="(0,0,1920,1080)" >
      <SourceTrack range="(0,1635)" type="0" editRate="30/1" trackRect="(0,0,1920,1080)" sampleRate="0/1" bitDepth="0" numChannels="0" filename="Redmine8.trec!Strack0.tsc2" metaData="Redmine8.trec;" />
      <SourceTrack range="(0,2426880)" type="2" editRate="44100/1" trackRect="(0,0,0,0)" sampleRate="44100/1" bitDepth="16" numChannels="2" filename="Redmine8.trec!Maudio1.mp4" metaData="" />
      <SourceTrack range="(0,2382848)" type="2" editRate="44100/1" trackRect="(0,0,0,0)" sampleRate="44100/1" bitDepth="16" numChannels="2" filename="Redmine8.trec!$audio2.mp4" metaData="" />
    </Source>
    <Source id="13" src="C:\Users\Fernando\Downloads\New folder\Redmine9.trec" lastMod="20141130T230322" rect="(0,0,1920,1080)" >
      <SourceTrack range="(0,593)" type="0" editRate="30/1" trackRect="(0,0,1920,1080)" sampleRate="0/1" bitDepth="0" numChannels="0" filename="Redmine9.trec!Strack0.tsc2" metaData="Redmine9.trec;" />
      <SourceTrack range="(0,861184)" type="2" editRate="44100/1" trackRect="(0,0,0,0)" sampleRate="44100/1" bitDepth="16" numChannels="2" filename="Redmine9.trec!Maudio1.mp4" metaData="" />
      <SourceTrack range="(0,839680)" type="2" editRate="44100/1" trackRect="(0,0,0,0)" sampleRate="44100/1" bitDepth="16" numChannels="2" filename="Redmine9.trec!$audio2.mp4" metaData="" />
    </Source>
    <Source id="14" src="C:\Users\Fernando\Downloads\New folder\video.trec" lastMod="20141130T231000" rect="(0,0,1920,1080)" >
      <SourceTrack range="(0,4406)" type="0" editRate="30/1" trackRect="(0,0,1920,1080)" sampleRate="0/1" bitDepth="0" numChannels="0" filename="video.trec!Strack0.tsc2" metaData="video.trec;" />
      <SourceTrack range="(0,6483968)" type="2" editRate="44100/1" trackRect="(0,0,0,0)" sampleRate="44100/1" bitDepth="16" numChannels="2" filename="video.trec!Maudio1.mp4" metaData="" />
      <SourceTrack range="(0,6439936)" type="2" editRate="44100/1" trackRect="(0,0,0,0)" sampleRate="44100/1" bitDepth="16" numChannels="2" filename="video.trec!$audio2.mp4" metaData="" />
    </Source>
    <Source id="15" src="C:\Users\Fernando\Downloads\New folder\capture-2.trec" lastMod="20141130T231825" rect="(0,0,1920,1080)" >
      <SourceTrack range="(0,5309)" type="0" editRate="30/1" trackRect="(0,0,1920,1080)" sampleRate="0/1" bitDepth="0" numChannels="0" filename="capture-2.trec!Strack0.tsc2" metaData="capture-2.trec;" />
      <SourceTrack range="(0,7806976)" type="2" editRate="44100/1" trackRect="(0,0,0,0)" sampleRate="44100/1" bitDepth="16" numChannels="2" filename="capture-2.trec!Maudio1.mp4" metaData="" />
      <SourceTrack range="(0,7806976)" type="2" editRate="44100/1" trackRect="(0,0,0,0)" sampleRate="44100/1" bitDepth="16" numChannels="2" filename="capture-2.trec!$audio2.mp4" metaData="" />
    </Source>
    <Source id="16" src="C:\Users\Fernando\Downloads\New folder\capture-3.trec" lastMod="20141130T234043" rect="(0,0,1920,1080)" >
      <SourceTrack range="(0,32966)" type="0" editRate="30/1" trackRect="(0,0,1920,1080)" sampleRate="0/1" bitDepth="0" numChannels="0" filename="capture-3.trec!Strack0.tsc2" metaData="capture-3.trec;" />
      <SourceTrack range="(0,48466944)" type="2" editRate="44100/1" trackRect="(0,0,0,0)" sampleRate="44100/1" bitDepth="16" numChannels="2" filename="capture-3.trec!Maudio1.mp4" metaData="" />
      <SourceTrack range="(0,48466944)" type="2" editRate="44100/1" trackRect="(0,0,0,0)" sampleRate="44100/1" bitDepth="16" numChannels="2" filename="capture-3.trec!$audio2.mp4" metaData="" />
    </Source>
  </SourceBin>
  <Timeline id="17"  >
   <Attributes>
    <Attribute id="18" value="1280" name="width"/>
    <Attribute id="19" value="720" name="height"/>
    <Attribute id="20" value="(0,0,0,255)" name="backgroundColor"/>
   </Attributes>
    <GenericMixer id="21"  name="Unified Mixer">
     <MetaData>
      <entry key="MixerType" val="TimelineMixer"/>
     </MetaData>
     <Tracks>
      <GenericTrack id="22"  >
       <Attributes>
        <Attribute id="23" value="" name="ident"/>
        <Attribute id="24" value="0" name="audioMuted"/>
        <Attribute id="25" value="0" name="videoHidden"/>
       </Attributes>
       <MetaData>
        <entry key="IsLocked" val="False"/>
        <entry key="WinTrackHeight" val="62"/>
       </MetaData>
       <Medias>
        <StitchedMedia id="26" start="0" duration="1521" scalar="1/1" mediaStart="0/1" mediaDuration="1521/1" minMediaStart="0/1" >
         <Transformer>
          <VectorParam id="27"  name="translation">
           <InterpolatingParam id="28" interp="linr"  time="0/1" value="0" leadInLength="0/1"  />
           <InterpolatingParam id="29" interp="linr"  time="0/1" value="0" leadInLength="0/1"  />
           <InterpolatingParam id="30" interp="linr"  time="0/1" value="0" leadInLength="0/1"  />
          </VectorParam>
          <VectorParam id="31"  name="rotation">
           <InterpolatingParam id="32" interp="linr"  time="0/1" value="0" leadInLength="0/1"  />
           <InterpolatingParam id="33" interp="linr"  time="0/1" value="0" leadInLength="0/1"  />
           <InterpolatingParam id="34" interp="linr"  time="0/1" value="0" leadInLength="0/1"  />
          </VectorParam>
          <VectorParam id="35"  name="shear">
           <InterpolatingParam id="36" interp="linr"  time="0/1" value="0" leadInLength="0/1"  />
           <InterpolatingParam id="37" interp="linr"  time="0/1" value="0" leadInLength="0/1"  />
           <InterpolatingParam id="38" interp="linr"  time="0/1" value="0" leadInLength="0/1"  />
          </VectorParam>
          <VectorParam id="39"  name="scale">
           <InterpolatingParam id="40" interp="linr"  time="0/1" value="1" leadInLength="0/1"  />
           <InterpolatingParam id="41" interp="linr"  time="0/1" value="1" leadInLength="0/1"  />
           <InterpolatingParam id="42" interp="linr"  time="0/1" value="1" leadInLength="0/1"  />
          </VectorParam>
          <VectorParam id="43"  name="anchor">
           <InterpolatingParam id="44" interp="linr"  time="0/1" value="0" leadInLength="0/1"  />
           <InterpolatingParam id="45" interp="linr"  time="0/1" value="0" leadInLength="0/1"  />
           <InterpolatingParam id="46" interp="linr"  time="0/1" value="0" leadInLength="0/1"  />
          </VectorParam>
         </Transformer>
         <Parameters>
          <InterpolatingParam id="47" interp="linr"  time="0/1" value="1" leadInLength="0/1"  name="cursorOpacity"/>
          <InterpolatingParam id="48" interp="linr"  time="0/1" value="1" leadInLength="0/1"  name="cursorScale"/>
          <InterpolatingParam id="49" interp="linr"  time="0/1" value="1" leadInLength="0/1"  name="volume"/>
          <Parameter id="50"  name="captions"/>
         </Parameters>
         <Attributes>
          <Attribute id="51" value="" name="ident"/>
          <Attribute id="52" value="0" name="mixToMono"/>
         </Attributes>
         <MetaData>
          <entry key="WinSubProjectDisplayName" val=""/>
         </MetaData>
         <ExtraData>
          <Entry key="ZoomPanBin">
           <ZoomPanBin id="53"  >
            <ZoomPanKeyframes>
            </ZoomPanKeyframes>
           </ZoomPanBin>
          </Entry>
          <Entry key="CursorEffectBin">
           <CursorEffectBin id="54"  >
            <CursorEffectKeyframes>
            </CursorEffectKeyframes>
           </CursorEffectBin>
          </Entry>
         </ExtraData>
         <GenericTrack id="55"  >
          <Attributes>
           <Attribute id="56" value="" name="ident"/>
           <Attribute id="57" value="0" name="audioMuted"/>
           <Attribute id="58" value="0" name="videoHidden"/>
          </Attributes>
          <MetaData>
           <entry key="IsLocked" val="False"/>
           <entry key="WinTrackHeight" val="0"/>
          </MetaData>
          <Medias>
           <AMFile id="59" start="0" duration="1166" scalar="1/1" mediaStart="0/1" mediaDuration="1166/1" trackNumber="2" src="4" channelNumber="0,1" >
            <Parameters>
             <InterpolatingParam id="60" interp="linr"  time="0/1" value="1" leadInLength="0/1"  name="volume"/>
             <Parameter id="61"  name="captions"/>
            </Parameters>
            <Attributes>
             <Attribute id="62" value="" name="ident"/>
             <Attribute id="63" value="44100" name="sampleRate"/>
             <Attribute id="64" value="16" name="bitDepth"/>
             <Attribute id="65" value="1" name="gain"/>
             <Attribute id="66" value="0" name="mixToMono"/>
            </Attributes>
            <MetaData>
             <entry key="WinSubProjectDisplayName" val=""/>
            </MetaData>
           </AMFile>
           <AMFile id="67" start="1166" duration="217" scalar="1/1" mediaStart="1203/1" mediaDuration="217/1" trackNumber="2" src="4" channelNumber="0,1" >
            <Parameters>
             <InterpolatingParam id="68" interp="linr"  time="0/1" value="1" leadInLength="0/1"  name="volume"/>
             <Parameter id="69"  name="captions"/>
            </Parameters>
            <Attributes>
             <Attribute id="70" value="" name="ident"/>
             <Attribute id="71" value="44100" name="sampleRate"/>
             <Attribute id="72" value="16" name="bitDepth"/>
             <Attribute id="73" value="1" name="gain"/>
             <Attribute id="74" value="0" name="mixToMono"/>
            </Attributes>
            <MetaData>
             <entry key="WinSubProjectDisplayName" val=""/>
            </MetaData>
           </AMFile>
           <AMFile id="75" start="1383" duration="203" scalar="1/1" mediaStart="1447/1" mediaDuration="203/1" trackNumber="2" src="4" channelNumber="0,1" >
            <Parameters>
             <InterpolatingParam id="76" interp="linr"  time="0/1" value="1" leadInLength="0/1"  name="volume"/>
             <Parameter id="77"  name="captions"/>
            </Parameters>
            <Attributes>
             <Attribute id="78" value="" name="ident"/>
             <Attribute id="79" value="44100" name="sampleRate"/>
             <Attribute id="80" value="16" name="bitDepth"/>
             <Attribute id="81" value="1" name="gain"/>
             <Attribute id="82" value="0" name="mixToMono"/>
            </Attributes>
            <MetaData>
             <entry key="WinSubProjectDisplayName" val=""/>
            </MetaData>
           </AMFile>
          </Medias>
         </GenericTrack>
        </StitchedMedia>
        <AMFile id="83" start="1521" duration="1154" scalar="1/1" mediaStart="0/1" mediaDuration="1154/1" trackNumber="2" src="5" channelNumber="0,1" >
         <Parameters>
          <InterpolatingParam id="84" interp="linr"  time="0/1" value="1" leadInLength="0/1"  name="volume"/>
          <Parameter id="85"  name="captions"/>
         </Parameters>
         <Attributes>
          <Attribute id="86" value="" name="ident"/>
          <Attribute id="87" value="44100" name="sampleRate"/>
          <Attribute id="88" value="16" name="bitDepth"/>
          <Attribute id="89" value="1" name="gain"/>
          <Attribute id="90" value="0" name="mixToMono"/>
         </Attributes>
         <MetaData>
          <entry key="WinSubProjectDisplayName" val=""/>
         </MetaData>
        </AMFile>
        <StitchedMedia id="91" start="2675" duration="2645" scalar="1/1" mediaStart="20/1" mediaDuration="2645/1" minMediaStart="0/1" >
         <Transformer>
          <VectorParam id="92"  name="translation">
           <InterpolatingParam id="93" interp="linr"  time="0/1" value="0" leadInLength="0/1"  />
           <InterpolatingParam id="94" interp="linr"  time="0/1" value="0" leadInLength="0/1"  />
           <InterpolatingParam id="95" interp="linr"  time="0/1" value="0" leadInLength="0/1"  />
          </VectorParam>
          <VectorParam id="96"  name="rotation">
           <InterpolatingParam id="97" interp="linr"  time="0/1" value="0" leadInLength="0/1"  />
           <InterpolatingParam id="98" interp="linr"  time="0/1" value="0" leadInLength="0/1"  />
           <InterpolatingParam id="99" interp="linr"  time="0/1" value="0" leadInLength="0/1"  />
          </VectorParam>
          <VectorParam id="100"  name="shear">
           <InterpolatingParam id="101" interp="linr"  time="0/1" value="0" leadInLength="0/1"  />
           <InterpolatingParam id="102" interp="linr"  time="0/1" value="0" leadInLength="0/1"  />
           <InterpolatingParam id="103" interp="linr"  time="0/1" value="0" leadInLength="0/1"  />
          </VectorParam>
          <VectorParam id="104"  name="scale">
           <InterpolatingParam id="105" interp="linr"  time="0/1" value="1" leadInLength="0/1"  />
           <InterpolatingParam id="106" interp="linr"  time="0/1" value="1" leadInLength="0/1"  />
           <InterpolatingParam id="107" interp="linr"  time="0/1" value="1" leadInLength="0/1"  />
          </VectorParam>
          <VectorParam id="108"  name="anchor">
           <InterpolatingParam id="109" interp="linr"  time="0/1" value="0" leadInLength="0/1"  />
           <InterpolatingParam id="110" interp="linr"  time="0/1" value="0" leadInLength="0/1"  />
           <InterpolatingParam id="111" interp="linr"  time="0/1" value="0" leadInLength="0/1"  />
          </VectorParam>
         </Transformer>
         <Parameters>
          <InterpolatingParam id="112" interp="linr"  time="0/1" value="1" leadInLength="0/1"  name="cursorOpacity"/>
          <InterpolatingParam id="113" interp="linr"  time="0/1" value="1" leadInLength="0/1"  name="cursorScale"/>
          <InterpolatingParam id="114" interp="linr"  time="0/1" value="1" leadInLength="0/1"  name="volume"/>
          <Parameter id="115"  name="captions"/>
         </Parameters>
         <Attributes>
          <Attribute id="116" value="" name="ident"/>
          <Attribute id="117" value="0" name="mixToMono"/>
         </Attributes>
         <MetaData>
          <entry key="WinSubProjectDisplayName" val=""/>
         </MetaData>
         <ExtraData>
          <Entry key="ZoomPanBin">
           <ZoomPanBin id="118"  >
            <ZoomPanKeyframes>
            </ZoomPanKeyframes>
           </ZoomPanBin>
          </Entry>
          <Entry key="CursorEffectBin">
           <CursorEffectBin id="119"  >
            <CursorEffectKeyframes>
            </CursorEffectKeyframes>
           </CursorEffectBin>
          </Entry>
         </ExtraData>
         <GenericTrack id="120"  >
          <Attributes>
           <Attribute id="121" value="" name="ident"/>
           <Attribute id="122" value="0" name="audioMuted"/>
           <Attribute id="123" value="0" name="videoHidden"/>
          </Attributes>
          <MetaData>
           <entry key="IsLocked" val="False"/>
           <entry key="WinTrackHeight" val="0"/>
          </MetaData>
          <Medias>
           <AMFile id="124" start="0" duration="1019" scalar="1/1" mediaStart="0/1" mediaDuration="1019/1" trackNumber="2" src="6" channelNumber="0,1" >
            <Parameters>
             <InterpolatingParam id="125" interp="linr"  time="0/1" value="1" leadInLength="0/1"  name="volume"/>
             <Parameter id="126"  name="captions"/>
            </Parameters>
            <Attributes>
             <Attribute id="127" value="" name="ident"/>
             <Attribute id="128" value="44100" name="sampleRate"/>
             <Attribute id="129" value="16" name="bitDepth"/>
             <Attribute id="130" value="1" name="gain"/>
             <Attribute id="131" value="0" name="mixToMono"/>
            </Attributes>
            <MetaData>
             <entry key="WinSubProjectDisplayName" val=""/>
            </MetaData>
           </AMFile>
           <AMFile id="132" start="1019" duration="735" scalar="1/1" mediaStart="1056/1" mediaDuration="735/1" trackNumber="2" src="6" channelNumber="0,1" >
            <Parameters>
             <InterpolatingParam id="133" interp="linr"  time="0/1" value="1" leadInLength="0/1"  name="volume"/>
             <Parameter id="134"  name="captions"/>
            </Parameters>
            <Attributes>
             <Attribute id="135" value="" name="ident"/>
             <Attribute id="136" value="44100" name="sampleRate"/>
             <Attribute id="137" value="16" name="bitDepth"/>
             <Attribute id="138" value="1" name="gain"/>
             <Attribute id="139" value="0" name="mixToMono"/>
            </Attributes>
            <MetaData>
             <entry key="WinSubProjectDisplayName" val=""/>
            </MetaData>
           </AMFile>
           <AMFile id="140" start="1754" duration="625" scalar="1/1" mediaStart="1814/1" mediaDuration="625/1" trackNumber="2" src="6" channelNumber="0,1" >
            <Parameters>
             <InterpolatingParam id="141" interp="linr"  time="0/1" value="1" leadInLength="0/1"  name="volume"/>
             <Parameter id="142"  name="captions"/>
            </Parameters>
            <Attributes>
             <Attribute id="143" value="" name="ident"/>
             <Attribute id="144" value="44100" name="sampleRate"/>
             <Attribute id="145" value="16" name="bitDepth"/>
             <Attribute id="146" value="1" name="gain"/>
             <Attribute id="147" value="0" name="mixToMono"/>
            </Attributes>
            <MetaData>
             <entry key="WinSubProjectDisplayName" val=""/>
            </MetaData>
           </AMFile>
           <AMFile id="148" start="2379" duration="106" scalar="1/1" mediaStart="2454/1" mediaDuration="106/1" trackNumber="2" src="6" channelNumber="0,1" >
            <Parameters>
             <InterpolatingParam id="149" interp="linr"  time="0/1" value="1" leadInLength="0/1"  name="volume"/>
             <Parameter id="150"  name="captions"/>
            </Parameters>
            <Attributes>
             <Attribute id="151" value="" name="ident"/>
             <Attribute id="152" value="44100" name="sampleRate"/>
             <Attribute id="153" value="16" name="bitDepth"/>
             <Attribute id="154" value="1" name="gain"/>
             <Attribute id="155" value="0" name="mixToMono"/>
            </Attributes>
            <MetaData>
             <entry key="WinSubProjectDisplayName" val=""/>
            </MetaData>
           </AMFile>
           <AMFile id="156" start="2485" duration="206" scalar="1/1" mediaStart="2585/1" mediaDuration="206/1" trackNumber="2" src="6" channelNumber="0,1" >
            <Parameters>
             <InterpolatingParam id="157" interp="linr"  time="0/1" value="1" leadInLength="0/1"  name="volume"/>
             <Parameter id="158"  name="captions"/>
            </Parameters>
            <Attributes>
             <Attribute id="159" value="" name="ident"/>
             <Attribute id="160" value="44100" name="sampleRate"/>
             <Attribute id="161" value="16" name="bitDepth"/>
             <Attribute id="162" value="1" name="gain"/>
             <Attribute id="163" value="0" name="mixToMono"/>
            </Attributes>
            <MetaData>
             <entry key="WinSubProjectDisplayName" val=""/>
            </MetaData>
           </AMFile>
          </Medias>
         </GenericTrack>
        </StitchedMedia>
        <StitchedMedia id="164" start="5320" duration="1919" scalar="1/1" mediaStart="7/1" mediaDuration="1919/1" minMediaStart="0/1" >
         <Transformer>
          <VectorParam id="165"  name="translation">
           <InterpolatingParam id="166" interp="linr"  time="0/1" value="0" leadInLength="0/1"  />
           <InterpolatingParam id="167" interp="linr"  time="0/1" value="0" leadInLength="0/1"  />
           <InterpolatingParam id="168" interp="linr"  time="0/1" value="0" leadInLength="0/1"  />
          </VectorParam>
          <VectorParam id="169"  name="rotation">
           <InterpolatingParam id="170" interp="linr"  time="0/1" value="0" leadInLength="0/1"  />
           <InterpolatingParam id="171" interp="linr"  time="0/1" value="0" leadInLength="0/1"  />
           <InterpolatingParam id="172" interp="linr"  time="0/1" value="0" leadInLength="0/1"  />
          </VectorParam>
          <VectorParam id="173"  name="shear">
           <InterpolatingParam id="174" interp="linr"  time="0/1" value="0" leadInLength="0/1"  />
           <InterpolatingParam id="175" interp="linr"  time="0/1" value="0" leadInLength="0/1"  />
           <InterpolatingParam id="176" interp="linr"  time="0/1" value="0" leadInLength="0/1"  />
          </VectorParam>
          <VectorParam id="177"  name="scale">
           <InterpolatingParam id="178" interp="linr"  time="0/1" value="1" leadInLength="0/1"  />
           <InterpolatingParam id="179" interp="linr"  time="0/1" value="1" leadInLength="0/1"  />
           <InterpolatingParam id="180" interp="linr"  time="0/1" value="1" leadInLength="0/1"  />
          </VectorParam>
          <VectorParam id="181"  name="anchor">
           <InterpolatingParam id="182" interp="linr"  time="0/1" value="0" leadInLength="0/1"  />
           <InterpolatingParam id="183" interp="linr"  time="0/1" value="0" leadInLength="0/1"  />
           <InterpolatingParam id="184" interp="linr"  time="0/1" value="0" leadInLength="0/1"  />
          </VectorParam>
         </Transformer>
         <Parameters>
          <InterpolatingParam id="185" interp="linr"  time="0/1" value="1" leadInLength="0/1"  name="cursorOpacity"/>
          <InterpolatingParam id="186" interp="linr"  time="0/1" value="1" leadInLength="0/1"  name="cursorScale"/>
          <InterpolatingParam id="187" interp="linr"  time="0/1" value="1" leadInLength="0/1"  name="volume"/>
          <Parameter id="188"  name="captions"/>
         </Parameters>
         <Attributes>
          <Attribute id="189" value="" name="ident"/>
          <Attribute id="190" value="0" name="mixToMono"/>
         </Attributes>
         <MetaData>
          <entry key="WinSubProjectDisplayName" val=""/>
         </MetaData>
         <ExtraData>
          <Entry key="ZoomPanBin">
           <ZoomPanBin id="191"  >
            <ZoomPanKeyframes>
            </ZoomPanKeyframes>
           </ZoomPanBin>
          </Entry>
          <Entry key="CursorEffectBin">
           <CursorEffectBin id="192"  >
            <CursorEffectKeyframes>
            </CursorEffectKeyframes>
           </CursorEffectBin>
          </Entry>
         </ExtraData>
         <GenericTrack id="193"  >
          <Attributes>
           <Attribute id="194" value="" name="ident"/>
           <Attribute id="195" value="0" name="audioMuted"/>
           <Attribute id="196" value="0" name="videoHidden"/>
          </Attributes>
          <MetaData>
           <entry key="IsLocked" val="False"/>
           <entry key="WinTrackHeight" val="0"/>
          </MetaData>
          <Medias>
           <AMFile id="197" start="0" duration="810" scalar="1/1" mediaStart="0/1" mediaDuration="810/1" trackNumber="2" src="7" channelNumber="0,1" >
            <Parameters>
             <InterpolatingParam id="198" interp="linr"  time="0/1" value="1" leadInLength="0/1"  name="volume"/>
             <Parameter id="199"  name="captions"/>
            </Parameters>
            <Attributes>
             <Attribute id="200" value="" name="ident"/>
             <Attribute id="201" value="44100" name="sampleRate"/>
             <Attribute id="202" value="16" name="bitDepth"/>
             <Attribute id="203" value="1" name="gain"/>
             <Attribute id="204" value="0" name="mixToMono"/>
            </Attributes>
            <MetaData>
             <entry key="WinSubProjectDisplayName" val=""/>
            </MetaData>
           </AMFile>
           <AMFile id="205" start="810" duration="20" scalar="1/1" mediaStart="816/1" mediaDuration="20/1" trackNumber="2" src="7" channelNumber="0,1" >
            <Parameters>
             <InterpolatingParam id="206" interp="linr"  time="0/1" value="1" leadInLength="0/1"  name="volume"/>
             <Parameter id="207"  name="captions"/>
            </Parameters>
            <Attributes>
             <Attribute id="208" value="" name="ident"/>
             <Attribute id="209" value="44100" name="sampleRate"/>
             <Attribute id="210" value="16" name="bitDepth"/>
             <Attribute id="211" value="1" name="gain"/>
             <Attribute id="212" value="0" name="mixToMono"/>
            </Attributes>
            <MetaData>
             <entry key="WinSubProjectDisplayName" val=""/>
            </MetaData>
           </AMFile>
           <AMFile id="213" start="830" duration="303" scalar="1/1" mediaStart="850/1" mediaDuration="303/1" trackNumber="2" src="7" channelNumber="0,1" >
            <Parameters>
             <InterpolatingParam id="214" interp="linr"  time="0/1" value="1" leadInLength="0/1"  name="volume"/>
             <Parameter id="215"  name="captions"/>
            </Parameters>
            <Attributes>
             <Attribute id="216" value="" name="ident"/>
             <Attribute id="217" value="44100" name="sampleRate"/>
             <Attribute id="218" value="16" name="bitDepth"/>
             <Attribute id="219" value="1" name="gain"/>
             <Attribute id="220" value="0" name="mixToMono"/>
            </Attributes>
            <MetaData>
             <entry key="WinSubProjectDisplayName" val=""/>
            </MetaData>
           </AMFile>
           <AMFile id="221" start="1133" duration="19" scalar="1/1" mediaStart="1166/1" mediaDuration="19/1" trackNumber="2" src="7" channelNumber="0,1" >
            <Parameters>
             <InterpolatingParam id="222" interp="linr"  time="0/1" value="1" leadInLength="0/1"  name="volume"/>
             <Parameter id="223"  name="captions"/>
            </Parameters>
            <Attributes>
             <Attribute id="224" value="" name="ident"/>
             <Attribute id="225" value="44100" name="sampleRate"/>
             <Attribute id="226" value="16" name="bitDepth"/>
             <Attribute id="227" value="1" name="gain"/>
             <Attribute id="228" value="0" name="mixToMono"/>
            </Attributes>
            <MetaData>
             <entry key="WinSubProjectDisplayName" val=""/>
            </MetaData>
           </AMFile>
           <AMFile id="229" start="1152" duration="864" scalar="1/1" mediaStart="1206/1" mediaDuration="864/1" trackNumber="2" src="7" channelNumber="0,1" >
            <Parameters>
             <InterpolatingParam id="230" interp="linr"  time="0/1" value="1" leadInLength="0/1"  name="volume"/>
             <Parameter id="231"  name="captions"/>
            </Parameters>
            <Attributes>
             <Attribute id="232" value="" name="ident"/>
             <Attribute id="233" value="44100" name="sampleRate"/>
             <Attribute id="234" value="16" name="bitDepth"/>
             <Attribute id="235" value="1" name="gain"/>
             <Attribute id="236" value="0" name="mixToMono"/>
            </Attributes>
            <MetaData>
             <entry key="WinSubProjectDisplayName" val=""/>
            </MetaData>
           </AMFile>
          </Medias>
         </GenericTrack>
        </StitchedMedia>
        <StitchedMedia id="237" start="7239" duration="2494" scalar="1/1" mediaStart="0/1" mediaDuration="2494/1" minMediaStart="0/1" >
         <Transformer>
          <VectorParam id="238"  name="translation">
           <InterpolatingParam id="239" interp="linr"  time="0/1" value="0" leadInLength="0/1"  />
           <InterpolatingParam id="240" interp="linr"  time="0/1" value="0" leadInLength="0/1"  />
           <InterpolatingParam id="241" interp="linr"  time="0/1" value="0" leadInLength="0/1"  />
          </VectorParam>
          <VectorParam id="242"  name="rotation">
           <InterpolatingParam id="243" interp="linr"  time="0/1" value="0" leadInLength="0/1"  />
           <InterpolatingParam id="244" interp="linr"  time="0/1" value="0" leadInLength="0/1"  />
           <InterpolatingParam id="245" interp="linr"  time="0/1" value="0" leadInLength="0/1"  />
          </VectorParam>
          <VectorParam id="246"  name="shear">
           <InterpolatingParam id="247" interp="linr"  time="0/1" value="0" leadInLength="0/1"  />
           <InterpolatingParam id="248" interp="linr"  time="0/1" value="0" leadInLength="0/1"  />
           <InterpolatingParam id="249" interp="linr"  time="0/1" value="0" leadInLength="0/1"  />
          </VectorParam>
          <VectorParam id="250"  name="scale">
           <InterpolatingParam id="251" interp="linr"  time="0/1" value="1" leadInLength="0/1"  />
           <InterpolatingParam id="252" interp="linr"  time="0/1" value="1" leadInLength="0/1"  />
           <InterpolatingParam id="253" interp="linr"  time="0/1" value="1" leadInLength="0/1"  />
          </VectorParam>
          <VectorParam id="254"  name="anchor">
           <InterpolatingParam id="255" interp="linr"  time="0/1" value="0" leadInLength="0/1"  />
           <InterpolatingParam id="256" interp="linr"  time="0/1" value="0" leadInLength="0/1"  />
           <InterpolatingParam id="257" interp="linr"  time="0/1" value="0" leadInLength="0/1"  />
          </VectorParam>
         </Transformer>
         <Parameters>
          <InterpolatingParam id="258" interp="linr"  time="0/1" value="1" leadInLength="0/1"  name="cursorOpacity"/>
          <InterpolatingParam id="259" interp="linr"  time="0/1" value="1" leadInLength="0/1"  name="cursorScale"/>
          <InterpolatingParam id="260" interp="linr"  time="0/1" value="1" leadInLength="0/1"  name="volume"/>
          <Parameter id="261"  name="captions"/>
         </Parameters>
         <Attributes>
          <Attribute id="262" value="" name="ident"/>
          <Attribute id="263" value="0" name="mixToMono"/>
         </Attributes>
         <MetaData>
          <entry key="WinSubProjectDisplayName" val=""/>
         </MetaData>
         <ExtraData>
          <Entry key="ZoomPanBin">
           <ZoomPanBin id="264"  >
            <ZoomPanKeyframes>
            </ZoomPanKeyframes>
           </ZoomPanBin>
          </Entry>
          <Entry key="CursorEffectBin">
           <CursorEffectBin id="265"  >
            <CursorEffectKeyframes>
            </CursorEffectKeyframes>
           </CursorEffectBin>
          </Entry>
         </ExtraData>
         <GenericTrack id="266"  >
          <Attributes>
           <Attribute id="267" value="" name="ident"/>
           <Attribute id="268" value="0" name="audioMuted"/>
           <Attribute id="269" value="0" name="videoHidden"/>
          </Attributes>
          <MetaData>
           <entry key="IsLocked" val="False"/>
           <entry key="WinTrackHeight" val="0"/>
          </MetaData>
          <Medias>
           <AMFile id="270" start="0" duration="396" scalar="1/1" mediaStart="0/1" mediaDuration="396/1" trackNumber="2" src="8" channelNumber="0,1" >
            <Parameters>
             <InterpolatingParam id="271" interp="linr"  time="0/1" value="1" leadInLength="0/1"  name="volume"/>
             <Parameter id="272"  name="captions"/>
            </Parameters>
            <Attributes>
             <Attribute id="273" value="" name="ident"/>
             <Attribute id="274" value="44100" name="sampleRate"/>
             <Attribute id="275" value="16" name="bitDepth"/>
             <Attribute id="276" value="1" name="gain"/>
             <Attribute id="277" value="0" name="mixToMono"/>
            </Attributes>
            <MetaData>
             <entry key="WinSubProjectDisplayName" val=""/>
            </MetaData>
           </AMFile>
           <AMFile id="278" start="396" duration="417" scalar="1/1" mediaStart="435/1" mediaDuration="417/1" trackNumber="2" src="8" channelNumber="0,1" >
            <Parameters>
             <InterpolatingParam id="279" interp="linr"  time="0/1" value="1" leadInLength="0/1"  name="volume"/>
             <Parameter id="280"  name="captions"/>
            </Parameters>
            <Attributes>
             <Attribute id="281" value="" name="ident"/>
             <Attribute id="282" value="44100" name="sampleRate"/>
             <Attribute id="283" value="16" name="bitDepth"/>
             <Attribute id="284" value="1" name="gain"/>
             <Attribute id="285" value="0" name="mixToMono"/>
            </Attributes>
            <MetaData>
             <entry key="WinSubProjectDisplayName" val=""/>
            </MetaData>
           </AMFile>
           <AMFile id="286" start="813" duration="175" scalar="1/1" mediaStart="882/1" mediaDuration="175/1" trackNumber="2" src="8" channelNumber="0,1" >
            <Parameters>
             <InterpolatingParam id="287" interp="linr"  time="0/1" value="1" leadInLength="0/1"  name="volume"/>
             <Parameter id="288"  name="captions"/>
            </Parameters>
            <Attributes>
             <Attribute id="289" value="" name="ident"/>
             <Attribute id="290" value="44100" name="sampleRate"/>
             <Attribute id="291" value="16" name="bitDepth"/>
             <Attribute id="292" value="1" name="gain"/>
             <Attribute id="293" value="0" name="mixToMono"/>
            </Attributes>
            <MetaData>
             <entry key="WinSubProjectDisplayName" val=""/>
            </MetaData>
           </AMFile>
           <AMFile id="294" start="988" duration="31" scalar="1/1" mediaStart="1109/1" mediaDuration="31/1" trackNumber="2" src="8" channelNumber="0,1" >
            <Parameters>
             <InterpolatingParam id="295" interp="linr"  time="0/1" value="1" leadInLength="0/1"  name="volume"/>
             <Parameter id="296"  name="captions"/>
            </Parameters>
            <Attributes>
             <Attribute id="297" value="" name="ident"/>
             <Attribute id="298" value="44100" name="sampleRate"/>
             <Attribute id="299" value="16" name="bitDepth"/>
             <Attribute id="300" value="1" name="gain"/>
             <Attribute id="301" value="0" name="mixToMono"/>
            </Attributes>
            <MetaData>
             <entry key="WinSubProjectDisplayName" val=""/>
            </MetaData>
           </AMFile>
           <AMFile id="302" start="1019" duration="37" scalar="1/1" mediaStart="1158/1" mediaDuration="37/1" trackNumber="2" src="8" channelNumber="0,1" >
            <Parameters>
             <InterpolatingParam id="303" interp="linr"  time="0/1" value="1" leadInLength="0/1"  name="volume"/>
             <Parameter id="304"  name="captions"/>
            </Parameters>
            <Attributes>
             <Attribute id="305" value="" name="ident"/>
             <Attribute id="306" value="44100" name="sampleRate"/>
             <Attribute id="307" value="16" name="bitDepth"/>
             <Attribute id="308" value="1" name="gain"/>
             <Attribute id="309" value="0" name="mixToMono"/>
            </Attributes>
            <MetaData>
             <entry key="WinSubProjectDisplayName" val=""/>
            </MetaData>
           </AMFile>
           <AMFile id="310" start="1056" duration="686" scalar="1/1" mediaStart="1216/1" mediaDuration="686/1" trackNumber="2" src="8" channelNumber="0,1" >
            <Parameters>
             <InterpolatingParam id="311" interp="linr"  time="0/1" value="1" leadInLength="0/1"  name="volume"/>
             <Parameter id="312"  name="captions"/>
            </Parameters>
            <Attributes>
             <Attribute id="313" value="" name="ident"/>
             <Attribute id="314" value="44100" name="sampleRate"/>
             <Attribute id="315" value="16" name="bitDepth"/>
             <Attribute id="316" value="1" name="gain"/>
             <Attribute id="317" value="0" name="mixToMono"/>
            </Attributes>
            <MetaData>
             <entry key="WinSubProjectDisplayName" val=""/>
            </MetaData>
           </AMFile>
           <AMFile id="318" start="1742" duration="274" scalar="1/1" mediaStart="1933/1" mediaDuration="274/1" trackNumber="2" src="8" channelNumber="0,1" >
            <Parameters>
             <InterpolatingParam id="319" interp="linr"  time="0/1" value="1" leadInLength="0/1"  name="volume"/>
             <Parameter id="320"  name="captions"/>
            </Parameters>
            <Attributes>
             <Attribute id="321" value="" name="ident"/>
             <Attribute id="322" value="44100" name="sampleRate"/>
             <Attribute id="323" value="16" name="bitDepth"/>
             <Attribute id="324" value="1" name="gain"/>
             <Attribute id="325" value="0" name="mixToMono"/>
            </Attributes>
            <MetaData>
             <entry key="WinSubProjectDisplayName" val=""/>
            </MetaData>
           </AMFile>
           <AMFile id="326" start="2016" duration="36" scalar="1/1" mediaStart="2234/1" mediaDuration="36/1" trackNumber="2" src="8" channelNumber="0,1" >
            <Parameters>
             <InterpolatingParam id="327" interp="linr"  time="0/1" value="1" leadInLength="0/1"  name="volume"/>
             <Parameter id="328"  name="captions"/>
            </Parameters>
            <Attributes>
             <Attribute id="329" value="" name="ident"/>
             <Attribute id="330" value="44100" name="sampleRate"/>
             <Attribute id="331" value="16" name="bitDepth"/>
             <Attribute id="332" value="1" name="gain"/>
             <Attribute id="333" value="0" name="mixToMono"/>
            </Attributes>
            <MetaData>
             <entry key="WinSubProjectDisplayName" val=""/>
            </MetaData>
           </AMFile>
           <AMFile id="334" start="2052" duration="309" scalar="1/1" mediaStart="2304/1" mediaDuration="309/1" trackNumber="2" src="8" channelNumber="0,1" >
            <Parameters>
             <InterpolatingParam id="335" interp="linr"  time="0/1" value="1" leadInLength="0/1"  name="volume"/>
             <Parameter id="336"  name="captions"/>
            </Parameters>
            <Attributes>
             <Attribute id="337" value="" name="ident"/>
             <Attribute id="338" value="44100" name="sampleRate"/>
             <Attribute id="339" value="16" name="bitDepth"/>
             <Attribute id="340" value="1" name="gain"/>
             <Attribute id="341" value="0" name="mixToMono"/>
            </Attributes>
            <MetaData>
             <entry key="WinSubProjectDisplayName" val=""/>
            </MetaData>
           </AMFile>
           <AMFile id="342" start="2361" duration="159" scalar="1/1" mediaStart="2632/1" mediaDuration="159/1" trackNumber="2" src="8" channelNumber="0,1" >
            <Parameters>
             <InterpolatingParam id="343" interp="linr"  time="0/1" value="1" leadInLength="0/1"  name="volume"/>
             <Parameter id="344"  name="captions"/>
            </Parameters>
            <Attributes>
             <Attribute id="345" value="" name="ident"/>
             <Attribute id="346" value="44100" name="sampleRate"/>
             <Attribute id="347" value="16" name="bitDepth"/>
             <Attribute id="348" value="1" name="gain"/>
             <Attribute id="349" value="0" name="mixToMono"/>
            </Attributes>
            <MetaData>
             <entry key="WinSubProjectDisplayName" val=""/>
            </MetaData>
           </AMFile>
          </Medias>
         </GenericTrack>
        </StitchedMedia>
        <StitchedMedia id="350" start="9733" duration="1275" scalar="1/1" mediaStart="0/1" mediaDuration="1275/1" minMediaStart="0/1" >
         <Transformer>
          <VectorParam id="351"  name="translation">
           <InterpolatingParam id="352" interp="linr"  time="0/1" value="0" leadInLength="0/1"  />
           <InterpolatingParam id="353" interp="linr"  time="0/1" value="0" leadInLength="0/1"  />
           <InterpolatingParam id="354" interp="linr"  time="0/1" value="0" leadInLength="0/1"  />
          </VectorParam>
          <VectorParam id="355"  name="rotation">
           <InterpolatingParam id="356" interp="linr"  time="0/1" value="0" leadInLength="0/1"  />
           <InterpolatingParam id="357" interp="linr"  time="0/1" value="0" leadInLength="0/1"  />
           <InterpolatingParam id="358" interp="linr"  time="0/1" value="0" leadInLength="0/1"  />
          </VectorParam>
          <VectorParam id="359"  name="shear">
           <InterpolatingParam id="360" interp="linr"  time="0/1" value="0" leadInLength="0/1"  />
           <InterpolatingParam id="361" interp="linr"  time="0/1" value="0" leadInLength="0/1"  />
           <InterpolatingParam id="362" interp="linr"  time="0/1" value="0" leadInLength="0/1"  />
          </VectorParam>
          <VectorParam id="363"  name="scale">
           <InterpolatingParam id="364" interp="linr"  time="0/1" value="1" leadInLength="0/1"  />
           <InterpolatingParam id="365" interp="linr"  time="0/1" value="1" leadInLength="0/1"  />
           <InterpolatingParam id="366" interp="linr"  time="0/1" value="1" leadInLength="0/1"  />
          </VectorParam>
          <VectorParam id="367"  name="anchor">
           <InterpolatingParam id="368" interp="linr"  time="0/1" value="0" leadInLength="0/1"  />
           <InterpolatingParam id="369" interp="linr"  time="0/1" value="0" leadInLength="0/1"  />
           <InterpolatingParam id="370" interp="linr"  time="0/1" value="0" leadInLength="0/1"  />
          </VectorParam>
         </Transformer>
         <Parameters>
          <InterpolatingParam id="371" interp="linr"  time="0/1" value="1" leadInLength="0/1"  name="cursorOpacity"/>
          <InterpolatingParam id="372" interp="linr"  time="0/1" value="1" leadInLength="0/1"  name="cursorScale"/>
          <InterpolatingParam id="373" interp="linr"  time="0/1" value="1" leadInLength="0/1"  name="volume"/>
          <Parameter id="374"  name="captions"/>
         </Parameters>
         <Attributes>
          <Attribute id="375" value="" name="ident"/>
          <Attribute id="376" value="0" name="mixToMono"/>
         </Attributes>
         <MetaData>
          <entry key="WinSubProjectDisplayName" val=""/>
         </MetaData>
         <ExtraData>
          <Entry key="ZoomPanBin">
           <ZoomPanBin id="377"  >
            <ZoomPanKeyframes>
            </ZoomPanKeyframes>
           </ZoomPanBin>
          </Entry>
          <Entry key="CursorEffectBin">
           <CursorEffectBin id="378"  >
            <CursorEffectKeyframes>
            </CursorEffectKeyframes>
           </CursorEffectBin>
          </Entry>
         </ExtraData>
         <GenericTrack id="379"  >
          <Attributes>
           <Attribute id="380" value="" name="ident"/>
           <Attribute id="381" value="0" name="audioMuted"/>
           <Attribute id="382" value="0" name="videoHidden"/>
          </Attributes>
          <MetaData>
           <entry key="IsLocked" val="False"/>
           <entry key="WinTrackHeight" val="0"/>
          </MetaData>
          <Medias>
           <AMFile id="383" start="0" duration="149" scalar="1/1" mediaStart="0/1" mediaDuration="149/1" trackNumber="2" src="9" channelNumber="0,1" >
            <Parameters>
             <InterpolatingParam id="384" interp="linr"  time="0/1" value="1" leadInLength="0/1"  name="volume"/>
             <Parameter id="385"  name="captions"/>
            </Parameters>
            <Attributes>
             <Attribute id="386" value="" name="ident"/>
             <Attribute id="387" value="44100" name="sampleRate"/>
             <Attribute id="388" value="16" name="bitDepth"/>
             <Attribute id="389" value="1" name="gain"/>
             <Attribute id="390" value="0" name="mixToMono"/>
            </Attributes>
            <MetaData>
             <entry key="WinSubProjectDisplayName" val=""/>
            </MetaData>
           </AMFile>
           <AMFile id="391" start="149" duration="216" scalar="1/1" mediaStart="158/1" mediaDuration="216/1" trackNumber="2" src="9" channelNumber="0,1" >
            <Parameters>
             <InterpolatingParam id="392" interp="linr"  time="0/1" value="1" leadInLength="0/1"  name="volume"/>
             <Parameter id="393"  name="captions"/>
            </Parameters>
            <Attributes>
             <Attribute id="394" value="" name="ident"/>
             <Attribute id="395" value="44100" name="sampleRate"/>
             <Attribute id="396" value="16" name="bitDepth"/>
             <Attribute id="397" value="1" name="gain"/>
             <Attribute id="398" value="0" name="mixToMono"/>
            </Attributes>
            <MetaData>
             <entry key="WinSubProjectDisplayName" val=""/>
            </MetaData>
           </AMFile>
           <AMFile id="399" start="365" duration="337" scalar="1/1" mediaStart="381/1" mediaDuration="337/1" trackNumber="2" src="9" channelNumber="0,1" >
            <Parameters>
             <InterpolatingParam id="400" interp="linr"  time="0/1" value="1" leadInLength="0/1"  name="volume"/>
             <Parameter id="401"  name="captions"/>
            </Parameters>
            <Attributes>
             <Attribute id="402" value="" name="ident"/>
             <Attribute id="403" value="44100" name="sampleRate"/>
             <Attribute id="404" value="16" name="bitDepth"/>
             <Attribute id="405" value="1" name="gain"/>
             <Attribute id="406" value="0" name="mixToMono"/>
            </Attributes>
            <MetaData>
             <entry key="WinSubProjectDisplayName" val=""/>
            </MetaData>
           </AMFile>
           <AMFile id="407" start="702" duration="187" scalar="1/1" mediaStart="742/1" mediaDuration="187/1" trackNumber="2" src="9" channelNumber="0,1" >
            <Parameters>
             <InterpolatingParam id="408" interp="linr"  time="0/1" value="1" leadInLength="0/1"  name="volume"/>
             <Parameter id="409"  name="captions"/>
            </Parameters>
            <Attributes>
             <Attribute id="410" value="" name="ident"/>
             <Attribute id="411" value="44100" name="sampleRate"/>
             <Attribute id="412" value="16" name="bitDepth"/>
             <Attribute id="413" value="1" name="gain"/>
             <Attribute id="414" value="0" name="mixToMono"/>
            </Attributes>
            <MetaData>
             <entry key="WinSubProjectDisplayName" val=""/>
            </MetaData>
           </AMFile>
           <AMFile id="415" start="889" duration="91" scalar="1/1" mediaStart="969/1" mediaDuration="91/1" trackNumber="2" src="9" channelNumber="0,1" >
            <Parameters>
             <InterpolatingParam id="416" interp="linr"  time="0/1" value="1" leadInLength="0/1"  name="volume"/>
             <Parameter id="417"  name="captions"/>
            </Parameters>
            <Attributes>
             <Attribute id="418" value="" name="ident"/>
             <Attribute id="419" value="44100" name="sampleRate"/>
             <Attribute id="420" value="16" name="bitDepth"/>
             <Attribute id="421" value="1" name="gain"/>
             <Attribute id="422" value="0" name="mixToMono"/>
            </Attributes>
            <MetaData>
             <entry key="WinSubProjectDisplayName" val=""/>
            </MetaData>
           </AMFile>
           <AMFile id="423" start="980" duration="519" scalar="1/1" mediaStart="1101/1" mediaDuration="519/1" trackNumber="2" src="9" channelNumber="0,1" >
            <Parameters>
             <InterpolatingParam id="424" interp="linr"  time="0/1" value="1" leadInLength="0/1"  name="volume"/>
             <Parameter id="425"  name="captions"/>
            </Parameters>
            <Attributes>
             <Attribute id="426" value="" name="ident"/>
             <Attribute id="427" value="44100" name="sampleRate"/>
             <Attribute id="428" value="16" name="bitDepth"/>
             <Attribute id="429" value="1" name="gain"/>
             <Attribute id="430" value="0" name="mixToMono"/>
            </Attributes>
            <MetaData>
             <entry key="WinSubProjectDisplayName" val=""/>
            </MetaData>
           </AMFile>
          </Medias>
         </GenericTrack>
        </StitchedMedia>
        <StitchedMedia id="431" start="11008" duration="1726" scalar="1/1" mediaStart="0/1" mediaDuration="1726/1" minMediaStart="0/1" >
         <Transformer>
          <VectorParam id="432"  name="translation">
           <InterpolatingParam id="433" interp="linr"  time="0/1" value="0" leadInLength="0/1"  />
           <InterpolatingParam id="434" interp="linr"  time="0/1" value="0" leadInLength="0/1"  />
           <InterpolatingParam id="435" interp="linr"  time="0/1" value="0" leadInLength="0/1"  />
          </VectorParam>
          <VectorParam id="436"  name="rotation">
           <InterpolatingParam id="437" interp="linr"  time="0/1" value="0" leadInLength="0/1"  />
           <InterpolatingParam id="438" interp="linr"  time="0/1" value="0" leadInLength="0/1"  />
           <InterpolatingParam id="439" interp="linr"  time="0/1" value="0" leadInLength="0/1"  />
          </VectorParam>
          <VectorParam id="440"  name="shear">
           <InterpolatingParam id="441" interp="linr"  time="0/1" value="0" leadInLength="0/1"  />
           <InterpolatingParam id="442" interp="linr"  time="0/1" value="0" leadInLength="0/1"  />
           <InterpolatingParam id="443" interp="linr"  time="0/1" value="0" leadInLength="0/1"  />
          </VectorParam>
          <VectorParam id="444"  name="scale">
           <InterpolatingParam id="445" interp="linr"  time="0/1" value="1" leadInLength="0/1"  />
           <InterpolatingParam id="446" interp="linr"  time="0/1" value="1" leadInLength="0/1"  />
           <InterpolatingParam id="447" interp="linr"  time="0/1" value="1" leadInLength="0/1"  />
          </VectorParam>
          <VectorParam id="448"  name="anchor">
           <InterpolatingParam id="449" interp="linr"  time="0/1" value="0" leadInLength="0/1"  />
           <InterpolatingParam id="450" interp="linr"  time="0/1" value="0" leadInLength="0/1"  />
           <InterpolatingParam id="451" interp="linr"  time="0/1" value="0" leadInLength="0/1"  />
          </VectorParam>
         </Transformer>
         <Parameters>
          <InterpolatingParam id="452" interp="linr"  time="0/1" value="1" leadInLength="0/1"  name="cursorOpacity"/>
          <InterpolatingParam id="453" interp="linr"  time="0/1" value="1" leadInLength="0/1"  name="cursorScale"/>
          <InterpolatingParam id="454" interp="linr"  time="0/1" value="1" leadInLength="0/1"  name="volume"/>
          <Parameter id="455"  name="captions"/>
         </Parameters>
         <Attributes>
          <Attribute id="456" value="" name="ident"/>
          <Attribute id="457" value="0" name="mixToMono"/>
         </Attributes>
         <MetaData>
          <entry key="WinSubProjectDisplayName" val=""/>
         </MetaData>
         <ExtraData>
          <Entry key="ZoomPanBin">
           <ZoomPanBin id="458"  >
            <ZoomPanKeyframes>
            </ZoomPanKeyframes>
           </ZoomPanBin>
          </Entry>
          <Entry key="CursorEffectBin">
           <CursorEffectBin id="459"  >
            <CursorEffectKeyframes>
            </CursorEffectKeyframes>
           </CursorEffectBin>
          </Entry>
         </ExtraData>
         <GenericTrack id="460"  >
          <Attributes>
           <Attribute id="461" value="" name="ident"/>
           <Attribute id="462" value="0" name="audioMuted"/>
           <Attribute id="463" value="0" name="videoHidden"/>
          </Attributes>
          <MetaData>
           <entry key="IsLocked" val="False"/>
           <entry key="WinTrackHeight" val="0"/>
          </MetaData>
          <Medias>
           <AMFile id="464" start="0" duration="203" scalar="1/1" mediaStart="0/1" mediaDuration="203/1" trackNumber="2" src="10" channelNumber="0,1" >
            <Parameters>
             <InterpolatingParam id="465" interp="linr"  time="0/1" value="1" leadInLength="0/1"  name="volume"/>
             <Parameter id="466"  name="captions"/>
            </Parameters>
            <Attributes>
             <Attribute id="467" value="" name="ident"/>
             <Attribute id="468" value="44100" name="sampleRate"/>
             <Attribute id="469" value="16" name="bitDepth"/>
             <Attribute id="470" value="1" name="gain"/>
             <Attribute id="471" value="0" name="mixToMono"/>
            </Attributes>
            <MetaData>
             <entry key="WinSubProjectDisplayName" val=""/>
            </MetaData>
           </AMFile>
           <AMFile id="472" start="203" duration="5" scalar="1/1" mediaStart="222/1" mediaDuration="5/1" trackNumber="2" src="10" channelNumber="0,1" >
            <Parameters>
             <InterpolatingParam id="473" interp="linr"  time="0/1" value="1" leadInLength="0/1"  name="volume"/>
             <Parameter id="474"  name="captions"/>
            </Parameters>
            <Attributes>
             <Attribute id="475" value="" name="ident"/>
             <Attribute id="476" value="44100" name="sampleRate"/>
             <Attribute id="477" value="16" name="bitDepth"/>
             <Attribute id="478" value="1" name="gain"/>
             <Attribute id="479" value="0" name="mixToMono"/>
            </Attributes>
            <MetaData>
             <entry key="WinSubProjectDisplayName" val=""/>
            </MetaData>
           </AMFile>
           <AMFile id="480" start="208" duration="91" scalar="1/1" mediaStart="263/1" mediaDuration="91/1" trackNumber="2" src="10" channelNumber="0,1" >
            <Parameters>
             <InterpolatingParam id="481" interp="linr"  time="0/1" value="1" leadInLength="0/1"  name="volume"/>
             <Parameter id="482"  name="captions"/>
            </Parameters>
            <Attributes>
             <Attribute id="483" value="" name="ident"/>
             <Attribute id="484" value="44100" name="sampleRate"/>
             <Attribute id="485" value="16" name="bitDepth"/>
             <Attribute id="486" value="1" name="gain"/>
             <Attribute id="487" value="0" name="mixToMono"/>
            </Attributes>
            <MetaData>
             <entry key="WinSubProjectDisplayName" val=""/>
            </MetaData>
           </AMFile>
           <AMFile id="488" start="299" duration="403" scalar="1/1" mediaStart="388/1" mediaDuration="403/1" trackNumber="2" src="10" channelNumber="0,1" >
            <Parameters>
             <InterpolatingParam id="489" interp="linr"  time="0/1" value="1" leadInLength="0/1"  name="volume"/>
             <Parameter id="490"  name="captions"/>
            </Parameters>
            <Attributes>
             <Attribute id="491" value="" name="ident"/>
             <Attribute id="492" value="44100" name="sampleRate"/>
             <Attribute id="493" value="16" name="bitDepth"/>
             <Attribute id="494" value="1" name="gain"/>
             <Attribute id="495" value="0" name="mixToMono"/>
            </Attributes>
            <MetaData>
             <entry key="WinSubProjectDisplayName" val=""/>
            </MetaData>
           </AMFile>
           <AMFile id="496" start="702" duration="132" scalar="1/1" mediaStart="838/1" mediaDuration="132/1" trackNumber="2" src="10" channelNumber="0,1" >
            <Parameters>
             <InterpolatingParam id="497" interp="linr"  time="0/1" value="1" leadInLength="0/1"  name="volume"/>
             <Parameter id="498"  name="captions"/>
            </Parameters>
            <Attributes>
             <Attribute id="499" value="" name="ident"/>
             <Attribute id="500" value="44100" name="sampleRate"/>
             <Attribute id="501" value="16" name="bitDepth"/>
             <Attribute id="502" value="1" name="gain"/>
             <Attribute id="503" value="0" name="mixToMono"/>
            </Attributes>
            <MetaData>
             <entry key="WinSubProjectDisplayName" val=""/>
            </MetaData>
           </AMFile>
           <AMFile id="504" start="834" duration="30" scalar="1/1" mediaStart="997/1" mediaDuration="30/1" trackNumber="2" src="10" channelNumber="0,1" >
            <Parameters>
             <InterpolatingParam id="505" interp="linr"  time="0/1" value="1" leadInLength="0/1"  name="volume"/>
             <Parameter id="506"  name="captions"/>
            </Parameters>
            <Attributes>
             <Attribute id="507" value="" name="ident"/>
             <Attribute id="508" value="44100" name="sampleRate"/>
             <Attribute id="509" value="16" name="bitDepth"/>
             <Attribute id="510" value="1" name="gain"/>
             <Attribute id="511" value="0" name="mixToMono"/>
            </Attributes>
            <MetaData>
             <entry key="WinSubProjectDisplayName" val=""/>
            </MetaData>
           </AMFile>
           <AMFile id="512" start="864" duration="42" scalar="1/1" mediaStart="1043/1" mediaDuration="42/1" trackNumber="2" src="10" channelNumber="0,1" >
            <Parameters>
             <InterpolatingParam id="513" interp="linr"  time="0/1" value="1" leadInLength="0/1"  name="volume"/>
             <Parameter id="514"  name="captions"/>
            </Parameters>
            <Attributes>
             <Attribute id="515" value="" name="ident"/>
             <Attribute id="516" value="44100" name="sampleRate"/>
             <Attribute id="517" value="16" name="bitDepth"/>
             <Attribute id="518" value="1" name="gain"/>
             <Attribute id="519" value="0" name="mixToMono"/>
            </Attributes>
            <MetaData>
             <entry key="WinSubProjectDisplayName" val=""/>
            </MetaData>
           </AMFile>
           <AMFile id="520" start="906" duration="4" scalar="1/1" mediaStart="1111/1" mediaDuration="4/1" trackNumber="2" src="10" channelNumber="0,1" >
            <Parameters>
             <InterpolatingParam id="521" interp="linr"  time="0/1" value="1" leadInLength="0/1"  name="volume"/>
             <Parameter id="522"  name="captions"/>
            </Parameters>
            <Attributes>
             <Attribute id="523" value="" name="ident"/>
             <Attribute id="524" value="44100" name="sampleRate"/>
             <Attribute id="525" value="16" name="bitDepth"/>
             <Attribute id="526" value="1" name="gain"/>
             <Attribute id="527" value="0" name="mixToMono"/>
            </Attributes>
            <MetaData>
             <entry key="WinSubProjectDisplayName" val=""/>
            </MetaData>
           </AMFile>
           <AMFile id="528" start="910" duration="225" scalar="1/1" mediaStart="1127/1" mediaDuration="225/1" trackNumber="2" src="10" channelNumber="0,1" >
            <Parameters>
             <InterpolatingParam id="529" interp="linr"  time="0/1" value="1" leadInLength="0/1"  name="volume"/>
             <Parameter id="530"  name="captions"/>
            </Parameters>
            <Attributes>
             <Attribute id="531" value="" name="ident"/>
             <Attribute id="532" value="44100" name="sampleRate"/>
             <Attribute id="533" value="16" name="bitDepth"/>
             <Attribute id="534" value="1" name="gain"/>
             <Attribute id="535" value="0" name="mixToMono"/>
            </Attributes>
            <MetaData>
             <entry key="WinSubProjectDisplayName" val=""/>
            </MetaData>
           </AMFile>
           <AMFile id="536" start="1135" duration="582" scalar="1/1" mediaStart="1366/1" mediaDuration="582/1" trackNumber="2" src="10" channelNumber="0,1" >
            <Parameters>
             <InterpolatingParam id="537" interp="linr"  time="0/1" value="1" leadInLength="0/1"  name="volume"/>
             <Parameter id="538"  name="captions"/>
            </Parameters>
            <Attributes>
             <Attribute id="539" value="" name="ident"/>
             <Attribute id="540" value="44100" name="sampleRate"/>
             <Attribute id="541" value="16" name="bitDepth"/>
             <Attribute id="542" value="1" name="gain"/>
             <Attribute id="543" value="0" name="mixToMono"/>
            </Attributes>
            <MetaData>
             <entry key="WinSubProjectDisplayName" val=""/>
            </MetaData>
           </AMFile>
           <AMFile id="544" start="1717" duration="26" scalar="1/1" mediaStart="1955/1" mediaDuration="26/1" trackNumber="2" src="10" channelNumber="0,1" >
            <Parameters>
             <InterpolatingParam id="545" interp="linr"  time="0/1" value="1" leadInLength="0/1"  name="volume"/>
             <Parameter id="546"  name="captions"/>
            </Parameters>
            <Attributes>
             <Attribute id="547" value="" name="ident"/>
             <Attribute id="548" value="44100" name="sampleRate"/>
             <Attribute id="549" value="16" name="bitDepth"/>
             <Attribute id="550" value="1" name="gain"/>
             <Attribute id="551" value="0" name="mixToMono"/>
            </Attributes>
            <MetaData>
             <entry key="WinSubProjectDisplayName" val=""/>
            </MetaData>
           </AMFile>
          </Medias>
         </GenericTrack>
        </StitchedMedia>
        <StitchedMedia id="552" start="12734" duration="1703" scalar="1/1" mediaStart="0/1" mediaDuration="1703/1" minMediaStart="0/1" >
         <Transformer>
          <VectorParam id="553"  name="translation">
           <InterpolatingParam id="554" interp="linr"  time="0/1" value="0" leadInLength="0/1"  />
           <InterpolatingParam id="555" interp="linr"  time="0/1" value="0" leadInLength="0/1"  />
           <InterpolatingParam id="556" interp="linr"  time="0/1" value="0" leadInLength="0/1"  />
          </VectorParam>
          <VectorParam id="557"  name="rotation">
           <InterpolatingParam id="558" interp="linr"  time="0/1" value="0" leadInLength="0/1"  />
           <InterpolatingParam id="559" interp="linr"  time="0/1" value="0" leadInLength="0/1"  />
           <InterpolatingParam id="560" interp="linr"  time="0/1" value="0" leadInLength="0/1"  />
          </VectorParam>
          <VectorParam id="561"  name="shear">
           <InterpolatingParam id="562" interp="linr"  time="0/1" value="0" leadInLength="0/1"  />
           <InterpolatingParam id="563" interp="linr"  time="0/1" value="0" leadInLength="0/1"  />
           <InterpolatingParam id="564" interp="linr"  time="0/1" value="0" leadInLength="0/1"  />
          </VectorParam>
          <VectorParam id="565"  name="scale">
           <InterpolatingParam id="566" interp="linr"  time="0/1" value="1" leadInLength="0/1"  />
           <InterpolatingParam id="567" interp="linr"  time="0/1" value="1" leadInLength="0/1"  />
           <InterpolatingParam id="568" interp="linr"  time="0/1" value="1" leadInLength="0/1"  />
          </VectorParam>
          <VectorParam id="569"  name="anchor">
           <InterpolatingParam id="570" interp="linr"  time="0/1" value="0" leadInLength="0/1"  />
           <InterpolatingParam id="571" interp="linr"  time="0/1" value="0" leadInLength="0/1"  />
           <InterpolatingParam id="572" interp="linr"  time="0/1" value="0" leadInLength="0/1"  />
          </VectorParam>
         </Transformer>
         <Parameters>
          <InterpolatingParam id="573" interp="linr"  time="0/1" value="1" leadInLength="0/1"  name="cursorOpacity"/>
          <InterpolatingParam id="574" interp="linr"  time="0/1" value="1" leadInLength="0/1"  name="cursorScale"/>
          <InterpolatingParam id="575" interp="linr"  time="0/1" value="1" leadInLength="0/1"  name="volume"/>
          <Parameter id="576"  name="captions"/>
         </Parameters>
         <Attributes>
          <Attribute id="577" value="" name="ident"/>
          <Attribute id="578" value="0" name="mixToMono"/>
         </Attributes>
         <MetaData>
          <entry key="WinSubProjectDisplayName" val=""/>
         </MetaData>
         <ExtraData>
          <Entry key="ZoomPanBin">
           <ZoomPanBin id="579"  >
            <ZoomPanKeyframes>
            </ZoomPanKeyframes>
           </ZoomPanBin>
          </Entry>
          <Entry key="CursorEffectBin">
           <CursorEffectBin id="580"  >
            <CursorEffectKeyframes>
            </CursorEffectKeyframes>
           </CursorEffectBin>
          </Entry>
         </ExtraData>
         <GenericTrack id="581"  >
          <Attributes>
           <Attribute id="582" value="" name="ident"/>
           <Attribute id="583" value="0" name="audioMuted"/>
           <Attribute id="584" value="0" name="videoHidden"/>
          </Attributes>
          <MetaData>
           <entry key="IsLocked" val="False"/>
           <entry key="WinTrackHeight" val="0"/>
          </MetaData>
          <Medias>
           <AMFile id="585" start="0" duration="619" scalar="1/1" mediaStart="0/1" mediaDuration="619/1" trackNumber="2" src="11" channelNumber="0,1" >
            <Parameters>
             <InterpolatingParam id="586" interp="linr"  time="0/1" value="1" leadInLength="0/1"  name="volume"/>
             <Parameter id="587"  name="captions"/>
            </Parameters>
            <Attributes>
             <Attribute id="588" value="" name="ident"/>
             <Attribute id="589" value="44100" name="sampleRate"/>
             <Attribute id="590" value="16" name="bitDepth"/>
             <Attribute id="591" value="1" name="gain"/>
             <Attribute id="592" value="0" name="mixToMono"/>
            </Attributes>
            <MetaData>
             <entry key="WinSubProjectDisplayName" val=""/>
            </MetaData>
           </AMFile>
           <AMFile id="593" start="619" duration="131" scalar="1/1" mediaStart="650/1" mediaDuration="131/1" trackNumber="2" src="11" channelNumber="0,1" >
            <Parameters>
             <InterpolatingParam id="594" interp="linr"  time="0/1" value="1" leadInLength="0/1"  name="volume"/>
             <Parameter id="595"  name="captions"/>
            </Parameters>
            <Attributes>
             <Attribute id="596" value="" name="ident"/>
             <Attribute id="597" value="44100" name="sampleRate"/>
             <Attribute id="598" value="16" name="bitDepth"/>
             <Attribute id="599" value="1" name="gain"/>
             <Attribute id="600" value="0" name="mixToMono"/>
            </Attributes>
            <MetaData>
             <entry key="WinSubProjectDisplayName" val=""/>
            </MetaData>
           </AMFile>
           <AMFile id="601" start="750" duration="95" scalar="1/1" mediaStart="809/1" mediaDuration="95/1" trackNumber="2" src="11" channelNumber="0,1" >
            <Parameters>
             <InterpolatingParam id="602" interp="linr"  time="0/1" value="1" leadInLength="0/1"  name="volume"/>
             <Parameter id="603"  name="captions"/>
            </Parameters>
            <Attributes>
             <Attribute id="604" value="" name="ident"/>
             <Attribute id="605" value="44100" name="sampleRate"/>
             <Attribute id="606" value="16" name="bitDepth"/>
             <Attribute id="607" value="1" name="gain"/>
             <Attribute id="608" value="0" name="mixToMono"/>
            </Attributes>
            <MetaData>
             <entry key="WinSubProjectDisplayName" val=""/>
            </MetaData>
           </AMFile>
           <AMFile id="609" start="845" duration="212" scalar="1/1" mediaStart="952/1" mediaDuration="212/1" trackNumber="2" src="11" channelNumber="0,1" >
            <Parameters>
             <InterpolatingParam id="610" interp="linr"  time="0/1" value="1" leadInLength="0/1"  name="volume"/>
             <Parameter id="611"  name="captions"/>
            </Parameters>
            <Attributes>
             <Attribute id="612" value="" name="ident"/>
             <Attribute id="613" value="44100" name="sampleRate"/>
             <Attribute id="614" value="16" name="bitDepth"/>
             <Attribute id="615" value="1" name="gain"/>
             <Attribute id="616" value="0" name="mixToMono"/>
            </Attributes>
            <MetaData>
             <entry key="WinSubProjectDisplayName" val=""/>
            </MetaData>
           </AMFile>
           <AMFile id="617" start="1057" duration="164" scalar="1/1" mediaStart="1190/1" mediaDuration="164/1" trackNumber="2" src="11" channelNumber="0,1" >
            <Parameters>
             <InterpolatingParam id="618" interp="linr"  time="0/1" value="1" leadInLength="0/1"  name="volume"/>
             <Parameter id="619"  name="captions"/>
            </Parameters>
            <Attributes>
             <Attribute id="620" value="" name="ident"/>
             <Attribute id="621" value="44100" name="sampleRate"/>
             <Attribute id="622" value="16" name="bitDepth"/>
             <Attribute id="623" value="1" name="gain"/>
             <Attribute id="624" value="0" name="mixToMono"/>
            </Attributes>
            <MetaData>
             <entry key="WinSubProjectDisplayName" val=""/>
            </MetaData>
           </AMFile>
           <AMFile id="625" start="1221" duration="416" scalar="1/1" mediaStart="1401/1" mediaDuration="416/1" trackNumber="2" src="11" channelNumber="0,1" >
            <Parameters>
             <InterpolatingParam id="626" interp="linr"  time="0/1" value="1" leadInLength="0/1"  name="volume"/>
             <Parameter id="627"  name="captions"/>
            </Parameters>
            <Attributes>
             <Attribute id="628" value="" name="ident"/>
             <Attribute id="629" value="44100" name="sampleRate"/>
             <Attribute id="630" value="16" name="bitDepth"/>
             <Attribute id="631" value="1" name="gain"/>
             <Attribute id="632" value="0" name="mixToMono"/>
            </Attributes>
            <MetaData>
             <entry key="WinSubProjectDisplayName" val=""/>
            </MetaData>
           </AMFile>
           <AMFile id="633" start="1637" duration="103" scalar="1/1" mediaStart="1848/1" mediaDuration="103/1" trackNumber="2" src="11" channelNumber="0,1" >
            <Parameters>
             <InterpolatingParam id="634" interp="linr"  time="0/1" value="1" leadInLength="0/1"  name="volume"/>
             <Parameter id="635"  name="captions"/>
            </Parameters>
            <Attributes>
             <Attribute id="636" value="" name="ident"/>
             <Attribute id="637" value="44100" name="sampleRate"/>
             <Attribute id="638" value="16" name="bitDepth"/>
             <Attribute id="639" value="1" name="gain"/>
             <Attribute id="640" value="0" name="mixToMono"/>
            </Attributes>
            <MetaData>
             <entry key="WinSubProjectDisplayName" val=""/>
            </MetaData>
           </AMFile>
          </Medias>
         </GenericTrack>
        </StitchedMedia>
        <StitchedMedia id="641" start="14437" duration="1502" scalar="1/1" mediaStart="42/1" mediaDuration="1502/1" minMediaStart="0/1" >
         <Transformer>
          <VectorParam id="642"  name="translation">
           <InterpolatingParam id="643" interp="linr"  time="0/1" value="0" leadInLength="0/1"  />
           <InterpolatingParam id="644" interp="linr"  time="0/1" value="0" leadInLength="0/1"  />
           <InterpolatingParam id="645" interp="linr"  time="0/1" value="0" leadInLength="0/1"  />
          </VectorParam>
          <VectorParam id="646"  name="rotation">
           <InterpolatingParam id="647" interp="linr"  time="0/1" value="0" leadInLength="0/1"  />
           <InterpolatingParam id="648" interp="linr"  time="0/1" value="0" leadInLength="0/1"  />
           <InterpolatingParam id="649" interp="linr"  time="0/1" value="0" leadInLength="0/1"  />
          </VectorParam>
          <VectorParam id="650"  name="shear">
           <InterpolatingParam id="651" interp="linr"  time="0/1" value="0" leadInLength="0/1"  />
           <InterpolatingParam id="652" interp="linr"  time="0/1" value="0" leadInLength="0/1"  />
           <InterpolatingParam id="653" interp="linr"  time="0/1" value="0" leadInLength="0/1"  />
          </VectorParam>
          <VectorParam id="654"  name="scale">
           <InterpolatingParam id="655" interp="linr"  time="0/1" value="1" leadInLength="0/1"  />
           <InterpolatingParam id="656" interp="linr"  time="0/1" value="1" leadInLength="0/1"  />
           <InterpolatingParam id="657" interp="linr"  time="0/1" value="1" leadInLength="0/1"  />
          </VectorParam>
          <VectorParam id="658"  name="anchor">
           <InterpolatingParam id="659" interp="linr"  time="0/1" value="0" leadInLength="0/1"  />
           <InterpolatingParam id="660" interp="linr"  time="0/1" value="0" leadInLength="0/1"  />
           <InterpolatingParam id="661" interp="linr"  time="0/1" value="0" leadInLength="0/1"  />
          </VectorParam>
         </Transformer>
         <Parameters>
          <InterpolatingParam id="662" interp="linr"  time="0/1" value="1" leadInLength="0/1"  name="cursorOpacity"/>
          <InterpolatingParam id="663" interp="linr"  time="0/1" value="1" leadInLength="0/1"  name="cursorScale"/>
          <InterpolatingParam id="664" interp="linr"  time="0/1" value="1" leadInLength="0/1"  name="volume"/>
          <Parameter id="665"  name="captions"/>
         </Parameters>
         <Attributes>
          <Attribute id="666" value="" name="ident"/>
          <Attribute id="667" value="0" name="mixToMono"/>
         </Attributes>
         <MetaData>
          <entry key="WinSubProjectDisplayName" val=""/>
         </MetaData>
         <ExtraData>
          <Entry key="ZoomPanBin">
           <ZoomPanBin id="668"  >
            <ZoomPanKeyframes>
            </ZoomPanKeyframes>
           </ZoomPanBin>
          </Entry>
          <Entry key="CursorEffectBin">
           <CursorEffectBin id="669"  >
            <CursorEffectKeyframes>
            </CursorEffectKeyframes>
           </CursorEffectBin>
          </Entry>
         </ExtraData>
         <GenericTrack id="670"  >
          <Attributes>
           <Attribute id="671" value="" name="ident"/>
           <Attribute id="672" value="0" name="audioMuted"/>
           <Attribute id="673" value="0" name="videoHidden"/>
          </Attributes>
          <MetaData>
           <entry key="IsLocked" val="False"/>
           <entry key="WinTrackHeight" val="0"/>
          </MetaData>
          <Medias>
           <AMFile id="674" start="0" duration="331" scalar="1/1" mediaStart="0/1" mediaDuration="331/1" trackNumber="2" src="12" channelNumber="0,1" >
            <Parameters>
             <InterpolatingParam id="675" interp="linr"  time="0/1" value="1" leadInLength="0/1"  name="volume"/>
             <Parameter id="676"  name="captions"/>
            </Parameters>
            <Attributes>
             <Attribute id="677" value="" name="ident"/>
             <Attribute id="678" value="44100" name="sampleRate"/>
             <Attribute id="679" value="16" name="bitDepth"/>
             <Attribute id="680" value="1" name="gain"/>
             <Attribute id="681" value="0" name="mixToMono"/>
            </Attributes>
            <MetaData>
             <entry key="WinSubProjectDisplayName" val=""/>
            </MetaData>
           </AMFile>
           <AMFile id="682" start="331" duration="412" scalar="1/1" mediaStart="345/1" mediaDuration="412/1" trackNumber="2" src="12" channelNumber="0,1" >
            <Parameters>
             <InterpolatingParam id="683" interp="linr"  time="0/1" value="1" leadInLength="0/1"  name="volume"/>
             <Parameter id="684"  name="captions"/>
            </Parameters>
            <Attributes>
             <Attribute id="685" value="" name="ident"/>
             <Attribute id="686" value="44100" name="sampleRate"/>
             <Attribute id="687" value="16" name="bitDepth"/>
             <Attribute id="688" value="1" name="gain"/>
             <Attribute id="689" value="0" name="mixToMono"/>
            </Attributes>
            <MetaData>
             <entry key="WinSubProjectDisplayName" val=""/>
            </MetaData>
           </AMFile>
           <AMFile id="690" start="743" duration="281" scalar="1/1" mediaStart="781/1" mediaDuration="281/1" trackNumber="2" src="12" channelNumber="0,1" >
            <Parameters>
             <InterpolatingParam id="691" interp="linr"  time="0/1" value="1" leadInLength="0/1"  name="volume"/>
             <Parameter id="692"  name="captions"/>
            </Parameters>
            <Attributes>
             <Attribute id="693" value="" name="ident"/>
             <Attribute id="694" value="44100" name="sampleRate"/>
             <Attribute id="695" value="16" name="bitDepth"/>
             <Attribute id="696" value="1" name="gain"/>
             <Attribute id="697" value="0" name="mixToMono"/>
            </Attributes>
            <MetaData>
             <entry key="WinSubProjectDisplayName" val=""/>
            </MetaData>
           </AMFile>
           <AMFile id="698" start="1024" duration="274" scalar="1/1" mediaStart="1082/1" mediaDuration="274/1" trackNumber="2" src="12" channelNumber="0,1" >
            <Parameters>
             <InterpolatingParam id="699" interp="linr"  time="0/1" value="1" leadInLength="0/1"  name="volume"/>
             <Parameter id="700"  name="captions"/>
            </Parameters>
            <Attributes>
             <Attribute id="701" value="" name="ident"/>
             <Attribute id="702" value="44100" name="sampleRate"/>
             <Attribute id="703" value="16" name="bitDepth"/>
             <Attribute id="704" value="1" name="gain"/>
             <Attribute id="705" value="0" name="mixToMono"/>
            </Attributes>
            <MetaData>
             <entry key="WinSubProjectDisplayName" val=""/>
            </MetaData>
           </AMFile>
           <AMFile id="706" start="1298" duration="249" scalar="1/1" mediaStart="1371/1" mediaDuration="249/1" trackNumber="2" src="12" channelNumber="0,1" >
            <Parameters>
             <InterpolatingParam id="707" interp="linr"  time="0/1" value="1" leadInLength="0/1"  name="volume"/>
             <Parameter id="708"  name="captions"/>
            </Parameters>
            <Attributes>
             <Attribute id="709" value="" name="ident"/>
             <Attribute id="710" value="44100" name="sampleRate"/>
             <Attribute id="711" value="16" name="bitDepth"/>
             <Attribute id="712" value="1" name="gain"/>
             <Attribute id="713" value="0" name="mixToMono"/>
            </Attributes>
            <MetaData>
             <entry key="WinSubProjectDisplayName" val=""/>
            </MetaData>
           </AMFile>
          </Medias>
         </GenericTrack>
        </StitchedMedia>
        <AMFile id="714" start="15939" duration="551" scalar="1/1" mediaStart="0/1" mediaDuration="551/1" trackNumber="2" src="13" channelNumber="0,1" >
         <Parameters>
          <InterpolatingParam id="715" interp="linr"  time="0/1" value="1" leadInLength="0/1"  name="volume"/>
          <Parameter id="716"  name="captions"/>
         </Parameters>
         <Attributes>
          <Attribute id="717" value="" name="ident"/>
          <Attribute id="718" value="44100" name="sampleRate"/>
          <Attribute id="719" value="16" name="bitDepth"/>
          <Attribute id="720" value="1" name="gain"/>
          <Attribute id="721" value="0" name="mixToMono"/>
         </Attributes>
         <MetaData>
          <entry key="WinSubProjectDisplayName" val=""/>
         </MetaData>
        </AMFile>
        <StitchedMedia id="722" start="16490" duration="1575" scalar="1/1" mediaStart="0/1" mediaDuration="1575/1" minMediaStart="0/1" >
         <Transformer>
          <VectorParam id="723"  name="translation">
           <InterpolatingParam id="724" interp="linr"  time="0/1" value="0" leadInLength="0/1"  />
           <InterpolatingParam id="725" interp="linr"  time="0/1" value="0" leadInLength="0/1"  />
           <InterpolatingParam id="726" interp="linr"  time="0/1" value="0" leadInLength="0/1"  />
          </VectorParam>
          <VectorParam id="727"  name="rotation">
           <InterpolatingParam id="728" interp="linr"  time="0/1" value="0" leadInLength="0/1"  />
           <InterpolatingParam id="729" interp="linr"  time="0/1" value="0" leadInLength="0/1"  />
           <InterpolatingParam id="730" interp="linr"  time="0/1" value="0" leadInLength="0/1"  />
          </VectorParam>
          <VectorParam id="731"  name="shear">
           <InterpolatingParam id="732" interp="linr"  time="0/1" value="0" leadInLength="0/1"  />
           <InterpolatingParam id="733" interp="linr"  time="0/1" value="0" leadInLength="0/1"  />
           <InterpolatingParam id="734" interp="linr"  time="0/1" value="0" leadInLength="0/1"  />
          </VectorParam>
          <VectorParam id="735"  name="scale">
           <InterpolatingParam id="736" interp="linr"  time="0/1" value="1" leadInLength="0/1"  />
           <InterpolatingParam id="737" interp="linr"  time="0/1" value="1" leadInLength="0/1"  />
           <InterpolatingParam id="738" interp="linr"  time="0/1" value="1" leadInLength="0/1"  />
          </VectorParam>
          <VectorParam id="739"  name="anchor">
           <InterpolatingParam id="740" interp="linr"  time="0/1" value="0" leadInLength="0/1"  />
           <InterpolatingParam id="741" interp="linr"  time="0/1" value="0" leadInLength="0/1"  />
           <InterpolatingParam id="742" interp="linr"  time="0/1" value="0" leadInLength="0/1"  />
          </VectorParam>
         </Transformer>
         <Parameters>
          <InterpolatingParam id="743" interp="linr"  time="0/1" value="1" leadInLength="0/1"  name="cursorOpacity"/>
          <InterpolatingParam id="744" interp="linr"  time="0/1" value="1" leadInLength="0/1"  name="cursorScale"/>
          <InterpolatingParam id="745" interp="linr"  time="0/1" value="1" leadInLength="0/1"  name="volume"/>
          <Parameter id="746"  name="captions"/>
         </Parameters>
         <Attributes>
          <Attribute id="747" value="" name="ident"/>
          <Attribute id="748" value="0" name="mixToMono"/>
         </Attributes>
         <MetaData>
          <entry key="WinSubProjectDisplayName" val=""/>
         </MetaData>
         <ExtraData>
          <Entry key="ZoomPanBin">
           <ZoomPanBin id="749"  >
            <ZoomPanKeyframes>
            </ZoomPanKeyframes>
           </ZoomPanBin>
          </Entry>
          <Entry key="CursorEffectBin">
           <CursorEffectBin id="750"  >
            <CursorEffectKeyframes>
            </CursorEffectKeyframes>
           </CursorEffectBin>
          </Entry>
         </ExtraData>
         <GenericTrack id="751"  >
          <Attributes>
           <Attribute id="752" value="" name="ident"/>
           <Attribute id="753" value="0" name="audioMuted"/>
           <Attribute id="754" value="0" name="videoHidden"/>
          </Attributes>
          <MetaData>
           <entry key="IsLocked" val="False"/>
           <entry key="WinTrackHeight" val="0"/>
          </MetaData>
          <Medias>
           <AMFile id="755" start="0" duration="136" scalar="1/1" mediaStart="0/1" mediaDuration="136/1" trackNumber="2" src="14" channelNumber="0,1" >
            <Parameters>
             <InterpolatingParam id="756" interp="linr"  time="0/1" value="1" leadInLength="0/1"  name="volume"/>
             <Parameter id="757"  name="captions"/>
            </Parameters>
            <Attributes>
             <Attribute id="758" value="" name="ident"/>
             <Attribute id="759" value="44100" name="sampleRate"/>
             <Attribute id="760" value="16" name="bitDepth"/>
             <Attribute id="761" value="1" name="gain"/>
             <Attribute id="762" value="0" name="mixToMono"/>
            </Attributes>
            <MetaData>
             <entry key="WinSubProjectDisplayName" val=""/>
            </MetaData>
           </AMFile>
           <AMFile id="763" start="136" duration="4133" scalar="1/1" mediaStart="247/1" mediaDuration="4133/1" trackNumber="2" src="14" channelNumber="0,1" >
            <Parameters>
             <InterpolatingParam id="764" interp="linr"  time="0/1" value="1" leadInLength="0/1"  name="volume"/>
             <Parameter id="765"  name="captions"/>
            </Parameters>
            <Attributes>
             <Attribute id="766" value="" name="ident"/>
             <Attribute id="767" value="44100" name="sampleRate"/>
             <Attribute id="768" value="16" name="bitDepth"/>
             <Attribute id="769" value="1" name="gain"/>
             <Attribute id="770" value="0" name="mixToMono"/>
            </Attributes>
            <MetaData>
             <entry key="WinSubProjectDisplayName" val=""/>
            </MetaData>
           </AMFile>
          </Medias>
         </GenericTrack>
        </StitchedMedia>
        <StitchedMedia id="771" start="18065" duration="1547" scalar="1/1" mediaStart="2642/1" mediaDuration="1547/1" minMediaStart="0/1" >
         <Transformer>
          <VectorParam id="772"  name="translation">
           <InterpolatingParam id="773" interp="linr"  time="0/1" value="0" leadInLength="0/1"  />
           <InterpolatingParam id="774" interp="linr"  time="0/1" value="0" leadInLength="0/1"  />
           <InterpolatingParam id="775" interp="linr"  time="0/1" value="0" leadInLength="0/1"  />
          </VectorParam>
          <VectorParam id="776"  name="rotation">
           <InterpolatingParam id="777" interp="linr"  time="0/1" value="0" leadInLength="0/1"  />
           <InterpolatingParam id="778" interp="linr"  time="0/1" value="0" leadInLength="0/1"  />
           <InterpolatingParam id="779" interp="linr"  time="0/1" value="0" leadInLength="0/1"  />
          </VectorParam>
          <VectorParam id="780"  name="shear">
           <InterpolatingParam id="781" interp="linr"  time="0/1" value="0" leadInLength="0/1"  />
           <InterpolatingParam id="782" interp="linr"  time="0/1" value="0" leadInLength="0/1"  />
           <InterpolatingParam id="783" interp="linr"  time="0/1" value="0" leadInLength="0/1"  />
          </VectorParam>
          <VectorParam id="784"  name="scale">
           <InterpolatingParam id="785" interp="linr"  time="0/1" value="1" leadInLength="0/1"  />
           <InterpolatingParam id="786" interp="linr"  time="0/1" value="1" leadInLength="0/1"  />
           <InterpolatingParam id="787" interp="linr"  time="0/1" value="1" leadInLength="0/1"  />
          </VectorParam>
          <VectorParam id="788"  name="anchor">
           <InterpolatingParam id="789" interp="linr"  time="0/1" value="0" leadInLength="0/1"  />
           <InterpolatingParam id="790" interp="linr"  time="0/1" value="0" leadInLength="0/1"  />
           <InterpolatingParam id="791" interp="linr"  time="0/1" value="0" leadInLength="0/1"  />
          </VectorParam>
         </Transformer>
         <Parameters>
          <InterpolatingParam id="792" interp="linr"  time="0/1" value="1" leadInLength="0/1"  name="cursorOpacity"/>
          <InterpolatingParam id="793" interp="linr"  time="0/1" value="1" leadInLength="0/1"  name="cursorScale"/>
          <InterpolatingParam id="794" interp="linr"  time="0/1" value="1" leadInLength="0/1"  name="volume"/>
          <Parameter id="795"  name="captions"/>
         </Parameters>
         <Attributes>
          <Attribute id="796" value="" name="ident"/>
          <Attribute id="797" value="0" name="mixToMono"/>
         </Attributes>
         <MetaData>
          <entry key="WinSubProjectDisplayName" val=""/>
         </MetaData>
         <ExtraData>
          <Entry key="ZoomPanBin">
           <ZoomPanBin id="798"  >
            <ZoomPanKeyframes>
            </ZoomPanKeyframes>
           </ZoomPanBin>
          </Entry>
          <Entry key="CursorEffectBin">
           <CursorEffectBin id="799"  >
            <CursorEffectKeyframes>
            </CursorEffectKeyframes>
           </CursorEffectBin>
          </Entry>
         </ExtraData>
         <GenericTrack id="800"  >
          <Attributes>
           <Attribute id="801" value="" name="ident"/>
           <Attribute id="802" value="0" name="audioMuted"/>
           <Attribute id="803" value="0" name="videoHidden"/>
          </Attributes>
          <MetaData>
           <entry key="IsLocked" val="False"/>
           <entry key="WinTrackHeight" val="0"/>
          </MetaData>
          <Medias>
           <AMFile id="804" start="0" duration="136" scalar="1/1" mediaStart="0/1" mediaDuration="136/1" trackNumber="2" src="14" channelNumber="0,1" >
            <Parameters>
             <InterpolatingParam id="805" interp="linr"  time="0/1" value="1" leadInLength="0/1"  name="volume"/>
             <Parameter id="806"  name="captions"/>
            </Parameters>
            <Attributes>
             <Attribute id="807" value="" name="ident"/>
             <Attribute id="808" value="44100" name="sampleRate"/>
             <Attribute id="809" value="16" name="bitDepth"/>
             <Attribute id="810" value="1" name="gain"/>
             <Attribute id="811" value="0" name="mixToMono"/>
            </Attributes>
            <MetaData>
             <entry key="WinSubProjectDisplayName" val=""/>
            </MetaData>
           </AMFile>
           <AMFile id="812" start="136" duration="4133" scalar="1/1" mediaStart="247/1" mediaDuration="4133/1" trackNumber="2" src="14" channelNumber="0,1" >
            <Parameters>
             <InterpolatingParam id="813" interp="linr"  time="0/1" value="1" leadInLength="0/1"  name="volume"/>
             <Parameter id="814"  name="captions"/>
            </Parameters>
            <Attributes>
             <Attribute id="815" value="" name="ident"/>
             <Attribute id="816" value="44100" name="sampleRate"/>
             <Attribute id="817" value="16" name="bitDepth"/>
             <Attribute id="818" value="1" name="gain"/>
             <Attribute id="819" value="0" name="mixToMono"/>
            </Attributes>
            <MetaData>
             <entry key="WinSubProjectDisplayName" val=""/>
            </MetaData>
           </AMFile>
          </Medias>
         </GenericTrack>
        </StitchedMedia>
        <AMFile id="820" start="19612" duration="32653" scalar="1/1" mediaStart="0/1" mediaDuration="32653/1" trackNumber="2" src="16" channelNumber="0,1" >
         <Parameters>
          <InterpolatingParam id="821" interp="linr"  time="0/1" value="1" leadInLength="0/1"  name="volume"/>
          <Parameter id="822"  name="captions"/>
         </Parameters>
         <Attributes>
          <Attribute id="823" value="" name="ident"/>
          <Attribute id="824" value="44100" name="sampleRate"/>
          <Attribute id="825" value="16" name="bitDepth"/>
          <Attribute id="826" value="1" name="gain"/>
          <Attribute id="827" value="0" name="mixToMono"/>
         </Attributes>
         <MetaData>
          <entry key="WinSubProjectDisplayName" val=""/>
         </MetaData>
        </AMFile>
       </Medias>
      </GenericTrack>
      <GenericTrack id="828"  >
       <Attributes>
        <Attribute id="829" value="" name="ident"/>
        <Attribute id="830" value="0" name="audioMuted"/>
        <Attribute id="831" value="0" name="videoHidden"/>
       </Attributes>
       <MetaData>
        <entry key="IsLocked" val="False"/>
        <entry key="WinTrackHeight" val="62"/>
       </MetaData>
       <Medias>
        <StitchedMedia id="832" start="0" duration="1521" scalar="1/1" mediaStart="0/1" mediaDuration="1521/1" minMediaStart="0/1" >
         <Transformer>
          <VectorParam id="833"  name="translation">
           <InterpolatingParam id="834" interp="linr"  time="-9999999/1" value="1.9129142714288149e-010" leadInLength="0/1"  interpolater="leadin-linr"  />
           <InterpolatingParam id="835" interp="linr"  time="-9999999/1" value="-9.822542779147625e-011" leadInLength="0/1"  interpolater="leadin-linr"  />
           <InterpolatingParam id="836" interp="linr"  time="-9999999/1" value="0" leadInLength="0/1"  interpolater="leadin-linr"  />
          </VectorParam>
          <VectorParam id="837"  name="rotation">
           <InterpolatingParam id="838" interp="linr"  time="-9999999/1" value="0" leadInLength="0/1"  interpolater="leadin-linr"  />
           <InterpolatingParam id="839" interp="linr"  time="-9999999/1" value="0" leadInLength="0/1"  interpolater="leadin-linr"  />
           <InterpolatingParam id="840" interp="linr"  time="-9999999/1" value="0" leadInLength="0/1"  interpolater="leadin-linr"  />
          </VectorParam>
          <VectorParam id="841"  name="shear">
           <InterpolatingParam id="842" interp="linr"  time="-9999999/1" value="0" leadInLength="0/1"  interpolater="leadin-linr"  />
           <InterpolatingParam id="843" interp="linr"  time="-9999999/1" value="0" leadInLength="0/1"  interpolater="leadin-linr"  />
           <InterpolatingParam id="844" interp="linr"  time="-9999999/1" value="0" leadInLength="0/1"  interpolater="leadin-linr"  />
          </VectorParam>
          <VectorParam id="845"  name="scale">
           <InterpolatingParam id="846" interp="linr"  time="-9999999/1" value="0.66666666666666663" leadInLength="0/1"  interpolater="leadin-linr"  />
           <InterpolatingParam id="847" interp="linr"  time="-9999999/1" value="0.66666666666666663" leadInLength="0/1"  interpolater="leadin-linr"  />
           <InterpolatingParam id="848" interp="linr"  time="-9999999/1" value="1" leadInLength="0/1"  interpolater="leadin-linr"  />
          </VectorParam>
          <VectorParam id="849"  name="anchor">
           <InterpolatingParam id="850" interp="linr"  time="0/1" value="0" leadInLength="0/1"  />
           <InterpolatingParam id="851" interp="linr"  time="0/1" value="0" leadInLength="0/1"  />
           <InterpolatingParam id="852" interp="linr"  time="0/1" value="0" leadInLength="0/1"  />
          </VectorParam>
         </Transformer>
         <Parameters>
          <VectorParam id="853"  name="sourceCrop">
           <InterpolatingParam id="854" interp="linr"  time="0/1" value="0" leadInLength="0/1"  />
           <InterpolatingParam id="855" interp="linr"  time="0/1" value="0" leadInLength="0/1"  />
           <InterpolatingParam id="856" interp="linr"  time="0/1" value="0" leadInLength="0/1"  />
           <InterpolatingParam id="857" interp="linr"  time="0/1" value="0" leadInLength="0/1"  />
          </VectorParam>
          <VectorParam id="858"  name="geometryCrop">
           <InterpolatingParam id="859" interp="linr"  time="-9999999/1" value="0" leadInLength="0/1"  interpolater="leadin-linr"  />
           <InterpolatingParam id="860" interp="linr"  time="-9999999/1" value="0" leadInLength="0/1"  interpolater="leadin-linr"  />
           <InterpolatingParam id="861" interp="linr"  time="-9999999/1" value="0" leadInLength="0/1"  interpolater="leadin-linr"  />
           <InterpolatingParam id="862" interp="linr"  time="-9999999/1" value="0" leadInLength="0/1"  interpolater="leadin-linr"  />
          </VectorParam>
          <InterpolatingParam id="863" interp="linr"  time="-9999999/1" value="1" leadInLength="0/1"  interpolater="leadin-linr"  name="opacity"/>
          <Parameter id="864"  name="toc">
           <Keyframes>
           <Keyframe id="865"  time="0/1" value="Redmine" leadInLength="0/1"  />
           </Keyframes>
          </Parameter>
          <InterpolatingParam id="866" interp="linr"  time="0/1" value="1" leadInLength="0/1"  name="cursorOpacity"/>
          <InterpolatingParam id="867" interp="linr"  time="0/1" value="1" leadInLength="0/1"  name="cursorScale"/>
          <InterpolatingParam id="868" interp="linr"  time="0/1" value="1" leadInLength="0/1"  name="volume"/>
          <Parameter id="869"  name="captions"/>
         </Parameters>
         <Effects>
          <GenericEffect id="870" name = "CursorBaseEffectName" >
           <Parameters>
           <InterpolatingParam id="871" interp="linr"  time="-9999999/1" value="1" leadInLength="0/1"   name="cursorSize"/>
           <InterpolatingParam id="872" interp="linr"  time="-9999999/1" value="0" leadInLength="0/1"   name="highlightBlurRadius"/>
           <InterpolatingParam id="873" interp="linr"  time="-9999999/1" value="0" leadInLength="0/1"   name="highlightColorBlue"/>
           <InterpolatingParam id="874" interp="linr"  time="-9999999/1" value="255" leadInLength="0/1"   name="highlightColorGreen"/>
           <InterpolatingParam id="875" interp="linr"  time="-9999999/1" value="255" leadInLength="0/1"   name="highlightColorRed"/>
           <InterpolatingParam id="876" interp="linr"  time="-9999999/1" value="5" leadInLength="0/1"   name="highlightFeatherSize"/>
           <InterpolatingParam id="877" interp="linr"  time="-9999999/1" value="2" leadInLength="0/1"   name="highlightMagnification"/>
           <InterpolatingParam id="878" interp="linr"  time="-9999999/1" value="1" leadInLength="0/1"   name="highlightOpacity"/>
           <InterpolatingParam id="879" interp="linr"  time="-9999999/1" value="45" leadInLength="0/1"   name="highlightSize"/>
           <Parameter id="880"   name="highlightType">
            <Keyframes>
            <Keyframe id="881"  time="-9999999/1" value="0" leadInLength="0/1"  />
            </Keyframes>
           </Parameter>
           <InterpolatingParam id="882" interp="linr"  time="-9999999/1" value="0" leadInLength="0/1"   name="leftClickColorBlue"/>
           <InterpolatingParam id="883" interp="linr"  time="-9999999/1" value="0" leadInLength="0/1"   name="leftClickColorGreen"/>
           <InterpolatingParam id="884" interp="linr"  time="-9999999/1" value="255" leadInLength="0/1"   name="leftClickColorRed"/>
           <InterpolatingParam id="885" interp="linr"  time="-9999999/1" value="0.80000000000000004" leadInLength="0/1"   name="leftClickDuration"/>
           <InterpolatingParam id="886" interp="linr"  time="-9999999/1" value="20" leadInLength="0/1"   name="leftClickSize"/>
           <Parameter id="887"   name="leftClickSoundFilename">
            <Keyframes>
            <Keyframe id="888"  time="-9999999/1" value="" leadInLength="0/1"  />
            </Keyframes>
           </Parameter>
           <InterpolatingParam id="889" interp="linr"  time="-9999999/1" value="1" leadInLength="0/1"   name="leftClickSoundVolume"/>
           <Parameter id="890"   name="leftClickType">
            <Keyframes>
            <Keyframe id="891"  time="-9999999/1" value="0" leadInLength="0/1"  />
            </Keyframes>
           </Parameter>
           <InterpolatingParam id="892" interp="linr"  time="-9999999/1" value="1" leadInLength="0/1"   name="opacity"/>
           <InterpolatingParam id="893" interp="linr"  time="-9999999/1" value="255" leadInLength="0/1"   name="rightClickColorBlue"/>
           <InterpolatingParam id="894" interp="linr"  time="-9999999/1" value="0" leadInLength="0/1"   name="rightClickColorGreen"/>
           <InterpolatingParam id="895" interp="linr"  time="-9999999/1" value="0" leadInLength="0/1"   name="rightClickColorRed"/>
           <InterpolatingParam id="896" interp="linr"  time="-9999999/1" value="0.80000000000000004" leadInLength="0/1"   name="rightClickDuration"/>
           <InterpolatingParam id="897" interp="linr"  time="-9999999/1" value="20" leadInLength="0/1"   name="rightClickSize"/>
           <Parameter id="898"   name="rightClickSoundFilename">
            <Keyframes>
            <Keyframe id="899"  time="-9999999/1" value="" leadInLength="0/1"  />
            </Keyframes>
           </Parameter>
           <InterpolatingParam id="900" interp="linr"  time="-9999999/1" value="1" leadInLength="0/1"   name="rightClickSoundVolume"/>
           <Parameter id="901"   name="rightClickType">
            <Keyframes>
            <Keyframe id="902"  time="-9999999/1" value="0" leadInLength="0/1"  />
            </Keyframes>
           </Parameter>
           </Parameters>
           <MetaData>
            <entry key="effectIndex" val="0"/>
           </MetaData>
          </GenericEffect>
         </Effects>
         <Attributes>
          <Attribute id="903" value="" name="ident"/>
          <Attribute id="904" value="0" name="mixToMono"/>
         </Attributes>
         <MetaData>
          <entry key="AutoAppliedSmartFocus" val="False"/>
          <entry key="WinSubProjectDisplayName" val=""/>
         </MetaData>
         <ExtraData>
          <Entry key="ZoomPanBin">
           <ZoomPanBin id="905"  >
            <ZoomPanKeyframes>
             <ZoomPanKeyframe id="906" timeRangeEnd="-9999999/1" timeRangeDuration="0/1" interpolaterName="linr"  />
            </ZoomPanKeyframes>
           </ZoomPanBin>
          </Entry>
          <Entry key="CursorEffectBin">
           <CursorEffectBin id="907"  >
            <CursorEffectKeyframes>
             <CursorEffectKeyframe id="908" timeRangeEnd="-9999999/1" timeRangeDuration="0/1" interpolaterName=""  />
            </CursorEffectKeyframes>
           </CursorEffectBin>
          </Entry>
         </ExtraData>
         <GenericTrack id="909"  >
          <Attributes>
           <Attribute id="910" value="" name="ident"/>
           <Attribute id="911" value="0" name="audioMuted"/>
           <Attribute id="912" value="0" name="videoHidden"/>
          </Attributes>
          <MetaData>
           <entry key="IsLocked" val="False"/>
           <entry key="WinTrackHeight" val="0"/>
          </MetaData>
          <Medias>
           <UnifiedMedia id="913"  >
            <AMFile id="914" start="0" duration="1166" scalar="1/1" mediaStart="0/1" mediaDuration="1166/1" trackNumber="1" src="4" channelNumber="0,1" >
             <Parameters>
              <InterpolatingParam id="915" interp="linr"  time="0/1" value="1" leadInLength="0/1"  name="volume"/>
              <Parameter id="916"  name="captions"/>
             </Parameters>
             <Attributes>
              <Attribute id="917" value="" name="ident"/>
              <Attribute id="918" value="44100" name="sampleRate"/>
              <Attribute id="919" value="16" name="bitDepth"/>
              <Attribute id="920" value="1" name="gain"/>
              <Attribute id="921" value="0" name="mixToMono"/>
             </Attributes>
            </AMFile>
            <ScreenVMFile id="922" start="0" duration="1166" scalar="1/1" mediaStart="0/1" mediaDuration="1166/1" trackNumber="0" src="4" >
             <Transformer>
              <VectorParam id="923"  name="translation">
               <InterpolatingParam id="924" interp="linr"  time="-9999999/1" value="0" leadInLength="0/1"  />
               <InterpolatingParam id="925" interp="linr"  time="-9999999/1" value="0" leadInLength="0/1"  />
               <InterpolatingParam id="926" interp="linr"  time="-9999999/1" value="0" leadInLength="0/1"  />
              </VectorParam>
              <VectorParam id="927"  name="rotation">
               <InterpolatingParam id="928" interp="linr"  time="-9999999/1" value="0" leadInLength="0/1"  />
               <InterpolatingParam id="929" interp="linr"  time="-9999999/1" value="0" leadInLength="0/1"  />
               <InterpolatingParam id="930" interp="linr"  time="-9999999/1" value="0" leadInLength="0/1"  />
              </VectorParam>
              <VectorParam id="931"  name="shear">
               <InterpolatingParam id="932" interp="linr"  time="-9999999/1" value="0" leadInLength="0/1"  />
               <InterpolatingParam id="933" interp="linr"  time="-9999999/1" value="0" leadInLength="0/1"  />
               <InterpolatingParam id="934" interp="linr"  time="-9999999/1" value="0" leadInLength="0/1"  />
              </VectorParam>
              <VectorParam id="935"  name="scale">
               <InterpolatingParam id="936" interp="linr"  time="-9999999/1" value="1" leadInLength="0/1"  />
               <InterpolatingParam id="937" interp="linr"  time="-9999999/1" value="1" leadInLength="0/1"  />
               <InterpolatingParam id="938" interp="linr"  time="-9999999/1" value="1" leadInLength="0/1"  />
              </VectorParam>
              <VectorParam id="939"  name="anchor">
               <InterpolatingParam id="940" interp="linr"  time="0/1" value="0" leadInLength="0/1"  />
               <InterpolatingParam id="941" interp="linr"  time="0/1" value="0" leadInLength="0/1"  />
               <InterpolatingParam id="942" interp="linr"  time="0/1" value="0" leadInLength="0/1"  />
              </VectorParam>
             </Transformer>
             <Parameters>
              <VectorParam id="943"  name="sourceCrop">
               <InterpolatingParam id="944" interp="linr"  time="0/1" value="0" leadInLength="0/1"  />
               <InterpolatingParam id="945" interp="linr"  time="0/1" value="0" leadInLength="0/1"  />
               <InterpolatingParam id="946" interp="linr"  time="0/1" value="0" leadInLength="0/1"  />
               <InterpolatingParam id="947" interp="linr"  time="0/1" value="0" leadInLength="0/1"  />
              </VectorParam>
              <VectorParam id="948"  name="geometryCrop">
               <InterpolatingParam id="949" interp="linr"  time="-9999999/1" value="0" leadInLength="0/1"  />
               <InterpolatingParam id="950" interp="linr"  time="-9999999/1" value="0" leadInLength="0/1"  />
               <InterpolatingParam id="951" interp="linr"  time="-9999999/1" value="0" leadInLength="0/1"  />
               <InterpolatingParam id="952" interp="linr"  time="-9999999/1" value="0" leadInLength="0/1"  />
              </VectorParam>
              <InterpolatingParam id="953" interp="linr"  time="-9999999/1" value="1" leadInLength="0/1"  name="opacity"/>
              <InterpolatingParam id="954" interp="linr"  time="0/1" value="0" leadInLength="0/1"  name="cursorOpacity"/>
              <InterpolatingParam id="955" interp="linr"  time="0/1" value="0" leadInLength="0/1"  name="cursorScale"/>
             </Parameters>
             <Attributes>
              <Attribute id="956" value="" name="ident"/>
             </Attributes>
             <ExtraData>
              <Entry key="ZoomPanBin">
               <ZoomPanBin id="957"  >
                <ZoomPanKeyframes>
                 <ZoomPanKeyframe id="958" timeRangeEnd="-9999999/1" timeRangeDuration="0/1" interpolaterName="linr"  />
                </ZoomPanKeyframes>
               </ZoomPanBin>
              </Entry>
              <Entry key="CursorEffectBin">
               <CursorEffectBin id="959"  >
                <CursorEffectKeyframes>
                </CursorEffectKeyframes>
               </CursorEffectBin>
              </Entry>
             </ExtraData>
            </ScreenVMFile>
            <MetaData>
             <entry key="AutoAppliedSmartFocus" val="False"/>
             <entry key="WinSubProjectDisplayName" val=""/>
            </MetaData>
           </UnifiedMedia>
           <UnifiedMedia id="960"  >
            <AMFile id="961" start="1166" duration="217" scalar="1/1" mediaStart="1203/1" mediaDuration="217/1" trackNumber="1" src="4" channelNumber="0,1" >
             <Parameters>
              <InterpolatingParam id="962" interp="linr"  time="0/1" value="1" leadInLength="0/1"  name="volume"/>
              <Parameter id="963"  name="captions"/>
             </Parameters>
             <Attributes>
              <Attribute id="964" value="" name="ident"/>
              <Attribute id="965" value="44100" name="sampleRate"/>
              <Attribute id="966" value="16" name="bitDepth"/>
              <Attribute id="967" value="1" name="gain"/>
              <Attribute id="968" value="0" name="mixToMono"/>
             </Attributes>
            </AMFile>
            <ScreenVMFile id="969" start="1166" duration="217" scalar="1/1" mediaStart="1203/1" mediaDuration="217/1" trackNumber="0" src="4" >
             <Transformer>
              <VectorParam id="970"  name="translation">
               <InterpolatingParam id="971" interp="linr"  time="-9999999/1" value="0" leadInLength="0/1"  />
               <InterpolatingParam id="972" interp="linr"  time="-9999999/1" value="0" leadInLength="0/1"  />
               <InterpolatingParam id="973" interp="linr"  time="-9999999/1" value="0" leadInLength="0/1"  />
              </VectorParam>
              <VectorParam id="974"  name="rotation">
               <InterpolatingParam id="975" interp="linr"  time="-9999999/1" value="0" leadInLength="0/1"  />
               <InterpolatingParam id="976" interp="linr"  time="-9999999/1" value="0" leadInLength="0/1"  />
               <InterpolatingParam id="977" interp="linr"  time="-9999999/1" value="0" leadInLength="0/1"  />
              </VectorParam>
              <VectorParam id="978"  name="shear">
               <InterpolatingParam id="979" interp="linr"  time="-9999999/1" value="0" leadInLength="0/1"  />
               <InterpolatingParam id="980" interp="linr"  time="-9999999/1" value="0" leadInLength="0/1"  />
               <InterpolatingParam id="981" interp="linr"  time="-9999999/1" value="0" leadInLength="0/1"  />
              </VectorParam>
              <VectorParam id="982"  name="scale">
               <InterpolatingParam id="983" interp="linr"  time="-9999999/1" value="1" leadInLength="0/1"  />
               <InterpolatingParam id="984" interp="linr"  time="-9999999/1" value="1" leadInLength="0/1"  />
               <InterpolatingParam id="985" interp="linr"  time="-9999999/1" value="1" leadInLength="0/1"  />
              </VectorParam>
              <VectorParam id="986"  name="anchor">
               <InterpolatingParam id="987" interp="linr"  time="0/1" value="0" leadInLength="0/1"  />
               <InterpolatingParam id="988" interp="linr"  time="0/1" value="0" leadInLength="0/1"  />
               <InterpolatingParam id="989" interp="linr"  time="0/1" value="0" leadInLength="0/1"  />
              </VectorParam>
             </Transformer>
             <Parameters>
              <VectorParam id="990"  name="sourceCrop">
               <InterpolatingParam id="991" interp="linr"  time="0/1" value="0" leadInLength="0/1"  />
               <InterpolatingParam id="992" interp="linr"  time="0/1" value="0" leadInLength="0/1"  />
               <InterpolatingParam id="993" interp="linr"  time="0/1" value="0" leadInLength="0/1"  />
               <InterpolatingParam id="994" interp="linr"  time="0/1" value="0" leadInLength="0/1"  />
              </VectorParam>
              <VectorParam id="995"  name="geometryCrop">
               <InterpolatingParam id="996" interp="linr"  time="-9999999/1" value="0" leadInLength="0/1"  />
               <InterpolatingParam id="997" interp="linr"  time="-9999999/1" value="0" leadInLength="0/1"  />
               <InterpolatingParam id="998" interp="linr"  time="-9999999/1" value="0" leadInLength="0/1"  />
               <InterpolatingParam id="999" interp="linr"  time="-9999999/1" value="0" leadInLength="0/1"  />
              </VectorParam>
              <InterpolatingParam id="1000" interp="linr"  time="-9999999/1" value="1" leadInLength="0/1"  name="opacity"/>
              <InterpolatingParam id="1001" interp="linr"  time="0/1" value="0" leadInLength="0/1"  name="cursorOpacity"/>
              <InterpolatingParam id="1002" interp="linr"  time="0/1" value="0" leadInLength="0/1"  name="cursorScale"/>
             </Parameters>
             <Attributes>
              <Attribute id="1003" value="" name="ident"/>
             </Attributes>
             <ExtraData>
              <Entry key="ZoomPanBin">
               <ZoomPanBin id="1004"  >
                <ZoomPanKeyframes>
                 <ZoomPanKeyframe id="1005" timeRangeEnd="-9999999/1" timeRangeDuration="0/1" interpolaterName="linr"  />
                </ZoomPanKeyframes>
               </ZoomPanBin>
              </Entry>
              <Entry key="CursorEffectBin">
               <CursorEffectBin id="1006"  >
                <CursorEffectKeyframes>
                </CursorEffectKeyframes>
               </CursorEffectBin>
              </Entry>
             </ExtraData>
            </ScreenVMFile>
            <MetaData>
             <entry key="AutoAppliedSmartFocus" val="False"/>
             <entry key="WinSubProjectDisplayName" val=""/>
            </MetaData>
           </UnifiedMedia>
           <UnifiedMedia id="1007"  >
            <AMFile id="1008" start="1383" duration="215" scalar="1/1" mediaStart="1447/1" mediaDuration="215/1" trackNumber="1" src="4" channelNumber="0,1" >
             <Parameters>
              <InterpolatingParam id="1009" interp="linr"  time="0/1" value="1" leadInLength="0/1"  name="volume"/>
              <Parameter id="1010"  name="captions"/>
             </Parameters>
             <Attributes>
              <Attribute id="1011" value="" name="ident"/>
              <Attribute id="1012" value="44100" name="sampleRate"/>
              <Attribute id="1013" value="16" name="bitDepth"/>
              <Attribute id="1014" value="1" name="gain"/>
              <Attribute id="1015" value="0" name="mixToMono"/>
             </Attributes>
            </AMFile>
            <ScreenVMFile id="1016" start="1383" duration="215" scalar="1/1" mediaStart="1447/1" mediaDuration="215/1" trackNumber="0" src="4" >
             <Transformer>
              <VectorParam id="1017"  name="translation">
               <InterpolatingParam id="1018" interp="linr"  time="-9999999/1" value="0" leadInLength="0/1"  />
               <InterpolatingParam id="1019" interp="linr"  time="-9999999/1" value="0" leadInLength="0/1"  />
               <InterpolatingParam id="1020" interp="linr"  time="-9999999/1" value="0" leadInLength="0/1"  />
              </VectorParam>
              <VectorParam id="1021"  name="rotation">
               <InterpolatingParam id="1022" interp="linr"  time="-9999999/1" value="0" leadInLength="0/1"  />
               <InterpolatingParam id="1023" interp="linr"  time="-9999999/1" value="0" leadInLength="0/1"  />
               <InterpolatingParam id="1024" interp="linr"  time="-9999999/1" value="0" leadInLength="0/1"  />
              </VectorParam>
              <VectorParam id="1025"  name="shear">
               <InterpolatingParam id="1026" interp="linr"  time="-9999999/1" value="0" leadInLength="0/1"  />
               <InterpolatingParam id="1027" interp="linr"  time="-9999999/1" value="0" leadInLength="0/1"  />
               <InterpolatingParam id="1028" interp="linr"  time="-9999999/1" value="0" leadInLength="0/1"  />
              </VectorParam>
              <VectorParam id="1029"  name="scale">
               <InterpolatingParam id="1030" interp="linr"  time="-9999999/1" value="1" leadInLength="0/1"  />
               <InterpolatingParam id="1031" interp="linr"  time="-9999999/1" value="1" leadInLength="0/1"  />
               <InterpolatingParam id="1032" interp="linr"  time="-9999999/1" value="1" leadInLength="0/1"  />
              </VectorParam>
              <VectorParam id="1033"  name="anchor">
               <InterpolatingParam id="1034" interp="linr"  time="0/1" value="0" leadInLength="0/1"  />
               <InterpolatingParam id="1035" interp="linr"  time="0/1" value="0" leadInLength="0/1"  />
               <InterpolatingParam id="1036" interp="linr"  time="0/1" value="0" leadInLength="0/1"  />
              </VectorParam>
             </Transformer>
             <Parameters>
              <VectorParam id="1037"  name="sourceCrop">
               <InterpolatingParam id="1038" interp="linr"  time="0/1" value="0" leadInLength="0/1"  />
               <InterpolatingParam id="1039" interp="linr"  time="0/1" value="0" leadInLength="0/1"  />
               <InterpolatingParam id="1040" interp="linr"  time="0/1" value="0" leadInLength="0/1"  />
               <InterpolatingParam id="1041" interp="linr"  time="0/1" value="0" leadInLength="0/1"  />
              </VectorParam>
              <VectorParam id="1042"  name="geometryCrop">
               <InterpolatingParam id="1043" interp="linr"  time="-9999999/1" value="0" leadInLength="0/1"  />
               <InterpolatingParam id="1044" interp="linr"  time="-9999999/1" value="0" leadInLength="0/1"  />
               <InterpolatingParam id="1045" interp="linr"  time="-9999999/1" value="0" leadInLength="0/1"  />
               <InterpolatingParam id="1046" interp="linr"  time="-9999999/1" value="0" leadInLength="0/1"  />
              </VectorParam>
              <InterpolatingParam id="1047" interp="linr"  time="-9999999/1" value="1" leadInLength="0/1"  name="opacity"/>
              <InterpolatingParam id="1048" interp="linr"  time="0/1" value="0" leadInLength="0/1"  name="cursorOpacity"/>
              <InterpolatingParam id="1049" interp="linr"  time="0/1" value="0" leadInLength="0/1"  name="cursorScale"/>
             </Parameters>
             <Attributes>
              <Attribute id="1050" value="" name="ident"/>
             </Attributes>
             <ExtraData>
              <Entry key="ZoomPanBin">
               <ZoomPanBin id="1051"  >
                <ZoomPanKeyframes>
                 <ZoomPanKeyframe id="1052" timeRangeEnd="-9999999/1" timeRangeDuration="0/1" interpolaterName="linr"  />
                </ZoomPanKeyframes>
               </ZoomPanBin>
              </Entry>
              <Entry key="CursorEffectBin">
               <CursorEffectBin id="1053"  >
                <CursorEffectKeyframes>
                </CursorEffectKeyframes>
               </CursorEffectBin>
              </Entry>
             </ExtraData>
            </ScreenVMFile>
            <MetaData>
             <entry key="AutoAppliedSmartFocus" val="False"/>
             <entry key="WinSubProjectDisplayName" val=""/>
            </MetaData>
           </UnifiedMedia>
          </Medias>
         </GenericTrack>
        </StitchedMedia>
        <UnifiedMedia id="1054"  >
         <AMFile id="1055" start="1521" duration="1154" scalar="1/1" mediaStart="0/1" mediaDuration="1154/1" trackNumber="1" src="5" channelNumber="0,1" >
          <Parameters>
           <InterpolatingParam id="1056" interp="linr"  time="0/1" value="1" leadInLength="0/1"  name="volume"/>
           <Parameter id="1057"  name="captions"/>
          </Parameters>
          <Attributes>
           <Attribute id="1058" value="" name="ident"/>
           <Attribute id="1059" value="44100" name="sampleRate"/>
           <Attribute id="1060" value="16" name="bitDepth"/>
           <Attribute id="1061" value="1" name="gain"/>
           <Attribute id="1062" value="0" name="mixToMono"/>
          </Attributes>
         </AMFile>
         <ScreenVMFile id="1063" start="1521" duration="1154" scalar="1/1" mediaStart="0/1" mediaDuration="1154/1" trackNumber="0" src="5" >
          <Transformer>
           <VectorParam id="1064"  name="translation">
            <InterpolatingParam id="1065" interp="linr"  time="-9999999/1" value="0" leadInLength="0/1"  />
            <InterpolatingParam id="1066" interp="linr"  time="-9999999/1" value="0" leadInLength="0/1"  />
            <InterpolatingParam id="1067" interp="linr"  time="-9999999/1" value="0" leadInLength="0/1"  />
           </VectorParam>
           <VectorParam id="1068"  name="rotation">
            <InterpolatingParam id="1069" interp="linr"  time="-9999999/1" value="0" leadInLength="0/1"  />
            <InterpolatingParam id="1070" interp="linr"  time="-9999999/1" value="0" leadInLength="0/1"  />
            <InterpolatingParam id="1071" interp="linr"  time="-9999999/1" value="0" leadInLength="0/1"  />
           </VectorParam>
           <VectorParam id="1072"  name="shear">
            <InterpolatingParam id="1073" interp="linr"  time="-9999999/1" value="0" leadInLength="0/1"  />
            <InterpolatingParam id="1074" interp="linr"  time="-9999999/1" value="0" leadInLength="0/1"  />
            <InterpolatingParam id="1075" interp="linr"  time="-9999999/1" value="0" leadInLength="0/1"  />
           </VectorParam>
           <VectorParam id="1076"  name="scale">
            <InterpolatingParam id="1077" interp="linr"  time="-9999999/1" value="0.66666666666666663" leadInLength="0/1"  />
            <InterpolatingParam id="1078" interp="linr"  time="-9999999/1" value="0.66666666666666663" leadInLength="0/1"  />
            <InterpolatingParam id="1079" interp="linr"  time="-9999999/1" value="1" leadInLength="0/1"  />
           </VectorParam>
           <VectorParam id="1080"  name="anchor">
            <InterpolatingParam id="1081" interp="linr"  time="0/1" value="0" leadInLength="0/1"  />
            <InterpolatingParam id="1082" interp="linr"  time="0/1" value="0" leadInLength="0/1"  />
            <InterpolatingParam id="1083" interp="linr"  time="0/1" value="0" leadInLength="0/1"  />
           </VectorParam>
          </Transformer>
          <Parameters>
           <VectorParam id="1084"  name="sourceCrop">
            <InterpolatingParam id="1085" interp="linr"  time="0/1" value="0" leadInLength="0/1"  />
            <InterpolatingParam id="1086" interp="linr"  time="0/1" value="0" leadInLength="0/1"  />
            <InterpolatingParam id="1087" interp="linr"  time="0/1" value="0" leadInLength="0/1"  />
            <InterpolatingParam id="1088" interp="linr"  time="0/1" value="0" leadInLength="0/1"  />
           </VectorParam>
           <VectorParam id="1089"  name="geometryCrop">
            <InterpolatingParam id="1090" interp="linr"  time="-9999999/1" value="0" leadInLength="0/1"  />
            <InterpolatingParam id="1091" interp="linr"  time="-9999999/1" value="0" leadInLength="0/1"  />
            <InterpolatingParam id="1092" interp="linr"  time="-9999999/1" value="0" leadInLength="0/1"  />
            <InterpolatingParam id="1093" interp="linr"  time="-9999999/1" value="0" leadInLength="0/1"  />
           </VectorParam>
           <InterpolatingParam id="1094" interp="linr"  time="-9999999/1" value="1" leadInLength="0/1"  name="opacity"/>
           <Parameter id="1095"  name="toc">
            <Keyframes>
            <Keyframe id="1096"  time="0/1" value="Video Contents" leadInLength="0/1"  />
            </Keyframes>
           </Parameter>
           <InterpolatingParam id="1097" interp="linr"  time="0/1" value="1" leadInLength="0/1"  name="cursorOpacity"/>
           <InterpolatingParam id="1098" interp="linr"  time="0/1" value="1" leadInLength="0/1"  name="cursorScale"/>
          </Parameters>
          <Effects>
           <GenericEffect id="1099" name = "CursorBaseEffectName" >
            <Parameters>
            <InterpolatingParam id="1100" interp="linr"  time="-9999999/1" value="1" leadInLength="0/1"   name="cursorSize"/>
            <InterpolatingParam id="1101" interp="linr"  time="-9999999/1" value="0" leadInLength="0/1"   name="highlightBlurRadius"/>
            <InterpolatingParam id="1102" interp="linr"  time="-9999999/1" value="0" leadInLength="0/1"   name="highlightColorBlue"/>
            <InterpolatingParam id="1103" interp="linr"  time="-9999999/1" value="255" leadInLength="0/1"   name="highlightColorGreen"/>
            <InterpolatingParam id="1104" interp="linr"  time="-9999999/1" value="255" leadInLength="0/1"   name="highlightColorRed"/>
            <InterpolatingParam id="1105" interp="linr"  time="-9999999/1" value="5" leadInLength="0/1"   name="highlightFeatherSize"/>
            <InterpolatingParam id="1106" interp="linr"  time="-9999999/1" value="2" leadInLength="0/1"   name="highlightMagnification"/>
            <InterpolatingParam id="1107" interp="linr"  time="-9999999/1" value="1" leadInLength="0/1"   name="highlightOpacity"/>
            <InterpolatingParam id="1108" interp="linr"  time="-9999999/1" value="45" leadInLength="0/1"   name="highlightSize"/>
            <Parameter id="1109"   name="highlightType">
             <Keyframes>
             <Keyframe id="1110"  time="-9999999/1" value="0" leadInLength="0/1"  />
             </Keyframes>
            </Parameter>
            <InterpolatingParam id="1111" interp="linr"  time="-9999999/1" value="0" leadInLength="0/1"   name="leftClickColorBlue"/>
            <InterpolatingParam id="1112" interp="linr"  time="-9999999/1" value="0" leadInLength="0/1"   name="leftClickColorGreen"/>
            <InterpolatingParam id="1113" interp="linr"  time="-9999999/1" value="255" leadInLength="0/1"   name="leftClickColorRed"/>
            <InterpolatingParam id="1114" interp="linr"  time="-9999999/1" value="0.80000000000000004" leadInLength="0/1"   name="leftClickDuration"/>
            <InterpolatingParam id="1115" interp="linr"  time="-9999999/1" value="20" leadInLength="0/1"   name="leftClickSize"/>
            <Parameter id="1116"   name="leftClickSoundFilename">
             <Keyframes>
             <Keyframe id="1117"  time="-9999999/1" value="" leadInLength="0/1"  />
             </Keyframes>
            </Parameter>
            <InterpolatingParam id="1118" interp="linr"  time="-9999999/1" value="1" leadInLength="0/1"   name="leftClickSoundVolume"/>
            <Parameter id="1119"   name="leftClickType">
             <Keyframes>
             <Keyframe id="1120"  time="-9999999/1" value="0" leadInLength="0/1"  />
             </Keyframes>
            </Parameter>
            <InterpolatingParam id="1121" interp="linr"  time="-9999999/1" value="1" leadInLength="0/1"   name="opacity"/>
            <InterpolatingParam id="1122" interp="linr"  time="-9999999/1" value="255" leadInLength="0/1"   name="rightClickColorBlue"/>
            <InterpolatingParam id="1123" interp="linr"  time="-9999999/1" value="0" leadInLength="0/1"   name="rightClickColorGreen"/>
            <InterpolatingParam id="1124" interp="linr"  time="-9999999/1" value="0" leadInLength="0/1"   name="rightClickColorRed"/>
            <InterpolatingParam id="1125" interp="linr"  time="-9999999/1" value="0.80000000000000004" leadInLength="0/1"   name="rightClickDuration"/>
            <InterpolatingParam id="1126" interp="linr"  time="-9999999/1" value="20" leadInLength="0/1"   name="rightClickSize"/>
            <Parameter id="1127"   name="rightClickSoundFilename">
             <Keyframes>
             <Keyframe id="1128"  time="-9999999/1" value="" leadInLength="0/1"  />
             </Keyframes>
            </Parameter>
            <InterpolatingParam id="1129" interp="linr"  time="-9999999/1" value="1" leadInLength="0/1"   name="rightClickSoundVolume"/>
            <Parameter id="1130"   name="rightClickType">
             <Keyframes>
             <Keyframe id="1131"  time="-9999999/1" value="0" leadInLength="0/1"  />
             </Keyframes>
            </Parameter>
            </Parameters>
            <MetaData>
             <entry key="effectIndex" val="0"/>
            </MetaData>
           </GenericEffect>
          </Effects>
          <Attributes>
           <Attribute id="1132" value="" name="ident"/>
          </Attributes>
          <ExtraData>
           <Entry key="ZoomPanBin">
            <ZoomPanBin id="1133"  >
             <ZoomPanKeyframes>
              <ZoomPanKeyframe id="1134" timeRangeEnd="-9999999/1" timeRangeDuration="0/1" interpolaterName="linr"  />
             </ZoomPanKeyframes>
            </ZoomPanBin>
           </Entry>
           <Entry key="CursorEffectBin">
            <CursorEffectBin id="1135"  >
             <CursorEffectKeyframes>
              <CursorEffectKeyframe id="1136" timeRangeEnd="-9999999/1" timeRangeDuration="0/1" interpolaterName=""  />
             </CursorEffectKeyframes>
            </CursorEffectBin>
           </Entry>
          </ExtraData>
         </ScreenVMFile>
         <MetaData>
          <entry key="AutoAppliedSmartFocus" val="False"/>
          <entry key="WinSubProjectDisplayName" val=""/>
         </MetaData>
        </UnifiedMedia>
        <StitchedMedia id="1137" start="2675" duration="2645" scalar="1/1" mediaStart="20/1" mediaDuration="2645/1" minMediaStart="0/1" >
         <Transformer>
          <VectorParam id="1138"  name="translation">
           <InterpolatingParam id="1139" interp="linr"  time="-9999999/1" value="0" leadInLength="0/1"  />
           <InterpolatingParam id="1140" interp="linr"  time="-9999999/1" value="0" leadInLength="0/1"  />
           <InterpolatingParam id="1141" interp="linr"  time="-9999999/1" value="0" leadInLength="0/1"  />
          </VectorParam>
          <VectorParam id="1142"  name="rotation">
           <InterpolatingParam id="1143" interp="linr"  time="-9999999/1" value="0" leadInLength="0/1"  />
           <InterpolatingParam id="1144" interp="linr"  time="-9999999/1" value="0" leadInLength="0/1"  />
           <InterpolatingParam id="1145" interp="linr"  time="-9999999/1" value="0" leadInLength="0/1"  />
          </VectorParam>
          <VectorParam id="1146"  name="shear">
           <InterpolatingParam id="1147" interp="linr"  time="-9999999/1" value="0" leadInLength="0/1"  />
           <InterpolatingParam id="1148" interp="linr"  time="-9999999/1" value="0" leadInLength="0/1"  />
           <InterpolatingParam id="1149" interp="linr"  time="-9999999/1" value="0" leadInLength="0/1"  />
          </VectorParam>
          <VectorParam id="1150"  name="scale">
           <InterpolatingParam id="1151" interp="linr"  time="-9999999/1" value="0.66666666666666663" leadInLength="0/1"  />
           <InterpolatingParam id="1152" interp="linr"  time="-9999999/1" value="0.66666666666666663" leadInLength="0/1"  />
           <InterpolatingParam id="1153" interp="linr"  time="-9999999/1" value="1" leadInLength="0/1"  />
          </VectorParam>
          <VectorParam id="1154"  name="anchor">
           <InterpolatingParam id="1155" interp="linr"  time="0/1" value="0" leadInLength="0/1"  />
           <InterpolatingParam id="1156" interp="linr"  time="0/1" value="0" leadInLength="0/1"  />
           <InterpolatingParam id="1157" interp="linr"  time="0/1" value="0" leadInLength="0/1"  />
          </VectorParam>
         </Transformer>
         <Parameters>
          <VectorParam id="1158"  name="sourceCrop">
           <InterpolatingParam id="1159" interp="linr"  time="0/1" value="0" leadInLength="0/1"  />
           <InterpolatingParam id="1160" interp="linr"  time="0/1" value="0" leadInLength="0/1"  />
           <InterpolatingParam id="1161" interp="linr"  time="0/1" value="0" leadInLength="0/1"  />
           <InterpolatingParam id="1162" interp="linr"  time="0/1" value="0" leadInLength="0/1"  />
          </VectorParam>
          <VectorParam id="1163"  name="geometryCrop">
           <InterpolatingParam id="1164" interp="linr"  time="-9999999/1" value="0" leadInLength="0/1"  />
           <InterpolatingParam id="1165" interp="linr"  time="-9999999/1" value="0" leadInLength="0/1"  />
           <InterpolatingParam id="1166" interp="linr"  time="-9999999/1" value="0" leadInLength="0/1"  />
           <InterpolatingParam id="1167" interp="linr"  time="-9999999/1" value="0" leadInLength="0/1"  />
          </VectorParam>
          <InterpolatingParam id="1168" interp="linr"  time="-9999999/1" value="1" leadInLength="0/1"  name="opacity"/>
          <Parameter id="1169"  name="toc">
           <Keyframes>
           <Keyframe id="1170"  time="2661/1" value="Presentation Paused" leadInLength="0/1"  />
           </Keyframes>
          </Parameter>
          <InterpolatingParam id="1171" interp="linr"  time="0/1" value="1" leadInLength="0/1"  name="cursorOpacity"/>
          <InterpolatingParam id="1172" interp="linr"  time="0/1" value="1" leadInLength="0/1"  name="cursorScale"/>
          <InterpolatingParam id="1173" interp="linr"  time="0/1" value="1" leadInLength="0/1"  name="volume"/>
          <Parameter id="1174"  name="captions"/>
         </Parameters>
         <Effects>
          <GenericEffect id="1175" name = "CursorBaseEffectName" >
           <Parameters>
           <InterpolatingParam id="1176" interp="linr"  time="-9999999/1" value="1" leadInLength="0/1"   name="cursorSize"/>
           <InterpolatingParam id="1177" interp="linr"  time="-9999999/1" value="0" leadInLength="0/1"   name="highlightBlurRadius"/>
           <InterpolatingParam id="1178" interp="linr"  time="-9999999/1" value="0" leadInLength="0/1"   name="highlightColorBlue"/>
           <InterpolatingParam id="1179" interp="linr"  time="-9999999/1" value="255" leadInLength="0/1"   name="highlightColorGreen"/>
           <InterpolatingParam id="1180" interp="linr"  time="-9999999/1" value="255" leadInLength="0/1"   name="highlightColorRed"/>
           <InterpolatingParam id="1181" interp="linr"  time="-9999999/1" value="5" leadInLength="0/1"   name="highlightFeatherSize"/>
           <InterpolatingParam id="1182" interp="linr"  time="-9999999/1" value="2" leadInLength="0/1"   name="highlightMagnification"/>
           <InterpolatingParam id="1183" interp="linr"  time="-9999999/1" value="1" leadInLength="0/1"   name="highlightOpacity"/>
           <InterpolatingParam id="1184" interp="linr"  time="-9999999/1" value="45" leadInLength="0/1"   name="highlightSize"/>
           <Parameter id="1185"   name="highlightType">
            <Keyframes>
            <Keyframe id="1186"  time="-9999999/1" value="0" leadInLength="0/1"  />
            </Keyframes>
           </Parameter>
           <InterpolatingParam id="1187" interp="linr"  time="-9999999/1" value="0" leadInLength="0/1"   name="leftClickColorBlue"/>
           <InterpolatingParam id="1188" interp="linr"  time="-9999999/1" value="0" leadInLength="0/1"   name="leftClickColorGreen"/>
           <InterpolatingParam id="1189" interp="linr"  time="-9999999/1" value="255" leadInLength="0/1"   name="leftClickColorRed"/>
           <InterpolatingParam id="1190" interp="linr"  time="-9999999/1" value="0.80000000000000004" leadInLength="0/1"   name="leftClickDuration"/>
           <InterpolatingParam id="1191" interp="linr"  time="-9999999/1" value="20" leadInLength="0/1"   name="leftClickSize"/>
           <Parameter id="1192"   name="leftClickSoundFilename">
            <Keyframes>
            <Keyframe id="1193"  time="-9999999/1" value="" leadInLength="0/1"  />
            </Keyframes>
           </Parameter>
           <InterpolatingParam id="1194" interp="linr"  time="-9999999/1" value="1" leadInLength="0/1"   name="leftClickSoundVolume"/>
           <Parameter id="1195"   name="leftClickType">
            <Keyframes>
            <Keyframe id="1196"  time="-9999999/1" value="0" leadInLength="0/1"  />
            </Keyframes>
           </Parameter>
           <InterpolatingParam id="1197" interp="linr"  time="-9999999/1" value="1" leadInLength="0/1"   name="opacity"/>
           <InterpolatingParam id="1198" interp="linr"  time="-9999999/1" value="255" leadInLength="0/1"   name="rightClickColorBlue"/>
           <InterpolatingParam id="1199" interp="linr"  time="-9999999/1" value="0" leadInLength="0/1"   name="rightClickColorGreen"/>
           <InterpolatingParam id="1200" interp="linr"  time="-9999999/1" value="0" leadInLength="0/1"   name="rightClickColorRed"/>
           <InterpolatingParam id="1201" interp="linr"  time="-9999999/1" value="0.80000000000000004" leadInLength="0/1"   name="rightClickDuration"/>
           <InterpolatingParam id="1202" interp="linr"  time="-9999999/1" value="20" leadInLength="0/1"   name="rightClickSize"/>
           <Parameter id="1203"   name="rightClickSoundFilename">
            <Keyframes>
            <Keyframe id="1204"  time="-9999999/1" value="" leadInLength="0/1"  />
            </Keyframes>
           </Parameter>
           <InterpolatingParam id="1205" interp="linr"  time="-9999999/1" value="1" leadInLength="0/1"   name="rightClickSoundVolume"/>
           <Parameter id="1206"   name="rightClickType">
            <Keyframes>
            <Keyframe id="1207"  time="-9999999/1" value="0" leadInLength="0/1"  />
            </Keyframes>
           </Parameter>
           </Parameters>
           <MetaData>
            <entry key="effectIndex" val="0"/>
           </MetaData>
          </GenericEffect>
         </Effects>
         <Attributes>
          <Attribute id="1208" value="" name="ident"/>
          <Attribute id="1209" value="0" name="mixToMono"/>
         </Attributes>
         <MetaData>
          <entry key="AutoAppliedSmartFocus" val="False"/>
          <entry key="WinSubProjectDisplayName" val=""/>
         </MetaData>
         <ExtraData>
          <Entry key="ZoomPanBin">
           <ZoomPanBin id="1210"  >
            <ZoomPanKeyframes>
             <ZoomPanKeyframe id="1211" timeRangeEnd="-9999999/1" timeRangeDuration="0/1" interpolaterName="linr"  />
            </ZoomPanKeyframes>
           </ZoomPanBin>
          </Entry>
          <Entry key="CursorEffectBin">
           <CursorEffectBin id="1212"  >
            <CursorEffectKeyframes>
             <CursorEffectKeyframe id="1213" timeRangeEnd="-9999999/1" timeRangeDuration="0/1" interpolaterName=""  />
            </CursorEffectKeyframes>
           </CursorEffectBin>
          </Entry>
         </ExtraData>
         <GenericTrack id="1214"  >
          <Attributes>
           <Attribute id="1215" value="" name="ident"/>
           <Attribute id="1216" value="0" name="audioMuted"/>
           <Attribute id="1217" value="0" name="videoHidden"/>
          </Attributes>
          <MetaData>
           <entry key="IsLocked" val="False"/>
           <entry key="WinTrackHeight" val="0"/>
          </MetaData>
          <Medias>
           <UnifiedMedia id="1218"  >
            <AMFile id="1219" start="0" duration="1019" scalar="1/1" mediaStart="0/1" mediaDuration="1019/1" trackNumber="1" src="6" channelNumber="0,1" >
             <Parameters>
              <InterpolatingParam id="1220" interp="linr"  time="0/1" value="1" leadInLength="0/1"  name="volume"/>
              <Parameter id="1221"  name="captions"/>
             </Parameters>
             <Attributes>
              <Attribute id="1222" value="" name="ident"/>
              <Attribute id="1223" value="44100" name="sampleRate"/>
              <Attribute id="1224" value="16" name="bitDepth"/>
              <Attribute id="1225" value="1" name="gain"/>
              <Attribute id="1226" value="0" name="mixToMono"/>
             </Attributes>
            </AMFile>
            <ScreenVMFile id="1227" start="0" duration="1019" scalar="1/1" mediaStart="0/1" mediaDuration="1019/1" trackNumber="0" src="6" >
             <Transformer>
              <VectorParam id="1228"  name="translation">
               <InterpolatingParam id="1229" interp="linr"  time="-9999999/1" value="0" leadInLength="0/1"  />
               <InterpolatingParam id="1230" interp="linr"  time="-9999999/1" value="0" leadInLength="0/1"  />
               <InterpolatingParam id="1231" interp="linr"  time="-9999999/1" value="0" leadInLength="0/1"  />
              </VectorParam>
              <VectorParam id="1232"  name="rotation">
               <InterpolatingParam id="1233" interp="linr"  time="-9999999/1" value="0" leadInLength="0/1"  />
               <InterpolatingParam id="1234" interp="linr"  time="-9999999/1" value="0" leadInLength="0/1"  />
               <InterpolatingParam id="1235" interp="linr"  time="-9999999/1" value="0" leadInLength="0/1"  />
              </VectorParam>
              <VectorParam id="1236"  name="shear">
               <InterpolatingParam id="1237" interp="linr"  time="-9999999/1" value="0" leadInLength="0/1"  />
               <InterpolatingParam id="1238" interp="linr"  time="-9999999/1" value="0" leadInLength="0/1"  />
               <InterpolatingParam id="1239" interp="linr"  time="-9999999/1" value="0" leadInLength="0/1"  />
              </VectorParam>
              <VectorParam id="1240"  name="scale">
               <InterpolatingParam id="1241" interp="linr"  time="-9999999/1" value="1" leadInLength="0/1"  />
               <InterpolatingParam id="1242" interp="linr"  time="-9999999/1" value="1" leadInLength="0/1"  />
               <InterpolatingParam id="1243" interp="linr"  time="-9999999/1" value="1" leadInLength="0/1"  />
              </VectorParam>
              <VectorParam id="1244"  name="anchor">
               <InterpolatingParam id="1245" interp="linr"  time="0/1" value="0" leadInLength="0/1"  />
               <InterpolatingParam id="1246" interp="linr"  time="0/1" value="0" leadInLength="0/1"  />
               <InterpolatingParam id="1247" interp="linr"  time="0/1" value="0" leadInLength="0/1"  />
              </VectorParam>
             </Transformer>
             <Parameters>
              <VectorParam id="1248"  name="sourceCrop">
               <InterpolatingParam id="1249" interp="linr"  time="0/1" value="0" leadInLength="0/1"  />
               <InterpolatingParam id="1250" interp="linr"  time="0/1" value="0" leadInLength="0/1"  />
               <InterpolatingParam id="1251" interp="linr"  time="0/1" value="0" leadInLength="0/1"  />
               <InterpolatingParam id="1252" interp="linr"  time="0/1" value="0" leadInLength="0/1"  />
              </VectorParam>
              <VectorParam id="1253"  name="geometryCrop">
               <InterpolatingParam id="1254" interp="linr"  time="-9999999/1" value="0" leadInLength="0/1"  />
               <InterpolatingParam id="1255" interp="linr"  time="-9999999/1" value="0" leadInLength="0/1"  />
               <InterpolatingParam id="1256" interp="linr"  time="-9999999/1" value="0" leadInLength="0/1"  />
               <InterpolatingParam id="1257" interp="linr"  time="-9999999/1" value="0" leadInLength="0/1"  />
              </VectorParam>
              <InterpolatingParam id="1258" interp="linr"  time="-9999999/1" value="1" leadInLength="0/1"  name="opacity"/>
              <InterpolatingParam id="1259" interp="linr"  time="0/1" value="0" leadInLength="0/1"  name="cursorOpacity"/>
              <InterpolatingParam id="1260" interp="linr"  time="0/1" value="0" leadInLength="0/1"  name="cursorScale"/>
             </Parameters>
             <Attributes>
              <Attribute id="1261" value="" name="ident"/>
             </Attributes>
             <ExtraData>
              <Entry key="ZoomPanBin">
               <ZoomPanBin id="1262"  >
                <ZoomPanKeyframes>
                 <ZoomPanKeyframe id="1263" timeRangeEnd="-9999999/1" timeRangeDuration="0/1" interpolaterName="linr"  />
                </ZoomPanKeyframes>
               </ZoomPanBin>
              </Entry>
              <Entry key="CursorEffectBin">
               <CursorEffectBin id="1264"  >
                <CursorEffectKeyframes>
                </CursorEffectKeyframes>
               </CursorEffectBin>
              </Entry>
             </ExtraData>
            </ScreenVMFile>
            <MetaData>
             <entry key="AutoAppliedSmartFocus" val="False"/>
             <entry key="WinSubProjectDisplayName" val=""/>
            </MetaData>
           </UnifiedMedia>
           <UnifiedMedia id="1265"  >
            <AMFile id="1266" start="1019" duration="735" scalar="1/1" mediaStart="1056/1" mediaDuration="735/1" trackNumber="1" src="6" channelNumber="0,1" >
             <Parameters>
              <InterpolatingParam id="1267" interp="linr"  time="0/1" value="1" leadInLength="0/1"  name="volume"/>
              <Parameter id="1268"  name="captions"/>
             </Parameters>
             <Attributes>
              <Attribute id="1269" value="" name="ident"/>
              <Attribute id="1270" value="44100" name="sampleRate"/>
              <Attribute id="1271" value="16" name="bitDepth"/>
              <Attribute id="1272" value="1" name="gain"/>
              <Attribute id="1273" value="0" name="mixToMono"/>
             </Attributes>
            </AMFile>
            <ScreenVMFile id="1274" start="1019" duration="735" scalar="1/1" mediaStart="1056/1" mediaDuration="735/1" trackNumber="0" src="6" >
             <Transformer>
              <VectorParam id="1275"  name="translation">
               <InterpolatingParam id="1276" interp="linr"  time="-9999999/1" value="0" leadInLength="0/1"  />
               <InterpolatingParam id="1277" interp="linr"  time="-9999999/1" value="0" leadInLength="0/1"  />
               <InterpolatingParam id="1278" interp="linr"  time="-9999999/1" value="0" leadInLength="0/1"  />
              </VectorParam>
              <VectorParam id="1279"  name="rotation">
               <InterpolatingParam id="1280" interp="linr"  time="-9999999/1" value="0" leadInLength="0/1"  />
               <InterpolatingParam id="1281" interp="linr"  time="-9999999/1" value="0" leadInLength="0/1"  />
               <InterpolatingParam id="1282" interp="linr"  time="-9999999/1" value="0" leadInLength="0/1"  />
              </VectorParam>
              <VectorParam id="1283"  name="shear">
               <InterpolatingParam id="1284" interp="linr"  time="-9999999/1" value="0" leadInLength="0/1"  />
               <InterpolatingParam id="1285" interp="linr"  time="-9999999/1" value="0" leadInLength="0/1"  />
               <InterpolatingParam id="1286" interp="linr"  time="-9999999/1" value="0" leadInLength="0/1"  />
              </VectorParam>
              <VectorParam id="1287"  name="scale">
               <InterpolatingParam id="1288" interp="linr"  time="-9999999/1" value="1" leadInLength="0/1"  />
               <InterpolatingParam id="1289" interp="linr"  time="-9999999/1" value="1" leadInLength="0/1"  />
               <InterpolatingParam id="1290" interp="linr"  time="-9999999/1" value="1" leadInLength="0/1"  />
              </VectorParam>
              <VectorParam id="1291"  name="anchor">
               <InterpolatingParam id="1292" interp="linr"  time="0/1" value="0" leadInLength="0/1"  />
               <InterpolatingParam id="1293" interp="linr"  time="0/1" value="0" leadInLength="0/1"  />
               <InterpolatingParam id="1294" interp="linr"  time="0/1" value="0" leadInLength="0/1"  />
              </VectorParam>
             </Transformer>
             <Parameters>
              <VectorParam id="1295"  name="sourceCrop">
               <InterpolatingParam id="1296" interp="linr"  time="0/1" value="0" leadInLength="0/1"  />
               <InterpolatingParam id="1297" interp="linr"  time="0/1" value="0" leadInLength="0/1"  />
               <InterpolatingParam id="1298" interp="linr"  time="0/1" value="0" leadInLength="0/1"  />
               <InterpolatingParam id="1299" interp="linr"  time="0/1" value="0" leadInLength="0/1"  />
              </VectorParam>
              <VectorParam id="1300"  name="geometryCrop">
               <InterpolatingParam id="1301" interp="linr"  time="-9999999/1" value="0" leadInLength="0/1"  />
               <InterpolatingParam id="1302" interp="linr"  time="-9999999/1" value="0" leadInLength="0/1"  />
               <InterpolatingParam id="1303" interp="linr"  time="-9999999/1" value="0" leadInLength="0/1"  />
               <InterpolatingParam id="1304" interp="linr"  time="-9999999/1" value="0" leadInLength="0/1"  />
              </VectorParam>
              <InterpolatingParam id="1305" interp="linr"  time="-9999999/1" value="1" leadInLength="0/1"  name="opacity"/>
              <InterpolatingParam id="1306" interp="linr"  time="0/1" value="0" leadInLength="0/1"  name="cursorOpacity"/>
              <InterpolatingParam id="1307" interp="linr"  time="0/1" value="0" leadInLength="0/1"  name="cursorScale"/>
             </Parameters>
             <Attributes>
              <Attribute id="1308" value="" name="ident"/>
             </Attributes>
             <ExtraData>
              <Entry key="ZoomPanBin">
               <ZoomPanBin id="1309"  >
                <ZoomPanKeyframes>
                 <ZoomPanKeyframe id="1310" timeRangeEnd="-9999999/1" timeRangeDuration="0/1" interpolaterName="linr"  />
                </ZoomPanKeyframes>
               </ZoomPanBin>
              </Entry>
              <Entry key="CursorEffectBin">
               <CursorEffectBin id="1311"  >
                <CursorEffectKeyframes>
                </CursorEffectKeyframes>
               </CursorEffectBin>
              </Entry>
             </ExtraData>
            </ScreenVMFile>
            <MetaData>
             <entry key="AutoAppliedSmartFocus" val="False"/>
             <entry key="WinSubProjectDisplayName" val=""/>
            </MetaData>
           </UnifiedMedia>
           <UnifiedMedia id="1312"  >
            <AMFile id="1313" start="1754" duration="625" scalar="1/1" mediaStart="1814/1" mediaDuration="625/1" trackNumber="1" src="6" channelNumber="0,1" >
             <Parameters>
              <InterpolatingParam id="1314" interp="linr"  time="0/1" value="1" leadInLength="0/1"  name="volume"/>
              <Parameter id="1315"  name="captions"/>
             </Parameters>
             <Attributes>
              <Attribute id="1316" value="" name="ident"/>
              <Attribute id="1317" value="44100" name="sampleRate"/>
              <Attribute id="1318" value="16" name="bitDepth"/>
              <Attribute id="1319" value="1" name="gain"/>
              <Attribute id="1320" value="0" name="mixToMono"/>
             </Attributes>
            </AMFile>
            <ScreenVMFile id="1321" start="1754" duration="625" scalar="1/1" mediaStart="1814/1" mediaDuration="625/1" trackNumber="0" src="6" >
             <Transformer>
              <VectorParam id="1322"  name="translation">
               <InterpolatingParam id="1323" interp="linr"  time="-9999999/1" value="0" leadInLength="0/1"  />
               <InterpolatingParam id="1324" interp="linr"  time="-9999999/1" value="0" leadInLength="0/1"  />
               <InterpolatingParam id="1325" interp="linr"  time="-9999999/1" value="0" leadInLength="0/1"  />
              </VectorParam>
              <VectorParam id="1326"  name="rotation">
               <InterpolatingParam id="1327" interp="linr"  time="-9999999/1" value="0" leadInLength="0/1"  />
               <InterpolatingParam id="1328" interp="linr"  time="-9999999/1" value="0" leadInLength="0/1"  />
               <InterpolatingParam id="1329" interp="linr"  time="-9999999/1" value="0" leadInLength="0/1"  />
              </VectorParam>
              <VectorParam id="1330"  name="shear">
               <InterpolatingParam id="1331" interp="linr"  time="-9999999/1" value="0" leadInLength="0/1"  />
               <InterpolatingParam id="1332" interp="linr"  time="-9999999/1" value="0" leadInLength="0/1"  />
               <InterpolatingParam id="1333" interp="linr"  time="-9999999/1" value="0" leadInLength="0/1"  />
              </VectorParam>
              <VectorParam id="1334"  name="scale">
               <InterpolatingParam id="1335" interp="linr"  time="-9999999/1" value="1" leadInLength="0/1"  />
               <InterpolatingParam id="1336" interp="linr"  time="-9999999/1" value="1" leadInLength="0/1"  />
               <InterpolatingParam id="1337" interp="linr"  time="-9999999/1" value="1" leadInLength="0/1"  />
              </VectorParam>
              <VectorParam id="1338"  name="anchor">
               <InterpolatingParam id="1339" interp="linr"  time="0/1" value="0" leadInLength="0/1"  />
               <InterpolatingParam id="1340" interp="linr"  time="0/1" value="0" leadInLength="0/1"  />
               <InterpolatingParam id="1341" interp="linr"  time="0/1" value="0" leadInLength="0/1"  />
              </VectorParam>
             </Transformer>
             <Parameters>
              <VectorParam id="1342"  name="sourceCrop">
               <InterpolatingParam id="1343" interp="linr"  time="0/1" value="0" leadInLength="0/1"  />
               <InterpolatingParam id="1344" interp="linr"  time="0/1" value="0" leadInLength="0/1"  />
               <InterpolatingParam id="1345" interp="linr"  time="0/1" value="0" leadInLength="0/1"  />
               <InterpolatingParam id="1346" interp="linr"  time="0/1" value="0" leadInLength="0/1"  />
              </VectorParam>
              <VectorParam id="1347"  name="geometryCrop">
               <InterpolatingParam id="1348" interp="linr"  time="-9999999/1" value="0" leadInLength="0/1"  />
               <InterpolatingParam id="1349" interp="linr"  time="-9999999/1" value="0" leadInLength="0/1"  />
               <InterpolatingParam id="1350" interp="linr"  time="-9999999/1" value="0" leadInLength="0/1"  />
               <InterpolatingParam id="1351" interp="linr"  time="-9999999/1" value="0" leadInLength="0/1"  />
              </VectorParam>
              <InterpolatingParam id="1352" interp="linr"  time="-9999999/1" value="1" leadInLength="0/1"  name="opacity"/>
              <InterpolatingParam id="1353" interp="linr"  time="0/1" value="0" leadInLength="0/1"  name="cursorOpacity"/>
              <InterpolatingParam id="1354" interp="linr"  time="0/1" value="0" leadInLength="0/1"  name="cursorScale"/>
             </Parameters>
             <Attributes>
              <Attribute id="1355" value="" name="ident"/>
             </Attributes>
             <ExtraData>
              <Entry key="ZoomPanBin">
               <ZoomPanBin id="1356"  >
                <ZoomPanKeyframes>
                 <ZoomPanKeyframe id="1357" timeRangeEnd="-9999999/1" timeRangeDuration="0/1" interpolaterName="linr"  />
                </ZoomPanKeyframes>
               </ZoomPanBin>
              </Entry>
              <Entry key="CursorEffectBin">
               <CursorEffectBin id="1358"  >
                <CursorEffectKeyframes>
                </CursorEffectKeyframes>
               </CursorEffectBin>
              </Entry>
             </ExtraData>
            </ScreenVMFile>
            <MetaData>
             <entry key="AutoAppliedSmartFocus" val="False"/>
             <entry key="WinSubProjectDisplayName" val=""/>
            </MetaData>
           </UnifiedMedia>
           <UnifiedMedia id="1359"  >
            <AMFile id="1360" start="2379" duration="106" scalar="1/1" mediaStart="2454/1" mediaDuration="106/1" trackNumber="1" src="6" channelNumber="0,1" >
             <Parameters>
              <InterpolatingParam id="1361" interp="linr"  time="0/1" value="1" leadInLength="0/1"  name="volume"/>
              <Parameter id="1362"  name="captions"/>
             </Parameters>
             <Attributes>
              <Attribute id="1363" value="" name="ident"/>
              <Attribute id="1364" value="44100" name="sampleRate"/>
              <Attribute id="1365" value="16" name="bitDepth"/>
              <Attribute id="1366" value="1" name="gain"/>
              <Attribute id="1367" value="0" name="mixToMono"/>
             </Attributes>
            </AMFile>
            <ScreenVMFile id="1368" start="2379" duration="106" scalar="1/1" mediaStart="2454/1" mediaDuration="106/1" trackNumber="0" src="6" >
             <Transformer>
              <VectorParam id="1369"  name="translation">
               <InterpolatingParam id="1370" interp="linr"  time="-9999999/1" value="0" leadInLength="0/1"  />
               <InterpolatingParam id="1371" interp="linr"  time="-9999999/1" value="0" leadInLength="0/1"  />
               <InterpolatingParam id="1372" interp="linr"  time="-9999999/1" value="0" leadInLength="0/1"  />
              </VectorParam>
              <VectorParam id="1373"  name="rotation">
               <InterpolatingParam id="1374" interp="linr"  time="-9999999/1" value="0" leadInLength="0/1"  />
               <InterpolatingParam id="1375" interp="linr"  time="-9999999/1" value="0" leadInLength="0/1"  />
               <InterpolatingParam id="1376" interp="linr"  time="-9999999/1" value="0" leadInLength="0/1"  />
              </VectorParam>
              <VectorParam id="1377"  name="shear">
               <InterpolatingParam id="1378" interp="linr"  time="-9999999/1" value="0" leadInLength="0/1"  />
               <InterpolatingParam id="1379" interp="linr"  time="-9999999/1" value="0" leadInLength="0/1"  />
               <InterpolatingParam id="1380" interp="linr"  time="-9999999/1" value="0" leadInLength="0/1"  />
              </VectorParam>
              <VectorParam id="1381"  name="scale">
               <InterpolatingParam id="1382" interp="linr"  time="-9999999/1" value="1" leadInLength="0/1"  />
               <InterpolatingParam id="1383" interp="linr"  time="-9999999/1" value="1" leadInLength="0/1"  />
               <InterpolatingParam id="1384" interp="linr"  time="-9999999/1" value="1" leadInLength="0/1"  />
              </VectorParam>
              <VectorParam id="1385"  name="anchor">
               <InterpolatingParam id="1386" interp="linr"  time="0/1" value="0" leadInLength="0/1"  />
               <InterpolatingParam id="1387" interp="linr"  time="0/1" value="0" leadInLength="0/1"  />
               <InterpolatingParam id="1388" interp="linr"  time="0/1" value="0" leadInLength="0/1"  />
              </VectorParam>
             </Transformer>
             <Parameters>
              <VectorParam id="1389"  name="sourceCrop">
               <InterpolatingParam id="1390" interp="linr"  time="0/1" value="0" leadInLength="0/1"  />
               <InterpolatingParam id="1391" interp="linr"  time="0/1" value="0" leadInLength="0/1"  />
               <InterpolatingParam id="1392" interp="linr"  time="0/1" value="0" leadInLength="0/1"  />
               <InterpolatingParam id="1393" interp="linr"  time="0/1" value="0" leadInLength="0/1"  />
              </VectorParam>
              <VectorParam id="1394"  name="geometryCrop">
               <InterpolatingParam id="1395" interp="linr"  time="-9999999/1" value="0" leadInLength="0/1"  />
               <InterpolatingParam id="1396" interp="linr"  time="-9999999/1" value="0" leadInLength="0/1"  />
               <InterpolatingParam id="1397" interp="linr"  time="-9999999/1" value="0" leadInLength="0/1"  />
               <InterpolatingParam id="1398" interp="linr"  time="-9999999/1" value="0" leadInLength="0/1"  />
              </VectorParam>
              <InterpolatingParam id="1399" interp="linr"  time="-9999999/1" value="1" leadInLength="0/1"  name="opacity"/>
              <InterpolatingParam id="1400" interp="linr"  time="0/1" value="0" leadInLength="0/1"  name="cursorOpacity"/>
              <InterpolatingParam id="1401" interp="linr"  time="0/1" value="0" leadInLength="0/1"  name="cursorScale"/>
             </Parameters>
             <Attributes>
              <Attribute id="1402" value="" name="ident"/>
             </Attributes>
             <ExtraData>
              <Entry key="ZoomPanBin">
               <ZoomPanBin id="1403"  >
                <ZoomPanKeyframes>
                 <ZoomPanKeyframe id="1404" timeRangeEnd="-9999999/1" timeRangeDuration="0/1" interpolaterName="linr"  />
                </ZoomPanKeyframes>
               </ZoomPanBin>
              </Entry>
              <Entry key="CursorEffectBin">
               <CursorEffectBin id="1405"  >
                <CursorEffectKeyframes>
                </CursorEffectKeyframes>
               </CursorEffectBin>
              </Entry>
             </ExtraData>
            </ScreenVMFile>
            <MetaData>
             <entry key="AutoAppliedSmartFocus" val="False"/>
             <entry key="WinSubProjectDisplayName" val=""/>
            </MetaData>
           </UnifiedMedia>
           <UnifiedMedia id="1406"  >
            <AMFile id="1407" start="2485" duration="203" scalar="1/1" mediaStart="2585/1" mediaDuration="203/1" trackNumber="1" src="6" channelNumber="0,1" >
             <Parameters>
              <InterpolatingParam id="1408" interp="linr"  time="0/1" value="1" leadInLength="0/1"  name="volume"/>
              <Parameter id="1409"  name="captions"/>
             </Parameters>
             <Attributes>
              <Attribute id="1410" value="" name="ident"/>
              <Attribute id="1411" value="44100" name="sampleRate"/>
              <Attribute id="1412" value="16" name="bitDepth"/>
              <Attribute id="1413" value="1" name="gain"/>
              <Attribute id="1414" value="0" name="mixToMono"/>
             </Attributes>
            </AMFile>
            <ScreenVMFile id="1415" start="2485" duration="203" scalar="1/1" mediaStart="2585/1" mediaDuration="203/1" trackNumber="0" src="6" >
             <Transformer>
              <VectorParam id="1416"  name="translation">
               <InterpolatingParam id="1417" interp="linr"  time="-9999999/1" value="0" leadInLength="0/1"  />
               <InterpolatingParam id="1418" interp="linr"  time="-9999999/1" value="0" leadInLength="0/1"  />
               <InterpolatingParam id="1419" interp="linr"  time="-9999999/1" value="0" leadInLength="0/1"  />
              </VectorParam>
              <VectorParam id="1420"  name="rotation">
               <InterpolatingParam id="1421" interp="linr"  time="-9999999/1" value="0" leadInLength="0/1"  />
               <InterpolatingParam id="1422" interp="linr"  time="-9999999/1" value="0" leadInLength="0/1"  />
               <InterpolatingParam id="1423" interp="linr"  time="-9999999/1" value="0" leadInLength="0/1"  />
              </VectorParam>
              <VectorParam id="1424"  name="shear">
               <InterpolatingParam id="1425" interp="linr"  time="-9999999/1" value="0" leadInLength="0/1"  />
               <InterpolatingParam id="1426" interp="linr"  time="-9999999/1" value="0" leadInLength="0/1"  />
               <InterpolatingParam id="1427" interp="linr"  time="-9999999/1" value="0" leadInLength="0/1"  />
              </VectorParam>
              <VectorParam id="1428"  name="scale">
               <InterpolatingParam id="1429" interp="linr"  time="-9999999/1" value="1" leadInLength="0/1"  />
               <InterpolatingParam id="1430" interp="linr"  time="-9999999/1" value="1" leadInLength="0/1"  />
               <InterpolatingParam id="1431" interp="linr"  time="-9999999/1" value="1" leadInLength="0/1"  />
              </VectorParam>
              <VectorParam id="1432"  name="anchor">
               <InterpolatingParam id="1433" interp="linr"  time="0/1" value="0" leadInLength="0/1"  />
               <InterpolatingParam id="1434" interp="linr"  time="0/1" value="0" leadInLength="0/1"  />
               <InterpolatingParam id="1435" interp="linr"  time="0/1" value="0" leadInLength="0/1"  />
              </VectorParam>
             </Transformer>
             <Parameters>
              <VectorParam id="1436"  name="sourceCrop">
               <InterpolatingParam id="1437" interp="linr"  time="0/1" value="0" leadInLength="0/1"  />
               <InterpolatingParam id="1438" interp="linr"  time="0/1" value="0" leadInLength="0/1"  />
               <InterpolatingParam id="1439" interp="linr"  time="0/1" value="0" leadInLength="0/1"  />
               <InterpolatingParam id="1440" interp="linr"  time="0/1" value="0" leadInLength="0/1"  />
              </VectorParam>
              <VectorParam id="1441"  name="geometryCrop">
               <InterpolatingParam id="1442" interp="linr"  time="-9999999/1" value="0" leadInLength="0/1"  />
               <InterpolatingParam id="1443" interp="linr"  time="-9999999/1" value="0" leadInLength="0/1"  />
               <InterpolatingParam id="1444" interp="linr"  time="-9999999/1" value="0" leadInLength="0/1"  />
               <InterpolatingParam id="1445" interp="linr"  time="-9999999/1" value="0" leadInLength="0/1"  />
              </VectorParam>
              <InterpolatingParam id="1446" interp="linr"  time="-9999999/1" value="1" leadInLength="0/1"  name="opacity"/>
              <InterpolatingParam id="1447" interp="linr"  time="0/1" value="0" leadInLength="0/1"  name="cursorOpacity"/>
              <InterpolatingParam id="1448" interp="linr"  time="0/1" value="0" leadInLength="0/1"  name="cursorScale"/>
             </Parameters>
             <Attributes>
              <Attribute id="1449" value="" name="ident"/>
             </Attributes>
             <ExtraData>
              <Entry key="ZoomPanBin">
               <ZoomPanBin id="1450"  >
                <ZoomPanKeyframes>
                 <ZoomPanKeyframe id="1451" timeRangeEnd="-9999999/1" timeRangeDuration="0/1" interpolaterName="linr"  />
                </ZoomPanKeyframes>
               </ZoomPanBin>
              </Entry>
              <Entry key="CursorEffectBin">
               <CursorEffectBin id="1452"  >
                <CursorEffectKeyframes>
                </CursorEffectKeyframes>
               </CursorEffectBin>
              </Entry>
             </ExtraData>
            </ScreenVMFile>
            <MetaData>
             <entry key="AutoAppliedSmartFocus" val="False"/>
             <entry key="WinSubProjectDisplayName" val=""/>
            </MetaData>
           </UnifiedMedia>
          </Medias>
         </GenericTrack>
        </StitchedMedia>
        <StitchedMedia id="1453" start="5320" duration="1919" scalar="1/1" mediaStart="7/1" mediaDuration="1919/1" minMediaStart="0/1" >
         <Transformer>
          <VectorParam id="1454"  name="translation">
           <InterpolatingParam id="1455" interp="linr"  time="-9999999/1" value="0" leadInLength="0/1"  />
           <InterpolatingParam id="1456" interp="linr"  time="-9999999/1" value="0" leadInLength="0/1"  />
           <InterpolatingParam id="1457" interp="linr"  time="-9999999/1" value="0" leadInLength="0/1"  />
          </VectorParam>
          <VectorParam id="1458"  name="rotation">
           <InterpolatingParam id="1459" interp="linr"  time="-9999999/1" value="0" leadInLength="0/1"  />
           <InterpolatingParam id="1460" interp="linr"  time="-9999999/1" value="0" leadInLength="0/1"  />
           <InterpolatingParam id="1461" interp="linr"  time="-9999999/1" value="0" leadInLength="0/1"  />
          </VectorParam>
          <VectorParam id="1462"  name="shear">
           <InterpolatingParam id="1463" interp="linr"  time="-9999999/1" value="0" leadInLength="0/1"  />
           <InterpolatingParam id="1464" interp="linr"  time="-9999999/1" value="0" leadInLength="0/1"  />
           <InterpolatingParam id="1465" interp="linr"  time="-9999999/1" value="0" leadInLength="0/1"  />
          </VectorParam>
          <VectorParam id="1466"  name="scale">
           <InterpolatingParam id="1467" interp="linr"  time="-9999999/1" value="0.66666666666666663" leadInLength="0/1"  />
           <InterpolatingParam id="1468" interp="linr"  time="-9999999/1" value="0.66666666666666663" leadInLength="0/1"  />
           <InterpolatingParam id="1469" interp="linr"  time="-9999999/1" value="1" leadInLength="0/1"  />
          </VectorParam>
          <VectorParam id="1470"  name="anchor">
           <InterpolatingParam id="1471" interp="linr"  time="0/1" value="0" leadInLength="0/1"  />
           <InterpolatingParam id="1472" interp="linr"  time="0/1" value="0" leadInLength="0/1"  />
           <InterpolatingParam id="1473" interp="linr"  time="0/1" value="0" leadInLength="0/1"  />
          </VectorParam>
         </Transformer>
         <Parameters>
          <VectorParam id="1474"  name="sourceCrop">
           <InterpolatingParam id="1475" interp="linr"  time="0/1" value="0" leadInLength="0/1"  />
           <InterpolatingParam id="1476" interp="linr"  time="0/1" value="0" leadInLength="0/1"  />
           <InterpolatingParam id="1477" interp="linr"  time="0/1" value="0" leadInLength="0/1"  />
           <InterpolatingParam id="1478" interp="linr"  time="0/1" value="0" leadInLength="0/1"  />
          </VectorParam>
          <VectorParam id="1479"  name="geometryCrop">
           <InterpolatingParam id="1480" interp="linr"  time="-9999999/1" value="0" leadInLength="0/1"  />
           <InterpolatingParam id="1481" interp="linr"  time="-9999999/1" value="0" leadInLength="0/1"  />
           <InterpolatingParam id="1482" interp="linr"  time="-9999999/1" value="0" leadInLength="0/1"  />
           <InterpolatingParam id="1483" interp="linr"  time="-9999999/1" value="0" leadInLength="0/1"  />
          </VectorParam>
          <InterpolatingParam id="1484" interp="linr"  time="-9999999/1" value="1" leadInLength="0/1"  name="opacity"/>
          <InterpolatingParam id="1485" interp="linr"  time="0/1" value="1" leadInLength="0/1"  name="cursorOpacity"/>
          <InterpolatingParam id="1486" interp="linr"  time="0/1" value="1" leadInLength="0/1"  name="cursorScale"/>
          <InterpolatingParam id="1487" interp="linr"  time="0/1" value="1" leadInLength="0/1"  name="volume"/>
          <Parameter id="1488"  name="captions"/>
         </Parameters>
         <Effects>
          <GenericEffect id="1489" name = "CursorBaseEffectName" >
           <Parameters>
           <InterpolatingParam id="1490" interp="linr"  time="-9999999/1" value="1" leadInLength="0/1"   name="cursorSize"/>
           <InterpolatingParam id="1491" interp="linr"  time="-9999999/1" value="0" leadInLength="0/1"   name="highlightBlurRadius"/>
           <InterpolatingParam id="1492" interp="linr"  time="-9999999/1" value="0" leadInLength="0/1"   name="highlightColorBlue"/>
           <InterpolatingParam id="1493" interp="linr"  time="-9999999/1" value="255" leadInLength="0/1"   name="highlightColorGreen"/>
           <InterpolatingParam id="1494" interp="linr"  time="-9999999/1" value="255" leadInLength="0/1"   name="highlightColorRed"/>
           <InterpolatingParam id="1495" interp="linr"  time="-9999999/1" value="5" leadInLength="0/1"   name="highlightFeatherSize"/>
           <InterpolatingParam id="1496" interp="linr"  time="-9999999/1" value="2" leadInLength="0/1"   name="highlightMagnification"/>
           <InterpolatingParam id="1497" interp="linr"  time="-9999999/1" value="1" leadInLength="0/1"   name="highlightOpacity"/>
           <InterpolatingParam id="1498" interp="linr"  time="-9999999/1" value="45" leadInLength="0/1"   name="highlightSize"/>
           <Parameter id="1499"   name="highlightType">
            <Keyframes>
            <Keyframe id="1500"  time="-9999999/1" value="0" leadInLength="0/1"  />
            </Keyframes>
           </Parameter>
           <InterpolatingParam id="1501" interp="linr"  time="-9999999/1" value="0" leadInLength="0/1"   name="leftClickColorBlue"/>
           <InterpolatingParam id="1502" interp="linr"  time="-9999999/1" value="0" leadInLength="0/1"   name="leftClickColorGreen"/>
           <InterpolatingParam id="1503" interp="linr"  time="-9999999/1" value="255" leadInLength="0/1"   name="leftClickColorRed"/>
           <InterpolatingParam id="1504" interp="linr"  time="-9999999/1" value="0.80000000000000004" leadInLength="0/1"   name="leftClickDuration"/>
           <InterpolatingParam id="1505" interp="linr"  time="-9999999/1" value="20" leadInLength="0/1"   name="leftClickSize"/>
           <Parameter id="1506"   name="leftClickSoundFilename">
            <Keyframes>
            <Keyframe id="1507"  time="-9999999/1" value="" leadInLength="0/1"  />
            </Keyframes>
           </Parameter>
           <InterpolatingParam id="1508" interp="linr"  time="-9999999/1" value="1" leadInLength="0/1"   name="leftClickSoundVolume"/>
           <Parameter id="1509"   name="leftClickType">
            <Keyframes>
            <Keyframe id="1510"  time="-9999999/1" value="0" leadInLength="0/1"  />
            </Keyframes>
           </Parameter>
           <InterpolatingParam id="1511" interp="linr"  time="-9999999/1" value="1" leadInLength="0/1"   name="opacity"/>
           <InterpolatingParam id="1512" interp="linr"  time="-9999999/1" value="255" leadInLength="0/1"   name="rightClickColorBlue"/>
           <InterpolatingParam id="1513" interp="linr"  time="-9999999/1" value="0" leadInLength="0/1"   name="rightClickColorGreen"/>
           <InterpolatingParam id="1514" interp="linr"  time="-9999999/1" value="0" leadInLength="0/1"   name="rightClickColorRed"/>
           <InterpolatingParam id="1515" interp="linr"  time="-9999999/1" value="0.80000000000000004" leadInLength="0/1"   name="rightClickDuration"/>
           <InterpolatingParam id="1516" interp="linr"  time="-9999999/1" value="20" leadInLength="0/1"   name="rightClickSize"/>
           <Parameter id="1517"   name="rightClickSoundFilename">
            <Keyframes>
            <Keyframe id="1518"  time="-9999999/1" value="" leadInLength="0/1"  />
            </Keyframes>
           </Parameter>
           <InterpolatingParam id="1519" interp="linr"  time="-9999999/1" value="1" leadInLength="0/1"   name="rightClickSoundVolume"/>
           <Parameter id="1520"   name="rightClickType">
            <Keyframes>
            <Keyframe id="1521"  time="-9999999/1" value="0" leadInLength="0/1"  />
            </Keyframes>
           </Parameter>
           </Parameters>
           <MetaData>
            <entry key="effectIndex" val="0"/>
           </MetaData>
          </GenericEffect>
         </Effects>
         <Attributes>
          <Attribute id="1522" value="" name="ident"/>
          <Attribute id="1523" value="0" name="mixToMono"/>
         </Attributes>
         <MetaData>
          <entry key="AutoAppliedSmartFocus" val="False"/>
          <entry key="WinSubProjectDisplayName" val=""/>
         </MetaData>
         <ExtraData>
          <Entry key="ZoomPanBin">
           <ZoomPanBin id="1524"  >
            <ZoomPanKeyframes>
             <ZoomPanKeyframe id="1525" timeRangeEnd="-9999999/1" timeRangeDuration="0/1" interpolaterName="linr"  />
            </ZoomPanKeyframes>
           </ZoomPanBin>
          </Entry>
          <Entry key="CursorEffectBin">
           <CursorEffectBin id="1526"  >
            <CursorEffectKeyframes>
             <CursorEffectKeyframe id="1527" timeRangeEnd="-9999999/1" timeRangeDuration="0/1" interpolaterName=""  />
            </CursorEffectKeyframes>
           </CursorEffectBin>
          </Entry>
         </ExtraData>
         <GenericTrack id="1528"  >
          <Attributes>
           <Attribute id="1529" value="" name="ident"/>
           <Attribute id="1530" value="0" name="audioMuted"/>
           <Attribute id="1531" value="0" name="videoHidden"/>
          </Attributes>
          <MetaData>
           <entry key="IsLocked" val="False"/>
           <entry key="WinTrackHeight" val="0"/>
          </MetaData>
          <Medias>
           <UnifiedMedia id="1532"  >
            <AMFile id="1533" start="0" duration="810" scalar="1/1" mediaStart="0/1" mediaDuration="810/1" trackNumber="1" src="7" channelNumber="0,1" >
             <Parameters>
              <InterpolatingParam id="1534" interp="linr"  time="0/1" value="1" leadInLength="0/1"  name="volume"/>
              <Parameter id="1535"  name="captions"/>
             </Parameters>
             <Attributes>
              <Attribute id="1536" value="" name="ident"/>
              <Attribute id="1537" value="44100" name="sampleRate"/>
              <Attribute id="1538" value="16" name="bitDepth"/>
              <Attribute id="1539" value="1" name="gain"/>
              <Attribute id="1540" value="0" name="mixToMono"/>
             </Attributes>
            </AMFile>
            <ScreenVMFile id="1541" start="0" duration="810" scalar="1/1" mediaStart="0/1" mediaDuration="810/1" trackNumber="0" src="7" >
             <Transformer>
              <VectorParam id="1542"  name="translation">
               <InterpolatingParam id="1543" interp="linr"  time="-9999999/1" value="0" leadInLength="0/1"  />
               <InterpolatingParam id="1544" interp="linr"  time="-9999999/1" value="0" leadInLength="0/1"  />
               <InterpolatingParam id="1545" interp="linr"  time="-9999999/1" value="0" leadInLength="0/1"  />
              </VectorParam>
              <VectorParam id="1546"  name="rotation">
               <InterpolatingParam id="1547" interp="linr"  time="-9999999/1" value="0" leadInLength="0/1"  />
               <InterpolatingParam id="1548" interp="linr"  time="-9999999/1" value="0" leadInLength="0/1"  />
               <InterpolatingParam id="1549" interp="linr"  time="-9999999/1" value="0" leadInLength="0/1"  />
              </VectorParam>
              <VectorParam id="1550"  name="shear">
               <InterpolatingParam id="1551" interp="linr"  time="-9999999/1" value="0" leadInLength="0/1"  />
               <InterpolatingParam id="1552" interp="linr"  time="-9999999/1" value="0" leadInLength="0/1"  />
               <InterpolatingParam id="1553" interp="linr"  time="-9999999/1" value="0" leadInLength="0/1"  />
              </VectorParam>
              <VectorParam id="1554"  name="scale">
               <InterpolatingParam id="1555" interp="linr"  time="-9999999/1" value="1" leadInLength="0/1"  />
               <InterpolatingParam id="1556" interp="linr"  time="-9999999/1" value="1" leadInLength="0/1"  />
               <InterpolatingParam id="1557" interp="linr"  time="-9999999/1" value="1" leadInLength="0/1"  />
              </VectorParam>
              <VectorParam id="1558"  name="anchor">
               <InterpolatingParam id="1559" interp="linr"  time="0/1" value="0" leadInLength="0/1"  />
               <InterpolatingParam id="1560" interp="linr"  time="0/1" value="0" leadInLength="0/1"  />
               <InterpolatingParam id="1561" interp="linr"  time="0/1" value="0" leadInLength="0/1"  />
              </VectorParam>
             </Transformer>
             <Parameters>
              <VectorParam id="1562"  name="sourceCrop">
               <InterpolatingParam id="1563" interp="linr"  time="0/1" value="0" leadInLength="0/1"  />
               <InterpolatingParam id="1564" interp="linr"  time="0/1" value="0" leadInLength="0/1"  />
               <InterpolatingParam id="1565" interp="linr"  time="0/1" value="0" leadInLength="0/1"  />
               <InterpolatingParam id="1566" interp="linr"  time="0/1" value="0" leadInLength="0/1"  />
              </VectorParam>
              <VectorParam id="1567"  name="geometryCrop">
               <InterpolatingParam id="1568" interp="linr"  time="-9999999/1" value="0" leadInLength="0/1"  />
               <InterpolatingParam id="1569" interp="linr"  time="-9999999/1" value="0" leadInLength="0/1"  />
               <InterpolatingParam id="1570" interp="linr"  time="-9999999/1" value="0" leadInLength="0/1"  />
               <InterpolatingParam id="1571" interp="linr"  time="-9999999/1" value="0" leadInLength="0/1"  />
              </VectorParam>
              <InterpolatingParam id="1572" interp="linr"  time="-9999999/1" value="1" leadInLength="0/1"  name="opacity"/>
              <InterpolatingParam id="1573" interp="linr"  time="0/1" value="0" leadInLength="0/1"  name="cursorOpacity"/>
              <InterpolatingParam id="1574" interp="linr"  time="0/1" value="0" leadInLength="0/1"  name="cursorScale"/>
             </Parameters>
             <Attributes>
              <Attribute id="1575" value="" name="ident"/>
             </Attributes>
             <ExtraData>
              <Entry key="ZoomPanBin">
               <ZoomPanBin id="1576"  >
                <ZoomPanKeyframes>
                 <ZoomPanKeyframe id="1577" timeRangeEnd="-9999999/1" timeRangeDuration="0/1" interpolaterName="linr"  />
                </ZoomPanKeyframes>
               </ZoomPanBin>
              </Entry>
              <Entry key="CursorEffectBin">
               <CursorEffectBin id="1578"  >
                <CursorEffectKeyframes>
                </CursorEffectKeyframes>
               </CursorEffectBin>
              </Entry>
             </ExtraData>
            </ScreenVMFile>
            <MetaData>
             <entry key="AutoAppliedSmartFocus" val="False"/>
             <entry key="WinSubProjectDisplayName" val=""/>
            </MetaData>
           </UnifiedMedia>
           <UnifiedMedia id="1579"  >
            <AMFile id="1580" start="810" duration="20" scalar="1/1" mediaStart="816/1" mediaDuration="20/1" trackNumber="1" src="7" channelNumber="0,1" >
             <Parameters>
              <InterpolatingParam id="1581" interp="linr"  time="0/1" value="1" leadInLength="0/1"  name="volume"/>
              <Parameter id="1582"  name="captions"/>
             </Parameters>
             <Attributes>
              <Attribute id="1583" value="" name="ident"/>
              <Attribute id="1584" value="44100" name="sampleRate"/>
              <Attribute id="1585" value="16" name="bitDepth"/>
              <Attribute id="1586" value="1" name="gain"/>
              <Attribute id="1587" value="0" name="mixToMono"/>
             </Attributes>
            </AMFile>
            <ScreenVMFile id="1588" start="810" duration="20" scalar="1/1" mediaStart="816/1" mediaDuration="20/1" trackNumber="0" src="7" >
             <Transformer>
              <VectorParam id="1589"  name="translation">
               <InterpolatingParam id="1590" interp="linr"  time="-9999999/1" value="0" leadInLength="0/1"  />
               <InterpolatingParam id="1591" interp="linr"  time="-9999999/1" value="0" leadInLength="0/1"  />
               <InterpolatingParam id="1592" interp="linr"  time="-9999999/1" value="0" leadInLength="0/1"  />
              </VectorParam>
              <VectorParam id="1593"  name="rotation">
               <InterpolatingParam id="1594" interp="linr"  time="-9999999/1" value="0" leadInLength="0/1"  />
               <InterpolatingParam id="1595" interp="linr"  time="-9999999/1" value="0" leadInLength="0/1"  />
               <InterpolatingParam id="1596" interp="linr"  time="-9999999/1" value="0" leadInLength="0/1"  />
              </VectorParam>
              <VectorParam id="1597"  name="shear">
               <InterpolatingParam id="1598" interp="linr"  time="-9999999/1" value="0" leadInLength="0/1"  />
               <InterpolatingParam id="1599" interp="linr"  time="-9999999/1" value="0" leadInLength="0/1"  />
               <InterpolatingParam id="1600" interp="linr"  time="-9999999/1" value="0" leadInLength="0/1"  />
              </VectorParam>
              <VectorParam id="1601"  name="scale">
               <InterpolatingParam id="1602" interp="linr"  time="-9999999/1" value="1" leadInLength="0/1"  />
               <InterpolatingParam id="1603" interp="linr"  time="-9999999/1" value="1" leadInLength="0/1"  />
               <InterpolatingParam id="1604" interp="linr"  time="-9999999/1" value="1" leadInLength="0/1"  />
              </VectorParam>
              <VectorParam id="1605"  name="anchor">
               <InterpolatingParam id="1606" interp="linr"  time="0/1" value="0" leadInLength="0/1"  />
               <InterpolatingParam id="1607" interp="linr"  time="0/1" value="0" leadInLength="0/1"  />
               <InterpolatingParam id="1608" interp="linr"  time="0/1" value="0" leadInLength="0/1"  />
              </VectorParam>
             </Transformer>
             <Parameters>
              <VectorParam id="1609"  name="sourceCrop">
               <InterpolatingParam id="1610" interp="linr"  time="0/1" value="0" leadInLength="0/1"  />
               <InterpolatingParam id="1611" interp="linr"  time="0/1" value="0" leadInLength="0/1"  />
               <InterpolatingParam id="1612" interp="linr"  time="0/1" value="0" leadInLength="0/1"  />
               <InterpolatingParam id="1613" interp="linr"  time="0/1" value="0" leadInLength="0/1"  />
              </VectorParam>
              <VectorParam id="1614"  name="geometryCrop">
               <InterpolatingParam id="1615" interp="linr"  time="-9999999/1" value="0" leadInLength="0/1"  />
               <InterpolatingParam id="1616" interp="linr"  time="-9999999/1" value="0" leadInLength="0/1"  />
               <InterpolatingParam id="1617" interp="linr"  time="-9999999/1" value="0" leadInLength="0/1"  />
               <InterpolatingParam id="1618" interp="linr"  time="-9999999/1" value="0" leadInLength="0/1"  />
              </VectorParam>
              <InterpolatingParam id="1619" interp="linr"  time="-9999999/1" value="1" leadInLength="0/1"  name="opacity"/>
              <InterpolatingParam id="1620" interp="linr"  time="0/1" value="0" leadInLength="0/1"  name="cursorOpacity"/>
              <InterpolatingParam id="1621" interp="linr"  time="0/1" value="0" leadInLength="0/1"  name="cursorScale"/>
             </Parameters>
             <Attributes>
              <Attribute id="1622" value="" name="ident"/>
             </Attributes>
             <ExtraData>
              <Entry key="ZoomPanBin">
               <ZoomPanBin id="1623"  >
                <ZoomPanKeyframes>
                 <ZoomPanKeyframe id="1624" timeRangeEnd="-9999999/1" timeRangeDuration="0/1" interpolaterName="linr"  />
                </ZoomPanKeyframes>
               </ZoomPanBin>
              </Entry>
              <Entry key="CursorEffectBin">
               <CursorEffectBin id="1625"  >
                <CursorEffectKeyframes>
                </CursorEffectKeyframes>
               </CursorEffectBin>
              </Entry>
             </ExtraData>
            </ScreenVMFile>
            <MetaData>
             <entry key="AutoAppliedSmartFocus" val="False"/>
             <entry key="WinSubProjectDisplayName" val=""/>
            </MetaData>
           </UnifiedMedia>
           <UnifiedMedia id="1626"  >
            <AMFile id="1627" start="830" duration="303" scalar="1/1" mediaStart="850/1" mediaDuration="303/1" trackNumber="1" src="7" channelNumber="0,1" >
             <Parameters>
              <InterpolatingParam id="1628" interp="linr"  time="0/1" value="1" leadInLength="0/1"  name="volume"/>
              <Parameter id="1629"  name="captions"/>
             </Parameters>
             <Attributes>
              <Attribute id="1630" value="" name="ident"/>
              <Attribute id="1631" value="44100" name="sampleRate"/>
              <Attribute id="1632" value="16" name="bitDepth"/>
              <Attribute id="1633" value="1" name="gain"/>
              <Attribute id="1634" value="0" name="mixToMono"/>
             </Attributes>
            </AMFile>
            <ScreenVMFile id="1635" start="830" duration="303" scalar="1/1" mediaStart="850/1" mediaDuration="303/1" trackNumber="0" src="7" >
             <Transformer>
              <VectorParam id="1636"  name="translation">
               <InterpolatingParam id="1637" interp="linr"  time="-9999999/1" value="0" leadInLength="0/1"  />
               <InterpolatingParam id="1638" interp="linr"  time="-9999999/1" value="0" leadInLength="0/1"  />
               <InterpolatingParam id="1639" interp="linr"  time="-9999999/1" value="0" leadInLength="0/1"  />
              </VectorParam>
              <VectorParam id="1640"  name="rotation">
               <InterpolatingParam id="1641" interp="linr"  time="-9999999/1" value="0" leadInLength="0/1"  />
               <InterpolatingParam id="1642" interp="linr"  time="-9999999/1" value="0" leadInLength="0/1"  />
               <InterpolatingParam id="1643" interp="linr"  time="-9999999/1" value="0" leadInLength="0/1"  />
              </VectorParam>
              <VectorParam id="1644"  name="shear">
               <InterpolatingParam id="1645" interp="linr"  time="-9999999/1" value="0" leadInLength="0/1"  />
               <InterpolatingParam id="1646" interp="linr"  time="-9999999/1" value="0" leadInLength="0/1"  />
               <InterpolatingParam id="1647" interp="linr"  time="-9999999/1" value="0" leadInLength="0/1"  />
              </VectorParam>
              <VectorParam id="1648"  name="scale">
               <InterpolatingParam id="1649" interp="linr"  time="-9999999/1" value="1" leadInLength="0/1"  />
               <InterpolatingParam id="1650" interp="linr"  time="-9999999/1" value="1" leadInLength="0/1"  />
               <InterpolatingParam id="1651" interp="linr"  time="-9999999/1" value="1" leadInLength="0/1"  />
              </VectorParam>
              <VectorParam id="1652"  name="anchor">
               <InterpolatingParam id="1653" interp="linr"  time="0/1" value="0" leadInLength="0/1"  />
               <InterpolatingParam id="1654" interp="linr"  time="0/1" value="0" leadInLength="0/1"  />
               <InterpolatingParam id="1655" interp="linr"  time="0/1" value="0" leadInLength="0/1"  />
              </VectorParam>
             </Transformer>
             <Parameters>
              <VectorParam id="1656"  name="sourceCrop">
               <InterpolatingParam id="1657" interp="linr"  time="0/1" value="0" leadInLength="0/1"  />
               <InterpolatingParam id="1658" interp="linr"  time="0/1" value="0" leadInLength="0/1"  />
               <InterpolatingParam id="1659" interp="linr"  time="0/1" value="0" leadInLength="0/1"  />
               <InterpolatingParam id="1660" interp="linr"  time="0/1" value="0" leadInLength="0/1"  />
              </VectorParam>
              <VectorParam id="1661"  name="geometryCrop">
               <InterpolatingParam id="1662" interp="linr"  time="-9999999/1" value="0" leadInLength="0/1"  />
               <InterpolatingParam id="1663" interp="linr"  time="-9999999/1" value="0" leadInLength="0/1"  />
               <InterpolatingParam id="1664" interp="linr"  time="-9999999/1" value="0" leadInLength="0/1"  />
               <InterpolatingParam id="1665" interp="linr"  time="-9999999/1" value="0" leadInLength="0/1"  />
              </VectorParam>
              <InterpolatingParam id="1666" interp="linr"  time="-9999999/1" value="1" leadInLength="0/1"  name="opacity"/>
              <InterpolatingParam id="1667" interp="linr"  time="0/1" value="0" leadInLength="0/1"  name="cursorOpacity"/>
              <InterpolatingParam id="1668" interp="linr"  time="0/1" value="0" leadInLength="0/1"  name="cursorScale"/>
             </Parameters>
             <Attributes>
              <Attribute id="1669" value="" name="ident"/>
             </Attributes>
             <ExtraData>
              <Entry key="ZoomPanBin">
               <ZoomPanBin id="1670"  >
                <ZoomPanKeyframes>
                 <ZoomPanKeyframe id="1671" timeRangeEnd="-9999999/1" timeRangeDuration="0/1" interpolaterName="linr"  />
                </ZoomPanKeyframes>
               </ZoomPanBin>
              </Entry>
              <Entry key="CursorEffectBin">
               <CursorEffectBin id="1672"  >
                <CursorEffectKeyframes>
                </CursorEffectKeyframes>
               </CursorEffectBin>
              </Entry>
             </ExtraData>
            </ScreenVMFile>
            <MetaData>
             <entry key="AutoAppliedSmartFocus" val="False"/>
             <entry key="WinSubProjectDisplayName" val=""/>
            </MetaData>
           </UnifiedMedia>
           <UnifiedMedia id="1673"  >
            <AMFile id="1674" start="1133" duration="19" scalar="1/1" mediaStart="1166/1" mediaDuration="19/1" trackNumber="1" src="7" channelNumber="0,1" >
             <Parameters>
              <InterpolatingParam id="1675" interp="linr"  time="0/1" value="1" leadInLength="0/1"  name="volume"/>
              <Parameter id="1676"  name="captions"/>
             </Parameters>
             <Attributes>
              <Attribute id="1677" value="" name="ident"/>
              <Attribute id="1678" value="44100" name="sampleRate"/>
              <Attribute id="1679" value="16" name="bitDepth"/>
              <Attribute id="1680" value="1" name="gain"/>
              <Attribute id="1681" value="0" name="mixToMono"/>
             </Attributes>
            </AMFile>
            <ScreenVMFile id="1682" start="1133" duration="19" scalar="1/1" mediaStart="1166/1" mediaDuration="19/1" trackNumber="0" src="7" >
             <Transformer>
              <VectorParam id="1683"  name="translation">
               <InterpolatingParam id="1684" interp="linr"  time="-9999999/1" value="0" leadInLength="0/1"  />
               <InterpolatingParam id="1685" interp="linr"  time="-9999999/1" value="0" leadInLength="0/1"  />
               <InterpolatingParam id="1686" interp="linr"  time="-9999999/1" value="0" leadInLength="0/1"  />
              </VectorParam>
              <VectorParam id="1687"  name="rotation">
               <InterpolatingParam id="1688" interp="linr"  time="-9999999/1" value="0" leadInLength="0/1"  />
               <InterpolatingParam id="1689" interp="linr"  time="-9999999/1" value="0" leadInLength="0/1"  />
               <InterpolatingParam id="1690" interp="linr"  time="-9999999/1" value="0" leadInLength="0/1"  />
              </VectorParam>
              <VectorParam id="1691"  name="shear">
               <InterpolatingParam id="1692" interp="linr"  time="-9999999/1" value="0" leadInLength="0/1"  />
               <InterpolatingParam id="1693" interp="linr"  time="-9999999/1" value="0" leadInLength="0/1"  />
               <InterpolatingParam id="1694" interp="linr"  time="-9999999/1" value="0" leadInLength="0/1"  />
              </VectorParam>
              <VectorParam id="1695"  name="scale">
               <InterpolatingParam id="1696" interp="linr"  time="-9999999/1" value="1" leadInLength="0/1"  />
               <InterpolatingParam id="1697" interp="linr"  time="-9999999/1" value="1" leadInLength="0/1"  />
               <InterpolatingParam id="1698" interp="linr"  time="-9999999/1" value="1" leadInLength="0/1"  />
              </VectorParam>
              <VectorParam id="1699"  name="anchor">
               <InterpolatingParam id="1700" interp="linr"  time="0/1" value="0" leadInLength="0/1"  />
               <InterpolatingParam id="1701" interp="linr"  time="0/1" value="0" leadInLength="0/1"  />
               <InterpolatingParam id="1702" interp="linr"  time="0/1" value="0" leadInLength="0/1"  />
              </VectorParam>
             </Transformer>
             <Parameters>
              <VectorParam id="1703"  name="sourceCrop">
               <InterpolatingParam id="1704" interp="linr"  time="0/1" value="0" leadInLength="0/1"  />
               <InterpolatingParam id="1705" interp="linr"  time="0/1" value="0" leadInLength="0/1"  />
               <InterpolatingParam id="1706" interp="linr"  time="0/1" value="0" leadInLength="0/1"  />
               <InterpolatingParam id="1707" interp="linr"  time="0/1" value="0" leadInLength="0/1"  />
              </VectorParam>
              <VectorParam id="1708"  name="geometryCrop">
               <InterpolatingParam id="1709" interp="linr"  time="-9999999/1" value="0" leadInLength="0/1"  />
               <InterpolatingParam id="1710" interp="linr"  time="-9999999/1" value="0" leadInLength="0/1"  />
               <InterpolatingParam id="1711" interp="linr"  time="-9999999/1" value="0" leadInLength="0/1"  />
               <InterpolatingParam id="1712" interp="linr"  time="-9999999/1" value="0" leadInLength="0/1"  />
              </VectorParam>
              <InterpolatingParam id="1713" interp="linr"  time="-9999999/1" value="1" leadInLength="0/1"  name="opacity"/>
              <InterpolatingParam id="1714" interp="linr"  time="0/1" value="0" leadInLength="0/1"  name="cursorOpacity"/>
              <InterpolatingParam id="1715" interp="linr"  time="0/1" value="0" leadInLength="0/1"  name="cursorScale"/>
             </Parameters>
             <Attributes>
              <Attribute id="1716" value="" name="ident"/>
             </Attributes>
             <ExtraData>
              <Entry key="ZoomPanBin">
               <ZoomPanBin id="1717"  >
                <ZoomPanKeyframes>
                 <ZoomPanKeyframe id="1718" timeRangeEnd="-9999999/1" timeRangeDuration="0/1" interpolaterName="linr"  />
                </ZoomPanKeyframes>
               </ZoomPanBin>
              </Entry>
              <Entry key="CursorEffectBin">
               <CursorEffectBin id="1719"  >
                <CursorEffectKeyframes>
                </CursorEffectKeyframes>
               </CursorEffectBin>
              </Entry>
             </ExtraData>
            </ScreenVMFile>
            <MetaData>
             <entry key="AutoAppliedSmartFocus" val="False"/>
             <entry key="WinSubProjectDisplayName" val=""/>
            </MetaData>
           </UnifiedMedia>
           <UnifiedMedia id="1720"  >
            <AMFile id="1721" start="1152" duration="886" scalar="1/1" mediaStart="1206/1" mediaDuration="886/1" trackNumber="1" src="7" channelNumber="0,1" >
             <Parameters>
              <InterpolatingParam id="1722" interp="linr"  time="0/1" value="1" leadInLength="0/1"  name="volume"/>
              <Parameter id="1723"  name="captions"/>
             </Parameters>
             <Attributes>
              <Attribute id="1724" value="" name="ident"/>
              <Attribute id="1725" value="44100" name="sampleRate"/>
              <Attribute id="1726" value="16" name="bitDepth"/>
              <Attribute id="1727" value="1" name="gain"/>
              <Attribute id="1728" value="0" name="mixToMono"/>
             </Attributes>
            </AMFile>
            <ScreenVMFile id="1729" start="1152" duration="886" scalar="1/1" mediaStart="1206/1" mediaDuration="886/1" trackNumber="0" src="7" >
             <Transformer>
              <VectorParam id="1730"  name="translation">
               <InterpolatingParam id="1731" interp="linr"  time="-9999999/1" value="0" leadInLength="0/1"  />
               <InterpolatingParam id="1732" interp="linr"  time="-9999999/1" value="0" leadInLength="0/1"  />
               <InterpolatingParam id="1733" interp="linr"  time="-9999999/1" value="0" leadInLength="0/1"  />
              </VectorParam>
              <VectorParam id="1734"  name="rotation">
               <InterpolatingParam id="1735" interp="linr"  time="-9999999/1" value="0" leadInLength="0/1"  />
               <InterpolatingParam id="1736" interp="linr"  time="-9999999/1" value="0" leadInLength="0/1"  />
               <InterpolatingParam id="1737" interp="linr"  time="-9999999/1" value="0" leadInLength="0/1"  />
              </VectorParam>
              <VectorParam id="1738"  name="shear">
               <InterpolatingParam id="1739" interp="linr"  time="-9999999/1" value="0" leadInLength="0/1"  />
               <InterpolatingParam id="1740" interp="linr"  time="-9999999/1" value="0" leadInLength="0/1"  />
               <InterpolatingParam id="1741" interp="linr"  time="-9999999/1" value="0" leadInLength="0/1"  />
              </VectorParam>
              <VectorParam id="1742"  name="scale">
               <InterpolatingParam id="1743" interp="linr"  time="-9999999/1" value="1" leadInLength="0/1"  />
               <InterpolatingParam id="1744" interp="linr"  time="-9999999/1" value="1" leadInLength="0/1"  />
               <InterpolatingParam id="1745" interp="linr"  time="-9999999/1" value="1" leadInLength="0/1"  />
              </VectorParam>
              <VectorParam id="1746"  name="anchor">
               <InterpolatingParam id="1747" interp="linr"  time="0/1" value="0" leadInLength="0/1"  />
               <InterpolatingParam id="1748" interp="linr"  time="0/1" value="0" leadInLength="0/1"  />
               <InterpolatingParam id="1749" interp="linr"  time="0/1" value="0" leadInLength="0/1"  />
              </VectorParam>
             </Transformer>
             <Parameters>
              <VectorParam id="1750"  name="sourceCrop">
               <InterpolatingParam id="1751" interp="linr"  time="0/1" value="0" leadInLength="0/1"  />
               <InterpolatingParam id="1752" interp="linr"  time="0/1" value="0" leadInLength="0/1"  />
               <InterpolatingParam id="1753" interp="linr"  time="0/1" value="0" leadInLength="0/1"  />
               <InterpolatingParam id="1754" interp="linr"  time="0/1" value="0" leadInLength="0/1"  />
              </VectorParam>
              <VectorParam id="1755"  name="geometryCrop">
               <InterpolatingParam id="1756" interp="linr"  time="-9999999/1" value="0" leadInLength="0/1"  />
               <InterpolatingParam id="1757" interp="linr"  time="-9999999/1" value="0" leadInLength="0/1"  />
               <InterpolatingParam id="1758" interp="linr"  time="-9999999/1" value="0" leadInLength="0/1"  />
               <InterpolatingParam id="1759" interp="linr"  time="-9999999/1" value="0" leadInLength="0/1"  />
              </VectorParam>
              <InterpolatingParam id="1760" interp="linr"  time="-9999999/1" value="1" leadInLength="0/1"  name="opacity"/>
              <InterpolatingParam id="1761" interp="linr"  time="0/1" value="0" leadInLength="0/1"  name="cursorOpacity"/>
              <InterpolatingParam id="1762" interp="linr"  time="0/1" value="0" leadInLength="0/1"  name="cursorScale"/>
             </Parameters>
             <Attributes>
              <Attribute id="1763" value="" name="ident"/>
             </Attributes>
             <ExtraData>
              <Entry key="ZoomPanBin">
               <ZoomPanBin id="1764"  >
                <ZoomPanKeyframes>
                 <ZoomPanKeyframe id="1765" timeRangeEnd="-9999999/1" timeRangeDuration="0/1" interpolaterName="linr"  />
                </ZoomPanKeyframes>
               </ZoomPanBin>
              </Entry>
              <Entry key="CursorEffectBin">
               <CursorEffectBin id="1766"  >
                <CursorEffectKeyframes>
                </CursorEffectKeyframes>
               </CursorEffectBin>
              </Entry>
             </ExtraData>
            </ScreenVMFile>
            <MetaData>
             <entry key="AutoAppliedSmartFocus" val="False"/>
             <entry key="WinSubProjectDisplayName" val=""/>
            </MetaData>
           </UnifiedMedia>
          </Medias>
         </GenericTrack>
        </StitchedMedia>
        <StitchedMedia id="1767" start="7239" duration="2494" scalar="1/1" mediaStart="0/1" mediaDuration="2494/1" minMediaStart="0/1" >
         <Transformer>
          <VectorParam id="1768"  name="translation">
           <InterpolatingParam id="1769" interp="linr"  time="-9999999/1" value="0" leadInLength="0/1"  />
           <InterpolatingParam id="1770" interp="linr"  time="-9999999/1" value="0" leadInLength="0/1"  />
           <InterpolatingParam id="1771" interp="linr"  time="-9999999/1" value="0" leadInLength="0/1"  />
          </VectorParam>
          <VectorParam id="1772"  name="rotation">
           <InterpolatingParam id="1773" interp="linr"  time="-9999999/1" value="0" leadInLength="0/1"  />
           <InterpolatingParam id="1774" interp="linr"  time="-9999999/1" value="0" leadInLength="0/1"  />
           <InterpolatingParam id="1775" interp="linr"  time="-9999999/1" value="0" leadInLength="0/1"  />
          </VectorParam>
          <VectorParam id="1776"  name="shear">
           <InterpolatingParam id="1777" interp="linr"  time="-9999999/1" value="0" leadInLength="0/1"  />
           <InterpolatingParam id="1778" interp="linr"  time="-9999999/1" value="0" leadInLength="0/1"  />
           <InterpolatingParam id="1779" interp="linr"  time="-9999999/1" value="0" leadInLength="0/1"  />
          </VectorParam>
          <VectorParam id="1780"  name="scale">
           <InterpolatingParam id="1781" interp="linr"  time="-9999999/1" value="0.66666666666666663" leadInLength="0/1"  />
           <InterpolatingParam id="1782" interp="linr"  time="-9999999/1" value="0.66666666666666663" leadInLength="0/1"  />
           <InterpolatingParam id="1783" interp="linr"  time="-9999999/1" value="1" leadInLength="0/1"  />
          </VectorParam>
          <VectorParam id="1784"  name="anchor">
           <InterpolatingParam id="1785" interp="linr"  time="0/1" value="0" leadInLength="0/1"  />
           <InterpolatingParam id="1786" interp="linr"  time="0/1" value="0" leadInLength="0/1"  />
           <InterpolatingParam id="1787" interp="linr"  time="0/1" value="0" leadInLength="0/1"  />
          </VectorParam>
         </Transformer>
         <Parameters>
          <VectorParam id="1788"  name="sourceCrop">
           <InterpolatingParam id="1789" interp="linr"  time="0/1" value="0" leadInLength="0/1"  />
           <InterpolatingParam id="1790" interp="linr"  time="0/1" value="0" leadInLength="0/1"  />
           <InterpolatingParam id="1791" interp="linr"  time="0/1" value="0" leadInLength="0/1"  />
           <InterpolatingParam id="1792" interp="linr"  time="0/1" value="0" leadInLength="0/1"  />
          </VectorParam>
          <VectorParam id="1793"  name="geometryCrop">
           <InterpolatingParam id="1794" interp="linr"  time="-9999999/1" value="0" leadInLength="0/1"  />
           <InterpolatingParam id="1795" interp="linr"  time="-9999999/1" value="0" leadInLength="0/1"  />
           <InterpolatingParam id="1796" interp="linr"  time="-9999999/1" value="0" leadInLength="0/1"  />
           <InterpolatingParam id="1797" interp="linr"  time="-9999999/1" value="0" leadInLength="0/1"  />
          </VectorParam>
          <InterpolatingParam id="1798" interp="linr"  time="-9999999/1" value="1" leadInLength="0/1"  name="opacity"/>
          <Parameter id="1799"  name="toc">
           <Keyframes>
           <Keyframe id="1800"  time="0/1" value="Advantages" leadInLength="0/1"  />
           </Keyframes>
          </Parameter>
          <InterpolatingParam id="1801" interp="linr"  time="0/1" value="1" leadInLength="0/1"  name="cursorOpacity"/>
          <InterpolatingParam id="1802" interp="linr"  time="0/1" value="1" leadInLength="0/1"  name="cursorScale"/>
          <InterpolatingParam id="1803" interp="linr"  time="0/1" value="1" leadInLength="0/1"  name="volume"/>
          <Parameter id="1804"  name="captions"/>
         </Parameters>
         <Effects>
          <GenericEffect id="1805" name = "CursorBaseEffectName" >
           <Parameters>
           <InterpolatingParam id="1806" interp="linr"  time="-9999999/1" value="1" leadInLength="0/1"   name="cursorSize"/>
           <InterpolatingParam id="1807" interp="linr"  time="-9999999/1" value="0" leadInLength="0/1"   name="highlightBlurRadius"/>
           <InterpolatingParam id="1808" interp="linr"  time="-9999999/1" value="0" leadInLength="0/1"   name="highlightColorBlue"/>
           <InterpolatingParam id="1809" interp="linr"  time="-9999999/1" value="255" leadInLength="0/1"   name="highlightColorGreen"/>
           <InterpolatingParam id="1810" interp="linr"  time="-9999999/1" value="255" leadInLength="0/1"   name="highlightColorRed"/>
           <InterpolatingParam id="1811" interp="linr"  time="-9999999/1" value="5" leadInLength="0/1"   name="highlightFeatherSize"/>
           <InterpolatingParam id="1812" interp="linr"  time="-9999999/1" value="2" leadInLength="0/1"   name="highlightMagnification"/>
           <InterpolatingParam id="1813" interp="linr"  time="-9999999/1" value="1" leadInLength="0/1"   name="highlightOpacity"/>
           <InterpolatingParam id="1814" interp="linr"  time="-9999999/1" value="45" leadInLength="0/1"   name="highlightSize"/>
           <Parameter id="1815"   name="highlightType">
            <Keyframes>
            <Keyframe id="1816"  time="-9999999/1" value="0" leadInLength="0/1"  />
            </Keyframes>
           </Parameter>
           <InterpolatingParam id="1817" interp="linr"  time="-9999999/1" value="0" leadInLength="0/1"   name="leftClickColorBlue"/>
           <InterpolatingParam id="1818" interp="linr"  time="-9999999/1" value="0" leadInLength="0/1"   name="leftClickColorGreen"/>
           <InterpolatingParam id="1819" interp="linr"  time="-9999999/1" value="255" leadInLength="0/1"   name="leftClickColorRed"/>
           <InterpolatingParam id="1820" interp="linr"  time="-9999999/1" value="0.80000000000000004" leadInLength="0/1"   name="leftClickDuration"/>
           <InterpolatingParam id="1821" interp="linr"  time="-9999999/1" value="20" leadInLength="0/1"   name="leftClickSize"/>
           <Parameter id="1822"   name="leftClickSoundFilename">
            <Keyframes>
            <Keyframe id="1823"  time="-9999999/1" value="" leadInLength="0/1"  />
            </Keyframes>
           </Parameter>
           <InterpolatingParam id="1824" interp="linr"  time="-9999999/1" value="1" leadInLength="0/1"   name="leftClickSoundVolume"/>
           <Parameter id="1825"   name="leftClickType">
            <Keyframes>
            <Keyframe id="1826"  time="-9999999/1" value="0" leadInLength="0/1"  />
            </Keyframes>
           </Parameter>
           <InterpolatingParam id="1827" interp="linr"  time="-9999999/1" value="1" leadInLength="0/1"   name="opacity"/>
           <InterpolatingParam id="1828" interp="linr"  time="-9999999/1" value="255" leadInLength="0/1"   name="rightClickColorBlue"/>
           <InterpolatingParam id="1829" interp="linr"  time="-9999999/1" value="0" leadInLength="0/1"   name="rightClickColorGreen"/>
           <InterpolatingParam id="1830" interp="linr"  time="-9999999/1" value="0" leadInLength="0/1"   name="rightClickColorRed"/>
           <InterpolatingParam id="1831" interp="linr"  time="-9999999/1" value="0.80000000000000004" leadInLength="0/1"   name="rightClickDuration"/>
           <InterpolatingParam id="1832" interp="linr"  time="-9999999/1" value="20" leadInLength="0/1"   name="rightClickSize"/>
           <Parameter id="1833"   name="rightClickSoundFilename">
            <Keyframes>
            <Keyframe id="1834"  time="-9999999/1" value="" leadInLength="0/1"  />
            </Keyframes>
           </Parameter>
           <InterpolatingParam id="1835" interp="linr"  time="-9999999/1" value="1" leadInLength="0/1"   name="rightClickSoundVolume"/>
           <Parameter id="1836"   name="rightClickType">
            <Keyframes>
            <Keyframe id="1837"  time="-9999999/1" value="0" leadInLength="0/1"  />
            </Keyframes>
           </Parameter>
           </Parameters>
           <MetaData>
            <entry key="effectIndex" val="0"/>
           </MetaData>
          </GenericEffect>
         </Effects>
         <Attributes>
          <Attribute id="1838" value="" name="ident"/>
          <Attribute id="1839" value="0" name="mixToMono"/>
         </Attributes>
         <MetaData>
          <entry key="AutoAppliedSmartFocus" val="False"/>
          <entry key="WinSubProjectDisplayName" val=""/>
         </MetaData>
         <ExtraData>
          <Entry key="ZoomPanBin">
           <ZoomPanBin id="1840"  >
            <ZoomPanKeyframes>
             <ZoomPanKeyframe id="1841" timeRangeEnd="-9999999/1" timeRangeDuration="0/1" interpolaterName="linr"  />
            </ZoomPanKeyframes>
           </ZoomPanBin>
          </Entry>
          <Entry key="CursorEffectBin">
           <CursorEffectBin id="1842"  >
            <CursorEffectKeyframes>
             <CursorEffectKeyframe id="1843" timeRangeEnd="-9999999/1" timeRangeDuration="0/1" interpolaterName=""  />
            </CursorEffectKeyframes>
           </CursorEffectBin>
          </Entry>
         </ExtraData>
         <GenericTrack id="1844"  >
          <Attributes>
           <Attribute id="1845" value="" name="ident"/>
           <Attribute id="1846" value="0" name="audioMuted"/>
           <Attribute id="1847" value="0" name="videoHidden"/>
          </Attributes>
          <MetaData>
           <entry key="IsLocked" val="False"/>
           <entry key="WinTrackHeight" val="0"/>
          </MetaData>
          <Medias>
           <UnifiedMedia id="1848"  >
            <AMFile id="1849" start="0" duration="396" scalar="1/1" mediaStart="0/1" mediaDuration="396/1" trackNumber="1" src="8" channelNumber="0,1" >
             <Parameters>
              <InterpolatingParam id="1850" interp="linr"  time="0/1" value="1" leadInLength="0/1"  name="volume"/>
              <Parameter id="1851"  name="captions"/>
             </Parameters>
             <Attributes>
              <Attribute id="1852" value="" name="ident"/>
              <Attribute id="1853" value="44100" name="sampleRate"/>
              <Attribute id="1854" value="16" name="bitDepth"/>
              <Attribute id="1855" value="1" name="gain"/>
              <Attribute id="1856" value="0" name="mixToMono"/>
             </Attributes>
            </AMFile>
            <ScreenVMFile id="1857" start="0" duration="396" scalar="1/1" mediaStart="0/1" mediaDuration="396/1" trackNumber="0" src="8" >
             <Transformer>
              <VectorParam id="1858"  name="translation">
               <InterpolatingParam id="1859" interp="linr"  time="-9999999/1" value="0" leadInLength="0/1"  />
               <InterpolatingParam id="1860" interp="linr"  time="-9999999/1" value="0" leadInLength="0/1"  />
               <InterpolatingParam id="1861" interp="linr"  time="-9999999/1" value="0" leadInLength="0/1"  />
              </VectorParam>
              <VectorParam id="1862"  name="rotation">
               <InterpolatingParam id="1863" interp="linr"  time="-9999999/1" value="0" leadInLength="0/1"  />
               <InterpolatingParam id="1864" interp="linr"  time="-9999999/1" value="0" leadInLength="0/1"  />
               <InterpolatingParam id="1865" interp="linr"  time="-9999999/1" value="0" leadInLength="0/1"  />
              </VectorParam>
              <VectorParam id="1866"  name="shear">
               <InterpolatingParam id="1867" interp="linr"  time="-9999999/1" value="0" leadInLength="0/1"  />
               <InterpolatingParam id="1868" interp="linr"  time="-9999999/1" value="0" leadInLength="0/1"  />
               <InterpolatingParam id="1869" interp="linr"  time="-9999999/1" value="0" leadInLength="0/1"  />
              </VectorParam>
              <VectorParam id="1870"  name="scale">
               <InterpolatingParam id="1871" interp="linr"  time="-9999999/1" value="1" leadInLength="0/1"  />
               <InterpolatingParam id="1872" interp="linr"  time="-9999999/1" value="1" leadInLength="0/1"  />
               <InterpolatingParam id="1873" interp="linr"  time="-9999999/1" value="1" leadInLength="0/1"  />
              </VectorParam>
              <VectorParam id="1874"  name="anchor">
               <InterpolatingParam id="1875" interp="linr"  time="0/1" value="0" leadInLength="0/1"  />
               <InterpolatingParam id="1876" interp="linr"  time="0/1" value="0" leadInLength="0/1"  />
               <InterpolatingParam id="1877" interp="linr"  time="0/1" value="0" leadInLength="0/1"  />
              </VectorParam>
             </Transformer>
             <Parameters>
              <VectorParam id="1878"  name="sourceCrop">
               <InterpolatingParam id="1879" interp="linr"  time="0/1" value="0" leadInLength="0/1"  />
               <InterpolatingParam id="1880" interp="linr"  time="0/1" value="0" leadInLength="0/1"  />
               <InterpolatingParam id="1881" interp="linr"  time="0/1" value="0" leadInLength="0/1"  />
               <InterpolatingParam id="1882" interp="linr"  time="0/1" value="0" leadInLength="0/1"  />
              </VectorParam>
              <VectorParam id="1883"  name="geometryCrop">
               <InterpolatingParam id="1884" interp="linr"  time="-9999999/1" value="0" leadInLength="0/1"  />
               <InterpolatingParam id="1885" interp="linr"  time="-9999999/1" value="0" leadInLength="0/1"  />
               <InterpolatingParam id="1886" interp="linr"  time="-9999999/1" value="0" leadInLength="0/1"  />
               <InterpolatingParam id="1887" interp="linr"  time="-9999999/1" value="0" leadInLength="0/1"  />
              </VectorParam>
              <InterpolatingParam id="1888" interp="linr"  time="-9999999/1" value="1" leadInLength="0/1"  name="opacity"/>
              <InterpolatingParam id="1889" interp="linr"  time="0/1" value="0" leadInLength="0/1"  name="cursorOpacity"/>
              <InterpolatingParam id="1890" interp="linr"  time="0/1" value="0" leadInLength="0/1"  name="cursorScale"/>
             </Parameters>
             <Attributes>
              <Attribute id="1891" value="" name="ident"/>
             </Attributes>
             <ExtraData>
              <Entry key="ZoomPanBin">
               <ZoomPanBin id="1892"  >
                <ZoomPanKeyframes>
                 <ZoomPanKeyframe id="1893" timeRangeEnd="-9999999/1" timeRangeDuration="0/1" interpolaterName="linr"  />
                </ZoomPanKeyframes>
               </ZoomPanBin>
              </Entry>
              <Entry key="CursorEffectBin">
               <CursorEffectBin id="1894"  >
                <CursorEffectKeyframes>
                </CursorEffectKeyframes>
               </CursorEffectBin>
              </Entry>
             </ExtraData>
            </ScreenVMFile>
            <MetaData>
             <entry key="AutoAppliedSmartFocus" val="False"/>
             <entry key="WinSubProjectDisplayName" val=""/>
            </MetaData>
           </UnifiedMedia>
           <UnifiedMedia id="1895"  >
            <AMFile id="1896" start="396" duration="417" scalar="1/1" mediaStart="435/1" mediaDuration="417/1" trackNumber="1" src="8" channelNumber="0,1" >
             <Parameters>
              <InterpolatingParam id="1897" interp="linr"  time="0/1" value="1" leadInLength="0/1"  name="volume"/>
              <Parameter id="1898"  name="captions"/>
             </Parameters>
             <Attributes>
              <Attribute id="1899" value="" name="ident"/>
              <Attribute id="1900" value="44100" name="sampleRate"/>
              <Attribute id="1901" value="16" name="bitDepth"/>
              <Attribute id="1902" value="1" name="gain"/>
              <Attribute id="1903" value="0" name="mixToMono"/>
             </Attributes>
            </AMFile>
            <ScreenVMFile id="1904" start="396" duration="417" scalar="1/1" mediaStart="435/1" mediaDuration="417/1" trackNumber="0" src="8" >
             <Transformer>
              <VectorParam id="1905"  name="translation">
               <InterpolatingParam id="1906" interp="linr"  time="-9999999/1" value="0" leadInLength="0/1"  />
               <InterpolatingParam id="1907" interp="linr"  time="-9999999/1" value="0" leadInLength="0/1"  />
               <InterpolatingParam id="1908" interp="linr"  time="-9999999/1" value="0" leadInLength="0/1"  />
              </VectorParam>
              <VectorParam id="1909"  name="rotation">
               <InterpolatingParam id="1910" interp="linr"  time="-9999999/1" value="0" leadInLength="0/1"  />
               <InterpolatingParam id="1911" interp="linr"  time="-9999999/1" value="0" leadInLength="0/1"  />
               <InterpolatingParam id="1912" interp="linr"  time="-9999999/1" value="0" leadInLength="0/1"  />
              </VectorParam>
              <VectorParam id="1913"  name="shear">
               <InterpolatingParam id="1914" interp="linr"  time="-9999999/1" value="0" leadInLength="0/1"  />
               <InterpolatingParam id="1915" interp="linr"  time="-9999999/1" value="0" leadInLength="0/1"  />
               <InterpolatingParam id="1916" interp="linr"  time="-9999999/1" value="0" leadInLength="0/1"  />
              </VectorParam>
              <VectorParam id="1917"  name="scale">
               <InterpolatingParam id="1918" interp="linr"  time="-9999999/1" value="1" leadInLength="0/1"  />
               <InterpolatingParam id="1919" interp="linr"  time="-9999999/1" value="1" leadInLength="0/1"  />
               <InterpolatingParam id="1920" interp="linr"  time="-9999999/1" value="1" leadInLength="0/1"  />
              </VectorParam>
              <VectorParam id="1921"  name="anchor">
               <InterpolatingParam id="1922" interp="linr"  time="0/1" value="0" leadInLength="0/1"  />
               <InterpolatingParam id="1923" interp="linr"  time="0/1" value="0" leadInLength="0/1"  />
               <InterpolatingParam id="1924" interp="linr"  time="0/1" value="0" leadInLength="0/1"  />
              </VectorParam>
             </Transformer>
             <Parameters>
              <VectorParam id="1925"  name="sourceCrop">
               <InterpolatingParam id="1926" interp="linr"  time="0/1" value="0" leadInLength="0/1"  />
               <InterpolatingParam id="1927" interp="linr"  time="0/1" value="0" leadInLength="0/1"  />
               <InterpolatingParam id="1928" interp="linr"  time="0/1" value="0" leadInLength="0/1"  />
               <InterpolatingParam id="1929" interp="linr"  time="0/1" value="0" leadInLength="0/1"  />
              </VectorParam>
              <VectorParam id="1930"  name="geometryCrop">
               <InterpolatingParam id="1931" interp="linr"  time="-9999999/1" value="0" leadInLength="0/1"  />
               <InterpolatingParam id="1932" interp="linr"  time="-9999999/1" value="0" leadInLength="0/1"  />
               <InterpolatingParam id="1933" interp="linr"  time="-9999999/1" value="0" leadInLength="0/1"  />
               <InterpolatingParam id="1934" interp="linr"  time="-9999999/1" value="0" leadInLength="0/1"  />
              </VectorParam>
              <InterpolatingParam id="1935" interp="linr"  time="-9999999/1" value="1" leadInLength="0/1"  name="opacity"/>
              <InterpolatingParam id="1936" interp="linr"  time="0/1" value="0" leadInLength="0/1"  name="cursorOpacity"/>
              <InterpolatingParam id="1937" interp="linr"  time="0/1" value="0" leadInLength="0/1"  name="cursorScale"/>
             </Parameters>
             <Attributes>
              <Attribute id="1938" value="" name="ident"/>
             </Attributes>
             <ExtraData>
              <Entry key="ZoomPanBin">
               <ZoomPanBin id="1939"  >
                <ZoomPanKeyframes>
                 <ZoomPanKeyframe id="1940" timeRangeEnd="-9999999/1" timeRangeDuration="0/1" interpolaterName="linr"  />
                </ZoomPanKeyframes>
               </ZoomPanBin>
              </Entry>
              <Entry key="CursorEffectBin">
               <CursorEffectBin id="1941"  >
                <CursorEffectKeyframes>
                </CursorEffectKeyframes>
               </CursorEffectBin>
              </Entry>
             </ExtraData>
            </ScreenVMFile>
            <MetaData>
             <entry key="AutoAppliedSmartFocus" val="False"/>
             <entry key="WinSubProjectDisplayName" val=""/>
            </MetaData>
           </UnifiedMedia>
           <UnifiedMedia id="1942"  >
            <AMFile id="1943" start="813" duration="175" scalar="1/1" mediaStart="882/1" mediaDuration="175/1" trackNumber="1" src="8" channelNumber="0,1" >
             <Parameters>
              <InterpolatingParam id="1944" interp="linr"  time="0/1" value="1" leadInLength="0/1"  name="volume"/>
              <Parameter id="1945"  name="captions"/>
             </Parameters>
             <Attributes>
              <Attribute id="1946" value="" name="ident"/>
              <Attribute id="1947" value="44100" name="sampleRate"/>
              <Attribute id="1948" value="16" name="bitDepth"/>
              <Attribute id="1949" value="1" name="gain"/>
              <Attribute id="1950" value="0" name="mixToMono"/>
             </Attributes>
            </AMFile>
            <ScreenVMFile id="1951" start="813" duration="175" scalar="1/1" mediaStart="882/1" mediaDuration="175/1" trackNumber="0" src="8" >
             <Transformer>
              <VectorParam id="1952"  name="translation">
               <InterpolatingParam id="1953" interp="linr"  time="-9999999/1" value="0" leadInLength="0/1"  />
               <InterpolatingParam id="1954" interp="linr"  time="-9999999/1" value="0" leadInLength="0/1"  />
               <InterpolatingParam id="1955" interp="linr"  time="-9999999/1" value="0" leadInLength="0/1"  />
              </VectorParam>
              <VectorParam id="1956"  name="rotation">
               <InterpolatingParam id="1957" interp="linr"  time="-9999999/1" value="0" leadInLength="0/1"  />
               <InterpolatingParam id="1958" interp="linr"  time="-9999999/1" value="0" leadInLength="0/1"  />
               <InterpolatingParam id="1959" interp="linr"  time="-9999999/1" value="0" leadInLength="0/1"  />
              </VectorParam>
              <VectorParam id="1960"  name="shear">
               <InterpolatingParam id="1961" interp="linr"  time="-9999999/1" value="0" leadInLength="0/1"  />
               <InterpolatingParam id="1962" interp="linr"  time="-9999999/1" value="0" leadInLength="0/1"  />
               <InterpolatingParam id="1963" interp="linr"  time="-9999999/1" value="0" leadInLength="0/1"  />
              </VectorParam>
              <VectorParam id="1964"  name="scale">
               <InterpolatingParam id="1965" interp="linr"  time="-9999999/1" value="1" leadInLength="0/1"  />
               <InterpolatingParam id="1966" interp="linr"  time="-9999999/1" value="1" leadInLength="0/1"  />
               <InterpolatingParam id="1967" interp="linr"  time="-9999999/1" value="1" leadInLength="0/1"  />
              </VectorParam>
              <VectorParam id="1968"  name="anchor">
               <InterpolatingParam id="1969" interp="linr"  time="0/1" value="0" leadInLength="0/1"  />
               <InterpolatingParam id="1970" interp="linr"  time="0/1" value="0" leadInLength="0/1"  />
               <InterpolatingParam id="1971" interp="linr"  time="0/1" value="0" leadInLength="0/1"  />
              </VectorParam>
             </Transformer>
             <Parameters>
              <VectorParam id="1972"  name="sourceCrop">
               <InterpolatingParam id="1973" interp="linr"  time="0/1" value="0" leadInLength="0/1"  />
               <InterpolatingParam id="1974" interp="linr"  time="0/1" value="0" leadInLength="0/1"  />
               <InterpolatingParam id="1975" interp="linr"  time="0/1" value="0" leadInLength="0/1"  />
               <InterpolatingParam id="1976" interp="linr"  time="0/1" value="0" leadInLength="0/1"  />
              </VectorParam>
              <VectorParam id="1977"  name="geometryCrop">
               <InterpolatingParam id="1978" interp="linr"  time="-9999999/1" value="0" leadInLength="0/1"  />
               <InterpolatingParam id="1979" interp="linr"  time="-9999999/1" value="0" leadInLength="0/1"  />
               <InterpolatingParam id="1980" interp="linr"  time="-9999999/1" value="0" leadInLength="0/1"  />
               <InterpolatingParam id="1981" interp="linr"  time="-9999999/1" value="0" leadInLength="0/1"  />
              </VectorParam>
              <InterpolatingParam id="1982" interp="linr"  time="-9999999/1" value="1" leadInLength="0/1"  name="opacity"/>
              <InterpolatingParam id="1983" interp="linr"  time="0/1" value="0" leadInLength="0/1"  name="cursorOpacity"/>
              <InterpolatingParam id="1984" interp="linr"  time="0/1" value="0" leadInLength="0/1"  name="cursorScale"/>
             </Parameters>
             <Attributes>
              <Attribute id="1985" value="" name="ident"/>
             </Attributes>
             <ExtraData>
              <Entry key="ZoomPanBin">
               <ZoomPanBin id="1986"  >
                <ZoomPanKeyframes>
                 <ZoomPanKeyframe id="1987" timeRangeEnd="-9999999/1" timeRangeDuration="0/1" interpolaterName="linr"  />
                </ZoomPanKeyframes>
               </ZoomPanBin>
              </Entry>
              <Entry key="CursorEffectBin">
               <CursorEffectBin id="1988"  >
                <CursorEffectKeyframes>
                </CursorEffectKeyframes>
               </CursorEffectBin>
              </Entry>
             </ExtraData>
            </ScreenVMFile>
            <MetaData>
             <entry key="AutoAppliedSmartFocus" val="False"/>
             <entry key="WinSubProjectDisplayName" val=""/>
            </MetaData>
           </UnifiedMedia>
           <UnifiedMedia id="1989"  >
            <AMFile id="1990" start="988" duration="31" scalar="1/1" mediaStart="1109/1" mediaDuration="31/1" trackNumber="1" src="8" channelNumber="0,1" >
             <Parameters>
              <InterpolatingParam id="1991" interp="linr"  time="0/1" value="1" leadInLength="0/1"  name="volume"/>
              <Parameter id="1992"  name="captions"/>
             </Parameters>
             <Attributes>
              <Attribute id="1993" value="" name="ident"/>
              <Attribute id="1994" value="44100" name="sampleRate"/>
              <Attribute id="1995" value="16" name="bitDepth"/>
              <Attribute id="1996" value="1" name="gain"/>
              <Attribute id="1997" value="0" name="mixToMono"/>
             </Attributes>
            </AMFile>
            <ScreenVMFile id="1998" start="988" duration="31" scalar="1/1" mediaStart="1109/1" mediaDuration="31/1" trackNumber="0" src="8" >
             <Transformer>
              <VectorParam id="1999"  name="translation">
               <InterpolatingParam id="2000" interp="linr"  time="-9999999/1" value="0" leadInLength="0/1"  />
               <InterpolatingParam id="2001" interp="linr"  time="-9999999/1" value="0" leadInLength="0/1"  />
               <InterpolatingParam id="2002" interp="linr"  time="-9999999/1" value="0" leadInLength="0/1"  />
              </VectorParam>
              <VectorParam id="2003"  name="rotation">
               <InterpolatingParam id="2004" interp="linr"  time="-9999999/1" value="0" leadInLength="0/1"  />
               <InterpolatingParam id="2005" interp="linr"  time="-9999999/1" value="0" leadInLength="0/1"  />
               <InterpolatingParam id="2006" interp="linr"  time="-9999999/1" value="0" leadInLength="0/1"  />
              </VectorParam>
              <VectorParam id="2007"  name="shear">
               <InterpolatingParam id="2008" interp="linr"  time="-9999999/1" value="0" leadInLength="0/1"  />
               <InterpolatingParam id="2009" interp="linr"  time="-9999999/1" value="0" leadInLength="0/1"  />
               <InterpolatingParam id="2010" interp="linr"  time="-9999999/1" value="0" leadInLength="0/1"  />
              </VectorParam>
              <VectorParam id="2011"  name="scale">
               <InterpolatingParam id="2012" interp="linr"  time="-9999999/1" value="1" leadInLength="0/1"  />
               <InterpolatingParam id="2013" interp="linr"  time="-9999999/1" value="1" leadInLength="0/1"  />
               <InterpolatingParam id="2014" interp="linr"  time="-9999999/1" value="1" leadInLength="0/1"  />
              </VectorParam>
              <VectorParam id="2015"  name="anchor">
               <InterpolatingParam id="2016" interp="linr"  time="0/1" value="0" leadInLength="0/1"  />
               <InterpolatingParam id="2017" interp="linr"  time="0/1" value="0" leadInLength="0/1"  />
               <InterpolatingParam id="2018" interp="linr"  time="0/1" value="0" leadInLength="0/1"  />
              </VectorParam>
             </Transformer>
             <Parameters>
              <VectorParam id="2019"  name="sourceCrop">
               <InterpolatingParam id="2020" interp="linr"  time="0/1" value="0" leadInLength="0/1"  />
               <InterpolatingParam id="2021" interp="linr"  time="0/1" value="0" leadInLength="0/1"  />
               <InterpolatingParam id="2022" interp="linr"  time="0/1" value="0" leadInLength="0/1"  />
               <InterpolatingParam id="2023" interp="linr"  time="0/1" value="0" leadInLength="0/1"  />
              </VectorParam>
              <VectorParam id="2024"  name="geometryCrop">
               <InterpolatingParam id="2025" interp="linr"  time="-9999999/1" value="0" leadInLength="0/1"  />
               <InterpolatingParam id="2026" interp="linr"  time="-9999999/1" value="0" leadInLength="0/1"  />
               <InterpolatingParam id="2027" interp="linr"  time="-9999999/1" value="0" leadInLength="0/1"  />
               <InterpolatingParam id="2028" interp="linr"  time="-9999999/1" value="0" leadInLength="0/1"  />
              </VectorParam>
              <InterpolatingParam id="2029" interp="linr"  time="-9999999/1" value="1" leadInLength="0/1"  name="opacity"/>
              <InterpolatingParam id="2030" interp="linr"  time="0/1" value="0" leadInLength="0/1"  name="cursorOpacity"/>
              <InterpolatingParam id="2031" interp="linr"  time="0/1" value="0" leadInLength="0/1"  name="cursorScale"/>
             </Parameters>
             <Attributes>
              <Attribute id="2032" value="" name="ident"/>
             </Attributes>
             <ExtraData>
              <Entry key="ZoomPanBin">
               <ZoomPanBin id="2033"  >
                <ZoomPanKeyframes>
                 <ZoomPanKeyframe id="2034" timeRangeEnd="-9999999/1" timeRangeDuration="0/1" interpolaterName="linr"  />
                </ZoomPanKeyframes>
               </ZoomPanBin>
              </Entry>
              <Entry key="CursorEffectBin">
               <CursorEffectBin id="2035"  >
                <CursorEffectKeyframes>
                </CursorEffectKeyframes>
               </CursorEffectBin>
              </Entry>
             </ExtraData>
            </ScreenVMFile>
            <MetaData>
             <entry key="AutoAppliedSmartFocus" val="False"/>
             <entry key="WinSubProjectDisplayName" val=""/>
            </MetaData>
           </UnifiedMedia>
           <UnifiedMedia id="2036"  >
            <AMFile id="2037" start="1019" duration="37" scalar="1/1" mediaStart="1158/1" mediaDuration="37/1" trackNumber="1" src="8" channelNumber="0,1" >
             <Parameters>
              <InterpolatingParam id="2038" interp="linr"  time="0/1" value="1" leadInLength="0/1"  name="volume"/>
              <Parameter id="2039"  name="captions"/>
             </Parameters>
             <Attributes>
              <Attribute id="2040" value="" name="ident"/>
              <Attribute id="2041" value="44100" name="sampleRate"/>
              <Attribute id="2042" value="16" name="bitDepth"/>
              <Attribute id="2043" value="1" name="gain"/>
              <Attribute id="2044" value="0" name="mixToMono"/>
             </Attributes>
            </AMFile>
            <ScreenVMFile id="2045" start="1019" duration="37" scalar="1/1" mediaStart="1158/1" mediaDuration="37/1" trackNumber="0" src="8" >
             <Transformer>
              <VectorParam id="2046"  name="translation">
               <InterpolatingParam id="2047" interp="linr"  time="-9999999/1" value="0" leadInLength="0/1"  />
               <InterpolatingParam id="2048" interp="linr"  time="-9999999/1" value="0" leadInLength="0/1"  />
               <InterpolatingParam id="2049" interp="linr"  time="-9999999/1" value="0" leadInLength="0/1"  />
              </VectorParam>
              <VectorParam id="2050"  name="rotation">
               <InterpolatingParam id="2051" interp="linr"  time="-9999999/1" value="0" leadInLength="0/1"  />
               <InterpolatingParam id="2052" interp="linr"  time="-9999999/1" value="0" leadInLength="0/1"  />
               <InterpolatingParam id="2053" interp="linr"  time="-9999999/1" value="0" leadInLength="0/1"  />
              </VectorParam>
              <VectorParam id="2054"  name="shear">
               <InterpolatingParam id="2055" interp="linr"  time="-9999999/1" value="0" leadInLength="0/1"  />
               <InterpolatingParam id="2056" interp="linr"  time="-9999999/1" value="0" leadInLength="0/1"  />
               <InterpolatingParam id="2057" interp="linr"  time="-9999999/1" value="0" leadInLength="0/1"  />
              </VectorParam>
              <VectorParam id="2058"  name="scale">
               <InterpolatingParam id="2059" interp="linr"  time="-9999999/1" value="1" leadInLength="0/1"  />
               <InterpolatingParam id="2060" interp="linr"  time="-9999999/1" value="1" leadInLength="0/1"  />
               <InterpolatingParam id="2061" interp="linr"  time="-9999999/1" value="1" leadInLength="0/1"  />
              </VectorParam>
              <VectorParam id="2062"  name="anchor">
               <InterpolatingParam id="2063" interp="linr"  time="0/1" value="0" leadInLength="0/1"  />
               <InterpolatingParam id="2064" interp="linr"  time="0/1" value="0" leadInLength="0/1"  />
               <InterpolatingParam id="2065" interp="linr"  time="0/1" value="0" leadInLength="0/1"  />
              </VectorParam>
             </Transformer>
             <Parameters>
              <VectorParam id="2066"  name="sourceCrop">
               <InterpolatingParam id="2067" interp="linr"  time="0/1" value="0" leadInLength="0/1"  />
               <InterpolatingParam id="2068" interp="linr"  time="0/1" value="0" leadInLength="0/1"  />
               <InterpolatingParam id="2069" interp="linr"  time="0/1" value="0" leadInLength="0/1"  />
               <InterpolatingParam id="2070" interp="linr"  time="0/1" value="0" leadInLength="0/1"  />
              </VectorParam>
              <VectorParam id="2071"  name="geometryCrop">
               <InterpolatingParam id="2072" interp="linr"  time="-9999999/1" value="0" leadInLength="0/1"  />
               <InterpolatingParam id="2073" interp="linr"  time="-9999999/1" value="0" leadInLength="0/1"  />
               <InterpolatingParam id="2074" interp="linr"  time="-9999999/1" value="0" leadInLength="0/1"  />
               <InterpolatingParam id="2075" interp="linr"  time="-9999999/1" value="0" leadInLength="0/1"  />
              </VectorParam>
              <InterpolatingParam id="2076" interp="linr"  time="-9999999/1" value="1" leadInLength="0/1"  name="opacity"/>
              <InterpolatingParam id="2077" interp="linr"  time="0/1" value="0" leadInLength="0/1"  name="cursorOpacity"/>
              <InterpolatingParam id="2078" interp="linr"  time="0/1" value="0" leadInLength="0/1"  name="cursorScale"/>
             </Parameters>
             <Attributes>
              <Attribute id="2079" value="" name="ident"/>
             </Attributes>
             <ExtraData>
              <Entry key="ZoomPanBin">
               <ZoomPanBin id="2080"  >
                <ZoomPanKeyframes>
                 <ZoomPanKeyframe id="2081" timeRangeEnd="-9999999/1" timeRangeDuration="0/1" interpolaterName="linr"  />
                </ZoomPanKeyframes>
               </ZoomPanBin>
              </Entry>
              <Entry key="CursorEffectBin">
               <CursorEffectBin id="2082"  >
                <CursorEffectKeyframes>
                </CursorEffectKeyframes>
               </CursorEffectBin>
              </Entry>
             </ExtraData>
            </ScreenVMFile>
            <MetaData>
             <entry key="AutoAppliedSmartFocus" val="False"/>
             <entry key="WinSubProjectDisplayName" val=""/>
            </MetaData>
           </UnifiedMedia>
           <UnifiedMedia id="2083"  >
            <AMFile id="2084" start="1056" duration="686" scalar="1/1" mediaStart="1216/1" mediaDuration="686/1" trackNumber="1" src="8" channelNumber="0,1" >
             <Parameters>
              <InterpolatingParam id="2085" interp="linr"  time="0/1" value="1" leadInLength="0/1"  name="volume"/>
              <Parameter id="2086"  name="captions"/>
             </Parameters>
             <Attributes>
              <Attribute id="2087" value="" name="ident"/>
              <Attribute id="2088" value="44100" name="sampleRate"/>
              <Attribute id="2089" value="16" name="bitDepth"/>
              <Attribute id="2090" value="1" name="gain"/>
              <Attribute id="2091" value="0" name="mixToMono"/>
             </Attributes>
            </AMFile>
            <ScreenVMFile id="2092" start="1056" duration="686" scalar="1/1" mediaStart="1216/1" mediaDuration="686/1" trackNumber="0" src="8" >
             <Transformer>
              <VectorParam id="2093"  name="translation">
               <InterpolatingParam id="2094" interp="linr"  time="-9999999/1" value="0" leadInLength="0/1"  />
               <InterpolatingParam id="2095" interp="linr"  time="-9999999/1" value="0" leadInLength="0/1"  />
               <InterpolatingParam id="2096" interp="linr"  time="-9999999/1" value="0" leadInLength="0/1"  />
              </VectorParam>
              <VectorParam id="2097"  name="rotation">
               <InterpolatingParam id="2098" interp="linr"  time="-9999999/1" value="0" leadInLength="0/1"  />
               <InterpolatingParam id="2099" interp="linr"  time="-9999999/1" value="0" leadInLength="0/1"  />
               <InterpolatingParam id="2100" interp="linr"  time="-9999999/1" value="0" leadInLength="0/1"  />
              </VectorParam>
              <VectorParam id="2101"  name="shear">
               <InterpolatingParam id="2102" interp="linr"  time="-9999999/1" value="0" leadInLength="0/1"  />
               <InterpolatingParam id="2103" interp="linr"  time="-9999999/1" value="0" leadInLength="0/1"  />
               <InterpolatingParam id="2104" interp="linr"  time="-9999999/1" value="0" leadInLength="0/1"  />
              </VectorParam>
              <VectorParam id="2105"  name="scale">
               <InterpolatingParam id="2106" interp="linr"  time="-9999999/1" value="1" leadInLength="0/1"  />
               <InterpolatingParam id="2107" interp="linr"  time="-9999999/1" value="1" leadInLength="0/1"  />
               <InterpolatingParam id="2108" interp="linr"  time="-9999999/1" value="1" leadInLength="0/1"  />
              </VectorParam>
              <VectorParam id="2109"  name="anchor">
               <InterpolatingParam id="2110" interp="linr"  time="0/1" value="0" leadInLength="0/1"  />
               <InterpolatingParam id="2111" interp="linr"  time="0/1" value="0" leadInLength="0/1"  />
               <InterpolatingParam id="2112" interp="linr"  time="0/1" value="0" leadInLength="0/1"  />
              </VectorParam>
             </Transformer>
             <Parameters>
              <VectorParam id="2113"  name="sourceCrop">
               <InterpolatingParam id="2114" interp="linr"  time="0/1" value="0" leadInLength="0/1"  />
               <InterpolatingParam id="2115" interp="linr"  time="0/1" value="0" leadInLength="0/1"  />
               <InterpolatingParam id="2116" interp="linr"  time="0/1" value="0" leadInLength="0/1"  />
               <InterpolatingParam id="2117" interp="linr"  time="0/1" value="0" leadInLength="0/1"  />
              </VectorParam>
              <VectorParam id="2118"  name="geometryCrop">
               <InterpolatingParam id="2119" interp="linr"  time="-9999999/1" value="0" leadInLength="0/1"  />
               <InterpolatingParam id="2120" interp="linr"  time="-9999999/1" value="0" leadInLength="0/1"  />
               <InterpolatingParam id="2121" interp="linr"  time="-9999999/1" value="0" leadInLength="0/1"  />
               <InterpolatingParam id="2122" interp="linr"  time="-9999999/1" value="0" leadInLength="0/1"  />
              </VectorParam>
              <InterpolatingParam id="2123" interp="linr"  time="-9999999/1" value="1" leadInLength="0/1"  name="opacity"/>
              <InterpolatingParam id="2124" interp="linr"  time="0/1" value="0" leadInLength="0/1"  name="cursorOpacity"/>
              <InterpolatingParam id="2125" interp="linr"  time="0/1" value="0" leadInLength="0/1"  name="cursorScale"/>
             </Parameters>
             <Attributes>
              <Attribute id="2126" value="" name="ident"/>
             </Attributes>
             <ExtraData>
              <Entry key="ZoomPanBin">
               <ZoomPanBin id="2127"  >
                <ZoomPanKeyframes>
                 <ZoomPanKeyframe id="2128" timeRangeEnd="-9999999/1" timeRangeDuration="0/1" interpolaterName="linr"  />
                </ZoomPanKeyframes>
               </ZoomPanBin>
              </Entry>
              <Entry key="CursorEffectBin">
               <CursorEffectBin id="2129"  >
                <CursorEffectKeyframes>
                </CursorEffectKeyframes>
               </CursorEffectBin>
              </Entry>
             </ExtraData>
            </ScreenVMFile>
            <MetaData>
             <entry key="AutoAppliedSmartFocus" val="False"/>
             <entry key="WinSubProjectDisplayName" val=""/>
            </MetaData>
           </UnifiedMedia>
           <UnifiedMedia id="2130"  >
            <AMFile id="2131" start="1742" duration="274" scalar="1/1" mediaStart="1933/1" mediaDuration="274/1" trackNumber="1" src="8" channelNumber="0,1" >
             <Parameters>
              <InterpolatingParam id="2132" interp="linr"  time="0/1" value="1" leadInLength="0/1"  name="volume"/>
              <Parameter id="2133"  name="captions"/>
             </Parameters>
             <Attributes>
              <Attribute id="2134" value="" name="ident"/>
              <Attribute id="2135" value="44100" name="sampleRate"/>
              <Attribute id="2136" value="16" name="bitDepth"/>
              <Attribute id="2137" value="1" name="gain"/>
              <Attribute id="2138" value="0" name="mixToMono"/>
             </Attributes>
            </AMFile>
            <ScreenVMFile id="2139" start="1742" duration="274" scalar="1/1" mediaStart="1933/1" mediaDuration="274/1" trackNumber="0" src="8" >
             <Transformer>
              <VectorParam id="2140"  name="translation">
               <InterpolatingParam id="2141" interp="linr"  time="-9999999/1" value="0" leadInLength="0/1"  />
               <InterpolatingParam id="2142" interp="linr"  time="-9999999/1" value="0" leadInLength="0/1"  />
               <InterpolatingParam id="2143" interp="linr"  time="-9999999/1" value="0" leadInLength="0/1"  />
              </VectorParam>
              <VectorParam id="2144"  name="rotation">
               <InterpolatingParam id="2145" interp="linr"  time="-9999999/1" value="0" leadInLength="0/1"  />
               <InterpolatingParam id="2146" interp="linr"  time="-9999999/1" value="0" leadInLength="0/1"  />
               <InterpolatingParam id="2147" interp="linr"  time="-9999999/1" value="0" leadInLength="0/1"  />
              </VectorParam>
              <VectorParam id="2148"  name="shear">
               <InterpolatingParam id="2149" interp="linr"  time="-9999999/1" value="0" leadInLength="0/1"  />
               <InterpolatingParam id="2150" interp="linr"  time="-9999999/1" value="0" leadInLength="0/1"  />
               <InterpolatingParam id="2151" interp="linr"  time="-9999999/1" value="0" leadInLength="0/1"  />
              </VectorParam>
              <VectorParam id="2152"  name="scale">
               <InterpolatingParam id="2153" interp="linr"  time="-9999999/1" value="1" leadInLength="0/1"  />
               <InterpolatingParam id="2154" interp="linr"  time="-9999999/1" value="1" leadInLength="0/1"  />
               <InterpolatingParam id="2155" interp="linr"  time="-9999999/1" value="1" leadInLength="0/1"  />
              </VectorParam>
              <VectorParam id="2156"  name="anchor">
               <InterpolatingParam id="2157" interp="linr"  time="0/1" value="0" leadInLength="0/1"  />
               <InterpolatingParam id="2158" interp="linr"  time="0/1" value="0" leadInLength="0/1"  />
               <InterpolatingParam id="2159" interp="linr"  time="0/1" value="0" leadInLength="0/1"  />
              </VectorParam>
             </Transformer>
             <Parameters>
              <VectorParam id="2160"  name="sourceCrop">
               <InterpolatingParam id="2161" interp="linr"  time="0/1" value="0" leadInLength="0/1"  />
               <InterpolatingParam id="2162" interp="linr"  time="0/1" value="0" leadInLength="0/1"  />
               <InterpolatingParam id="2163" interp="linr"  time="0/1" value="0" leadInLength="0/1"  />
               <InterpolatingParam id="2164" interp="linr"  time="0/1" value="0" leadInLength="0/1"  />
              </VectorParam>
              <VectorParam id="2165"  name="geometryCrop">
               <InterpolatingParam id="2166" interp="linr"  time="-9999999/1" value="0" leadInLength="0/1"  />
               <InterpolatingParam id="2167" interp="linr"  time="-9999999/1" value="0" leadInLength="0/1"  />
               <InterpolatingParam id="2168" interp="linr"  time="-9999999/1" value="0" leadInLength="0/1"  />
               <InterpolatingParam id="2169" interp="linr"  time="-9999999/1" value="0" leadInLength="0/1"  />
              </VectorParam>
              <InterpolatingParam id="2170" interp="linr"  time="-9999999/1" value="1" leadInLength="0/1"  name="opacity"/>
              <InterpolatingParam id="2171" interp="linr"  time="0/1" value="0" leadInLength="0/1"  name="cursorOpacity"/>
              <InterpolatingParam id="2172" interp="linr"  time="0/1" value="0" leadInLength="0/1"  name="cursorScale"/>
             </Parameters>
             <Attributes>
              <Attribute id="2173" value="" name="ident"/>
             </Attributes>
             <ExtraData>
              <Entry key="ZoomPanBin">
               <ZoomPanBin id="2174"  >
                <ZoomPanKeyframes>
                 <ZoomPanKeyframe id="2175" timeRangeEnd="-9999999/1" timeRangeDuration="0/1" interpolaterName="linr"  />
                </ZoomPanKeyframes>
               </ZoomPanBin>
              </Entry>
              <Entry key="CursorEffectBin">
               <CursorEffectBin id="2176"  >
                <CursorEffectKeyframes>
                </CursorEffectKeyframes>
               </CursorEffectBin>
              </Entry>
             </ExtraData>
            </ScreenVMFile>
            <MetaData>
             <entry key="AutoAppliedSmartFocus" val="False"/>
             <entry key="WinSubProjectDisplayName" val=""/>
            </MetaData>
           </UnifiedMedia>
           <UnifiedMedia id="2177"  >
            <AMFile id="2178" start="2016" duration="36" scalar="1/1" mediaStart="2234/1" mediaDuration="36/1" trackNumber="1" src="8" channelNumber="0,1" >
             <Parameters>
              <InterpolatingParam id="2179" interp="linr"  time="0/1" value="1" leadInLength="0/1"  name="volume"/>
              <Parameter id="2180"  name="captions"/>
             </Parameters>
             <Attributes>
              <Attribute id="2181" value="" name="ident"/>
              <Attribute id="2182" value="44100" name="sampleRate"/>
              <Attribute id="2183" value="16" name="bitDepth"/>
              <Attribute id="2184" value="1" name="gain"/>
              <Attribute id="2185" value="0" name="mixToMono"/>
             </Attributes>
            </AMFile>
            <ScreenVMFile id="2186" start="2016" duration="36" scalar="1/1" mediaStart="2234/1" mediaDuration="36/1" trackNumber="0" src="8" >
             <Transformer>
              <VectorParam id="2187"  name="translation">
               <InterpolatingParam id="2188" interp="linr"  time="-9999999/1" value="0" leadInLength="0/1"  />
               <InterpolatingParam id="2189" interp="linr"  time="-9999999/1" value="0" leadInLength="0/1"  />
               <InterpolatingParam id="2190" interp="linr"  time="-9999999/1" value="0" leadInLength="0/1"  />
              </VectorParam>
              <VectorParam id="2191"  name="rotation">
               <InterpolatingParam id="2192" interp="linr"  time="-9999999/1" value="0" leadInLength="0/1"  />
               <InterpolatingParam id="2193" interp="linr"  time="-9999999/1" value="0" leadInLength="0/1"  />
               <InterpolatingParam id="2194" interp="linr"  time="-9999999/1" value="0" leadInLength="0/1"  />
              </VectorParam>
              <VectorParam id="2195"  name="shear">
               <InterpolatingParam id="2196" interp="linr"  time="-9999999/1" value="0" leadInLength="0/1"  />
               <InterpolatingParam id="2197" interp="linr"  time="-9999999/1" value="0" leadInLength="0/1"  />
               <InterpolatingParam id="2198" interp="linr"  time="-9999999/1" value="0" leadInLength="0/1"  />
              </VectorParam>
              <VectorParam id="2199"  name="scale">
               <InterpolatingParam id="2200" interp="linr"  time="-9999999/1" value="1" leadInLength="0/1"  />
               <InterpolatingParam id="2201" interp="linr"  time="-9999999/1" value="1" leadInLength="0/1"  />
               <InterpolatingParam id="2202" interp="linr"  time="-9999999/1" value="1" leadInLength="0/1"  />
              </VectorParam>
              <VectorParam id="2203"  name="anchor">
               <InterpolatingParam id="2204" interp="linr"  time="0/1" value="0" leadInLength="0/1"  />
               <InterpolatingParam id="2205" interp="linr"  time="0/1" value="0" leadInLength="0/1"  />
               <InterpolatingParam id="2206" interp="linr"  time="0/1" value="0" leadInLength="0/1"  />
              </VectorParam>
             </Transformer>
             <Parameters>
              <VectorParam id="2207"  name="sourceCrop">
               <InterpolatingParam id="2208" interp="linr"  time="0/1" value="0" leadInLength="0/1"  />
               <InterpolatingParam id="2209" interp="linr"  time="0/1" value="0" leadInLength="0/1"  />
               <InterpolatingParam id="2210" interp="linr"  time="0/1" value="0" leadInLength="0/1"  />
               <InterpolatingParam id="2211" interp="linr"  time="0/1" value="0" leadInLength="0/1"  />
              </VectorParam>
              <VectorParam id="2212"  name="geometryCrop">
               <InterpolatingParam id="2213" interp="linr"  time="-9999999/1" value="0" leadInLength="0/1"  />
               <InterpolatingParam id="2214" interp="linr"  time="-9999999/1" value="0" leadInLength="0/1"  />
               <InterpolatingParam id="2215" interp="linr"  time="-9999999/1" value="0" leadInLength="0/1"  />
               <InterpolatingParam id="2216" interp="linr"  time="-9999999/1" value="0" leadInLength="0/1"  />
              </VectorParam>
              <InterpolatingParam id="2217" interp="linr"  time="-9999999/1" value="1" leadInLength="0/1"  name="opacity"/>
              <InterpolatingParam id="2218" interp="linr"  time="0/1" value="0" leadInLength="0/1"  name="cursorOpacity"/>
              <InterpolatingParam id="2219" interp="linr"  time="0/1" value="0" leadInLength="0/1"  name="cursorScale"/>
             </Parameters>
             <Attributes>
              <Attribute id="2220" value="" name="ident"/>
             </Attributes>
             <ExtraData>
              <Entry key="ZoomPanBin">
               <ZoomPanBin id="2221"  >
                <ZoomPanKeyframes>
                 <ZoomPanKeyframe id="2222" timeRangeEnd="-9999999/1" timeRangeDuration="0/1" interpolaterName="linr"  />
                </ZoomPanKeyframes>
               </ZoomPanBin>
              </Entry>
              <Entry key="CursorEffectBin">
               <CursorEffectBin id="2223"  >
                <CursorEffectKeyframes>
                </CursorEffectKeyframes>
               </CursorEffectBin>
              </Entry>
             </ExtraData>
            </ScreenVMFile>
            <MetaData>
             <entry key="AutoAppliedSmartFocus" val="False"/>
             <entry key="WinSubProjectDisplayName" val=""/>
            </MetaData>
           </UnifiedMedia>
           <UnifiedMedia id="2224"  >
            <AMFile id="2225" start="2052" duration="309" scalar="1/1" mediaStart="2304/1" mediaDuration="309/1" trackNumber="1" src="8" channelNumber="0,1" >
             <Parameters>
              <InterpolatingParam id="2226" interp="linr"  time="0/1" value="1" leadInLength="0/1"  name="volume"/>
              <Parameter id="2227"  name="captions"/>
             </Parameters>
             <Attributes>
              <Attribute id="2228" value="" name="ident"/>
              <Attribute id="2229" value="44100" name="sampleRate"/>
              <Attribute id="2230" value="16" name="bitDepth"/>
              <Attribute id="2231" value="1" name="gain"/>
              <Attribute id="2232" value="0" name="mixToMono"/>
             </Attributes>
            </AMFile>
            <ScreenVMFile id="2233" start="2052" duration="309" scalar="1/1" mediaStart="2304/1" mediaDuration="309/1" trackNumber="0" src="8" >
             <Transformer>
              <VectorParam id="2234"  name="translation">
               <InterpolatingParam id="2235" interp="linr"  time="-9999999/1" value="0" leadInLength="0/1"  />
               <InterpolatingParam id="2236" interp="linr"  time="-9999999/1" value="0" leadInLength="0/1"  />
               <InterpolatingParam id="2237" interp="linr"  time="-9999999/1" value="0" leadInLength="0/1"  />
              </VectorParam>
              <VectorParam id="2238"  name="rotation">
               <InterpolatingParam id="2239" interp="linr"  time="-9999999/1" value="0" leadInLength="0/1"  />
               <InterpolatingParam id="2240" interp="linr"  time="-9999999/1" value="0" leadInLength="0/1"  />
               <InterpolatingParam id="2241" interp="linr"  time="-9999999/1" value="0" leadInLength="0/1"  />
              </VectorParam>
              <VectorParam id="2242"  name="shear">
               <InterpolatingParam id="2243" interp="linr"  time="-9999999/1" value="0" leadInLength="0/1"  />
               <InterpolatingParam id="2244" interp="linr"  time="-9999999/1" value="0" leadInLength="0/1"  />
               <InterpolatingParam id="2245" interp="linr"  time="-9999999/1" value="0" leadInLength="0/1"  />
              </VectorParam>
              <VectorParam id="2246"  name="scale">
               <InterpolatingParam id="2247" interp="linr"  time="-9999999/1" value="1" leadInLength="0/1"  />
               <InterpolatingParam id="2248" interp="linr"  time="-9999999/1" value="1" leadInLength="0/1"  />
               <InterpolatingParam id="2249" interp="linr"  time="-9999999/1" value="1" leadInLength="0/1"  />
              </VectorParam>
              <VectorParam id="2250"  name="anchor">
               <InterpolatingParam id="2251" interp="linr"  time="0/1" value="0" leadInLength="0/1"  />
               <InterpolatingParam id="2252" interp="linr"  time="0/1" value="0" leadInLength="0/1"  />
               <InterpolatingParam id="2253" interp="linr"  time="0/1" value="0" leadInLength="0/1"  />
              </VectorParam>
             </Transformer>
             <Parameters>
              <VectorParam id="2254"  name="sourceCrop">
               <InterpolatingParam id="2255" interp="linr"  time="0/1" value="0" leadInLength="0/1"  />
               <InterpolatingParam id="2256" interp="linr"  time="0/1" value="0" leadInLength="0/1"  />
               <InterpolatingParam id="2257" interp="linr"  time="0/1" value="0" leadInLength="0/1"  />
               <InterpolatingParam id="2258" interp="linr"  time="0/1" value="0" leadInLength="0/1"  />
              </VectorParam>
              <VectorParam id="2259"  name="geometryCrop">
               <InterpolatingParam id="2260" interp="linr"  time="-9999999/1" value="0" leadInLength="0/1"  />
               <InterpolatingParam id="2261" interp="linr"  time="-9999999/1" value="0" leadInLength="0/1"  />
               <InterpolatingParam id="2262" interp="linr"  time="-9999999/1" value="0" leadInLength="0/1"  />
               <InterpolatingParam id="2263" interp="linr"  time="-9999999/1" value="0" leadInLength="0/1"  />
              </VectorParam>
              <InterpolatingParam id="2264" interp="linr"  time="-9999999/1" value="1" leadInLength="0/1"  name="opacity"/>
              <InterpolatingParam id="2265" interp="linr"  time="0/1" value="0" leadInLength="0/1"  name="cursorOpacity"/>
              <InterpolatingParam id="2266" interp="linr"  time="0/1" value="0" leadInLength="0/1"  name="cursorScale"/>
             </Parameters>
             <Attributes>
              <Attribute id="2267" value="" name="ident"/>
             </Attributes>
             <ExtraData>
              <Entry key="ZoomPanBin">
               <ZoomPanBin id="2268"  >
                <ZoomPanKeyframes>
                 <ZoomPanKeyframe id="2269" timeRangeEnd="-9999999/1" timeRangeDuration="0/1" interpolaterName="linr"  />
                </ZoomPanKeyframes>
               </ZoomPanBin>
              </Entry>
              <Entry key="CursorEffectBin">
               <CursorEffectBin id="2270"  >
                <CursorEffectKeyframes>
                </CursorEffectKeyframes>
               </CursorEffectBin>
              </Entry>
             </ExtraData>
            </ScreenVMFile>
            <MetaData>
             <entry key="AutoAppliedSmartFocus" val="False"/>
             <entry key="WinSubProjectDisplayName" val=""/>
            </MetaData>
           </UnifiedMedia>
           <UnifiedMedia id="2271"  >
            <AMFile id="2272" start="2361" duration="164" scalar="1/1" mediaStart="2632/1" mediaDuration="164/1" trackNumber="1" src="8" channelNumber="0,1" >
             <Parameters>
              <InterpolatingParam id="2273" interp="linr"  time="0/1" value="1" leadInLength="0/1"  name="volume"/>
              <Parameter id="2274"  name="captions"/>
             </Parameters>
             <Attributes>
              <Attribute id="2275" value="" name="ident"/>
              <Attribute id="2276" value="44100" name="sampleRate"/>
              <Attribute id="2277" value="16" name="bitDepth"/>
              <Attribute id="2278" value="1" name="gain"/>
              <Attribute id="2279" value="0" name="mixToMono"/>
             </Attributes>
            </AMFile>
            <ScreenVMFile id="2280" start="2361" duration="164" scalar="1/1" mediaStart="2632/1" mediaDuration="164/1" trackNumber="0" src="8" >
             <Transformer>
              <VectorParam id="2281"  name="translation">
               <InterpolatingParam id="2282" interp="linr"  time="-9999999/1" value="0" leadInLength="0/1"  />
               <InterpolatingParam id="2283" interp="linr"  time="-9999999/1" value="0" leadInLength="0/1"  />
               <InterpolatingParam id="2284" interp="linr"  time="-9999999/1" value="0" leadInLength="0/1"  />
              </VectorParam>
              <VectorParam id="2285"  name="rotation">
               <InterpolatingParam id="2286" interp="linr"  time="-9999999/1" value="0" leadInLength="0/1"  />
               <InterpolatingParam id="2287" interp="linr"  time="-9999999/1" value="0" leadInLength="0/1"  />
               <InterpolatingParam id="2288" interp="linr"  time="-9999999/1" value="0" leadInLength="0/1"  />
              </VectorParam>
              <VectorParam id="2289"  name="shear">
               <InterpolatingParam id="2290" interp="linr"  time="-9999999/1" value="0" leadInLength="0/1"  />
               <InterpolatingParam id="2291" interp="linr"  time="-9999999/1" value="0" leadInLength="0/1"  />
               <InterpolatingParam id="2292" interp="linr"  time="-9999999/1" value="0" leadInLength="0/1"  />
              </VectorParam>
              <VectorParam id="2293"  name="scale">
               <InterpolatingParam id="2294" interp="linr"  time="-9999999/1" value="1" leadInLength="0/1"  />
               <InterpolatingParam id="2295" interp="linr"  time="-9999999/1" value="1" leadInLength="0/1"  />
               <InterpolatingParam id="2296" interp="linr"  time="-9999999/1" value="1" leadInLength="0/1"  />
              </VectorParam>
              <VectorParam id="2297"  name="anchor">
               <InterpolatingParam id="2298" interp="linr"  time="0/1" value="0" leadInLength="0/1"  />
               <InterpolatingParam id="2299" interp="linr"  time="0/1" value="0" leadInLength="0/1"  />
               <InterpolatingParam id="2300" interp="linr"  time="0/1" value="0" leadInLength="0/1"  />
              </VectorParam>
             </Transformer>
             <Parameters>
              <VectorParam id="2301"  name="sourceCrop">
               <InterpolatingParam id="2302" interp="linr"  time="0/1" value="0" leadInLength="0/1"  />
               <InterpolatingParam id="2303" interp="linr"  time="0/1" value="0" leadInLength="0/1"  />
               <InterpolatingParam id="2304" interp="linr"  time="0/1" value="0" leadInLength="0/1"  />
               <InterpolatingParam id="2305" interp="linr"  time="0/1" value="0" leadInLength="0/1"  />
              </VectorParam>
              <VectorParam id="2306"  name="geometryCrop">
               <InterpolatingParam id="2307" interp="linr"  time="-9999999/1" value="0" leadInLength="0/1"  />
               <InterpolatingParam id="2308" interp="linr"  time="-9999999/1" value="0" leadInLength="0/1"  />
               <InterpolatingParam id="2309" interp="linr"  time="-9999999/1" value="0" leadInLength="0/1"  />
               <InterpolatingParam id="2310" interp="linr"  time="-9999999/1" value="0" leadInLength="0/1"  />
              </VectorParam>
              <InterpolatingParam id="2311" interp="linr"  time="-9999999/1" value="1" leadInLength="0/1"  name="opacity"/>
              <InterpolatingParam id="2312" interp="linr"  time="0/1" value="0" leadInLength="0/1"  name="cursorOpacity"/>
              <InterpolatingParam id="2313" interp="linr"  time="0/1" value="0" leadInLength="0/1"  name="cursorScale"/>
             </Parameters>
             <Attributes>
              <Attribute id="2314" value="" name="ident"/>
             </Attributes>
             <ExtraData>
              <Entry key="ZoomPanBin">
               <ZoomPanBin id="2315"  >
                <ZoomPanKeyframes>
                 <ZoomPanKeyframe id="2316" timeRangeEnd="-9999999/1" timeRangeDuration="0/1" interpolaterName="linr"  />
                </ZoomPanKeyframes>
               </ZoomPanBin>
              </Entry>
              <Entry key="CursorEffectBin">
               <CursorEffectBin id="2317"  >
                <CursorEffectKeyframes>
                </CursorEffectKeyframes>
               </CursorEffectBin>
              </Entry>
             </ExtraData>
            </ScreenVMFile>
            <MetaData>
             <entry key="AutoAppliedSmartFocus" val="False"/>
             <entry key="WinSubProjectDisplayName" val=""/>
            </MetaData>
           </UnifiedMedia>
          </Medias>
         </GenericTrack>
        </StitchedMedia>
        <StitchedMedia id="2318" start="9733" duration="1275" scalar="1/1" mediaStart="0/1" mediaDuration="1275/1" minMediaStart="0/1" >
         <Transformer>
          <VectorParam id="2319"  name="translation">
           <InterpolatingParam id="2320" interp="linr"  time="-9999999/1" value="0" leadInLength="0/1"  />
           <InterpolatingParam id="2321" interp="linr"  time="-9999999/1" value="0" leadInLength="0/1"  />
           <InterpolatingParam id="2322" interp="linr"  time="-9999999/1" value="0" leadInLength="0/1"  />
          </VectorParam>
          <VectorParam id="2323"  name="rotation">
           <InterpolatingParam id="2324" interp="linr"  time="-9999999/1" value="0" leadInLength="0/1"  />
           <InterpolatingParam id="2325" interp="linr"  time="-9999999/1" value="0" leadInLength="0/1"  />
           <InterpolatingParam id="2326" interp="linr"  time="-9999999/1" value="0" leadInLength="0/1"  />
          </VectorParam>
          <VectorParam id="2327"  name="shear">
           <InterpolatingParam id="2328" interp="linr"  time="-9999999/1" value="0" leadInLength="0/1"  />
           <InterpolatingParam id="2329" interp="linr"  time="-9999999/1" value="0" leadInLength="0/1"  />
           <InterpolatingParam id="2330" interp="linr"  time="-9999999/1" value="0" leadInLength="0/1"  />
          </VectorParam>
          <VectorParam id="2331"  name="scale">
           <InterpolatingParam id="2332" interp="linr"  time="-9999999/1" value="0.66666666666666663" leadInLength="0/1"  />
           <InterpolatingParam id="2333" interp="linr"  time="-9999999/1" value="0.66666666666666663" leadInLength="0/1"  />
           <InterpolatingParam id="2334" interp="linr"  time="-9999999/1" value="1" leadInLength="0/1"  />
          </VectorParam>
          <VectorParam id="2335"  name="anchor">
           <InterpolatingParam id="2336" interp="linr"  time="0/1" value="0" leadInLength="0/1"  />
           <InterpolatingParam id="2337" interp="linr"  time="0/1" value="0" leadInLength="0/1"  />
           <InterpolatingParam id="2338" interp="linr"  time="0/1" value="0" leadInLength="0/1"  />
          </VectorParam>
         </Transformer>
         <Parameters>
          <VectorParam id="2339"  name="sourceCrop">
           <InterpolatingParam id="2340" interp="linr"  time="0/1" value="0" leadInLength="0/1"  />
           <InterpolatingParam id="2341" interp="linr"  time="0/1" value="0" leadInLength="0/1"  />
           <InterpolatingParam id="2342" interp="linr"  time="0/1" value="0" leadInLength="0/1"  />
           <InterpolatingParam id="2343" interp="linr"  time="0/1" value="0" leadInLength="0/1"  />
          </VectorParam>
          <VectorParam id="2344"  name="geometryCrop">
           <InterpolatingParam id="2345" interp="linr"  time="-9999999/1" value="0" leadInLength="0/1"  />
           <InterpolatingParam id="2346" interp="linr"  time="-9999999/1" value="0" leadInLength="0/1"  />
           <InterpolatingParam id="2347" interp="linr"  time="-9999999/1" value="0" leadInLength="0/1"  />
           <InterpolatingParam id="2348" interp="linr"  time="-9999999/1" value="0" leadInLength="0/1"  />
          </VectorParam>
          <InterpolatingParam id="2349" interp="linr"  time="-9999999/1" value="1" leadInLength="0/1"  name="opacity"/>
          <Parameter id="2350"  name="toc">
           <Keyframes>
           <Keyframe id="2351"  time="0/1" value="Disadvantages" leadInLength="0/1"  />
           </Keyframes>
          </Parameter>
          <InterpolatingParam id="2352" interp="linr"  time="0/1" value="1" leadInLength="0/1"  name="cursorOpacity"/>
          <InterpolatingParam id="2353" interp="linr"  time="0/1" value="1" leadInLength="0/1"  name="cursorScale"/>
          <InterpolatingParam id="2354" interp="linr"  time="0/1" value="1" leadInLength="0/1"  name="volume"/>
          <Parameter id="2355"  name="captions"/>
         </Parameters>
         <Effects>
          <GenericEffect id="2356" name = "CursorBaseEffectName" >
           <Parameters>
           <InterpolatingParam id="2357" interp="linr"  time="-9999999/1" value="1" leadInLength="0/1"   name="cursorSize"/>
           <InterpolatingParam id="2358" interp="linr"  time="-9999999/1" value="0" leadInLength="0/1"   name="highlightBlurRadius"/>
           <InterpolatingParam id="2359" interp="linr"  time="-9999999/1" value="0" leadInLength="0/1"   name="highlightColorBlue"/>
           <InterpolatingParam id="2360" interp="linr"  time="-9999999/1" value="255" leadInLength="0/1"   name="highlightColorGreen"/>
           <InterpolatingParam id="2361" interp="linr"  time="-9999999/1" value="255" leadInLength="0/1"   name="highlightColorRed"/>
           <InterpolatingParam id="2362" interp="linr"  time="-9999999/1" value="5" leadInLength="0/1"   name="highlightFeatherSize"/>
           <InterpolatingParam id="2363" interp="linr"  time="-9999999/1" value="2" leadInLength="0/1"   name="highlightMagnification"/>
           <InterpolatingParam id="2364" interp="linr"  time="-9999999/1" value="1" leadInLength="0/1"   name="highlightOpacity"/>
           <InterpolatingParam id="2365" interp="linr"  time="-9999999/1" value="45" leadInLength="0/1"   name="highlightSize"/>
           <Parameter id="2366"   name="highlightType">
            <Keyframes>
            <Keyframe id="2367"  time="-9999999/1" value="0" leadInLength="0/1"  />
            </Keyframes>
           </Parameter>
           <InterpolatingParam id="2368" interp="linr"  time="-9999999/1" value="0" leadInLength="0/1"   name="leftClickColorBlue"/>
           <InterpolatingParam id="2369" interp="linr"  time="-9999999/1" value="0" leadInLength="0/1"   name="leftClickColorGreen"/>
           <InterpolatingParam id="2370" interp="linr"  time="-9999999/1" value="255" leadInLength="0/1"   name="leftClickColorRed"/>
           <InterpolatingParam id="2371" interp="linr"  time="-9999999/1" value="0.80000000000000004" leadInLength="0/1"   name="leftClickDuration"/>
           <InterpolatingParam id="2372" interp="linr"  time="-9999999/1" value="20" leadInLength="0/1"   name="leftClickSize"/>
           <Parameter id="2373"   name="leftClickSoundFilename">
            <Keyframes>
            <Keyframe id="2374"  time="-9999999/1" value="" leadInLength="0/1"  />
            </Keyframes>
           </Parameter>
           <InterpolatingParam id="2375" interp="linr"  time="-9999999/1" value="1" leadInLength="0/1"   name="leftClickSoundVolume"/>
           <Parameter id="2376"   name="leftClickType">
            <Keyframes>
            <Keyframe id="2377"  time="-9999999/1" value="0" leadInLength="0/1"  />
            </Keyframes>
           </Parameter>
           <InterpolatingParam id="2378" interp="linr"  time="-9999999/1" value="1" leadInLength="0/1"   name="opacity"/>
           <InterpolatingParam id="2379" interp="linr"  time="-9999999/1" value="255" leadInLength="0/1"   name="rightClickColorBlue"/>
           <InterpolatingParam id="2380" interp="linr"  time="-9999999/1" value="0" leadInLength="0/1"   name="rightClickColorGreen"/>
           <InterpolatingParam id="2381" interp="linr"  time="-9999999/1" value="0" leadInLength="0/1"   name="rightClickColorRed"/>
           <InterpolatingParam id="2382" interp="linr"  time="-9999999/1" value="0.80000000000000004" leadInLength="0/1"   name="rightClickDuration"/>
           <InterpolatingParam id="2383" interp="linr"  time="-9999999/1" value="20" leadInLength="0/1"   name="rightClickSize"/>
           <Parameter id="2384"   name="rightClickSoundFilename">
            <Keyframes>
            <Keyframe id="2385"  time="-9999999/1" value="" leadInLength="0/1"  />
            </Keyframes>
           </Parameter>
           <InterpolatingParam id="2386" interp="linr"  time="-9999999/1" value="1" leadInLength="0/1"   name="rightClickSoundVolume"/>
           <Parameter id="2387"   name="rightClickType">
            <Keyframes>
            <Keyframe id="2388"  time="-9999999/1" value="0" leadInLength="0/1"  />
            </Keyframes>
           </Parameter>
           </Parameters>
           <MetaData>
            <entry key="effectIndex" val="0"/>
           </MetaData>
          </GenericEffect>
         </Effects>
         <Attributes>
          <Attribute id="2389" value="" name="ident"/>
          <Attribute id="2390" value="0" name="mixToMono"/>
         </Attributes>
         <MetaData>
          <entry key="AutoAppliedSmartFocus" val="False"/>
          <entry key="WinSubProjectDisplayName" val=""/>
         </MetaData>
         <ExtraData>
          <Entry key="ZoomPanBin">
           <ZoomPanBin id="2391"  >
            <ZoomPanKeyframes>
             <ZoomPanKeyframe id="2392" timeRangeEnd="-9999999/1" timeRangeDuration="0/1" interpolaterName="linr"  />
            </ZoomPanKeyframes>
           </ZoomPanBin>
          </Entry>
          <Entry key="CursorEffectBin">
           <CursorEffectBin id="2393"  >
            <CursorEffectKeyframes>
             <CursorEffectKeyframe id="2394" timeRangeEnd="-9999999/1" timeRangeDuration="0/1" interpolaterName=""  />
            </CursorEffectKeyframes>
           </CursorEffectBin>
          </Entry>
         </ExtraData>
         <GenericTrack id="2395"  >
          <Attributes>
           <Attribute id="2396" value="" name="ident"/>
           <Attribute id="2397" value="0" name="audioMuted"/>
           <Attribute id="2398" value="0" name="videoHidden"/>
          </Attributes>
          <MetaData>
           <entry key="IsLocked" val="False"/>
           <entry key="WinTrackHeight" val="0"/>
          </MetaData>
          <Medias>
           <UnifiedMedia id="2399"  >
            <AMFile id="2400" start="0" duration="149" scalar="1/1" mediaStart="0/1" mediaDuration="149/1" trackNumber="1" src="9" channelNumber="0,1" >
             <Parameters>
              <InterpolatingParam id="2401" interp="linr"  time="0/1" value="1" leadInLength="0/1"  name="volume"/>
              <Parameter id="2402"  name="captions"/>
             </Parameters>
             <Attributes>
              <Attribute id="2403" value="" name="ident"/>
              <Attribute id="2404" value="44100" name="sampleRate"/>
              <Attribute id="2405" value="16" name="bitDepth"/>
              <Attribute id="2406" value="1" name="gain"/>
              <Attribute id="2407" value="0" name="mixToMono"/>
             </Attributes>
            </AMFile>
            <ScreenVMFile id="2408" start="0" duration="149" scalar="1/1" mediaStart="0/1" mediaDuration="149/1" trackNumber="0" src="9" >
             <Transformer>
              <VectorParam id="2409"  name="translation">
               <InterpolatingParam id="2410" interp="linr"  time="-9999999/1" value="0" leadInLength="0/1"  />
               <InterpolatingParam id="2411" interp="linr"  time="-9999999/1" value="0" leadInLength="0/1"  />
               <InterpolatingParam id="2412" interp="linr"  time="-9999999/1" value="0" leadInLength="0/1"  />
              </VectorParam>
              <VectorParam id="2413"  name="rotation">
               <InterpolatingParam id="2414" interp="linr"  time="-9999999/1" value="0" leadInLength="0/1"  />
               <InterpolatingParam id="2415" interp="linr"  time="-9999999/1" value="0" leadInLength="0/1"  />
               <InterpolatingParam id="2416" interp="linr"  time="-9999999/1" value="0" leadInLength="0/1"  />
              </VectorParam>
              <VectorParam id="2417"  name="shear">
               <InterpolatingParam id="2418" interp="linr"  time="-9999999/1" value="0" leadInLength="0/1"  />
               <InterpolatingParam id="2419" interp="linr"  time="-9999999/1" value="0" leadInLength="0/1"  />
               <InterpolatingParam id="2420" interp="linr"  time="-9999999/1" value="0" leadInLength="0/1"  />
              </VectorParam>
              <VectorParam id="2421"  name="scale">
               <InterpolatingParam id="2422" interp="linr"  time="-9999999/1" value="1" leadInLength="0/1"  />
               <InterpolatingParam id="2423" interp="linr"  time="-9999999/1" value="1" leadInLength="0/1"  />
               <InterpolatingParam id="2424" interp="linr"  time="-9999999/1" value="1" leadInLength="0/1"  />
              </VectorParam>
              <VectorParam id="2425"  name="anchor">
               <InterpolatingParam id="2426" interp="linr"  time="0/1" value="0" leadInLength="0/1"  />
               <InterpolatingParam id="2427" interp="linr"  time="0/1" value="0" leadInLength="0/1"  />
               <InterpolatingParam id="2428" interp="linr"  time="0/1" value="0" leadInLength="0/1"  />
              </VectorParam>
             </Transformer>
             <Parameters>
              <VectorParam id="2429"  name="sourceCrop">
               <InterpolatingParam id="2430" interp="linr"  time="0/1" value="0" leadInLength="0/1"  />
               <InterpolatingParam id="2431" interp="linr"  time="0/1" value="0" leadInLength="0/1"  />
               <InterpolatingParam id="2432" interp="linr"  time="0/1" value="0" leadInLength="0/1"  />
               <InterpolatingParam id="2433" interp="linr"  time="0/1" value="0" leadInLength="0/1"  />
              </VectorParam>
              <VectorParam id="2434"  name="geometryCrop">
               <InterpolatingParam id="2435" interp="linr"  time="-9999999/1" value="0" leadInLength="0/1"  />
               <InterpolatingParam id="2436" interp="linr"  time="-9999999/1" value="0" leadInLength="0/1"  />
               <InterpolatingParam id="2437" interp="linr"  time="-9999999/1" value="0" leadInLength="0/1"  />
               <InterpolatingParam id="2438" interp="linr"  time="-9999999/1" value="0" leadInLength="0/1"  />
              </VectorParam>
              <InterpolatingParam id="2439" interp="linr"  time="-9999999/1" value="1" leadInLength="0/1"  name="opacity"/>
              <InterpolatingParam id="2440" interp="linr"  time="0/1" value="0" leadInLength="0/1"  name="cursorOpacity"/>
              <InterpolatingParam id="2441" interp="linr"  time="0/1" value="0" leadInLength="0/1"  name="cursorScale"/>
             </Parameters>
             <Attributes>
              <Attribute id="2442" value="" name="ident"/>
             </Attributes>
             <ExtraData>
              <Entry key="ZoomPanBin">
               <ZoomPanBin id="2443"  >
                <ZoomPanKeyframes>
                 <ZoomPanKeyframe id="2444" timeRangeEnd="-9999999/1" timeRangeDuration="0/1" interpolaterName="linr"  />
                </ZoomPanKeyframes>
               </ZoomPanBin>
              </Entry>
              <Entry key="CursorEffectBin">
               <CursorEffectBin id="2445"  >
                <CursorEffectKeyframes>
                </CursorEffectKeyframes>
               </CursorEffectBin>
              </Entry>
             </ExtraData>
            </ScreenVMFile>
            <MetaData>
             <entry key="AutoAppliedSmartFocus" val="False"/>
             <entry key="WinSubProjectDisplayName" val=""/>
            </MetaData>
           </UnifiedMedia>
           <UnifiedMedia id="2446"  >
            <AMFile id="2447" start="149" duration="216" scalar="1/1" mediaStart="158/1" mediaDuration="216/1" trackNumber="1" src="9" channelNumber="0,1" >
             <Parameters>
              <InterpolatingParam id="2448" interp="linr"  time="0/1" value="1" leadInLength="0/1"  name="volume"/>
              <Parameter id="2449"  name="captions"/>
             </Parameters>
             <Attributes>
              <Attribute id="2450" value="" name="ident"/>
              <Attribute id="2451" value="44100" name="sampleRate"/>
              <Attribute id="2452" value="16" name="bitDepth"/>
              <Attribute id="2453" value="1" name="gain"/>
              <Attribute id="2454" value="0" name="mixToMono"/>
             </Attributes>
            </AMFile>
            <ScreenVMFile id="2455" start="149" duration="216" scalar="1/1" mediaStart="158/1" mediaDuration="216/1" trackNumber="0" src="9" >
             <Transformer>
              <VectorParam id="2456"  name="translation">
               <InterpolatingParam id="2457" interp="linr"  time="-9999999/1" value="0" leadInLength="0/1"  />
               <InterpolatingParam id="2458" interp="linr"  time="-9999999/1" value="0" leadInLength="0/1"  />
               <InterpolatingParam id="2459" interp="linr"  time="-9999999/1" value="0" leadInLength="0/1"  />
              </VectorParam>
              <VectorParam id="2460"  name="rotation">
               <InterpolatingParam id="2461" interp="linr"  time="-9999999/1" value="0" leadInLength="0/1"  />
               <InterpolatingParam id="2462" interp="linr"  time="-9999999/1" value="0" leadInLength="0/1"  />
               <InterpolatingParam id="2463" interp="linr"  time="-9999999/1" value="0" leadInLength="0/1"  />
              </VectorParam>
              <VectorParam id="2464"  name="shear">
               <InterpolatingParam id="2465" interp="linr"  time="-9999999/1" value="0" leadInLength="0/1"  />
               <InterpolatingParam id="2466" interp="linr"  time="-9999999/1" value="0" leadInLength="0/1"  />
               <InterpolatingParam id="2467" interp="linr"  time="-9999999/1" value="0" leadInLength="0/1"  />
              </VectorParam>
              <VectorParam id="2468"  name="scale">
               <InterpolatingParam id="2469" interp="linr"  time="-9999999/1" value="1" leadInLength="0/1"  />
               <InterpolatingParam id="2470" interp="linr"  time="-9999999/1" value="1" leadInLength="0/1"  />
               <InterpolatingParam id="2471" interp="linr"  time="-9999999/1" value="1" leadInLength="0/1"  />
              </VectorParam>
              <VectorParam id="2472"  name="anchor">
               <InterpolatingParam id="2473" interp="linr"  time="0/1" value="0" leadInLength="0/1"  />
               <InterpolatingParam id="2474" interp="linr"  time="0/1" value="0" leadInLength="0/1"  />
               <InterpolatingParam id="2475" interp="linr"  time="0/1" value="0" leadInLength="0/1"  />
              </VectorParam>
             </Transformer>
             <Parameters>
              <VectorParam id="2476"  name="sourceCrop">
               <InterpolatingParam id="2477" interp="linr"  time="0/1" value="0" leadInLength="0/1"  />
               <InterpolatingParam id="2478" interp="linr"  time="0/1" value="0" leadInLength="0/1"  />
               <InterpolatingParam id="2479" interp="linr"  time="0/1" value="0" leadInLength="0/1"  />
               <InterpolatingParam id="2480" interp="linr"  time="0/1" value="0" leadInLength="0/1"  />
              </VectorParam>
              <VectorParam id="2481"  name="geometryCrop">
               <InterpolatingParam id="2482" interp="linr"  time="-9999999/1" value="0" leadInLength="0/1"  />
               <InterpolatingParam id="2483" interp="linr"  time="-9999999/1" value="0" leadInLength="0/1"  />
               <InterpolatingParam id="2484" interp="linr"  time="-9999999/1" value="0" leadInLength="0/1"  />
               <InterpolatingParam id="2485" interp="linr"  time="-9999999/1" value="0" leadInLength="0/1"  />
              </VectorParam>
              <InterpolatingParam id="2486" interp="linr"  time="-9999999/1" value="1" leadInLength="0/1"  name="opacity"/>
              <InterpolatingParam id="2487" interp="linr"  time="0/1" value="0" leadInLength="0/1"  name="cursorOpacity"/>
              <InterpolatingParam id="2488" interp="linr"  time="0/1" value="0" leadInLength="0/1"  name="cursorScale"/>
             </Parameters>
             <Attributes>
              <Attribute id="2489" value="" name="ident"/>
             </Attributes>
             <ExtraData>
              <Entry key="ZoomPanBin">
               <ZoomPanBin id="2490"  >
                <ZoomPanKeyframes>
                 <ZoomPanKeyframe id="2491" timeRangeEnd="-9999999/1" timeRangeDuration="0/1" interpolaterName="linr"  />
                </ZoomPanKeyframes>
               </ZoomPanBin>
              </Entry>
              <Entry key="CursorEffectBin">
               <CursorEffectBin id="2492"  >
                <CursorEffectKeyframes>
                </CursorEffectKeyframes>
               </CursorEffectBin>
              </Entry>
             </ExtraData>
            </ScreenVMFile>
            <MetaData>
             <entry key="AutoAppliedSmartFocus" val="False"/>
             <entry key="WinSubProjectDisplayName" val=""/>
            </MetaData>
           </UnifiedMedia>
           <UnifiedMedia id="2493"  >
            <AMFile id="2494" start="365" duration="337" scalar="1/1" mediaStart="381/1" mediaDuration="337/1" trackNumber="1" src="9" channelNumber="0,1" >
             <Parameters>
              <InterpolatingParam id="2495" interp="linr"  time="0/1" value="1" leadInLength="0/1"  name="volume"/>
              <Parameter id="2496"  name="captions"/>
             </Parameters>
             <Attributes>
              <Attribute id="2497" value="" name="ident"/>
              <Attribute id="2498" value="44100" name="sampleRate"/>
              <Attribute id="2499" value="16" name="bitDepth"/>
              <Attribute id="2500" value="1" name="gain"/>
              <Attribute id="2501" value="0" name="mixToMono"/>
             </Attributes>
            </AMFile>
            <ScreenVMFile id="2502" start="365" duration="337" scalar="1/1" mediaStart="381/1" mediaDuration="337/1" trackNumber="0" src="9" >
             <Transformer>
              <VectorParam id="2503"  name="translation">
               <InterpolatingParam id="2504" interp="linr"  time="-9999999/1" value="0" leadInLength="0/1"  />
               <InterpolatingParam id="2505" interp="linr"  time="-9999999/1" value="0" leadInLength="0/1"  />
               <InterpolatingParam id="2506" interp="linr"  time="-9999999/1" value="0" leadInLength="0/1"  />
              </VectorParam>
              <VectorParam id="2507"  name="rotation">
               <InterpolatingParam id="2508" interp="linr"  time="-9999999/1" value="0" leadInLength="0/1"  />
               <InterpolatingParam id="2509" interp="linr"  time="-9999999/1" value="0" leadInLength="0/1"  />
               <InterpolatingParam id="2510" interp="linr"  time="-9999999/1" value="0" leadInLength="0/1"  />
              </VectorParam>
              <VectorParam id="2511"  name="shear">
               <InterpolatingParam id="2512" interp="linr"  time="-9999999/1" value="0" leadInLength="0/1"  />
               <InterpolatingParam id="2513" interp="linr"  time="-9999999/1" value="0" leadInLength="0/1"  />
               <InterpolatingParam id="2514" interp="linr"  time="-9999999/1" value="0" leadInLength="0/1"  />
              </VectorParam>
              <VectorParam id="2515"  name="scale">
               <InterpolatingParam id="2516" interp="linr"  time="-9999999/1" value="1" leadInLength="0/1"  />
               <InterpolatingParam id="2517" interp="linr"  time="-9999999/1" value="1" leadInLength="0/1"  />
               <InterpolatingParam id="2518" interp="linr"  time="-9999999/1" value="1" leadInLength="0/1"  />
              </VectorParam>
              <VectorParam id="2519"  name="anchor">
               <InterpolatingParam id="2520" interp="linr"  time="0/1" value="0" leadInLength="0/1"  />
               <InterpolatingParam id="2521" interp="linr"  time="0/1" value="0" leadInLength="0/1"  />
               <InterpolatingParam id="2522" interp="linr"  time="0/1" value="0" leadInLength="0/1"  />
              </VectorParam>
             </Transformer>
             <Parameters>
              <VectorParam id="2523"  name="sourceCrop">
               <InterpolatingParam id="2524" interp="linr"  time="0/1" value="0" leadInLength="0/1"  />
               <InterpolatingParam id="2525" interp="linr"  time="0/1" value="0" leadInLength="0/1"  />
               <InterpolatingParam id="2526" interp="linr"  time="0/1" value="0" leadInLength="0/1"  />
               <InterpolatingParam id="2527" interp="linr"  time="0/1" value="0" leadInLength="0/1"  />
              </VectorParam>
              <VectorParam id="2528"  name="geometryCrop">
               <InterpolatingParam id="2529" interp="linr"  time="-9999999/1" value="0" leadInLength="0/1"  />
               <InterpolatingParam id="2530" interp="linr"  time="-9999999/1" value="0" leadInLength="0/1"  />
               <InterpolatingParam id="2531" interp="linr"  time="-9999999/1" value="0" leadInLength="0/1"  />
               <InterpolatingParam id="2532" interp="linr"  time="-9999999/1" value="0" leadInLength="0/1"  />
              </VectorParam>
              <InterpolatingParam id="2533" interp="linr"  time="-9999999/1" value="1" leadInLength="0/1"  name="opacity"/>
              <InterpolatingParam id="2534" interp="linr"  time="0/1" value="0" leadInLength="0/1"  name="cursorOpacity"/>
              <InterpolatingParam id="2535" interp="linr"  time="0/1" value="0" leadInLength="0/1"  name="cursorScale"/>
             </Parameters>
             <Attributes>
              <Attribute id="2536" value="" name="ident"/>
             </Attributes>
             <ExtraData>
              <Entry key="ZoomPanBin">
               <ZoomPanBin id="2537"  >
                <ZoomPanKeyframes>
                 <ZoomPanKeyframe id="2538" timeRangeEnd="-9999999/1" timeRangeDuration="0/1" interpolaterName="linr"  />
                </ZoomPanKeyframes>
               </ZoomPanBin>
              </Entry>
              <Entry key="CursorEffectBin">
               <CursorEffectBin id="2539"  >
                <CursorEffectKeyframes>
                </CursorEffectKeyframes>
               </CursorEffectBin>
              </Entry>
             </ExtraData>
            </ScreenVMFile>
            <MetaData>
             <entry key="AutoAppliedSmartFocus" val="False"/>
             <entry key="WinSubProjectDisplayName" val=""/>
            </MetaData>
           </UnifiedMedia>
           <UnifiedMedia id="2540"  >
            <AMFile id="2541" start="702" duration="187" scalar="1/1" mediaStart="742/1" mediaDuration="187/1" trackNumber="1" src="9" channelNumber="0,1" >
             <Parameters>
              <InterpolatingParam id="2542" interp="linr"  time="0/1" value="1" leadInLength="0/1"  name="volume"/>
              <Parameter id="2543"  name="captions"/>
             </Parameters>
             <Attributes>
              <Attribute id="2544" value="" name="ident"/>
              <Attribute id="2545" value="44100" name="sampleRate"/>
              <Attribute id="2546" value="16" name="bitDepth"/>
              <Attribute id="2547" value="1" name="gain"/>
              <Attribute id="2548" value="0" name="mixToMono"/>
             </Attributes>
            </AMFile>
            <ScreenVMFile id="2549" start="702" duration="187" scalar="1/1" mediaStart="742/1" mediaDuration="187/1" trackNumber="0" src="9" >
             <Transformer>
              <VectorParam id="2550"  name="translation">
               <InterpolatingParam id="2551" interp="linr"  time="-9999999/1" value="0" leadInLength="0/1"  />
               <InterpolatingParam id="2552" interp="linr"  time="-9999999/1" value="0" leadInLength="0/1"  />
               <InterpolatingParam id="2553" interp="linr"  time="-9999999/1" value="0" leadInLength="0/1"  />
              </VectorParam>
              <VectorParam id="2554"  name="rotation">
               <InterpolatingParam id="2555" interp="linr"  time="-9999999/1" value="0" leadInLength="0/1"  />
               <InterpolatingParam id="2556" interp="linr"  time="-9999999/1" value="0" leadInLength="0/1"  />
               <InterpolatingParam id="2557" interp="linr"  time="-9999999/1" value="0" leadInLength="0/1"  />
              </VectorParam>
              <VectorParam id="2558"  name="shear">
               <InterpolatingParam id="2559" interp="linr"  time="-9999999/1" value="0" leadInLength="0/1"  />
               <InterpolatingParam id="2560" interp="linr"  time="-9999999/1" value="0" leadInLength="0/1"  />
               <InterpolatingParam id="2561" interp="linr"  time="-9999999/1" value="0" leadInLength="0/1"  />
              </VectorParam>
              <VectorParam id="2562"  name="scale">
               <InterpolatingParam id="2563" interp="linr"  time="-9999999/1" value="1" leadInLength="0/1"  />
               <InterpolatingParam id="2564" interp="linr"  time="-9999999/1" value="1" leadInLength="0/1"  />
               <InterpolatingParam id="2565" interp="linr"  time="-9999999/1" value="1" leadInLength="0/1"  />
              </VectorParam>
              <VectorParam id="2566"  name="anchor">
               <InterpolatingParam id="2567" interp="linr"  time="0/1" value="0" leadInLength="0/1"  />
               <InterpolatingParam id="2568" interp="linr"  time="0/1" value="0" leadInLength="0/1"  />
               <InterpolatingParam id="2569" interp="linr"  time="0/1" value="0" leadInLength="0/1"  />
              </VectorParam>
             </Transformer>
             <Parameters>
              <VectorParam id="2570"  name="sourceCrop">
               <InterpolatingParam id="2571" interp="linr"  time="0/1" value="0" leadInLength="0/1"  />
               <InterpolatingParam id="2572" interp="linr"  time="0/1" value="0" leadInLength="0/1"  />
               <InterpolatingParam id="2573" interp="linr"  time="0/1" value="0" leadInLength="0/1"  />
               <InterpolatingParam id="2574" interp="linr"  time="0/1" value="0" leadInLength="0/1"  />
              </VectorParam>
              <VectorParam id="2575"  name="geometryCrop">
               <InterpolatingParam id="2576" interp="linr"  time="-9999999/1" value="0" leadInLength="0/1"  />
               <InterpolatingParam id="2577" interp="linr"  time="-9999999/1" value="0" leadInLength="0/1"  />
               <InterpolatingParam id="2578" interp="linr"  time="-9999999/1" value="0" leadInLength="0/1"  />
               <InterpolatingParam id="2579" interp="linr"  time="-9999999/1" value="0" leadInLength="0/1"  />
              </VectorParam>
              <InterpolatingParam id="2580" interp="linr"  time="-9999999/1" value="1" leadInLength="0/1"  name="opacity"/>
              <InterpolatingParam id="2581" interp="linr"  time="0/1" value="0" leadInLength="0/1"  name="cursorOpacity"/>
              <InterpolatingParam id="2582" interp="linr"  time="0/1" value="0" leadInLength="0/1"  name="cursorScale"/>
             </Parameters>
             <Attributes>
              <Attribute id="2583" value="" name="ident"/>
             </Attributes>
             <ExtraData>
              <Entry key="ZoomPanBin">
               <ZoomPanBin id="2584"  >
                <ZoomPanKeyframes>
                 <ZoomPanKeyframe id="2585" timeRangeEnd="-9999999/1" timeRangeDuration="0/1" interpolaterName="linr"  />
                </ZoomPanKeyframes>
               </ZoomPanBin>
              </Entry>
              <Entry key="CursorEffectBin">
               <CursorEffectBin id="2586"  >
                <CursorEffectKeyframes>
                </CursorEffectKeyframes>
               </CursorEffectBin>
              </Entry>
             </ExtraData>
            </ScreenVMFile>
            <MetaData>
             <entry key="AutoAppliedSmartFocus" val="False"/>
             <entry key="WinSubProjectDisplayName" val=""/>
            </MetaData>
           </UnifiedMedia>
           <UnifiedMedia id="2587"  >
            <AMFile id="2588" start="889" duration="91" scalar="1/1" mediaStart="969/1" mediaDuration="91/1" trackNumber="1" src="9" channelNumber="0,1" >
             <Parameters>
              <InterpolatingParam id="2589" interp="linr"  time="0/1" value="1" leadInLength="0/1"  name="volume"/>
              <Parameter id="2590"  name="captions"/>
             </Parameters>
             <Attributes>
              <Attribute id="2591" value="" name="ident"/>
              <Attribute id="2592" value="44100" name="sampleRate"/>
              <Attribute id="2593" value="16" name="bitDepth"/>
              <Attribute id="2594" value="1" name="gain"/>
              <Attribute id="2595" value="0" name="mixToMono"/>
             </Attributes>
            </AMFile>
            <ScreenVMFile id="2596" start="889" duration="91" scalar="1/1" mediaStart="969/1" mediaDuration="91/1" trackNumber="0" src="9" >
             <Transformer>
              <VectorParam id="2597"  name="translation">
               <InterpolatingParam id="2598" interp="linr"  time="-9999999/1" value="0" leadInLength="0/1"  />
               <InterpolatingParam id="2599" interp="linr"  time="-9999999/1" value="0" leadInLength="0/1"  />
               <InterpolatingParam id="2600" interp="linr"  time="-9999999/1" value="0" leadInLength="0/1"  />
              </VectorParam>
              <VectorParam id="2601"  name="rotation">
               <InterpolatingParam id="2602" interp="linr"  time="-9999999/1" value="0" leadInLength="0/1"  />
               <InterpolatingParam id="2603" interp="linr"  time="-9999999/1" value="0" leadInLength="0/1"  />
               <InterpolatingParam id="2604" interp="linr"  time="-9999999/1" value="0" leadInLength="0/1"  />
              </VectorParam>
              <VectorParam id="2605"  name="shear">
               <InterpolatingParam id="2606" interp="linr"  time="-9999999/1" value="0" leadInLength="0/1"  />
               <InterpolatingParam id="2607" interp="linr"  time="-9999999/1" value="0" leadInLength="0/1"  />
               <InterpolatingParam id="2608" interp="linr"  time="-9999999/1" value="0" leadInLength="0/1"  />
              </VectorParam>
              <VectorParam id="2609"  name="scale">
               <InterpolatingParam id="2610" interp="linr"  time="-9999999/1" value="1" leadInLength="0/1"  />
               <InterpolatingParam id="2611" interp="linr"  time="-9999999/1" value="1" leadInLength="0/1"  />
               <InterpolatingParam id="2612" interp="linr"  time="-9999999/1" value="1" leadInLength="0/1"  />
              </VectorParam>
              <VectorParam id="2613"  name="anchor">
               <InterpolatingParam id="2614" interp="linr"  time="0/1" value="0" leadInLength="0/1"  />
               <InterpolatingParam id="2615" interp="linr"  time="0/1" value="0" leadInLength="0/1"  />
               <InterpolatingParam id="2616" interp="linr"  time="0/1" value="0" leadInLength="0/1"  />
              </VectorParam>
             </Transformer>
             <Parameters>
              <VectorParam id="2617"  name="sourceCrop">
               <InterpolatingParam id="2618" interp="linr"  time="0/1" value="0" leadInLength="0/1"  />
               <InterpolatingParam id="2619" interp="linr"  time="0/1" value="0" leadInLength="0/1"  />
               <InterpolatingParam id="2620" interp="linr"  time="0/1" value="0" leadInLength="0/1"  />
               <InterpolatingParam id="2621" interp="linr"  time="0/1" value="0" leadInLength="0/1"  />
              </VectorParam>
              <VectorParam id="2622"  name="geometryCrop">
               <InterpolatingParam id="2623" interp="linr"  time="-9999999/1" value="0" leadInLength="0/1"  />
               <InterpolatingParam id="2624" interp="linr"  time="-9999999/1" value="0" leadInLength="0/1"  />
               <InterpolatingParam id="2625" interp="linr"  time="-9999999/1" value="0" leadInLength="0/1"  />
               <InterpolatingParam id="2626" interp="linr"  time="-9999999/1" value="0" leadInLength="0/1"  />
              </VectorParam>
              <InterpolatingParam id="2627" interp="linr"  time="-9999999/1" value="1" leadInLength="0/1"  name="opacity"/>
              <InterpolatingParam id="2628" interp="linr"  time="0/1" value="0" leadInLength="0/1"  name="cursorOpacity"/>
              <InterpolatingParam id="2629" interp="linr"  time="0/1" value="0" leadInLength="0/1"  name="cursorScale"/>
             </Parameters>
             <Attributes>
              <Attribute id="2630" value="" name="ident"/>
             </Attributes>
             <ExtraData>
              <Entry key="ZoomPanBin">
               <ZoomPanBin id="2631"  >
                <ZoomPanKeyframes>
                 <ZoomPanKeyframe id="2632" timeRangeEnd="-9999999/1" timeRangeDuration="0/1" interpolaterName="linr"  />
                </ZoomPanKeyframes>
               </ZoomPanBin>
              </Entry>
              <Entry key="CursorEffectBin">
               <CursorEffectBin id="2633"  >
                <CursorEffectKeyframes>
                </CursorEffectKeyframes>
               </CursorEffectBin>
              </Entry>
             </ExtraData>
            </ScreenVMFile>
            <MetaData>
             <entry key="AutoAppliedSmartFocus" val="False"/>
             <entry key="WinSubProjectDisplayName" val=""/>
            </MetaData>
           </UnifiedMedia>
           <UnifiedMedia id="2634"  >
            <AMFile id="2635" start="980" duration="518" scalar="1/1" mediaStart="1101/1" mediaDuration="518/1" trackNumber="1" src="9" channelNumber="0,1" >
             <Parameters>
              <InterpolatingParam id="2636" interp="linr"  time="0/1" value="1" leadInLength="0/1"  name="volume"/>
              <Parameter id="2637"  name="captions"/>
             </Parameters>
             <Attributes>
              <Attribute id="2638" value="" name="ident"/>
              <Attribute id="2639" value="44100" name="sampleRate"/>
              <Attribute id="2640" value="16" name="bitDepth"/>
              <Attribute id="2641" value="1" name="gain"/>
              <Attribute id="2642" value="0" name="mixToMono"/>
             </Attributes>
            </AMFile>
            <ScreenVMFile id="2643" start="980" duration="518" scalar="1/1" mediaStart="1101/1" mediaDuration="518/1" trackNumber="0" src="9" >
             <Transformer>
              <VectorParam id="2644"  name="translation">
               <InterpolatingParam id="2645" interp="linr"  time="-9999999/1" value="0" leadInLength="0/1"  />
               <InterpolatingParam id="2646" interp="linr"  time="-9999999/1" value="0" leadInLength="0/1"  />
               <InterpolatingParam id="2647" interp="linr"  time="-9999999/1" value="0" leadInLength="0/1"  />
              </VectorParam>
              <VectorParam id="2648"  name="rotation">
               <InterpolatingParam id="2649" interp="linr"  time="-9999999/1" value="0" leadInLength="0/1"  />
               <InterpolatingParam id="2650" interp="linr"  time="-9999999/1" value="0" leadInLength="0/1"  />
               <InterpolatingParam id="2651" interp="linr"  time="-9999999/1" value="0" leadInLength="0/1"  />
              </VectorParam>
              <VectorParam id="2652"  name="shear">
               <InterpolatingParam id="2653" interp="linr"  time="-9999999/1" value="0" leadInLength="0/1"  />
               <InterpolatingParam id="2654" interp="linr"  time="-9999999/1" value="0" leadInLength="0/1"  />
               <InterpolatingParam id="2655" interp="linr"  time="-9999999/1" value="0" leadInLength="0/1"  />
              </VectorParam>
              <VectorParam id="2656"  name="scale">
               <InterpolatingParam id="2657" interp="linr"  time="-9999999/1" value="1" leadInLength="0/1"  />
               <InterpolatingParam id="2658" interp="linr"  time="-9999999/1" value="1" leadInLength="0/1"  />
               <InterpolatingParam id="2659" interp="linr"  time="-9999999/1" value="1" leadInLength="0/1"  />
              </VectorParam>
              <VectorParam id="2660"  name="anchor">
               <InterpolatingParam id="2661" interp="linr"  time="0/1" value="0" leadInLength="0/1"  />
               <InterpolatingParam id="2662" interp="linr"  time="0/1" value="0" leadInLength="0/1"  />
               <InterpolatingParam id="2663" interp="linr"  time="0/1" value="0" leadInLength="0/1"  />
              </VectorParam>
             </Transformer>
             <Parameters>
              <VectorParam id="2664"  name="sourceCrop">
               <InterpolatingParam id="2665" interp="linr"  time="0/1" value="0" leadInLength="0/1"  />
               <InterpolatingParam id="2666" interp="linr"  time="0/1" value="0" leadInLength="0/1"  />
               <InterpolatingParam id="2667" interp="linr"  time="0/1" value="0" leadInLength="0/1"  />
               <InterpolatingParam id="2668" interp="linr"  time="0/1" value="0" leadInLength="0/1"  />
              </VectorParam>
              <VectorParam id="2669"  name="geometryCrop">
               <InterpolatingParam id="2670" interp="linr"  time="-9999999/1" value="0" leadInLength="0/1"  />
               <InterpolatingParam id="2671" interp="linr"  time="-9999999/1" value="0" leadInLength="0/1"  />
               <InterpolatingParam id="2672" interp="linr"  time="-9999999/1" value="0" leadInLength="0/1"  />
               <InterpolatingParam id="2673" interp="linr"  time="-9999999/1" value="0" leadInLength="0/1"  />
              </VectorParam>
              <InterpolatingParam id="2674" interp="linr"  time="-9999999/1" value="1" leadInLength="0/1"  name="opacity"/>
              <InterpolatingParam id="2675" interp="linr"  time="0/1" value="0" leadInLength="0/1"  name="cursorOpacity"/>
              <InterpolatingParam id="2676" interp="linr"  time="0/1" value="0" leadInLength="0/1"  name="cursorScale"/>
             </Parameters>
             <Attributes>
              <Attribute id="2677" value="" name="ident"/>
             </Attributes>
             <ExtraData>
              <Entry key="ZoomPanBin">
               <ZoomPanBin id="2678"  >
                <ZoomPanKeyframes>
                 <ZoomPanKeyframe id="2679" timeRangeEnd="-9999999/1" timeRangeDuration="0/1" interpolaterName="linr"  />
                </ZoomPanKeyframes>
               </ZoomPanBin>
              </Entry>
              <Entry key="CursorEffectBin">
               <CursorEffectBin id="2680"  >
                <CursorEffectKeyframes>
                </CursorEffectKeyframes>
               </CursorEffectBin>
              </Entry>
             </ExtraData>
            </ScreenVMFile>
            <MetaData>
             <entry key="AutoAppliedSmartFocus" val="False"/>
             <entry key="WinSubProjectDisplayName" val=""/>
            </MetaData>
           </UnifiedMedia>
          </Medias>
         </GenericTrack>
        </StitchedMedia>
        <StitchedMedia id="2681" start="11008" duration="1726" scalar="1/1" mediaStart="0/1" mediaDuration="1726/1" minMediaStart="0/1" >
         <Transformer>
          <VectorParam id="2682"  name="translation">
           <InterpolatingParam id="2683" interp="linr"  time="-9999999/1" value="0" leadInLength="0/1"  />
           <InterpolatingParam id="2684" interp="linr"  time="-9999999/1" value="0" leadInLength="0/1"  />
           <InterpolatingParam id="2685" interp="linr"  time="-9999999/1" value="0" leadInLength="0/1"  />
          </VectorParam>
          <VectorParam id="2686"  name="rotation">
           <InterpolatingParam id="2687" interp="linr"  time="-9999999/1" value="0" leadInLength="0/1"  />
           <InterpolatingParam id="2688" interp="linr"  time="-9999999/1" value="0" leadInLength="0/1"  />
           <InterpolatingParam id="2689" interp="linr"  time="-9999999/1" value="0" leadInLength="0/1"  />
          </VectorParam>
          <VectorParam id="2690"  name="shear">
           <InterpolatingParam id="2691" interp="linr"  time="-9999999/1" value="0" leadInLength="0/1"  />
           <InterpolatingParam id="2692" interp="linr"  time="-9999999/1" value="0" leadInLength="0/1"  />
           <InterpolatingParam id="2693" interp="linr"  time="-9999999/1" value="0" leadInLength="0/1"  />
          </VectorParam>
          <VectorParam id="2694"  name="scale">
           <InterpolatingParam id="2695" interp="linr"  time="-9999999/1" value="0.66666666666666663" leadInLength="0/1"  />
           <InterpolatingParam id="2696" interp="linr"  time="-9999999/1" value="0.66666666666666663" leadInLength="0/1"  />
           <InterpolatingParam id="2697" interp="linr"  time="-9999999/1" value="1" leadInLength="0/1"  />
          </VectorParam>
          <VectorParam id="2698"  name="anchor">
           <InterpolatingParam id="2699" interp="linr"  time="0/1" value="0" leadInLength="0/1"  />
           <InterpolatingParam id="2700" interp="linr"  time="0/1" value="0" leadInLength="0/1"  />
           <InterpolatingParam id="2701" interp="linr"  time="0/1" value="0" leadInLength="0/1"  />
          </VectorParam>
         </Transformer>
         <Parameters>
          <VectorParam id="2702"  name="sourceCrop">
           <InterpolatingParam id="2703" interp="linr"  time="0/1" value="0" leadInLength="0/1"  />
           <InterpolatingParam id="2704" interp="linr"  time="0/1" value="0" leadInLength="0/1"  />
           <InterpolatingParam id="2705" interp="linr"  time="0/1" value="0" leadInLength="0/1"  />
           <InterpolatingParam id="2706" interp="linr"  time="0/1" value="0" leadInLength="0/1"  />
          </VectorParam>
          <VectorParam id="2707"  name="geometryCrop">
           <InterpolatingParam id="2708" interp="linr"  time="-9999999/1" value="0" leadInLength="0/1"  />
           <InterpolatingParam id="2709" interp="linr"  time="-9999999/1" value="0" leadInLength="0/1"  />
           <InterpolatingParam id="2710" interp="linr"  time="-9999999/1" value="0" leadInLength="0/1"  />
           <InterpolatingParam id="2711" interp="linr"  time="-9999999/1" value="0" leadInLength="0/1"  />
          </VectorParam>
          <InterpolatingParam id="2712" interp="linr"  time="-9999999/1" value="1" leadInLength="0/1"  name="opacity"/>
          <Parameter id="2713"  name="toc">
           <Keyframes>
           <Keyframe id="2714"  time="0/1" value="Disadvantages" leadInLength="0/1"  />
           </Keyframes>
          </Parameter>
          <InterpolatingParam id="2715" interp="linr"  time="0/1" value="1" leadInLength="0/1"  name="cursorOpacity"/>
          <InterpolatingParam id="2716" interp="linr"  time="0/1" value="1" leadInLength="0/1"  name="cursorScale"/>
          <InterpolatingParam id="2717" interp="linr"  time="0/1" value="1" leadInLength="0/1"  name="volume"/>
          <Parameter id="2718"  name="captions"/>
         </Parameters>
         <Effects>
          <GenericEffect id="2719" name = "CursorBaseEffectName" >
           <Parameters>
           <InterpolatingParam id="2720" interp="linr"  time="-9999999/1" value="1" leadInLength="0/1"   name="cursorSize"/>
           <InterpolatingParam id="2721" interp="linr"  time="-9999999/1" value="0" leadInLength="0/1"   name="highlightBlurRadius"/>
           <InterpolatingParam id="2722" interp="linr"  time="-9999999/1" value="0" leadInLength="0/1"   name="highlightColorBlue"/>
           <InterpolatingParam id="2723" interp="linr"  time="-9999999/1" value="255" leadInLength="0/1"   name="highlightColorGreen"/>
           <InterpolatingParam id="2724" interp="linr"  time="-9999999/1" value="255" leadInLength="0/1"   name="highlightColorRed"/>
           <InterpolatingParam id="2725" interp="linr"  time="-9999999/1" value="5" leadInLength="0/1"   name="highlightFeatherSize"/>
           <InterpolatingParam id="2726" interp="linr"  time="-9999999/1" value="2" leadInLength="0/1"   name="highlightMagnification"/>
           <InterpolatingParam id="2727" interp="linr"  time="-9999999/1" value="1" leadInLength="0/1"   name="highlightOpacity"/>
           <InterpolatingParam id="2728" interp="linr"  time="-9999999/1" value="45" leadInLength="0/1"   name="highlightSize"/>
           <Parameter id="2729"   name="highlightType">
            <Keyframes>
            <Keyframe id="2730"  time="-9999999/1" value="0" leadInLength="0/1"  />
            </Keyframes>
           </Parameter>
           <InterpolatingParam id="2731" interp="linr"  time="-9999999/1" value="0" leadInLength="0/1"   name="leftClickColorBlue"/>
           <InterpolatingParam id="2732" interp="linr"  time="-9999999/1" value="0" leadInLength="0/1"   name="leftClickColorGreen"/>
           <InterpolatingParam id="2733" interp="linr"  time="-9999999/1" value="255" leadInLength="0/1"   name="leftClickColorRed"/>
           <InterpolatingParam id="2734" interp="linr"  time="-9999999/1" value="0.80000000000000004" leadInLength="0/1"   name="leftClickDuration"/>
           <InterpolatingParam id="2735" interp="linr"  time="-9999999/1" value="20" leadInLength="0/1"   name="leftClickSize"/>
           <Parameter id="2736"   name="leftClickSoundFilename">
            <Keyframes>
            <Keyframe id="2737"  time="-9999999/1" value="" leadInLength="0/1"  />
            </Keyframes>
           </Parameter>
           <InterpolatingParam id="2738" interp="linr"  time="-9999999/1" value="1" leadInLength="0/1"   name="leftClickSoundVolume"/>
           <Parameter id="2739"   name="leftClickType">
            <Keyframes>
            <Keyframe id="2740"  time="-9999999/1" value="0" leadInLength="0/1"  />
            </Keyframes>
           </Parameter>
           <InterpolatingParam id="2741" interp="linr"  time="-9999999/1" value="1" leadInLength="0/1"   name="opacity"/>
           <InterpolatingParam id="2742" interp="linr"  time="-9999999/1" value="255" leadInLength="0/1"   name="rightClickColorBlue"/>
           <InterpolatingParam id="2743" interp="linr"  time="-9999999/1" value="0" leadInLength="0/1"   name="rightClickColorGreen"/>
           <InterpolatingParam id="2744" interp="linr"  time="-9999999/1" value="0" leadInLength="0/1"   name="rightClickColorRed"/>
           <InterpolatingParam id="2745" interp="linr"  time="-9999999/1" value="0.80000000000000004" leadInLength="0/1"   name="rightClickDuration"/>
           <InterpolatingParam id="2746" interp="linr"  time="-9999999/1" value="20" leadInLength="0/1"   name="rightClickSize"/>
           <Parameter id="2747"   name="rightClickSoundFilename">
            <Keyframes>
            <Keyframe id="2748"  time="-9999999/1" value="" leadInLength="0/1"  />
            </Keyframes>
           </Parameter>
           <InterpolatingParam id="2749" interp="linr"  time="-9999999/1" value="1" leadInLength="0/1"   name="rightClickSoundVolume"/>
           <Parameter id="2750"   name="rightClickType">
            <Keyframes>
            <Keyframe id="2751"  time="-9999999/1" value="0" leadInLength="0/1"  />
            </Keyframes>
           </Parameter>
           </Parameters>
           <MetaData>
            <entry key="effectIndex" val="0"/>
           </MetaData>
          </GenericEffect>
         </Effects>
         <Attributes>
          <Attribute id="2752" value="" name="ident"/>
          <Attribute id="2753" value="0" name="mixToMono"/>
         </Attributes>
         <MetaData>
          <entry key="AutoAppliedSmartFocus" val="False"/>
          <entry key="WinSubProjectDisplayName" val=""/>
         </MetaData>
         <ExtraData>
          <Entry key="ZoomPanBin">
           <ZoomPanBin id="2754"  >
            <ZoomPanKeyframes>
             <ZoomPanKeyframe id="2755" timeRangeEnd="-9999999/1" timeRangeDuration="0/1" interpolaterName="linr"  />
            </ZoomPanKeyframes>
           </ZoomPanBin>
          </Entry>
          <Entry key="CursorEffectBin">
           <CursorEffectBin id="2756"  >
            <CursorEffectKeyframes>
             <CursorEffectKeyframe id="2757" timeRangeEnd="-9999999/1" timeRangeDuration="0/1" interpolaterName=""  />
            </CursorEffectKeyframes>
           </CursorEffectBin>
          </Entry>
         </ExtraData>
         <GenericTrack id="2758"  >
          <Attributes>
           <Attribute id="2759" value="" name="ident"/>
           <Attribute id="2760" value="0" name="audioMuted"/>
           <Attribute id="2761" value="0" name="videoHidden"/>
          </Attributes>
          <MetaData>
           <entry key="IsLocked" val="False"/>
           <entry key="WinTrackHeight" val="0"/>
          </MetaData>
          <Medias>
           <UnifiedMedia id="2762"  >
            <AMFile id="2763" start="0" duration="203" scalar="1/1" mediaStart="0/1" mediaDuration="203/1" trackNumber="1" src="10" channelNumber="0,1" >
             <Parameters>
              <InterpolatingParam id="2764" interp="linr"  time="0/1" value="1" leadInLength="0/1"  name="volume"/>
              <Parameter id="2765"  name="captions"/>
             </Parameters>
             <Attributes>
              <Attribute id="2766" value="" name="ident"/>
              <Attribute id="2767" value="44100" name="sampleRate"/>
              <Attribute id="2768" value="16" name="bitDepth"/>
              <Attribute id="2769" value="1" name="gain"/>
              <Attribute id="2770" value="0" name="mixToMono"/>
             </Attributes>
            </AMFile>
            <ScreenVMFile id="2771" start="0" duration="203" scalar="1/1" mediaStart="0/1" mediaDuration="203/1" trackNumber="0" src="10" >
             <Transformer>
              <VectorParam id="2772"  name="translation">
               <InterpolatingParam id="2773" interp="linr"  time="-9999999/1" value="0" leadInLength="0/1"  />
               <InterpolatingParam id="2774" interp="linr"  time="-9999999/1" value="0" leadInLength="0/1"  />
               <InterpolatingParam id="2775" interp="linr"  time="-9999999/1" value="0" leadInLength="0/1"  />
              </VectorParam>
              <VectorParam id="2776"  name="rotation">
               <InterpolatingParam id="2777" interp="linr"  time="-9999999/1" value="0" leadInLength="0/1"  />
               <InterpolatingParam id="2778" interp="linr"  time="-9999999/1" value="0" leadInLength="0/1"  />
               <InterpolatingParam id="2779" interp="linr"  time="-9999999/1" value="0" leadInLength="0/1"  />
              </VectorParam>
              <VectorParam id="2780"  name="shear">
               <InterpolatingParam id="2781" interp="linr"  time="-9999999/1" value="0" leadInLength="0/1"  />
               <InterpolatingParam id="2782" interp="linr"  time="-9999999/1" value="0" leadInLength="0/1"  />
               <InterpolatingParam id="2783" interp="linr"  time="-9999999/1" value="0" leadInLength="0/1"  />
              </VectorParam>
              <VectorParam id="2784"  name="scale">
               <InterpolatingParam id="2785" interp="linr"  time="-9999999/1" value="1" leadInLength="0/1"  />
               <InterpolatingParam id="2786" interp="linr"  time="-9999999/1" value="1" leadInLength="0/1"  />
               <InterpolatingParam id="2787" interp="linr"  time="-9999999/1" value="1" leadInLength="0/1"  />
              </VectorParam>
              <VectorParam id="2788"  name="anchor">
               <InterpolatingParam id="2789" interp="linr"  time="0/1" value="0" leadInLength="0/1"  />
               <InterpolatingParam id="2790" interp="linr"  time="0/1" value="0" leadInLength="0/1"  />
               <InterpolatingParam id="2791" interp="linr"  time="0/1" value="0" leadInLength="0/1"  />
              </VectorParam>
             </Transformer>
             <Parameters>
              <VectorParam id="2792"  name="sourceCrop">
               <InterpolatingParam id="2793" interp="linr"  time="0/1" value="0" leadInLength="0/1"  />
               <InterpolatingParam id="2794" interp="linr"  time="0/1" value="0" leadInLength="0/1"  />
               <InterpolatingParam id="2795" interp="linr"  time="0/1" value="0" leadInLength="0/1"  />
               <InterpolatingParam id="2796" interp="linr"  time="0/1" value="0" leadInLength="0/1"  />
              </VectorParam>
              <VectorParam id="2797"  name="geometryCrop">
               <InterpolatingParam id="2798" interp="linr"  time="-9999999/1" value="0" leadInLength="0/1"  />
               <InterpolatingParam id="2799" interp="linr"  time="-9999999/1" value="0" leadInLength="0/1"  />
               <InterpolatingParam id="2800" interp="linr"  time="-9999999/1" value="0" leadInLength="0/1"  />
               <InterpolatingParam id="2801" interp="linr"  time="-9999999/1" value="0" leadInLength="0/1"  />
              </VectorParam>
              <InterpolatingParam id="2802" interp="linr"  time="-9999999/1" value="1" leadInLength="0/1"  name="opacity"/>
              <InterpolatingParam id="2803" interp="linr"  time="0/1" value="0" leadInLength="0/1"  name="cursorOpacity"/>
              <InterpolatingParam id="2804" interp="linr"  time="0/1" value="0" leadInLength="0/1"  name="cursorScale"/>
             </Parameters>
             <Attributes>
              <Attribute id="2805" value="" name="ident"/>
             </Attributes>
             <ExtraData>
              <Entry key="ZoomPanBin">
               <ZoomPanBin id="2806"  >
                <ZoomPanKeyframes>
                 <ZoomPanKeyframe id="2807" timeRangeEnd="-9999999/1" timeRangeDuration="0/1" interpolaterName="linr"  />
                </ZoomPanKeyframes>
               </ZoomPanBin>
              </Entry>
              <Entry key="CursorEffectBin">
               <CursorEffectBin id="2808"  >
                <CursorEffectKeyframes>
                </CursorEffectKeyframes>
               </CursorEffectBin>
              </Entry>
             </ExtraData>
            </ScreenVMFile>
            <MetaData>
             <entry key="AutoAppliedSmartFocus" val="False"/>
             <entry key="WinSubProjectDisplayName" val=""/>
            </MetaData>
           </UnifiedMedia>
           <UnifiedMedia id="2809"  >
            <AMFile id="2810" start="203" duration="5" scalar="1/1" mediaStart="222/1" mediaDuration="5/1" trackNumber="1" src="10" channelNumber="0,1" >
             <Parameters>
              <InterpolatingParam id="2811" interp="linr"  time="0/1" value="1" leadInLength="0/1"  name="volume"/>
              <Parameter id="2812"  name="captions"/>
             </Parameters>
             <Attributes>
              <Attribute id="2813" value="" name="ident"/>
              <Attribute id="2814" value="44100" name="sampleRate"/>
              <Attribute id="2815" value="16" name="bitDepth"/>
              <Attribute id="2816" value="1" name="gain"/>
              <Attribute id="2817" value="0" name="mixToMono"/>
             </Attributes>
            </AMFile>
            <ScreenVMFile id="2818" start="203" duration="5" scalar="1/1" mediaStart="222/1" mediaDuration="5/1" trackNumber="0" src="10" >
             <Transformer>
              <VectorParam id="2819"  name="translation">
               <InterpolatingParam id="2820" interp="linr"  time="-9999999/1" value="0" leadInLength="0/1"  />
               <InterpolatingParam id="2821" interp="linr"  time="-9999999/1" value="0" leadInLength="0/1"  />
               <InterpolatingParam id="2822" interp="linr"  time="-9999999/1" value="0" leadInLength="0/1"  />
              </VectorParam>
              <VectorParam id="2823"  name="rotation">
               <InterpolatingParam id="2824" interp="linr"  time="-9999999/1" value="0" leadInLength="0/1"  />
               <InterpolatingParam id="2825" interp="linr"  time="-9999999/1" value="0" leadInLength="0/1"  />
               <InterpolatingParam id="2826" interp="linr"  time="-9999999/1" value="0" leadInLength="0/1"  />
              </VectorParam>
              <VectorParam id="2827"  name="shear">
               <InterpolatingParam id="2828" interp="linr"  time="-9999999/1" value="0" leadInLength="0/1"  />
               <InterpolatingParam id="2829" interp="linr"  time="-9999999/1" value="0" leadInLength="0/1"  />
               <InterpolatingParam id="2830" interp="linr"  time="-9999999/1" value="0" leadInLength="0/1"  />
              </VectorParam>
              <VectorParam id="2831"  name="scale">
               <InterpolatingParam id="2832" interp="linr"  time="-9999999/1" value="1" leadInLength="0/1"  />
               <InterpolatingParam id="2833" interp="linr"  time="-9999999/1" value="1" leadInLength="0/1"  />
               <InterpolatingParam id="2834" interp="linr"  time="-9999999/1" value="1" leadInLength="0/1"  />
              </VectorParam>
              <VectorParam id="2835"  name="anchor">
               <InterpolatingParam id="2836" interp="linr"  time="0/1" value="0" leadInLength="0/1"  />
               <InterpolatingParam id="2837" interp="linr"  time="0/1" value="0" leadInLength="0/1"  />
               <InterpolatingParam id="2838" interp="linr"  time="0/1" value="0" leadInLength="0/1"  />
              </VectorParam>
             </Transformer>
             <Parameters>
              <VectorParam id="2839"  name="sourceCrop">
               <InterpolatingParam id="2840" interp="linr"  time="0/1" value="0" leadInLength="0/1"  />
               <InterpolatingParam id="2841" interp="linr"  time="0/1" value="0" leadInLength="0/1"  />
               <InterpolatingParam id="2842" interp="linr"  time="0/1" value="0" leadInLength="0/1"  />
               <InterpolatingParam id="2843" interp="linr"  time="0/1" value="0" leadInLength="0/1"  />
              </VectorParam>
              <VectorParam id="2844"  name="geometryCrop">
               <InterpolatingParam id="2845" interp="linr"  time="-9999999/1" value="0" leadInLength="0/1"  />
               <InterpolatingParam id="2846" interp="linr"  time="-9999999/1" value="0" leadInLength="0/1"  />
               <InterpolatingParam id="2847" interp="linr"  time="-9999999/1" value="0" leadInLength="0/1"  />
               <InterpolatingParam id="2848" interp="linr"  time="-9999999/1" value="0" leadInLength="0/1"  />
              </VectorParam>
              <InterpolatingParam id="2849" interp="linr"  time="-9999999/1" value="1" leadInLength="0/1"  name="opacity"/>
              <InterpolatingParam id="2850" interp="linr"  time="0/1" value="0" leadInLength="0/1"  name="cursorOpacity"/>
              <InterpolatingParam id="2851" interp="linr"  time="0/1" value="0" leadInLength="0/1"  name="cursorScale"/>
             </Parameters>
             <Attributes>
              <Attribute id="2852" value="" name="ident"/>
             </Attributes>
             <ExtraData>
              <Entry key="ZoomPanBin">
               <ZoomPanBin id="2853"  >
                <ZoomPanKeyframes>
                 <ZoomPanKeyframe id="2854" timeRangeEnd="-9999999/1" timeRangeDuration="0/1" interpolaterName="linr"  />
                </ZoomPanKeyframes>
               </ZoomPanBin>
              </Entry>
              <Entry key="CursorEffectBin">
               <CursorEffectBin id="2855"  >
                <CursorEffectKeyframes>
                </CursorEffectKeyframes>
               </CursorEffectBin>
              </Entry>
             </ExtraData>
            </ScreenVMFile>
            <MetaData>
             <entry key="AutoAppliedSmartFocus" val="False"/>
             <entry key="WinSubProjectDisplayName" val=""/>
            </MetaData>
           </UnifiedMedia>
           <UnifiedMedia id="2856"  >
            <AMFile id="2857" start="208" duration="91" scalar="1/1" mediaStart="263/1" mediaDuration="91/1" trackNumber="1" src="10" channelNumber="0,1" >
             <Parameters>
              <InterpolatingParam id="2858" interp="linr"  time="0/1" value="1" leadInLength="0/1"  name="volume"/>
              <Parameter id="2859"  name="captions"/>
             </Parameters>
             <Attributes>
              <Attribute id="2860" value="" name="ident"/>
              <Attribute id="2861" value="44100" name="sampleRate"/>
              <Attribute id="2862" value="16" name="bitDepth"/>
              <Attribute id="2863" value="1" name="gain"/>
              <Attribute id="2864" value="0" name="mixToMono"/>
             </Attributes>
            </AMFile>
            <ScreenVMFile id="2865" start="208" duration="91" scalar="1/1" mediaStart="263/1" mediaDuration="91/1" trackNumber="0" src="10" >
             <Transformer>
              <VectorParam id="2866"  name="translation">
               <InterpolatingParam id="2867" interp="linr"  time="-9999999/1" value="0" leadInLength="0/1"  />
               <InterpolatingParam id="2868" interp="linr"  time="-9999999/1" value="0" leadInLength="0/1"  />
               <InterpolatingParam id="2869" interp="linr"  time="-9999999/1" value="0" leadInLength="0/1"  />
              </VectorParam>
              <VectorParam id="2870"  name="rotation">
               <InterpolatingParam id="2871" interp="linr"  time="-9999999/1" value="0" leadInLength="0/1"  />
               <InterpolatingParam id="2872" interp="linr"  time="-9999999/1" value="0" leadInLength="0/1"  />
               <InterpolatingParam id="2873" interp="linr"  time="-9999999/1" value="0" leadInLength="0/1"  />
              </VectorParam>
              <VectorParam id="2874"  name="shear">
               <InterpolatingParam id="2875" interp="linr"  time="-9999999/1" value="0" leadInLength="0/1"  />
               <InterpolatingParam id="2876" interp="linr"  time="-9999999/1" value="0" leadInLength="0/1"  />
               <InterpolatingParam id="2877" interp="linr"  time="-9999999/1" value="0" leadInLength="0/1"  />
              </VectorParam>
              <VectorParam id="2878"  name="scale">
               <InterpolatingParam id="2879" interp="linr"  time="-9999999/1" value="1" leadInLength="0/1"  />
               <InterpolatingParam id="2880" interp="linr"  time="-9999999/1" value="1" leadInLength="0/1"  />
               <InterpolatingParam id="2881" interp="linr"  time="-9999999/1" value="1" leadInLength="0/1"  />
              </VectorParam>
              <VectorParam id="2882"  name="anchor">
               <InterpolatingParam id="2883" interp="linr"  time="0/1" value="0" leadInLength="0/1"  />
               <InterpolatingParam id="2884" interp="linr"  time="0/1" value="0" leadInLength="0/1"  />
               <InterpolatingParam id="2885" interp="linr"  time="0/1" value="0" leadInLength="0/1"  />
              </VectorParam>
             </Transformer>
             <Parameters>
              <VectorParam id="2886"  name="sourceCrop">
               <InterpolatingParam id="2887" interp="linr"  time="0/1" value="0" leadInLength="0/1"  />
               <InterpolatingParam id="2888" interp="linr"  time="0/1" value="0" leadInLength="0/1"  />
               <InterpolatingParam id="2889" interp="linr"  time="0/1" value="0" leadInLength="0/1"  />
               <InterpolatingParam id="2890" interp="linr"  time="0/1" value="0" leadInLength="0/1"  />
              </VectorParam>
              <VectorParam id="2891"  name="geometryCrop">
               <InterpolatingParam id="2892" interp="linr"  time="-9999999/1" value="0" leadInLength="0/1"  />
               <InterpolatingParam id="2893" interp="linr"  time="-9999999/1" value="0" leadInLength="0/1"  />
               <InterpolatingParam id="2894" interp="linr"  time="-9999999/1" value="0" leadInLength="0/1"  />
               <InterpolatingParam id="2895" interp="linr"  time="-9999999/1" value="0" leadInLength="0/1"  />
              </VectorParam>
              <InterpolatingParam id="2896" interp="linr"  time="-9999999/1" value="1" leadInLength="0/1"  name="opacity"/>
              <InterpolatingParam id="2897" interp="linr"  time="0/1" value="0" leadInLength="0/1"  name="cursorOpacity"/>
              <InterpolatingParam id="2898" interp="linr"  time="0/1" value="0" leadInLength="0/1"  name="cursorScale"/>
             </Parameters>
             <Attributes>
              <Attribute id="2899" value="" name="ident"/>
             </Attributes>
             <ExtraData>
              <Entry key="ZoomPanBin">
               <ZoomPanBin id="2900"  >
                <ZoomPanKeyframes>
                 <ZoomPanKeyframe id="2901" timeRangeEnd="-9999999/1" timeRangeDuration="0/1" interpolaterName="linr"  />
                </ZoomPanKeyframes>
               </ZoomPanBin>
              </Entry>
              <Entry key="CursorEffectBin">
               <CursorEffectBin id="2902"  >
                <CursorEffectKeyframes>
                </CursorEffectKeyframes>
               </CursorEffectBin>
              </Entry>
             </ExtraData>
            </ScreenVMFile>
            <MetaData>
             <entry key="AutoAppliedSmartFocus" val="False"/>
             <entry key="WinSubProjectDisplayName" val=""/>
            </MetaData>
           </UnifiedMedia>
           <UnifiedMedia id="2903"  >
            <AMFile id="2904" start="299" duration="403" scalar="1/1" mediaStart="388/1" mediaDuration="403/1" trackNumber="1" src="10" channelNumber="0,1" >
             <Parameters>
              <InterpolatingParam id="2905" interp="linr"  time="0/1" value="1" leadInLength="0/1"  name="volume"/>
              <Parameter id="2906"  name="captions"/>
             </Parameters>
             <Attributes>
              <Attribute id="2907" value="" name="ident"/>
              <Attribute id="2908" value="44100" name="sampleRate"/>
              <Attribute id="2909" value="16" name="bitDepth"/>
              <Attribute id="2910" value="1" name="gain"/>
              <Attribute id="2911" value="0" name="mixToMono"/>
             </Attributes>
            </AMFile>
            <ScreenVMFile id="2912" start="299" duration="403" scalar="1/1" mediaStart="388/1" mediaDuration="403/1" trackNumber="0" src="10" >
             <Transformer>
              <VectorParam id="2913"  name="translation">
               <InterpolatingParam id="2914" interp="linr"  time="-9999999/1" value="0" leadInLength="0/1"  />
               <InterpolatingParam id="2915" interp="linr"  time="-9999999/1" value="0" leadInLength="0/1"  />
               <InterpolatingParam id="2916" interp="linr"  time="-9999999/1" value="0" leadInLength="0/1"  />
              </VectorParam>
              <VectorParam id="2917"  name="rotation">
               <InterpolatingParam id="2918" interp="linr"  time="-9999999/1" value="0" leadInLength="0/1"  />
               <InterpolatingParam id="2919" interp="linr"  time="-9999999/1" value="0" leadInLength="0/1"  />
               <InterpolatingParam id="2920" interp="linr"  time="-9999999/1" value="0" leadInLength="0/1"  />
              </VectorParam>
              <VectorParam id="2921"  name="shear">
               <InterpolatingParam id="2922" interp="linr"  time="-9999999/1" value="0" leadInLength="0/1"  />
               <InterpolatingParam id="2923" interp="linr"  time="-9999999/1" value="0" leadInLength="0/1"  />
               <InterpolatingParam id="2924" interp="linr"  time="-9999999/1" value="0" leadInLength="0/1"  />
              </VectorParam>
              <VectorParam id="2925"  name="scale">
               <InterpolatingParam id="2926" interp="linr"  time="-9999999/1" value="1" leadInLength="0/1"  />
               <InterpolatingParam id="2927" interp="linr"  time="-9999999/1" value="1" leadInLength="0/1"  />
               <InterpolatingParam id="2928" interp="linr"  time="-9999999/1" value="1" leadInLength="0/1"  />
              </VectorParam>
              <VectorParam id="2929"  name="anchor">
               <InterpolatingParam id="2930" interp="linr"  time="0/1" value="0" leadInLength="0/1"  />
               <InterpolatingParam id="2931" interp="linr"  time="0/1" value="0" leadInLength="0/1"  />
               <InterpolatingParam id="2932" interp="linr"  time="0/1" value="0" leadInLength="0/1"  />
              </VectorParam>
             </Transformer>
             <Parameters>
              <VectorParam id="2933"  name="sourceCrop">
               <InterpolatingParam id="2934" interp="linr"  time="0/1" value="0" leadInLength="0/1"  />
               <InterpolatingParam id="2935" interp="linr"  time="0/1" value="0" leadInLength="0/1"  />
               <InterpolatingParam id="2936" interp="linr"  time="0/1" value="0" leadInLength="0/1"  />
               <InterpolatingParam id="2937" interp="linr"  time="0/1" value="0" leadInLength="0/1"  />
              </VectorParam>
              <VectorParam id="2938"  name="geometryCrop">
               <InterpolatingParam id="2939" interp="linr"  time="-9999999/1" value="0" leadInLength="0/1"  />
               <InterpolatingParam id="2940" interp="linr"  time="-9999999/1" value="0" leadInLength="0/1"  />
               <InterpolatingParam id="2941" interp="linr"  time="-9999999/1" value="0" leadInLength="0/1"  />
               <InterpolatingParam id="2942" interp="linr"  time="-9999999/1" value="0" leadInLength="0/1"  />
              </VectorParam>
              <InterpolatingParam id="2943" interp="linr"  time="-9999999/1" value="1" leadInLength="0/1"  name="opacity"/>
              <InterpolatingParam id="2944" interp="linr"  time="0/1" value="0" leadInLength="0/1"  name="cursorOpacity"/>
              <InterpolatingParam id="2945" interp="linr"  time="0/1" value="0" leadInLength="0/1"  name="cursorScale"/>
             </Parameters>
             <Attributes>
              <Attribute id="2946" value="" name="ident"/>
             </Attributes>
             <ExtraData>
              <Entry key="ZoomPanBin">
               <ZoomPanBin id="2947"  >
                <ZoomPanKeyframes>
                 <ZoomPanKeyframe id="2948" timeRangeEnd="-9999999/1" timeRangeDuration="0/1" interpolaterName="linr"  />
                </ZoomPanKeyframes>
               </ZoomPanBin>
              </Entry>
              <Entry key="CursorEffectBin">
               <CursorEffectBin id="2949"  >
                <CursorEffectKeyframes>
                </CursorEffectKeyframes>
               </CursorEffectBin>
              </Entry>
             </ExtraData>
            </ScreenVMFile>
            <MetaData>
             <entry key="AutoAppliedSmartFocus" val="False"/>
             <entry key="WinSubProjectDisplayName" val=""/>
            </MetaData>
           </UnifiedMedia>
           <UnifiedMedia id="2950"  >
            <AMFile id="2951" start="702" duration="132" scalar="1/1" mediaStart="838/1" mediaDuration="132/1" trackNumber="1" src="10" channelNumber="0,1" >
             <Parameters>
              <InterpolatingParam id="2952" interp="linr"  time="0/1" value="1" leadInLength="0/1"  name="volume"/>
              <Parameter id="2953"  name="captions"/>
             </Parameters>
             <Attributes>
              <Attribute id="2954" value="" name="ident"/>
              <Attribute id="2955" value="44100" name="sampleRate"/>
              <Attribute id="2956" value="16" name="bitDepth"/>
              <Attribute id="2957" value="1" name="gain"/>
              <Attribute id="2958" value="0" name="mixToMono"/>
             </Attributes>
            </AMFile>
            <ScreenVMFile id="2959" start="702" duration="132" scalar="1/1" mediaStart="838/1" mediaDuration="132/1" trackNumber="0" src="10" >
             <Transformer>
              <VectorParam id="2960"  name="translation">
               <InterpolatingParam id="2961" interp="linr"  time="-9999999/1" value="0" leadInLength="0/1"  />
               <InterpolatingParam id="2962" interp="linr"  time="-9999999/1" value="0" leadInLength="0/1"  />
               <InterpolatingParam id="2963" interp="linr"  time="-9999999/1" value="0" leadInLength="0/1"  />
              </VectorParam>
              <VectorParam id="2964"  name="rotation">
               <InterpolatingParam id="2965" interp="linr"  time="-9999999/1" value="0" leadInLength="0/1"  />
               <InterpolatingParam id="2966" interp="linr"  time="-9999999/1" value="0" leadInLength="0/1"  />
               <InterpolatingParam id="2967" interp="linr"  time="-9999999/1" value="0" leadInLength="0/1"  />
              </VectorParam>
              <VectorParam id="2968"  name="shear">
               <InterpolatingParam id="2969" interp="linr"  time="-9999999/1" value="0" leadInLength="0/1"  />
               <InterpolatingParam id="2970" interp="linr"  time="-9999999/1" value="0" leadInLength="0/1"  />
               <InterpolatingParam id="2971" interp="linr"  time="-9999999/1" value="0" leadInLength="0/1"  />
              </VectorParam>
              <VectorParam id="2972"  name="scale">
               <InterpolatingParam id="2973" interp="linr"  time="-9999999/1" value="1" leadInLength="0/1"  />
               <InterpolatingParam id="2974" interp="linr"  time="-9999999/1" value="1" leadInLength="0/1"  />
               <InterpolatingParam id="2975" interp="linr"  time="-9999999/1" value="1" leadInLength="0/1"  />
              </VectorParam>
              <VectorParam id="2976"  name="anchor">
               <InterpolatingParam id="2977" interp="linr"  time="0/1" value="0" leadInLength="0/1"  />
               <InterpolatingParam id="2978" interp="linr"  time="0/1" value="0" leadInLength="0/1"  />
               <InterpolatingParam id="2979" interp="linr"  time="0/1" value="0" leadInLength="0/1"  />
              </VectorParam>
             </Transformer>
             <Parameters>
              <VectorParam id="2980"  name="sourceCrop">
               <InterpolatingParam id="2981" interp="linr"  time="0/1" value="0" leadInLength="0/1"  />
               <InterpolatingParam id="2982" interp="linr"  time="0/1" value="0" leadInLength="0/1"  />
               <InterpolatingParam id="2983" interp="linr"  time="0/1" value="0" leadInLength="0/1"  />
               <InterpolatingParam id="2984" interp="linr"  time="0/1" value="0" leadInLength="0/1"  />
              </VectorParam>
              <VectorParam id="2985"  name="geometryCrop">
               <InterpolatingParam id="2986" interp="linr"  time="-9999999/1" value="0" leadInLength="0/1"  />
               <InterpolatingParam id="2987" interp="linr"  time="-9999999/1" value="0" leadInLength="0/1"  />
               <InterpolatingParam id="2988" interp="linr"  time="-9999999/1" value="0" leadInLength="0/1"  />
               <InterpolatingParam id="2989" interp="linr"  time="-9999999/1" value="0" leadInLength="0/1"  />
              </VectorParam>
              <InterpolatingParam id="2990" interp="linr"  time="-9999999/1" value="1" leadInLength="0/1"  name="opacity"/>
              <InterpolatingParam id="2991" interp="linr"  time="0/1" value="0" leadInLength="0/1"  name="cursorOpacity"/>
              <InterpolatingParam id="2992" interp="linr"  time="0/1" value="0" leadInLength="0/1"  name="cursorScale"/>
             </Parameters>
             <Attributes>
              <Attribute id="2993" value="" name="ident"/>
             </Attributes>
             <ExtraData>
              <Entry key="ZoomPanBin">
               <ZoomPanBin id="2994"  >
                <ZoomPanKeyframes>
                 <ZoomPanKeyframe id="2995" timeRangeEnd="-9999999/1" timeRangeDuration="0/1" interpolaterName="linr"  />
                </ZoomPanKeyframes>
               </ZoomPanBin>
              </Entry>
              <Entry key="CursorEffectBin">
               <CursorEffectBin id="2996"  >
                <CursorEffectKeyframes>
                </CursorEffectKeyframes>
               </CursorEffectBin>
              </Entry>
             </ExtraData>
            </ScreenVMFile>
            <MetaData>
             <entry key="AutoAppliedSmartFocus" val="False"/>
             <entry key="WinSubProjectDisplayName" val=""/>
            </MetaData>
           </UnifiedMedia>
           <UnifiedMedia id="2997"  >
            <AMFile id="2998" start="834" duration="30" scalar="1/1" mediaStart="997/1" mediaDuration="30/1" trackNumber="1" src="10" channelNumber="0,1" >
             <Parameters>
              <InterpolatingParam id="2999" interp="linr"  time="0/1" value="1" leadInLength="0/1"  name="volume"/>
              <Parameter id="3000"  name="captions"/>
             </Parameters>
             <Attributes>
              <Attribute id="3001" value="" name="ident"/>
              <Attribute id="3002" value="44100" name="sampleRate"/>
              <Attribute id="3003" value="16" name="bitDepth"/>
              <Attribute id="3004" value="1" name="gain"/>
              <Attribute id="3005" value="0" name="mixToMono"/>
             </Attributes>
            </AMFile>
            <ScreenVMFile id="3006" start="834" duration="30" scalar="1/1" mediaStart="997/1" mediaDuration="30/1" trackNumber="0" src="10" >
             <Transformer>
              <VectorParam id="3007"  name="translation">
               <InterpolatingParam id="3008" interp="linr"  time="-9999999/1" value="0" leadInLength="0/1"  />
               <InterpolatingParam id="3009" interp="linr"  time="-9999999/1" value="0" leadInLength="0/1"  />
               <InterpolatingParam id="3010" interp="linr"  time="-9999999/1" value="0" leadInLength="0/1"  />
              </VectorParam>
              <VectorParam id="3011"  name="rotation">
               <InterpolatingParam id="3012" interp="linr"  time="-9999999/1" value="0" leadInLength="0/1"  />
               <InterpolatingParam id="3013" interp="linr"  time="-9999999/1" value="0" leadInLength="0/1"  />
               <InterpolatingParam id="3014" interp="linr"  time="-9999999/1" value="0" leadInLength="0/1"  />
              </VectorParam>
              <VectorParam id="3015"  name="shear">
               <InterpolatingParam id="3016" interp="linr"  time="-9999999/1" value="0" leadInLength="0/1"  />
               <InterpolatingParam id="3017" interp="linr"  time="-9999999/1" value="0" leadInLength="0/1"  />
               <InterpolatingParam id="3018" interp="linr"  time="-9999999/1" value="0" leadInLength="0/1"  />
              </VectorParam>
              <VectorParam id="3019"  name="scale">
               <InterpolatingParam id="3020" interp="linr"  time="-9999999/1" value="1" leadInLength="0/1"  />
               <InterpolatingParam id="3021" interp="linr"  time="-9999999/1" value="1" leadInLength="0/1"  />
               <InterpolatingParam id="3022" interp="linr"  time="-9999999/1" value="1" leadInLength="0/1"  />
              </VectorParam>
              <VectorParam id="3023"  name="anchor">
               <InterpolatingParam id="3024" interp="linr"  time="0/1" value="0" leadInLength="0/1"  />
               <InterpolatingParam id="3025" interp="linr"  time="0/1" value="0" leadInLength="0/1"  />
               <InterpolatingParam id="3026" interp="linr"  time="0/1" value="0" leadInLength="0/1"  />
              </VectorParam>
             </Transformer>
             <Parameters>
              <VectorParam id="3027"  name="sourceCrop">
               <InterpolatingParam id="3028" interp="linr"  time="0/1" value="0" leadInLength="0/1"  />
               <InterpolatingParam id="3029" interp="linr"  time="0/1" value="0" leadInLength="0/1"  />
               <InterpolatingParam id="3030" interp="linr"  time="0/1" value="0" leadInLength="0/1"  />
               <InterpolatingParam id="3031" interp="linr"  time="0/1" value="0" leadInLength="0/1"  />
              </VectorParam>
              <VectorParam id="3032"  name="geometryCrop">
               <InterpolatingParam id="3033" interp="linr"  time="-9999999/1" value="0" leadInLength="0/1"  />
               <InterpolatingParam id="3034" interp="linr"  time="-9999999/1" value="0" leadInLength="0/1"  />
               <InterpolatingParam id="3035" interp="linr"  time="-9999999/1" value="0" leadInLength="0/1"  />
               <InterpolatingParam id="3036" interp="linr"  time="-9999999/1" value="0" leadInLength="0/1"  />
              </VectorParam>
              <InterpolatingParam id="3037" interp="linr"  time="-9999999/1" value="1" leadInLength="0/1"  name="opacity"/>
              <InterpolatingParam id="3038" interp="linr"  time="0/1" value="0" leadInLength="0/1"  name="cursorOpacity"/>
              <InterpolatingParam id="3039" interp="linr"  time="0/1" value="0" leadInLength="0/1"  name="cursorScale"/>
             </Parameters>
             <Attributes>
              <Attribute id="3040" value="" name="ident"/>
             </Attributes>
             <ExtraData>
              <Entry key="ZoomPanBin">
               <ZoomPanBin id="3041"  >
                <ZoomPanKeyframes>
                 <ZoomPanKeyframe id="3042" timeRangeEnd="-9999999/1" timeRangeDuration="0/1" interpolaterName="linr"  />
                </ZoomPanKeyframes>
               </ZoomPanBin>
              </Entry>
              <Entry key="CursorEffectBin">
               <CursorEffectBin id="3043"  >
                <CursorEffectKeyframes>
                </CursorEffectKeyframes>
               </CursorEffectBin>
              </Entry>
             </ExtraData>
            </ScreenVMFile>
            <MetaData>
             <entry key="AutoAppliedSmartFocus" val="False"/>
             <entry key="WinSubProjectDisplayName" val=""/>
            </MetaData>
           </UnifiedMedia>
           <UnifiedMedia id="3044"  >
            <AMFile id="3045" start="864" duration="42" scalar="1/1" mediaStart="1043/1" mediaDuration="42/1" trackNumber="1" src="10" channelNumber="0,1" >
             <Parameters>
              <InterpolatingParam id="3046" interp="linr"  time="0/1" value="1" leadInLength="0/1"  name="volume"/>
              <Parameter id="3047"  name="captions"/>
             </Parameters>
             <Attributes>
              <Attribute id="3048" value="" name="ident"/>
              <Attribute id="3049" value="44100" name="sampleRate"/>
              <Attribute id="3050" value="16" name="bitDepth"/>
              <Attribute id="3051" value="1" name="gain"/>
              <Attribute id="3052" value="0" name="mixToMono"/>
             </Attributes>
            </AMFile>
            <ScreenVMFile id="3053" start="864" duration="42" scalar="1/1" mediaStart="1043/1" mediaDuration="42/1" trackNumber="0" src="10" >
             <Transformer>
              <VectorParam id="3054"  name="translation">
               <InterpolatingParam id="3055" interp="linr"  time="-9999999/1" value="0" leadInLength="0/1"  />
               <InterpolatingParam id="3056" interp="linr"  time="-9999999/1" value="0" leadInLength="0/1"  />
               <InterpolatingParam id="3057" interp="linr"  time="-9999999/1" value="0" leadInLength="0/1"  />
              </VectorParam>
              <VectorParam id="3058"  name="rotation">
               <InterpolatingParam id="3059" interp="linr"  time="-9999999/1" value="0" leadInLength="0/1"  />
               <InterpolatingParam id="3060" interp="linr"  time="-9999999/1" value="0" leadInLength="0/1"  />
               <InterpolatingParam id="3061" interp="linr"  time="-9999999/1" value="0" leadInLength="0/1"  />
              </VectorParam>
              <VectorParam id="3062"  name="shear">
               <InterpolatingParam id="3063" interp="linr"  time="-9999999/1" value="0" leadInLength="0/1"  />
               <InterpolatingParam id="3064" interp="linr"  time="-9999999/1" value="0" leadInLength="0/1"  />
               <InterpolatingParam id="3065" interp="linr"  time="-9999999/1" value="0" leadInLength="0/1"  />
              </VectorParam>
              <VectorParam id="3066"  name="scale">
               <InterpolatingParam id="3067" interp="linr"  time="-9999999/1" value="1" leadInLength="0/1"  />
               <InterpolatingParam id="3068" interp="linr"  time="-9999999/1" value="1" leadInLength="0/1"  />
               <InterpolatingParam id="3069" interp="linr"  time="-9999999/1" value="1" leadInLength="0/1"  />
              </VectorParam>
              <VectorParam id="3070"  name="anchor">
               <InterpolatingParam id="3071" interp="linr"  time="0/1" value="0" leadInLength="0/1"  />
               <InterpolatingParam id="3072" interp="linr"  time="0/1" value="0" leadInLength="0/1"  />
               <InterpolatingParam id="3073" interp="linr"  time="0/1" value="0" leadInLength="0/1"  />
              </VectorParam>
             </Transformer>
             <Parameters>
              <VectorParam id="3074"  name="sourceCrop">
               <InterpolatingParam id="3075" interp="linr"  time="0/1" value="0" leadInLength="0/1"  />
               <InterpolatingParam id="3076" interp="linr"  time="0/1" value="0" leadInLength="0/1"  />
               <InterpolatingParam id="3077" interp="linr"  time="0/1" value="0" leadInLength="0/1"  />
               <InterpolatingParam id="3078" interp="linr"  time="0/1" value="0" leadInLength="0/1"  />
              </VectorParam>
              <VectorParam id="3079"  name="geometryCrop">
               <InterpolatingParam id="3080" interp="linr"  time="-9999999/1" value="0" leadInLength="0/1"  />
               <InterpolatingParam id="3081" interp="linr"  time="-9999999/1" value="0" leadInLength="0/1"  />
               <InterpolatingParam id="3082" interp="linr"  time="-9999999/1" value="0" leadInLength="0/1"  />
               <InterpolatingParam id="3083" interp="linr"  time="-9999999/1" value="0" leadInLength="0/1"  />
              </VectorParam>
              <InterpolatingParam id="3084" interp="linr"  time="-9999999/1" value="1" leadInLength="0/1"  name="opacity"/>
              <InterpolatingParam id="3085" interp="linr"  time="0/1" value="0" leadInLength="0/1"  name="cursorOpacity"/>
              <InterpolatingParam id="3086" interp="linr"  time="0/1" value="0" leadInLength="0/1"  name="cursorScale"/>
             </Parameters>
             <Attributes>
              <Attribute id="3087" value="" name="ident"/>
             </Attributes>
             <ExtraData>
              <Entry key="ZoomPanBin">
               <ZoomPanBin id="3088"  >
                <ZoomPanKeyframes>
                 <ZoomPanKeyframe id="3089" timeRangeEnd="-9999999/1" timeRangeDuration="0/1" interpolaterName="linr"  />
                </ZoomPanKeyframes>
               </ZoomPanBin>
              </Entry>
              <Entry key="CursorEffectBin">
               <CursorEffectBin id="3090"  >
                <CursorEffectKeyframes>
                </CursorEffectKeyframes>
               </CursorEffectBin>
              </Entry>
             </ExtraData>
            </ScreenVMFile>
            <MetaData>
             <entry key="AutoAppliedSmartFocus" val="False"/>
             <entry key="WinSubProjectDisplayName" val=""/>
            </MetaData>
           </UnifiedMedia>
           <UnifiedMedia id="3091"  >
            <AMFile id="3092" start="906" duration="4" scalar="1/1" mediaStart="1111/1" mediaDuration="4/1" trackNumber="1" src="10" channelNumber="0,1" >
             <Parameters>
              <InterpolatingParam id="3093" interp="linr"  time="0/1" value="1" leadInLength="0/1"  name="volume"/>
              <Parameter id="3094"  name="captions"/>
             </Parameters>
             <Attributes>
              <Attribute id="3095" value="" name="ident"/>
              <Attribute id="3096" value="44100" name="sampleRate"/>
              <Attribute id="3097" value="16" name="bitDepth"/>
              <Attribute id="3098" value="1" name="gain"/>
              <Attribute id="3099" value="0" name="mixToMono"/>
             </Attributes>
            </AMFile>
            <ScreenVMFile id="3100" start="906" duration="4" scalar="1/1" mediaStart="1111/1" mediaDuration="4/1" trackNumber="0" src="10" >
             <Transformer>
              <VectorParam id="3101"  name="translation">
               <InterpolatingParam id="3102" interp="linr"  time="-9999999/1" value="0" leadInLength="0/1"  />
               <InterpolatingParam id="3103" interp="linr"  time="-9999999/1" value="0" leadInLength="0/1"  />
               <InterpolatingParam id="3104" interp="linr"  time="-9999999/1" value="0" leadInLength="0/1"  />
              </VectorParam>
              <VectorParam id="3105"  name="rotation">
               <InterpolatingParam id="3106" interp="linr"  time="-9999999/1" value="0" leadInLength="0/1"  />
               <InterpolatingParam id="3107" interp="linr"  time="-9999999/1" value="0" leadInLength="0/1"  />
               <InterpolatingParam id="3108" interp="linr"  time="-9999999/1" value="0" leadInLength="0/1"  />
              </VectorParam>
              <VectorParam id="3109"  name="shear">
               <InterpolatingParam id="3110" interp="linr"  time="-9999999/1" value="0" leadInLength="0/1"  />
               <InterpolatingParam id="3111" interp="linr"  time="-9999999/1" value="0" leadInLength="0/1"  />
               <InterpolatingParam id="3112" interp="linr"  time="-9999999/1" value="0" leadInLength="0/1"  />
              </VectorParam>
              <VectorParam id="3113"  name="scale">
               <InterpolatingParam id="3114" interp="linr"  time="-9999999/1" value="1" leadInLength="0/1"  />
               <InterpolatingParam id="3115" interp="linr"  time="-9999999/1" value="1" leadInLength="0/1"  />
               <InterpolatingParam id="3116" interp="linr"  time="-9999999/1" value="1" leadInLength="0/1"  />
              </VectorParam>
              <VectorParam id="3117"  name="anchor">
               <InterpolatingParam id="3118" interp="linr"  time="0/1" value="0" leadInLength="0/1"  />
               <InterpolatingParam id="3119" interp="linr"  time="0/1" value="0" leadInLength="0/1"  />
               <InterpolatingParam id="3120" interp="linr"  time="0/1" value="0" leadInLength="0/1"  />
              </VectorParam>
             </Transformer>
             <Parameters>
              <VectorParam id="3121"  name="sourceCrop">
               <InterpolatingParam id="3122" interp="linr"  time="0/1" value="0" leadInLength="0/1"  />
               <InterpolatingParam id="3123" interp="linr"  time="0/1" value="0" leadInLength="0/1"  />
               <InterpolatingParam id="3124" interp="linr"  time="0/1" value="0" leadInLength="0/1"  />
               <InterpolatingParam id="3125" interp="linr"  time="0/1" value="0" leadInLength="0/1"  />
              </VectorParam>
              <VectorParam id="3126"  name="geometryCrop">
               <InterpolatingParam id="3127" interp="linr"  time="-9999999/1" value="0" leadInLength="0/1"  />
               <InterpolatingParam id="3128" interp="linr"  time="-9999999/1" value="0" leadInLength="0/1"  />
               <InterpolatingParam id="3129" interp="linr"  time="-9999999/1" value="0" leadInLength="0/1"  />
               <InterpolatingParam id="3130" interp="linr"  time="-9999999/1" value="0" leadInLength="0/1"  />
              </VectorParam>
              <InterpolatingParam id="3131" interp="linr"  time="-9999999/1" value="1" leadInLength="0/1"  name="opacity"/>
              <InterpolatingParam id="3132" interp="linr"  time="0/1" value="0" leadInLength="0/1"  name="cursorOpacity"/>
              <InterpolatingParam id="3133" interp="linr"  time="0/1" value="0" leadInLength="0/1"  name="cursorScale"/>
             </Parameters>
             <Attributes>
              <Attribute id="3134" value="" name="ident"/>
             </Attributes>
             <ExtraData>
              <Entry key="ZoomPanBin">
               <ZoomPanBin id="3135"  >
                <ZoomPanKeyframes>
                 <ZoomPanKeyframe id="3136" timeRangeEnd="-9999999/1" timeRangeDuration="0/1" interpolaterName="linr"  />
                </ZoomPanKeyframes>
               </ZoomPanBin>
              </Entry>
              <Entry key="CursorEffectBin">
               <CursorEffectBin id="3137"  >
                <CursorEffectKeyframes>
                </CursorEffectKeyframes>
               </CursorEffectBin>
              </Entry>
             </ExtraData>
            </ScreenVMFile>
            <MetaData>
             <entry key="AutoAppliedSmartFocus" val="False"/>
             <entry key="WinSubProjectDisplayName" val=""/>
            </MetaData>
           </UnifiedMedia>
           <UnifiedMedia id="3138"  >
            <AMFile id="3139" start="910" duration="225" scalar="1/1" mediaStart="1127/1" mediaDuration="225/1" trackNumber="1" src="10" channelNumber="0,1" >
             <Parameters>
              <InterpolatingParam id="3140" interp="linr"  time="0/1" value="1" leadInLength="0/1"  name="volume"/>
              <Parameter id="3141"  name="captions"/>
             </Parameters>
             <Attributes>
              <Attribute id="3142" value="" name="ident"/>
              <Attribute id="3143" value="44100" name="sampleRate"/>
              <Attribute id="3144" value="16" name="bitDepth"/>
              <Attribute id="3145" value="1" name="gain"/>
              <Attribute id="3146" value="0" name="mixToMono"/>
             </Attributes>
            </AMFile>
            <ScreenVMFile id="3147" start="910" duration="225" scalar="1/1" mediaStart="1127/1" mediaDuration="225/1" trackNumber="0" src="10" >
             <Transformer>
              <VectorParam id="3148"  name="translation">
               <InterpolatingParam id="3149" interp="linr"  time="-9999999/1" value="0" leadInLength="0/1"  />
               <InterpolatingParam id="3150" interp="linr"  time="-9999999/1" value="0" leadInLength="0/1"  />
               <InterpolatingParam id="3151" interp="linr"  time="-9999999/1" value="0" leadInLength="0/1"  />
              </VectorParam>
              <VectorParam id="3152"  name="rotation">
               <InterpolatingParam id="3153" interp="linr"  time="-9999999/1" value="0" leadInLength="0/1"  />
               <InterpolatingParam id="3154" interp="linr"  time="-9999999/1" value="0" leadInLength="0/1"  />
               <InterpolatingParam id="3155" interp="linr"  time="-9999999/1" value="0" leadInLength="0/1"  />
              </VectorParam>
              <VectorParam id="3156"  name="shear">
               <InterpolatingParam id="3157" interp="linr"  time="-9999999/1" value="0" leadInLength="0/1"  />
               <InterpolatingParam id="3158" interp="linr"  time="-9999999/1" value="0" leadInLength="0/1"  />
               <InterpolatingParam id="3159" interp="linr"  time="-9999999/1" value="0" leadInLength="0/1"  />
              </VectorParam>
              <VectorParam id="3160"  name="scale">
               <InterpolatingParam id="3161" interp="linr"  time="-9999999/1" value="1" leadInLength="0/1"  />
               <InterpolatingParam id="3162" interp="linr"  time="-9999999/1" value="1" leadInLength="0/1"  />
               <InterpolatingParam id="3163" interp="linr"  time="-9999999/1" value="1" leadInLength="0/1"  />
              </VectorParam>
              <VectorParam id="3164"  name="anchor">
               <InterpolatingParam id="3165" interp="linr"  time="0/1" value="0" leadInLength="0/1"  />
               <InterpolatingParam id="3166" interp="linr"  time="0/1" value="0" leadInLength="0/1"  />
               <InterpolatingParam id="3167" interp="linr"  time="0/1" value="0" leadInLength="0/1"  />
              </VectorParam>
             </Transformer>
             <Parameters>
              <VectorParam id="3168"  name="sourceCrop">
               <InterpolatingParam id="3169" interp="linr"  time="0/1" value="0" leadInLength="0/1"  />
               <InterpolatingParam id="3170" interp="linr"  time="0/1" value="0" leadInLength="0/1"  />
               <InterpolatingParam id="3171" interp="linr"  time="0/1" value="0" leadInLength="0/1"  />
               <InterpolatingParam id="3172" interp="linr"  time="0/1" value="0" leadInLength="0/1"  />
              </VectorParam>
              <VectorParam id="3173"  name="geometryCrop">
               <InterpolatingParam id="3174" interp="linr"  time="-9999999/1" value="0" leadInLength="0/1"  />
               <InterpolatingParam id="3175" interp="linr"  time="-9999999/1" value="0" leadInLength="0/1"  />
               <InterpolatingParam id="3176" interp="linr"  time="-9999999/1" value="0" leadInLength="0/1"  />
               <InterpolatingParam id="3177" interp="linr"  time="-9999999/1" value="0" leadInLength="0/1"  />
              </VectorParam>
              <InterpolatingParam id="3178" interp="linr"  time="-9999999/1" value="1" leadInLength="0/1"  name="opacity"/>
              <InterpolatingParam id="3179" interp="linr"  time="0/1" value="0" leadInLength="0/1"  name="cursorOpacity"/>
              <InterpolatingParam id="3180" interp="linr"  time="0/1" value="0" leadInLength="0/1"  name="cursorScale"/>
             </Parameters>
             <Attributes>
              <Attribute id="3181" value="" name="ident"/>
             </Attributes>
             <ExtraData>
              <Entry key="ZoomPanBin">
               <ZoomPanBin id="3182"  >
                <ZoomPanKeyframes>
                 <ZoomPanKeyframe id="3183" timeRangeEnd="-9999999/1" timeRangeDuration="0/1" interpolaterName="linr"  />
                </ZoomPanKeyframes>
               </ZoomPanBin>
              </Entry>
              <Entry key="CursorEffectBin">
               <CursorEffectBin id="3184"  >
                <CursorEffectKeyframes>
                </CursorEffectKeyframes>
               </CursorEffectBin>
              </Entry>
             </ExtraData>
            </ScreenVMFile>
            <MetaData>
             <entry key="AutoAppliedSmartFocus" val="False"/>
             <entry key="WinSubProjectDisplayName" val=""/>
            </MetaData>
           </UnifiedMedia>
           <UnifiedMedia id="3185"  >
            <AMFile id="3186" start="1135" duration="582" scalar="1/1" mediaStart="1366/1" mediaDuration="582/1" trackNumber="1" src="10" channelNumber="0,1" >
             <Parameters>
              <InterpolatingParam id="3187" interp="linr"  time="0/1" value="1" leadInLength="0/1"  name="volume"/>
              <Parameter id="3188"  name="captions"/>
             </Parameters>
             <Attributes>
              <Attribute id="3189" value="" name="ident"/>
              <Attribute id="3190" value="44100" name="sampleRate"/>
              <Attribute id="3191" value="16" name="bitDepth"/>
              <Attribute id="3192" value="1" name="gain"/>
              <Attribute id="3193" value="0" name="mixToMono"/>
             </Attributes>
            </AMFile>
            <ScreenVMFile id="3194" start="1135" duration="582" scalar="1/1" mediaStart="1366/1" mediaDuration="582/1" trackNumber="0" src="10" >
             <Transformer>
              <VectorParam id="3195"  name="translation">
               <InterpolatingParam id="3196" interp="linr"  time="-9999999/1" value="0" leadInLength="0/1"  />
               <InterpolatingParam id="3197" interp="linr"  time="-9999999/1" value="0" leadInLength="0/1"  />
               <InterpolatingParam id="3198" interp="linr"  time="-9999999/1" value="0" leadInLength="0/1"  />
              </VectorParam>
              <VectorParam id="3199"  name="rotation">
               <InterpolatingParam id="3200" interp="linr"  time="-9999999/1" value="0" leadInLength="0/1"  />
               <InterpolatingParam id="3201" interp="linr"  time="-9999999/1" value="0" leadInLength="0/1"  />
               <InterpolatingParam id="3202" interp="linr"  time="-9999999/1" value="0" leadInLength="0/1"  />
              </VectorParam>
              <VectorParam id="3203"  name="shear">
               <InterpolatingParam id="3204" interp="linr"  time="-9999999/1" value="0" leadInLength="0/1"  />
               <InterpolatingParam id="3205" interp="linr"  time="-9999999/1" value="0" leadInLength="0/1"  />
               <InterpolatingParam id="3206" interp="linr"  time="-9999999/1" value="0" leadInLength="0/1"  />
              </VectorParam>
              <VectorParam id="3207"  name="scale">
               <InterpolatingParam id="3208" interp="linr"  time="-9999999/1" value="1" leadInLength="0/1"  />
               <InterpolatingParam id="3209" interp="linr"  time="-9999999/1" value="1" leadInLength="0/1"  />
               <InterpolatingParam id="3210" interp="linr"  time="-9999999/1" value="1" leadInLength="0/1"  />
              </VectorParam>
              <VectorParam id="3211"  name="anchor">
               <InterpolatingParam id="3212" interp="linr"  time="0/1" value="0" leadInLength="0/1"  />
               <InterpolatingParam id="3213" interp="linr"  time="0/1" value="0" leadInLength="0/1"  />
               <InterpolatingParam id="3214" interp="linr"  time="0/1" value="0" leadInLength="0/1"  />
              </VectorParam>
             </Transformer>
             <Parameters>
              <VectorParam id="3215"  name="sourceCrop">
               <InterpolatingParam id="3216" interp="linr"  time="0/1" value="0" leadInLength="0/1"  />
               <InterpolatingParam id="3217" interp="linr"  time="0/1" value="0" leadInLength="0/1"  />
               <InterpolatingParam id="3218" interp="linr"  time="0/1" value="0" leadInLength="0/1"  />
               <InterpolatingParam id="3219" interp="linr"  time="0/1" value="0" leadInLength="0/1"  />
              </VectorParam>
              <VectorParam id="3220"  name="geometryCrop">
               <InterpolatingParam id="3221" interp="linr"  time="-9999999/1" value="0" leadInLength="0/1"  />
               <InterpolatingParam id="3222" interp="linr"  time="-9999999/1" value="0" leadInLength="0/1"  />
               <InterpolatingParam id="3223" interp="linr"  time="-9999999/1" value="0" leadInLength="0/1"  />
               <InterpolatingParam id="3224" interp="linr"  time="-9999999/1" value="0" leadInLength="0/1"  />
              </VectorParam>
              <InterpolatingParam id="3225" interp="linr"  time="-9999999/1" value="1" leadInLength="0/1"  name="opacity"/>
              <InterpolatingParam id="3226" interp="linr"  time="0/1" value="0" leadInLength="0/1"  name="cursorOpacity"/>
              <InterpolatingParam id="3227" interp="linr"  time="0/1" value="0" leadInLength="0/1"  name="cursorScale"/>
             </Parameters>
             <Attributes>
              <Attribute id="3228" value="" name="ident"/>
             </Attributes>
             <ExtraData>
              <Entry key="ZoomPanBin">
               <ZoomPanBin id="3229"  >
                <ZoomPanKeyframes>
                 <ZoomPanKeyframe id="3230" timeRangeEnd="-9999999/1" timeRangeDuration="0/1" interpolaterName="linr"  />
                </ZoomPanKeyframes>
               </ZoomPanBin>
              </Entry>
              <Entry key="CursorEffectBin">
               <CursorEffectBin id="3231"  >
                <CursorEffectKeyframes>
                </CursorEffectKeyframes>
               </CursorEffectBin>
              </Entry>
             </ExtraData>
            </ScreenVMFile>
            <MetaData>
             <entry key="AutoAppliedSmartFocus" val="False"/>
             <entry key="WinSubProjectDisplayName" val=""/>
            </MetaData>
           </UnifiedMedia>
           <UnifiedMedia id="3232"  >
            <AMFile id="3233" start="1717" duration="51" scalar="1/1" mediaStart="1955/1" mediaDuration="51/1" trackNumber="1" src="10" channelNumber="0,1" >
             <Parameters>
              <InterpolatingParam id="3234" interp="linr"  time="0/1" value="1" leadInLength="0/1"  name="volume"/>
              <Parameter id="3235"  name="captions"/>
             </Parameters>
             <Attributes>
              <Attribute id="3236" value="" name="ident"/>
              <Attribute id="3237" value="44100" name="sampleRate"/>
              <Attribute id="3238" value="16" name="bitDepth"/>
              <Attribute id="3239" value="1" name="gain"/>
              <Attribute id="3240" value="0" name="mixToMono"/>
             </Attributes>
            </AMFile>
            <ScreenVMFile id="3241" start="1717" duration="51" scalar="1/1" mediaStart="1955/1" mediaDuration="51/1" trackNumber="0" src="10" >
             <Transformer>
              <VectorParam id="3242"  name="translation">
               <InterpolatingParam id="3243" interp="linr"  time="-9999999/1" value="0" leadInLength="0/1"  />
               <InterpolatingParam id="3244" interp="linr"  time="-9999999/1" value="0" leadInLength="0/1"  />
               <InterpolatingParam id="3245" interp="linr"  time="-9999999/1" value="0" leadInLength="0/1"  />
              </VectorParam>
              <VectorParam id="3246"  name="rotation">
               <InterpolatingParam id="3247" interp="linr"  time="-9999999/1" value="0" leadInLength="0/1"  />
               <InterpolatingParam id="3248" interp="linr"  time="-9999999/1" value="0" leadInLength="0/1"  />
               <InterpolatingParam id="3249" interp="linr"  time="-9999999/1" value="0" leadInLength="0/1"  />
              </VectorParam>
              <VectorParam id="3250"  name="shear">
               <InterpolatingParam id="3251" interp="linr"  time="-9999999/1" value="0" leadInLength="0/1"  />
               <InterpolatingParam id="3252" interp="linr"  time="-9999999/1" value="0" leadInLength="0/1"  />
               <InterpolatingParam id="3253" interp="linr"  time="-9999999/1" value="0" leadInLength="0/1"  />
              </VectorParam>
              <VectorParam id="3254"  name="scale">
               <InterpolatingParam id="3255" interp="linr"  time="-9999999/1" value="1" leadInLength="0/1"  />
               <InterpolatingParam id="3256" interp="linr"  time="-9999999/1" value="1" leadInLength="0/1"  />
               <InterpolatingParam id="3257" interp="linr"  time="-9999999/1" value="1" leadInLength="0/1"  />
              </VectorParam>
              <VectorParam id="3258"  name="anchor">
               <InterpolatingParam id="3259" interp="linr"  time="0/1" value="0" leadInLength="0/1"  />
               <InterpolatingParam id="3260" interp="linr"  time="0/1" value="0" leadInLength="0/1"  />
               <InterpolatingParam id="3261" interp="linr"  time="0/1" value="0" leadInLength="0/1"  />
              </VectorParam>
             </Transformer>
             <Parameters>
              <VectorParam id="3262"  name="sourceCrop">
               <InterpolatingParam id="3263" interp="linr"  time="0/1" value="0" leadInLength="0/1"  />
               <InterpolatingParam id="3264" interp="linr"  time="0/1" value="0" leadInLength="0/1"  />
               <InterpolatingParam id="3265" interp="linr"  time="0/1" value="0" leadInLength="0/1"  />
               <InterpolatingParam id="3266" interp="linr"  time="0/1" value="0" leadInLength="0/1"  />
              </VectorParam>
              <VectorParam id="3267"  name="geometryCrop">
               <InterpolatingParam id="3268" interp="linr"  time="-9999999/1" value="0" leadInLength="0/1"  />
               <InterpolatingParam id="3269" interp="linr"  time="-9999999/1" value="0" leadInLength="0/1"  />
               <InterpolatingParam id="3270" interp="linr"  time="-9999999/1" value="0" leadInLength="0/1"  />
               <InterpolatingParam id="3271" interp="linr"  time="-9999999/1" value="0" leadInLength="0/1"  />
              </VectorParam>
              <InterpolatingParam id="3272" interp="linr"  time="-9999999/1" value="1" leadInLength="0/1"  name="opacity"/>
              <InterpolatingParam id="3273" interp="linr"  time="0/1" value="0" leadInLength="0/1"  name="cursorOpacity"/>
              <InterpolatingParam id="3274" interp="linr"  time="0/1" value="0" leadInLength="0/1"  name="cursorScale"/>
             </Parameters>
             <Attributes>
              <Attribute id="3275" value="" name="ident"/>
             </Attributes>
             <ExtraData>
              <Entry key="ZoomPanBin">
               <ZoomPanBin id="3276"  >
                <ZoomPanKeyframes>
                 <ZoomPanKeyframe id="3277" timeRangeEnd="-9999999/1" timeRangeDuration="0/1" interpolaterName="linr"  />
                </ZoomPanKeyframes>
               </ZoomPanBin>
              </Entry>
              <Entry key="CursorEffectBin">
               <CursorEffectBin id="3278"  >
                <CursorEffectKeyframes>
                </CursorEffectKeyframes>
               </CursorEffectBin>
              </Entry>
             </ExtraData>
            </ScreenVMFile>
            <MetaData>
             <entry key="AutoAppliedSmartFocus" val="False"/>
             <entry key="WinSubProjectDisplayName" val=""/>
            </MetaData>
           </UnifiedMedia>
          </Medias>
         </GenericTrack>
        </StitchedMedia>
        <StitchedMedia id="3279" start="12734" duration="1703" scalar="1/1" mediaStart="0/1" mediaDuration="1703/1" minMediaStart="0/1" >
         <Transformer>
          <VectorParam id="3280"  name="translation">
           <InterpolatingParam id="3281" interp="linr"  time="-9999999/1" value="0" leadInLength="0/1"  />
           <InterpolatingParam id="3282" interp="linr"  time="-9999999/1" value="0" leadInLength="0/1"  />
           <InterpolatingParam id="3283" interp="linr"  time="-9999999/1" value="0" leadInLength="0/1"  />
          </VectorParam>
          <VectorParam id="3284"  name="rotation">
           <InterpolatingParam id="3285" interp="linr"  time="-9999999/1" value="0" leadInLength="0/1"  />
           <InterpolatingParam id="3286" interp="linr"  time="-9999999/1" value="0" leadInLength="0/1"  />
           <InterpolatingParam id="3287" interp="linr"  time="-9999999/1" value="0" leadInLength="0/1"  />
          </VectorParam>
          <VectorParam id="3288"  name="shear">
           <InterpolatingParam id="3289" interp="linr"  time="-9999999/1" value="0" leadInLength="0/1"  />
           <InterpolatingParam id="3290" interp="linr"  time="-9999999/1" value="0" leadInLength="0/1"  />
           <InterpolatingParam id="3291" interp="linr"  time="-9999999/1" value="0" leadInLength="0/1"  />
          </VectorParam>
          <VectorParam id="3292"  name="scale">
           <InterpolatingParam id="3293" interp="linr"  time="-9999999/1" value="0.66666666666666663" leadInLength="0/1"  />
           <InterpolatingParam id="3294" interp="linr"  time="-9999999/1" value="0.66666666666666663" leadInLength="0/1"  />
           <InterpolatingParam id="3295" interp="linr"  time="-9999999/1" value="1" leadInLength="0/1"  />
          </VectorParam>
          <VectorParam id="3296"  name="anchor">
           <InterpolatingParam id="3297" interp="linr"  time="0/1" value="0" leadInLength="0/1"  />
           <InterpolatingParam id="3298" interp="linr"  time="0/1" value="0" leadInLength="0/1"  />
           <InterpolatingParam id="3299" interp="linr"  time="0/1" value="0" leadInLength="0/1"  />
          </VectorParam>
         </Transformer>
         <Parameters>
          <VectorParam id="3300"  name="sourceCrop">
           <InterpolatingParam id="3301" interp="linr"  time="0/1" value="0" leadInLength="0/1"  />
           <InterpolatingParam id="3302" interp="linr"  time="0/1" value="0" leadInLength="0/1"  />
           <InterpolatingParam id="3303" interp="linr"  time="0/1" value="0" leadInLength="0/1"  />
           <InterpolatingParam id="3304" interp="linr"  time="0/1" value="0" leadInLength="0/1"  />
          </VectorParam>
          <VectorParam id="3305"  name="geometryCrop">
           <InterpolatingParam id="3306" interp="linr"  time="-9999999/1" value="0" leadInLength="0/1"  />
           <InterpolatingParam id="3307" interp="linr"  time="-9999999/1" value="0" leadInLength="0/1"  />
           <InterpolatingParam id="3308" interp="linr"  time="-9999999/1" value="0" leadInLength="0/1"  />
           <InterpolatingParam id="3309" interp="linr"  time="-9999999/1" value="0" leadInLength="0/1"  />
          </VectorParam>
          <InterpolatingParam id="3310" interp="linr"  time="-9999999/1" value="1" leadInLength="0/1"  name="opacity"/>
          <Parameter id="3311"  name="toc">
           <Keyframes>
           <Keyframe id="3312"  time="0/1" value="Basic Features" leadInLength="0/1"  />
           </Keyframes>
          </Parameter>
          <InterpolatingParam id="3313" interp="linr"  time="0/1" value="1" leadInLength="0/1"  name="cursorOpacity"/>
          <InterpolatingParam id="3314" interp="linr"  time="0/1" value="1" leadInLength="0/1"  name="cursorScale"/>
          <InterpolatingParam id="3315" interp="linr"  time="0/1" value="1" leadInLength="0/1"  name="volume"/>
          <Parameter id="3316"  name="captions"/>
         </Parameters>
         <Effects>
          <GenericEffect id="3317" name = "CursorBaseEffectName" >
           <Parameters>
           <InterpolatingParam id="3318" interp="linr"  time="-9999999/1" value="1" leadInLength="0/1"   name="cursorSize"/>
           <InterpolatingParam id="3319" interp="linr"  time="-9999999/1" value="0" leadInLength="0/1"   name="highlightBlurRadius"/>
           <InterpolatingParam id="3320" interp="linr"  time="-9999999/1" value="0" leadInLength="0/1"   name="highlightColorBlue"/>
           <InterpolatingParam id="3321" interp="linr"  time="-9999999/1" value="255" leadInLength="0/1"   name="highlightColorGreen"/>
           <InterpolatingParam id="3322" interp="linr"  time="-9999999/1" value="255" leadInLength="0/1"   name="highlightColorRed"/>
           <InterpolatingParam id="3323" interp="linr"  time="-9999999/1" value="5" leadInLength="0/1"   name="highlightFeatherSize"/>
           <InterpolatingParam id="3324" interp="linr"  time="-9999999/1" value="2" leadInLength="0/1"   name="highlightMagnification"/>
           <InterpolatingParam id="3325" interp="linr"  time="-9999999/1" value="1" leadInLength="0/1"   name="highlightOpacity"/>
           <InterpolatingParam id="3326" interp="linr"  time="-9999999/1" value="45" leadInLength="0/1"   name="highlightSize"/>
           <Parameter id="3327"   name="highlightType">
            <Keyframes>
            <Keyframe id="3328"  time="-9999999/1" value="0" leadInLength="0/1"  />
            </Keyframes>
           </Parameter>
           <InterpolatingParam id="3329" interp="linr"  time="-9999999/1" value="0" leadInLength="0/1"   name="leftClickColorBlue"/>
           <InterpolatingParam id="3330" interp="linr"  time="-9999999/1" value="0" leadInLength="0/1"   name="leftClickColorGreen"/>
           <InterpolatingParam id="3331" interp="linr"  time="-9999999/1" value="255" leadInLength="0/1"   name="leftClickColorRed"/>
           <InterpolatingParam id="3332" interp="linr"  time="-9999999/1" value="0.80000000000000004" leadInLength="0/1"   name="leftClickDuration"/>
           <InterpolatingParam id="3333" interp="linr"  time="-9999999/1" value="20" leadInLength="0/1"   name="leftClickSize"/>
           <Parameter id="3334"   name="leftClickSoundFilename">
            <Keyframes>
            <Keyframe id="3335"  time="-9999999/1" value="" leadInLength="0/1"  />
            </Keyframes>
           </Parameter>
           <InterpolatingParam id="3336" interp="linr"  time="-9999999/1" value="1" leadInLength="0/1"   name="leftClickSoundVolume"/>
           <Parameter id="3337"   name="leftClickType">
            <Keyframes>
            <Keyframe id="3338"  time="-9999999/1" value="0" leadInLength="0/1"  />
            </Keyframes>
           </Parameter>
           <InterpolatingParam id="3339" interp="linr"  time="-9999999/1" value="1" leadInLength="0/1"   name="opacity"/>
           <InterpolatingParam id="3340" interp="linr"  time="-9999999/1" value="255" leadInLength="0/1"   name="rightClickColorBlue"/>
           <InterpolatingParam id="3341" interp="linr"  time="-9999999/1" value="0" leadInLength="0/1"   name="rightClickColorGreen"/>
           <InterpolatingParam id="3342" interp="linr"  time="-9999999/1" value="0" leadInLength="0/1"   name="rightClickColorRed"/>
           <InterpolatingParam id="3343" interp="linr"  time="-9999999/1" value="0.80000000000000004" leadInLength="0/1"   name="rightClickDuration"/>
           <InterpolatingParam id="3344" interp="linr"  time="-9999999/1" value="20" leadInLength="0/1"   name="rightClickSize"/>
           <Parameter id="3345"   name="rightClickSoundFilename">
            <Keyframes>
            <Keyframe id="3346"  time="-9999999/1" value="" leadInLength="0/1"  />
            </Keyframes>
           </Parameter>
           <InterpolatingParam id="3347" interp="linr"  time="-9999999/1" value="1" leadInLength="0/1"   name="rightClickSoundVolume"/>
           <Parameter id="3348"   name="rightClickType">
            <Keyframes>
            <Keyframe id="3349"  time="-9999999/1" value="0" leadInLength="0/1"  />
            </Keyframes>
           </Parameter>
           </Parameters>
           <MetaData>
            <entry key="effectIndex" val="0"/>
           </MetaData>
          </GenericEffect>
         </Effects>
         <Attributes>
          <Attribute id="3350" value="" name="ident"/>
          <Attribute id="3351" value="0" name="mixToMono"/>
         </Attributes>
         <MetaData>
          <entry key="AutoAppliedSmartFocus" val="False"/>
          <entry key="WinSubProjectDisplayName" val=""/>
         </MetaData>
         <ExtraData>
          <Entry key="ZoomPanBin">
           <ZoomPanBin id="3352"  >
            <ZoomPanKeyframes>
             <ZoomPanKeyframe id="3353" timeRangeEnd="-9999999/1" timeRangeDuration="0/1" interpolaterName="linr"  />
            </ZoomPanKeyframes>
           </ZoomPanBin>
          </Entry>
          <Entry key="CursorEffectBin">
           <CursorEffectBin id="3354"  >
            <CursorEffectKeyframes>
             <CursorEffectKeyframe id="3355" timeRangeEnd="-9999999/1" timeRangeDuration="0/1" interpolaterName=""  />
            </CursorEffectKeyframes>
           </CursorEffectBin>
          </Entry>
         </ExtraData>
         <GenericTrack id="3356"  >
          <Attributes>
           <Attribute id="3357" value="" name="ident"/>
           <Attribute id="3358" value="0" name="audioMuted"/>
           <Attribute id="3359" value="0" name="videoHidden"/>
          </Attributes>
          <MetaData>
           <entry key="IsLocked" val="False"/>
           <entry key="WinTrackHeight" val="0"/>
          </MetaData>
          <Medias>
           <UnifiedMedia id="3360"  >
            <AMFile id="3361" start="0" duration="619" scalar="1/1" mediaStart="0/1" mediaDuration="619/1" trackNumber="1" src="11" channelNumber="0,1" >
             <Parameters>
              <InterpolatingParam id="3362" interp="linr"  time="0/1" value="1" leadInLength="0/1"  name="volume"/>
              <Parameter id="3363"  name="captions"/>
             </Parameters>
             <Attributes>
              <Attribute id="3364" value="" name="ident"/>
              <Attribute id="3365" value="44100" name="sampleRate"/>
              <Attribute id="3366" value="16" name="bitDepth"/>
              <Attribute id="3367" value="1" name="gain"/>
              <Attribute id="3368" value="0" name="mixToMono"/>
             </Attributes>
            </AMFile>
            <ScreenVMFile id="3369" start="0" duration="619" scalar="1/1" mediaStart="0/1" mediaDuration="619/1" trackNumber="0" src="11" >
             <Transformer>
              <VectorParam id="3370"  name="translation">
               <InterpolatingParam id="3371" interp="linr"  time="-9999999/1" value="0" leadInLength="0/1"  />
               <InterpolatingParam id="3372" interp="linr"  time="-9999999/1" value="0" leadInLength="0/1"  />
               <InterpolatingParam id="3373" interp="linr"  time="-9999999/1" value="0" leadInLength="0/1"  />
              </VectorParam>
              <VectorParam id="3374"  name="rotation">
               <InterpolatingParam id="3375" interp="linr"  time="-9999999/1" value="0" leadInLength="0/1"  />
               <InterpolatingParam id="3376" interp="linr"  time="-9999999/1" value="0" leadInLength="0/1"  />
               <InterpolatingParam id="3377" interp="linr"  time="-9999999/1" value="0" leadInLength="0/1"  />
              </VectorParam>
              <VectorParam id="3378"  name="shear">
               <InterpolatingParam id="3379" interp="linr"  time="-9999999/1" value="0" leadInLength="0/1"  />
               <InterpolatingParam id="3380" interp="linr"  time="-9999999/1" value="0" leadInLength="0/1"  />
               <InterpolatingParam id="3381" interp="linr"  time="-9999999/1" value="0" leadInLength="0/1"  />
              </VectorParam>
              <VectorParam id="3382"  name="scale">
               <InterpolatingParam id="3383" interp="linr"  time="-9999999/1" value="1" leadInLength="0/1"  />
               <InterpolatingParam id="3384" interp="linr"  time="-9999999/1" value="1" leadInLength="0/1"  />
               <InterpolatingParam id="3385" interp="linr"  time="-9999999/1" value="1" leadInLength="0/1"  />
              </VectorParam>
              <VectorParam id="3386"  name="anchor">
               <InterpolatingParam id="3387" interp="linr"  time="0/1" value="0" leadInLength="0/1"  />
               <InterpolatingParam id="3388" interp="linr"  time="0/1" value="0" leadInLength="0/1"  />
               <InterpolatingParam id="3389" interp="linr"  time="0/1" value="0" leadInLength="0/1"  />
              </VectorParam>
             </Transformer>
             <Parameters>
              <VectorParam id="3390"  name="sourceCrop">
               <InterpolatingParam id="3391" interp="linr"  time="0/1" value="0" leadInLength="0/1"  />
               <InterpolatingParam id="3392" interp="linr"  time="0/1" value="0" leadInLength="0/1"  />
               <InterpolatingParam id="3393" interp="linr"  time="0/1" value="0" leadInLength="0/1"  />
               <InterpolatingParam id="3394" interp="linr"  time="0/1" value="0" leadInLength="0/1"  />
              </VectorParam>
              <VectorParam id="3395"  name="geometryCrop">
               <InterpolatingParam id="3396" interp="linr"  time="-9999999/1" value="0" leadInLength="0/1"  />
               <InterpolatingParam id="3397" interp="linr"  time="-9999999/1" value="0" leadInLength="0/1"  />
               <InterpolatingParam id="3398" interp="linr"  time="-9999999/1" value="0" leadInLength="0/1"  />
               <InterpolatingParam id="3399" interp="linr"  time="-9999999/1" value="0" leadInLength="0/1"  />
              </VectorParam>
              <InterpolatingParam id="3400" interp="linr"  time="-9999999/1" value="1" leadInLength="0/1"  name="opacity"/>
              <InterpolatingParam id="3401" interp="linr"  time="0/1" value="0" leadInLength="0/1"  name="cursorOpacity"/>
              <InterpolatingParam id="3402" interp="linr"  time="0/1" value="0" leadInLength="0/1"  name="cursorScale"/>
             </Parameters>
             <Attributes>
              <Attribute id="3403" value="" name="ident"/>
             </Attributes>
             <ExtraData>
              <Entry key="ZoomPanBin">
               <ZoomPanBin id="3404"  >
                <ZoomPanKeyframes>
                 <ZoomPanKeyframe id="3405" timeRangeEnd="-9999999/1" timeRangeDuration="0/1" interpolaterName="linr"  />
                </ZoomPanKeyframes>
               </ZoomPanBin>
              </Entry>
              <Entry key="CursorEffectBin">
               <CursorEffectBin id="3406"  >
                <CursorEffectKeyframes>
                </CursorEffectKeyframes>
               </CursorEffectBin>
              </Entry>
             </ExtraData>
            </ScreenVMFile>
            <MetaData>
             <entry key="AutoAppliedSmartFocus" val="False"/>
             <entry key="WinSubProjectDisplayName" val=""/>
            </MetaData>
           </UnifiedMedia>
           <UnifiedMedia id="3407"  >
            <AMFile id="3408" start="619" duration="131" scalar="1/1" mediaStart="650/1" mediaDuration="131/1" trackNumber="1" src="11" channelNumber="0,1" >
             <Parameters>
              <InterpolatingParam id="3409" interp="linr"  time="0/1" value="1" leadInLength="0/1"  name="volume"/>
              <Parameter id="3410"  name="captions"/>
             </Parameters>
             <Attributes>
              <Attribute id="3411" value="" name="ident"/>
              <Attribute id="3412" value="44100" name="sampleRate"/>
              <Attribute id="3413" value="16" name="bitDepth"/>
              <Attribute id="3414" value="1" name="gain"/>
              <Attribute id="3415" value="0" name="mixToMono"/>
             </Attributes>
            </AMFile>
            <ScreenVMFile id="3416" start="619" duration="131" scalar="1/1" mediaStart="650/1" mediaDuration="131/1" trackNumber="0" src="11" >
             <Transformer>
              <VectorParam id="3417"  name="translation">
               <InterpolatingParam id="3418" interp="linr"  time="-9999999/1" value="0" leadInLength="0/1"  />
               <InterpolatingParam id="3419" interp="linr"  time="-9999999/1" value="0" leadInLength="0/1"  />
               <InterpolatingParam id="3420" interp="linr"  time="-9999999/1" value="0" leadInLength="0/1"  />
              </VectorParam>
              <VectorParam id="3421"  name="rotation">
               <InterpolatingParam id="3422" interp="linr"  time="-9999999/1" value="0" leadInLength="0/1"  />
               <InterpolatingParam id="3423" interp="linr"  time="-9999999/1" value="0" leadInLength="0/1"  />
               <InterpolatingParam id="3424" interp="linr"  time="-9999999/1" value="0" leadInLength="0/1"  />
              </VectorParam>
              <VectorParam id="3425"  name="shear">
               <InterpolatingParam id="3426" interp="linr"  time="-9999999/1" value="0" leadInLength="0/1"  />
               <InterpolatingParam id="3427" interp="linr"  time="-9999999/1" value="0" leadInLength="0/1"  />
               <InterpolatingParam id="3428" interp="linr"  time="-9999999/1" value="0" leadInLength="0/1"  />
              </VectorParam>
              <VectorParam id="3429"  name="scale">
               <InterpolatingParam id="3430" interp="linr"  time="-9999999/1" value="1" leadInLength="0/1"  />
               <InterpolatingParam id="3431" interp="linr"  time="-9999999/1" value="1" leadInLength="0/1"  />
               <InterpolatingParam id="3432" interp="linr"  time="-9999999/1" value="1" leadInLength="0/1"  />
              </VectorParam>
              <VectorParam id="3433"  name="anchor">
               <InterpolatingParam id="3434" interp="linr"  time="0/1" value="0" leadInLength="0/1"  />
               <InterpolatingParam id="3435" interp="linr"  time="0/1" value="0" leadInLength="0/1"  />
               <InterpolatingParam id="3436" interp="linr"  time="0/1" value="0" leadInLength="0/1"  />
              </VectorParam>
             </Transformer>
             <Parameters>
              <VectorParam id="3437"  name="sourceCrop">
               <InterpolatingParam id="3438" interp="linr"  time="0/1" value="0" leadInLength="0/1"  />
               <InterpolatingParam id="3439" interp="linr"  time="0/1" value="0" leadInLength="0/1"  />
               <InterpolatingParam id="3440" interp="linr"  time="0/1" value="0" leadInLength="0/1"  />
               <InterpolatingParam id="3441" interp="linr"  time="0/1" value="0" leadInLength="0/1"  />
              </VectorParam>
              <VectorParam id="3442"  name="geometryCrop">
               <InterpolatingParam id="3443" interp="linr"  time="-9999999/1" value="0" leadInLength="0/1"  />
               <InterpolatingParam id="3444" interp="linr"  time="-9999999/1" value="0" leadInLength="0/1"  />
               <InterpolatingParam id="3445" interp="linr"  time="-9999999/1" value="0" leadInLength="0/1"  />
               <InterpolatingParam id="3446" interp="linr"  time="-9999999/1" value="0" leadInLength="0/1"  />
              </VectorParam>
              <InterpolatingParam id="3447" interp="linr"  time="-9999999/1" value="1" leadInLength="0/1"  name="opacity"/>
              <InterpolatingParam id="3448" interp="linr"  time="0/1" value="0" leadInLength="0/1"  name="cursorOpacity"/>
              <InterpolatingParam id="3449" interp="linr"  time="0/1" value="0" leadInLength="0/1"  name="cursorScale"/>
             </Parameters>
             <Attributes>
              <Attribute id="3450" value="" name="ident"/>
             </Attributes>
             <ExtraData>
              <Entry key="ZoomPanBin">
               <ZoomPanBin id="3451"  >
                <ZoomPanKeyframes>
                 <ZoomPanKeyframe id="3452" timeRangeEnd="-9999999/1" timeRangeDuration="0/1" interpolaterName="linr"  />
                </ZoomPanKeyframes>
               </ZoomPanBin>
              </Entry>
              <Entry key="CursorEffectBin">
               <CursorEffectBin id="3453"  >
                <CursorEffectKeyframes>
                </CursorEffectKeyframes>
               </CursorEffectBin>
              </Entry>
             </ExtraData>
            </ScreenVMFile>
            <MetaData>
             <entry key="AutoAppliedSmartFocus" val="False"/>
             <entry key="WinSubProjectDisplayName" val=""/>
            </MetaData>
           </UnifiedMedia>
           <UnifiedMedia id="3454"  >
            <AMFile id="3455" start="750" duration="95" scalar="1/1" mediaStart="809/1" mediaDuration="95/1" trackNumber="1" src="11" channelNumber="0,1" >
             <Parameters>
              <InterpolatingParam id="3456" interp="linr"  time="0/1" value="1" leadInLength="0/1"  name="volume"/>
              <Parameter id="3457"  name="captions"/>
             </Parameters>
             <Attributes>
              <Attribute id="3458" value="" name="ident"/>
              <Attribute id="3459" value="44100" name="sampleRate"/>
              <Attribute id="3460" value="16" name="bitDepth"/>
              <Attribute id="3461" value="1" name="gain"/>
              <Attribute id="3462" value="0" name="mixToMono"/>
             </Attributes>
            </AMFile>
            <ScreenVMFile id="3463" start="750" duration="95" scalar="1/1" mediaStart="809/1" mediaDuration="95/1" trackNumber="0" src="11" >
             <Transformer>
              <VectorParam id="3464"  name="translation">
               <InterpolatingParam id="3465" interp="linr"  time="-9999999/1" value="0" leadInLength="0/1"  />
               <InterpolatingParam id="3466" interp="linr"  time="-9999999/1" value="0" leadInLength="0/1"  />
               <InterpolatingParam id="3467" interp="linr"  time="-9999999/1" value="0" leadInLength="0/1"  />
              </VectorParam>
              <VectorParam id="3468"  name="rotation">
               <InterpolatingParam id="3469" interp="linr"  time="-9999999/1" value="0" leadInLength="0/1"  />
               <InterpolatingParam id="3470" interp="linr"  time="-9999999/1" value="0" leadInLength="0/1"  />
               <InterpolatingParam id="3471" interp="linr"  time="-9999999/1" value="0" leadInLength="0/1"  />
              </VectorParam>
              <VectorParam id="3472"  name="shear">
               <InterpolatingParam id="3473" interp="linr"  time="-9999999/1" value="0" leadInLength="0/1"  />
               <InterpolatingParam id="3474" interp="linr"  time="-9999999/1" value="0" leadInLength="0/1"  />
               <InterpolatingParam id="3475" interp="linr"  time="-9999999/1" value="0" leadInLength="0/1"  />
              </VectorParam>
              <VectorParam id="3476"  name="scale">
               <InterpolatingParam id="3477" interp="linr"  time="-9999999/1" value="1" leadInLength="0/1"  />
               <InterpolatingParam id="3478" interp="linr"  time="-9999999/1" value="1" leadInLength="0/1"  />
               <InterpolatingParam id="3479" interp="linr"  time="-9999999/1" value="1" leadInLength="0/1"  />
              </VectorParam>
              <VectorParam id="3480"  name="anchor">
               <InterpolatingParam id="3481" interp="linr"  time="0/1" value="0" leadInLength="0/1"  />
               <InterpolatingParam id="3482" interp="linr"  time="0/1" value="0" leadInLength="0/1"  />
               <InterpolatingParam id="3483" interp="linr"  time="0/1" value="0" leadInLength="0/1"  />
              </VectorParam>
             </Transformer>
             <Parameters>
              <VectorParam id="3484"  name="sourceCrop">
               <InterpolatingParam id="3485" interp="linr"  time="0/1" value="0" leadInLength="0/1"  />
               <InterpolatingParam id="3486" interp="linr"  time="0/1" value="0" leadInLength="0/1"  />
               <InterpolatingParam id="3487" interp="linr"  time="0/1" value="0" leadInLength="0/1"  />
               <InterpolatingParam id="3488" interp="linr"  time="0/1" value="0" leadInLength="0/1"  />
              </VectorParam>
              <VectorParam id="3489"  name="geometryCrop">
               <InterpolatingParam id="3490" interp="linr"  time="-9999999/1" value="0" leadInLength="0/1"  />
               <InterpolatingParam id="3491" interp="linr"  time="-9999999/1" value="0" leadInLength="0/1"  />
               <InterpolatingParam id="3492" interp="linr"  time="-9999999/1" value="0" leadInLength="0/1"  />
               <InterpolatingParam id="3493" interp="linr"  time="-9999999/1" value="0" leadInLength="0/1"  />
              </VectorParam>
              <InterpolatingParam id="3494" interp="linr"  time="-9999999/1" value="1" leadInLength="0/1"  name="opacity"/>
              <InterpolatingParam id="3495" interp="linr"  time="0/1" value="0" leadInLength="0/1"  name="cursorOpacity"/>
              <InterpolatingParam id="3496" interp="linr"  time="0/1" value="0" leadInLength="0/1"  name="cursorScale"/>
             </Parameters>
             <Attributes>
              <Attribute id="3497" value="" name="ident"/>
             </Attributes>
             <ExtraData>
              <Entry key="ZoomPanBin">
               <ZoomPanBin id="3498"  >
                <ZoomPanKeyframes>
                 <ZoomPanKeyframe id="3499" timeRangeEnd="-9999999/1" timeRangeDuration="0/1" interpolaterName="linr"  />
                </ZoomPanKeyframes>
               </ZoomPanBin>
              </Entry>
              <Entry key="CursorEffectBin">
               <CursorEffectBin id="3500"  >
                <CursorEffectKeyframes>
                </CursorEffectKeyframes>
               </CursorEffectBin>
              </Entry>
             </ExtraData>
            </ScreenVMFile>
            <MetaData>
             <entry key="AutoAppliedSmartFocus" val="False"/>
             <entry key="WinSubProjectDisplayName" val=""/>
            </MetaData>
           </UnifiedMedia>
           <UnifiedMedia id="3501"  >
            <AMFile id="3502" start="845" duration="212" scalar="1/1" mediaStart="952/1" mediaDuration="212/1" trackNumber="1" src="11" channelNumber="0,1" >
             <Parameters>
              <InterpolatingParam id="3503" interp="linr"  time="0/1" value="1" leadInLength="0/1"  name="volume"/>
              <Parameter id="3504"  name="captions"/>
             </Parameters>
             <Attributes>
              <Attribute id="3505" value="" name="ident"/>
              <Attribute id="3506" value="44100" name="sampleRate"/>
              <Attribute id="3507" value="16" name="bitDepth"/>
              <Attribute id="3508" value="1" name="gain"/>
              <Attribute id="3509" value="0" name="mixToMono"/>
             </Attributes>
            </AMFile>
            <ScreenVMFile id="3510" start="845" duration="212" scalar="1/1" mediaStart="952/1" mediaDuration="212/1" trackNumber="0" src="11" >
             <Transformer>
              <VectorParam id="3511"  name="translation">
               <InterpolatingParam id="3512" interp="linr"  time="-9999999/1" value="0" leadInLength="0/1"  />
               <InterpolatingParam id="3513" interp="linr"  time="-9999999/1" value="0" leadInLength="0/1"  />
               <InterpolatingParam id="3514" interp="linr"  time="-9999999/1" value="0" leadInLength="0/1"  />
              </VectorParam>
              <VectorParam id="3515"  name="rotation">
               <InterpolatingParam id="3516" interp="linr"  time="-9999999/1" value="0" leadInLength="0/1"  />
               <InterpolatingParam id="3517" interp="linr"  time="-9999999/1" value="0" leadInLength="0/1"  />
               <InterpolatingParam id="3518" interp="linr"  time="-9999999/1" value="0" leadInLength="0/1"  />
              </VectorParam>
              <VectorParam id="3519"  name="shear">
               <InterpolatingParam id="3520" interp="linr"  time="-9999999/1" value="0" leadInLength="0/1"  />
               <InterpolatingParam id="3521" interp="linr"  time="-9999999/1" value="0" leadInLength="0/1"  />
               <InterpolatingParam id="3522" interp="linr"  time="-9999999/1" value="0" leadInLength="0/1"  />
              </VectorParam>
              <VectorParam id="3523"  name="scale">
               <InterpolatingParam id="3524" interp="linr"  time="-9999999/1" value="1" leadInLength="0/1"  />
               <InterpolatingParam id="3525" interp="linr"  time="-9999999/1" value="1" leadInLength="0/1"  />
               <InterpolatingParam id="3526" interp="linr"  time="-9999999/1" value="1" leadInLength="0/1"  />
              </VectorParam>
              <VectorParam id="3527"  name="anchor">
               <InterpolatingParam id="3528" interp="linr"  time="0/1" value="0" leadInLength="0/1"  />
               <InterpolatingParam id="3529" interp="linr"  time="0/1" value="0" leadInLength="0/1"  />
               <InterpolatingParam id="3530" interp="linr"  time="0/1" value="0" leadInLength="0/1"  />
              </VectorParam>
             </Transformer>
             <Parameters>
              <VectorParam id="3531"  name="sourceCrop">
               <InterpolatingParam id="3532" interp="linr"  time="0/1" value="0" leadInLength="0/1"  />
               <InterpolatingParam id="3533" interp="linr"  time="0/1" value="0" leadInLength="0/1"  />
               <InterpolatingParam id="3534" interp="linr"  time="0/1" value="0" leadInLength="0/1"  />
               <InterpolatingParam id="3535" interp="linr"  time="0/1" value="0" leadInLength="0/1"  />
              </VectorParam>
              <VectorParam id="3536"  name="geometryCrop">
               <InterpolatingParam id="3537" interp="linr"  time="-9999999/1" value="0" leadInLength="0/1"  />
               <InterpolatingParam id="3538" interp="linr"  time="-9999999/1" value="0" leadInLength="0/1"  />
               <InterpolatingParam id="3539" interp="linr"  time="-9999999/1" value="0" leadInLength="0/1"  />
               <InterpolatingParam id="3540" interp="linr"  time="-9999999/1" value="0" leadInLength="0/1"  />
              </VectorParam>
              <InterpolatingParam id="3541" interp="linr"  time="-9999999/1" value="1" leadInLength="0/1"  name="opacity"/>
              <InterpolatingParam id="3542" interp="linr"  time="0/1" value="0" leadInLength="0/1"  name="cursorOpacity"/>
              <InterpolatingParam id="3543" interp="linr"  time="0/1" value="0" leadInLength="0/1"  name="cursorScale"/>
             </Parameters>
             <Attributes>
              <Attribute id="3544" value="" name="ident"/>
             </Attributes>
             <ExtraData>
              <Entry key="ZoomPanBin">
               <ZoomPanBin id="3545"  >
                <ZoomPanKeyframes>
                 <ZoomPanKeyframe id="3546" timeRangeEnd="-9999999/1" timeRangeDuration="0/1" interpolaterName="linr"  />
                </ZoomPanKeyframes>
               </ZoomPanBin>
              </Entry>
              <Entry key="CursorEffectBin">
               <CursorEffectBin id="3547"  >
                <CursorEffectKeyframes>
                </CursorEffectKeyframes>
               </CursorEffectBin>
              </Entry>
             </ExtraData>
            </ScreenVMFile>
            <MetaData>
             <entry key="AutoAppliedSmartFocus" val="False"/>
             <entry key="WinSubProjectDisplayName" val=""/>
            </MetaData>
           </UnifiedMedia>
           <UnifiedMedia id="3548"  >
            <AMFile id="3549" start="1057" duration="164" scalar="1/1" mediaStart="1190/1" mediaDuration="164/1" trackNumber="1" src="11" channelNumber="0,1" >
             <Parameters>
              <InterpolatingParam id="3550" interp="linr"  time="0/1" value="1" leadInLength="0/1"  name="volume"/>
              <Parameter id="3551"  name="captions"/>
             </Parameters>
             <Attributes>
              <Attribute id="3552" value="" name="ident"/>
              <Attribute id="3553" value="44100" name="sampleRate"/>
              <Attribute id="3554" value="16" name="bitDepth"/>
              <Attribute id="3555" value="1" name="gain"/>
              <Attribute id="3556" value="0" name="mixToMono"/>
             </Attributes>
            </AMFile>
            <ScreenVMFile id="3557" start="1057" duration="164" scalar="1/1" mediaStart="1190/1" mediaDuration="164/1" trackNumber="0" src="11" >
             <Transformer>
              <VectorParam id="3558"  name="translation">
               <InterpolatingParam id="3559" interp="linr"  time="-9999999/1" value="0" leadInLength="0/1"  />
               <InterpolatingParam id="3560" interp="linr"  time="-9999999/1" value="0" leadInLength="0/1"  />
               <InterpolatingParam id="3561" interp="linr"  time="-9999999/1" value="0" leadInLength="0/1"  />
              </VectorParam>
              <VectorParam id="3562"  name="rotation">
               <InterpolatingParam id="3563" interp="linr"  time="-9999999/1" value="0" leadInLength="0/1"  />
               <InterpolatingParam id="3564" interp="linr"  time="-9999999/1" value="0" leadInLength="0/1"  />
               <InterpolatingParam id="3565" interp="linr"  time="-9999999/1" value="0" leadInLength="0/1"  />
              </VectorParam>
              <VectorParam id="3566"  name="shear">
               <InterpolatingParam id="3567" interp="linr"  time="-9999999/1" value="0" leadInLength="0/1"  />
               <InterpolatingParam id="3568" interp="linr"  time="-9999999/1" value="0" leadInLength="0/1"  />
               <InterpolatingParam id="3569" interp="linr"  time="-9999999/1" value="0" leadInLength="0/1"  />
              </VectorParam>
              <VectorParam id="3570"  name="scale">
               <InterpolatingParam id="3571" interp="linr"  time="-9999999/1" value="1" leadInLength="0/1"  />
               <InterpolatingParam id="3572" interp="linr"  time="-9999999/1" value="1" leadInLength="0/1"  />
               <InterpolatingParam id="3573" interp="linr"  time="-9999999/1" value="1" leadInLength="0/1"  />
              </VectorParam>
              <VectorParam id="3574"  name="anchor">
               <InterpolatingParam id="3575" interp="linr"  time="0/1" value="0" leadInLength="0/1"  />
               <InterpolatingParam id="3576" interp="linr"  time="0/1" value="0" leadInLength="0/1"  />
               <InterpolatingParam id="3577" interp="linr"  time="0/1" value="0" leadInLength="0/1"  />
              </VectorParam>
             </Transformer>
             <Parameters>
              <VectorParam id="3578"  name="sourceCrop">
               <InterpolatingParam id="3579" interp="linr"  time="0/1" value="0" leadInLength="0/1"  />
               <InterpolatingParam id="3580" interp="linr"  time="0/1" value="0" leadInLength="0/1"  />
               <InterpolatingParam id="3581" interp="linr"  time="0/1" value="0" leadInLength="0/1"  />
               <InterpolatingParam id="3582" interp="linr"  time="0/1" value="0" leadInLength="0/1"  />
              </VectorParam>
              <VectorParam id="3583"  name="geometryCrop">
               <InterpolatingParam id="3584" interp="linr"  time="-9999999/1" value="0" leadInLength="0/1"  />
               <InterpolatingParam id="3585" interp="linr"  time="-9999999/1" value="0" leadInLength="0/1"  />
               <InterpolatingParam id="3586" interp="linr"  time="-9999999/1" value="0" leadInLength="0/1"  />
               <InterpolatingParam id="3587" interp="linr"  time="-9999999/1" value="0" leadInLength="0/1"  />
              </VectorParam>
              <InterpolatingParam id="3588" interp="linr"  time="-9999999/1" value="1" leadInLength="0/1"  name="opacity"/>
              <InterpolatingParam id="3589" interp="linr"  time="0/1" value="0" leadInLength="0/1"  name="cursorOpacity"/>
              <InterpolatingParam id="3590" interp="linr"  time="0/1" value="0" leadInLength="0/1"  name="cursorScale"/>
             </Parameters>
             <Attributes>
              <Attribute id="3591" value="" name="ident"/>
             </Attributes>
             <ExtraData>
              <Entry key="ZoomPanBin">
               <ZoomPanBin id="3592"  >
                <ZoomPanKeyframes>
                 <ZoomPanKeyframe id="3593" timeRangeEnd="-9999999/1" timeRangeDuration="0/1" interpolaterName="linr"  />
                </ZoomPanKeyframes>
               </ZoomPanBin>
              </Entry>
              <Entry key="CursorEffectBin">
               <CursorEffectBin id="3594"  >
                <CursorEffectKeyframes>
                </CursorEffectKeyframes>
               </CursorEffectBin>
              </Entry>
             </ExtraData>
            </ScreenVMFile>
            <MetaData>
             <entry key="AutoAppliedSmartFocus" val="False"/>
             <entry key="WinSubProjectDisplayName" val=""/>
            </MetaData>
           </UnifiedMedia>
           <UnifiedMedia id="3595"  >
            <AMFile id="3596" start="1221" duration="416" scalar="1/1" mediaStart="1401/1" mediaDuration="416/1" trackNumber="1" src="11" channelNumber="0,1" >
             <Parameters>
              <InterpolatingParam id="3597" interp="linr"  time="0/1" value="1" leadInLength="0/1"  name="volume"/>
              <Parameter id="3598"  name="captions"/>
             </Parameters>
             <Attributes>
              <Attribute id="3599" value="" name="ident"/>
              <Attribute id="3600" value="44100" name="sampleRate"/>
              <Attribute id="3601" value="16" name="bitDepth"/>
              <Attribute id="3602" value="1" name="gain"/>
              <Attribute id="3603" value="0" name="mixToMono"/>
             </Attributes>
            </AMFile>
            <ScreenVMFile id="3604" start="1221" duration="416" scalar="1/1" mediaStart="1401/1" mediaDuration="416/1" trackNumber="0" src="11" >
             <Transformer>
              <VectorParam id="3605"  name="translation">
               <InterpolatingParam id="3606" interp="linr"  time="-9999999/1" value="0" leadInLength="0/1"  />
               <InterpolatingParam id="3607" interp="linr"  time="-9999999/1" value="0" leadInLength="0/1"  />
               <InterpolatingParam id="3608" interp="linr"  time="-9999999/1" value="0" leadInLength="0/1"  />
              </VectorParam>
              <VectorParam id="3609"  name="rotation">
               <InterpolatingParam id="3610" interp="linr"  time="-9999999/1" value="0" leadInLength="0/1"  />
               <InterpolatingParam id="3611" interp="linr"  time="-9999999/1" value="0" leadInLength="0/1"  />
               <InterpolatingParam id="3612" interp="linr"  time="-9999999/1" value="0" leadInLength="0/1"  />
              </VectorParam>
              <VectorParam id="3613"  name="shear">
               <InterpolatingParam id="3614" interp="linr"  time="-9999999/1" value="0" leadInLength="0/1"  />
               <InterpolatingParam id="3615" interp="linr"  time="-9999999/1" value="0" leadInLength="0/1"  />
               <InterpolatingParam id="3616" interp="linr"  time="-9999999/1" value="0" leadInLength="0/1"  />
              </VectorParam>
              <VectorParam id="3617"  name="scale">
               <InterpolatingParam id="3618" interp="linr"  time="-9999999/1" value="1" leadInLength="0/1"  />
               <InterpolatingParam id="3619" interp="linr"  time="-9999999/1" value="1" leadInLength="0/1"  />
               <InterpolatingParam id="3620" interp="linr"  time="-9999999/1" value="1" leadInLength="0/1"  />
              </VectorParam>
              <VectorParam id="3621"  name="anchor">
               <InterpolatingParam id="3622" interp="linr"  time="0/1" value="0" leadInLength="0/1"  />
               <InterpolatingParam id="3623" interp="linr"  time="0/1" value="0" leadInLength="0/1"  />
               <InterpolatingParam id="3624" interp="linr"  time="0/1" value="0" leadInLength="0/1"  />
              </VectorParam>
             </Transformer>
             <Parameters>
              <VectorParam id="3625"  name="sourceCrop">
               <InterpolatingParam id="3626" interp="linr"  time="0/1" value="0" leadInLength="0/1"  />
               <InterpolatingParam id="3627" interp="linr"  time="0/1" value="0" leadInLength="0/1"  />
               <InterpolatingParam id="3628" interp="linr"  time="0/1" value="0" leadInLength="0/1"  />
               <InterpolatingParam id="3629" interp="linr"  time="0/1" value="0" leadInLength="0/1"  />
              </VectorParam>
              <VectorParam id="3630"  name="geometryCrop">
               <InterpolatingParam id="3631" interp="linr"  time="-9999999/1" value="0" leadInLength="0/1"  />
               <InterpolatingParam id="3632" interp="linr"  time="-9999999/1" value="0" leadInLength="0/1"  />
               <InterpolatingParam id="3633" interp="linr"  time="-9999999/1" value="0" leadInLength="0/1"  />
               <InterpolatingParam id="3634" interp="linr"  time="-9999999/1" value="0" leadInLength="0/1"  />
              </VectorParam>
              <InterpolatingParam id="3635" interp="linr"  time="-9999999/1" value="1" leadInLength="0/1"  name="opacity"/>
              <InterpolatingParam id="3636" interp="linr"  time="0/1" value="0" leadInLength="0/1"  name="cursorOpacity"/>
              <InterpolatingParam id="3637" interp="linr"  time="0/1" value="0" leadInLength="0/1"  name="cursorScale"/>
             </Parameters>
             <Attributes>
              <Attribute id="3638" value="" name="ident"/>
             </Attributes>
             <ExtraData>
              <Entry key="ZoomPanBin">
               <ZoomPanBin id="3639"  >
                <ZoomPanKeyframes>
                 <ZoomPanKeyframe id="3640" timeRangeEnd="-9999999/1" timeRangeDuration="0/1" interpolaterName="linr"  />
                </ZoomPanKeyframes>
               </ZoomPanBin>
              </Entry>
              <Entry key="CursorEffectBin">
               <CursorEffectBin id="3641"  >
                <CursorEffectKeyframes>
                </CursorEffectKeyframes>
               </CursorEffectBin>
              </Entry>
             </ExtraData>
            </ScreenVMFile>
            <MetaData>
             <entry key="AutoAppliedSmartFocus" val="False"/>
             <entry key="WinSubProjectDisplayName" val=""/>
            </MetaData>
           </UnifiedMedia>
           <UnifiedMedia id="3642"  >
            <AMFile id="3643" start="1637" duration="117" scalar="1/1" mediaStart="1848/1" mediaDuration="117/1" trackNumber="1" src="11" channelNumber="0,1" >
             <Parameters>
              <InterpolatingParam id="3644" interp="linr"  time="0/1" value="1" leadInLength="0/1"  name="volume"/>
              <Parameter id="3645"  name="captions"/>
             </Parameters>
             <Attributes>
              <Attribute id="3646" value="" name="ident"/>
              <Attribute id="3647" value="44100" name="sampleRate"/>
              <Attribute id="3648" value="16" name="bitDepth"/>
              <Attribute id="3649" value="1" name="gain"/>
              <Attribute id="3650" value="0" name="mixToMono"/>
             </Attributes>
            </AMFile>
            <ScreenVMFile id="3651" start="1637" duration="117" scalar="1/1" mediaStart="1848/1" mediaDuration="117/1" trackNumber="0" src="11" >
             <Transformer>
              <VectorParam id="3652"  name="translation">
               <InterpolatingParam id="3653" interp="linr"  time="-9999999/1" value="0" leadInLength="0/1"  />
               <InterpolatingParam id="3654" interp="linr"  time="-9999999/1" value="0" leadInLength="0/1"  />
               <InterpolatingParam id="3655" interp="linr"  time="-9999999/1" value="0" leadInLength="0/1"  />
              </VectorParam>
              <VectorParam id="3656"  name="rotation">
               <InterpolatingParam id="3657" interp="linr"  time="-9999999/1" value="0" leadInLength="0/1"  />
               <InterpolatingParam id="3658" interp="linr"  time="-9999999/1" value="0" leadInLength="0/1"  />
               <InterpolatingParam id="3659" interp="linr"  time="-9999999/1" value="0" leadInLength="0/1"  />
              </VectorParam>
              <VectorParam id="3660"  name="shear">
               <InterpolatingParam id="3661" interp="linr"  time="-9999999/1" value="0" leadInLength="0/1"  />
               <InterpolatingParam id="3662" interp="linr"  time="-9999999/1" value="0" leadInLength="0/1"  />
               <InterpolatingParam id="3663" interp="linr"  time="-9999999/1" value="0" leadInLength="0/1"  />
              </VectorParam>
              <VectorParam id="3664"  name="scale">
               <InterpolatingParam id="3665" interp="linr"  time="-9999999/1" value="1" leadInLength="0/1"  />
               <InterpolatingParam id="3666" interp="linr"  time="-9999999/1" value="1" leadInLength="0/1"  />
               <InterpolatingParam id="3667" interp="linr"  time="-9999999/1" value="1" leadInLength="0/1"  />
              </VectorParam>
              <VectorParam id="3668"  name="anchor">
               <InterpolatingParam id="3669" interp="linr"  time="0/1" value="0" leadInLength="0/1"  />
               <InterpolatingParam id="3670" interp="linr"  time="0/1" value="0" leadInLength="0/1"  />
               <InterpolatingParam id="3671" interp="linr"  time="0/1" value="0" leadInLength="0/1"  />
              </VectorParam>
             </Transformer>
             <Parameters>
              <VectorParam id="3672"  name="sourceCrop">
               <InterpolatingParam id="3673" interp="linr"  time="0/1" value="0" leadInLength="0/1"  />
               <InterpolatingParam id="3674" interp="linr"  time="0/1" value="0" leadInLength="0/1"  />
               <InterpolatingParam id="3675" interp="linr"  time="0/1" value="0" leadInLength="0/1"  />
               <InterpolatingParam id="3676" interp="linr"  time="0/1" value="0" leadInLength="0/1"  />
              </VectorParam>
              <VectorParam id="3677"  name="geometryCrop">
               <InterpolatingParam id="3678" interp="linr"  time="-9999999/1" value="0" leadInLength="0/1"  />
               <InterpolatingParam id="3679" interp="linr"  time="-9999999/1" value="0" leadInLength="0/1"  />
               <InterpolatingParam id="3680" interp="linr"  time="-9999999/1" value="0" leadInLength="0/1"  />
               <InterpolatingParam id="3681" interp="linr"  time="-9999999/1" value="0" leadInLength="0/1"  />
              </VectorParam>
              <InterpolatingParam id="3682" interp="linr"  time="-9999999/1" value="1" leadInLength="0/1"  name="opacity"/>
              <InterpolatingParam id="3683" interp="linr"  time="0/1" value="0" leadInLength="0/1"  name="cursorOpacity"/>
              <InterpolatingParam id="3684" interp="linr"  time="0/1" value="0" leadInLength="0/1"  name="cursorScale"/>
             </Parameters>
             <Attributes>
              <Attribute id="3685" value="" name="ident"/>
             </Attributes>
             <ExtraData>
              <Entry key="ZoomPanBin">
               <ZoomPanBin id="3686"  >
                <ZoomPanKeyframes>
                 <ZoomPanKeyframe id="3687" timeRangeEnd="-9999999/1" timeRangeDuration="0/1" interpolaterName="linr"  />
                </ZoomPanKeyframes>
               </ZoomPanBin>
              </Entry>
              <Entry key="CursorEffectBin">
               <CursorEffectBin id="3688"  >
                <CursorEffectKeyframes>
                </CursorEffectKeyframes>
               </CursorEffectBin>
              </Entry>
             </ExtraData>
            </ScreenVMFile>
            <MetaData>
             <entry key="AutoAppliedSmartFocus" val="False"/>
             <entry key="WinSubProjectDisplayName" val=""/>
            </MetaData>
           </UnifiedMedia>
          </Medias>
         </GenericTrack>
        </StitchedMedia>
        <StitchedMedia id="3689" start="14437" duration="1502" scalar="1/1" mediaStart="42/1" mediaDuration="1502/1" minMediaStart="0/1" >
         <Transformer>
          <VectorParam id="3690"  name="translation">
           <InterpolatingParam id="3691" interp="linr"  time="-9999999/1" value="0" leadInLength="0/1"  />
           <InterpolatingParam id="3692" interp="linr"  time="-9999999/1" value="0" leadInLength="0/1"  />
           <InterpolatingParam id="3693" interp="linr"  time="-9999999/1" value="0" leadInLength="0/1"  />
          </VectorParam>
          <VectorParam id="3694"  name="rotation">
           <InterpolatingParam id="3695" interp="linr"  time="-9999999/1" value="0" leadInLength="0/1"  />
           <InterpolatingParam id="3696" interp="linr"  time="-9999999/1" value="0" leadInLength="0/1"  />
           <InterpolatingParam id="3697" interp="linr"  time="-9999999/1" value="0" leadInLength="0/1"  />
          </VectorParam>
          <VectorParam id="3698"  name="shear">
           <InterpolatingParam id="3699" interp="linr"  time="-9999999/1" value="0" leadInLength="0/1"  />
           <InterpolatingParam id="3700" interp="linr"  time="-9999999/1" value="0" leadInLength="0/1"  />
           <InterpolatingParam id="3701" interp="linr"  time="-9999999/1" value="0" leadInLength="0/1"  />
          </VectorParam>
          <VectorParam id="3702"  name="scale">
           <InterpolatingParam id="3703" interp="linr"  time="-9999999/1" value="0.66666666666666663" leadInLength="0/1"  />
           <InterpolatingParam id="3704" interp="linr"  time="-9999999/1" value="0.66666666666666663" leadInLength="0/1"  />
           <InterpolatingParam id="3705" interp="linr"  time="-9999999/1" value="1" leadInLength="0/1"  />
          </VectorParam>
          <VectorParam id="3706"  name="anchor">
           <InterpolatingParam id="3707" interp="linr"  time="0/1" value="0" leadInLength="0/1"  />
           <InterpolatingParam id="3708" interp="linr"  time="0/1" value="0" leadInLength="0/1"  />
           <InterpolatingParam id="3709" interp="linr"  time="0/1" value="0" leadInLength="0/1"  />
          </VectorParam>
         </Transformer>
         <Parameters>
          <VectorParam id="3710"  name="sourceCrop">
           <InterpolatingParam id="3711" interp="linr"  time="0/1" value="0" leadInLength="0/1"  />
           <InterpolatingParam id="3712" interp="linr"  time="0/1" value="0" leadInLength="0/1"  />
           <InterpolatingParam id="3713" interp="linr"  time="0/1" value="0" leadInLength="0/1"  />
           <InterpolatingParam id="3714" interp="linr"  time="0/1" value="0" leadInLength="0/1"  />
          </VectorParam>
          <VectorParam id="3715"  name="geometryCrop">
           <InterpolatingParam id="3716" interp="linr"  time="-9999999/1" value="0" leadInLength="0/1"  />
           <InterpolatingParam id="3717" interp="linr"  time="-9999999/1" value="0" leadInLength="0/1"  />
           <InterpolatingParam id="3718" interp="linr"  time="-9999999/1" value="0" leadInLength="0/1"  />
           <InterpolatingParam id="3719" interp="linr"  time="-9999999/1" value="0" leadInLength="0/1"  />
          </VectorParam>
          <InterpolatingParam id="3720" interp="linr"  time="-9999999/1" value="1" leadInLength="0/1"  name="opacity"/>
          <InterpolatingParam id="3721" interp="linr"  time="0/1" value="1" leadInLength="0/1"  name="cursorOpacity"/>
          <InterpolatingParam id="3722" interp="linr"  time="0/1" value="1" leadInLength="0/1"  name="cursorScale"/>
          <InterpolatingParam id="3723" interp="linr"  time="0/1" value="1" leadInLength="0/1"  name="volume"/>
          <Parameter id="3724"  name="captions"/>
         </Parameters>
         <Effects>
          <GenericEffect id="3725" name = "CursorBaseEffectName" >
           <Parameters>
           <InterpolatingParam id="3726" interp="linr"  time="-9999999/1" value="1" leadInLength="0/1"   name="cursorSize"/>
           <InterpolatingParam id="3727" interp="linr"  time="-9999999/1" value="0" leadInLength="0/1"   name="highlightBlurRadius"/>
           <InterpolatingParam id="3728" interp="linr"  time="-9999999/1" value="0" leadInLength="0/1"   name="highlightColorBlue"/>
           <InterpolatingParam id="3729" interp="linr"  time="-9999999/1" value="255" leadInLength="0/1"   name="highlightColorGreen"/>
           <InterpolatingParam id="3730" interp="linr"  time="-9999999/1" value="255" leadInLength="0/1"   name="highlightColorRed"/>
           <InterpolatingParam id="3731" interp="linr"  time="-9999999/1" value="5" leadInLength="0/1"   name="highlightFeatherSize"/>
           <InterpolatingParam id="3732" interp="linr"  time="-9999999/1" value="2" leadInLength="0/1"   name="highlightMagnification"/>
           <InterpolatingParam id="3733" interp="linr"  time="-9999999/1" value="1" leadInLength="0/1"   name="highlightOpacity"/>
           <InterpolatingParam id="3734" interp="linr"  time="-9999999/1" value="45" leadInLength="0/1"   name="highlightSize"/>
           <Parameter id="3735"   name="highlightType">
            <Keyframes>
            <Keyframe id="3736"  time="-9999999/1" value="0" leadInLength="0/1"  />
            </Keyframes>
           </Parameter>
           <InterpolatingParam id="3737" interp="linr"  time="-9999999/1" value="0" leadInLength="0/1"   name="leftClickColorBlue"/>
           <InterpolatingParam id="3738" interp="linr"  time="-9999999/1" value="0" leadInLength="0/1"   name="leftClickColorGreen"/>
           <InterpolatingParam id="3739" interp="linr"  time="-9999999/1" value="255" leadInLength="0/1"   name="leftClickColorRed"/>
           <InterpolatingParam id="3740" interp="linr"  time="-9999999/1" value="0.80000000000000004" leadInLength="0/1"   name="leftClickDuration"/>
           <InterpolatingParam id="3741" interp="linr"  time="-9999999/1" value="20" leadInLength="0/1"   name="leftClickSize"/>
           <Parameter id="3742"   name="leftClickSoundFilename">
            <Keyframes>
            <Keyframe id="3743"  time="-9999999/1" value="" leadInLength="0/1"  />
            </Keyframes>
           </Parameter>
           <InterpolatingParam id="3744" interp="linr"  time="-9999999/1" value="1" leadInLength="0/1"   name="leftClickSoundVolume"/>
           <Parameter id="3745"   name="leftClickType">
            <Keyframes>
            <Keyframe id="3746"  time="-9999999/1" value="0" leadInLength="0/1"  />
            </Keyframes>
           </Parameter>
           <InterpolatingParam id="3747" interp="linr"  time="-9999999/1" value="1" leadInLength="0/1"   name="opacity"/>
           <InterpolatingParam id="3748" interp="linr"  time="-9999999/1" value="255" leadInLength="0/1"   name="rightClickColorBlue"/>
           <InterpolatingParam id="3749" interp="linr"  time="-9999999/1" value="0" leadInLength="0/1"   name="rightClickColorGreen"/>
           <InterpolatingParam id="3750" interp="linr"  time="-9999999/1" value="0" leadInLength="0/1"   name="rightClickColorRed"/>
           <InterpolatingParam id="3751" interp="linr"  time="-9999999/1" value="0.80000000000000004" leadInLength="0/1"   name="rightClickDuration"/>
           <InterpolatingParam id="3752" interp="linr"  time="-9999999/1" value="20" leadInLength="0/1"   name="rightClickSize"/>
           <Parameter id="3753"   name="rightClickSoundFilename">
            <Keyframes>
            <Keyframe id="3754"  time="-9999999/1" value="" leadInLength="0/1"  />
            </Keyframes>
           </Parameter>
           <InterpolatingParam id="3755" interp="linr"  time="-9999999/1" value="1" leadInLength="0/1"   name="rightClickSoundVolume"/>
           <Parameter id="3756"   name="rightClickType">
            <Keyframes>
            <Keyframe id="3757"  time="-9999999/1" value="0" leadInLength="0/1"  />
            </Keyframes>
           </Parameter>
           </Parameters>
           <MetaData>
            <entry key="effectIndex" val="0"/>
           </MetaData>
          </GenericEffect>
         </Effects>
         <Attributes>
          <Attribute id="3758" value="" name="ident"/>
          <Attribute id="3759" value="0" name="mixToMono"/>
         </Attributes>
         <MetaData>
          <entry key="AutoAppliedSmartFocus" val="False"/>
          <entry key="WinSubProjectDisplayName" val=""/>
         </MetaData>
         <ExtraData>
          <Entry key="ZoomPanBin">
           <ZoomPanBin id="3760"  >
            <ZoomPanKeyframes>
             <ZoomPanKeyframe id="3761" timeRangeEnd="-9999999/1" timeRangeDuration="0/1" interpolaterName="linr"  />
            </ZoomPanKeyframes>
           </ZoomPanBin>
          </Entry>
          <Entry key="CursorEffectBin">
           <CursorEffectBin id="3762"  >
            <CursorEffectKeyframes>
             <CursorEffectKeyframe id="3763" timeRangeEnd="-9999999/1" timeRangeDuration="0/1" interpolaterName=""  />
            </CursorEffectKeyframes>
           </CursorEffectBin>
          </Entry>
         </ExtraData>
         <GenericTrack id="3764"  >
          <Attributes>
           <Attribute id="3765" value="" name="ident"/>
           <Attribute id="3766" value="0" name="audioMuted"/>
           <Attribute id="3767" value="0" name="videoHidden"/>
          </Attributes>
          <MetaData>
           <entry key="IsLocked" val="False"/>
           <entry key="WinTrackHeight" val="0"/>
          </MetaData>
          <Medias>
           <UnifiedMedia id="3768"  >
            <AMFile id="3769" start="0" duration="331" scalar="1/1" mediaStart="0/1" mediaDuration="331/1" trackNumber="1" src="12" channelNumber="0,1" >
             <Parameters>
              <InterpolatingParam id="3770" interp="linr"  time="0/1" value="1" leadInLength="0/1"  name="volume"/>
              <Parameter id="3771"  name="captions"/>
             </Parameters>
             <Attributes>
              <Attribute id="3772" value="" name="ident"/>
              <Attribute id="3773" value="44100" name="sampleRate"/>
              <Attribute id="3774" value="16" name="bitDepth"/>
              <Attribute id="3775" value="1" name="gain"/>
              <Attribute id="3776" value="0" name="mixToMono"/>
             </Attributes>
            </AMFile>
            <ScreenVMFile id="3777" start="0" duration="331" scalar="1/1" mediaStart="0/1" mediaDuration="331/1" trackNumber="0" src="12" >
             <Transformer>
              <VectorParam id="3778"  name="translation">
               <InterpolatingParam id="3779" interp="linr"  time="-9999999/1" value="0" leadInLength="0/1"  />
               <InterpolatingParam id="3780" interp="linr"  time="-9999999/1" value="0" leadInLength="0/1"  />
               <InterpolatingParam id="3781" interp="linr"  time="-9999999/1" value="0" leadInLength="0/1"  />
              </VectorParam>
              <VectorParam id="3782"  name="rotation">
               <InterpolatingParam id="3783" interp="linr"  time="-9999999/1" value="0" leadInLength="0/1"  />
               <InterpolatingParam id="3784" interp="linr"  time="-9999999/1" value="0" leadInLength="0/1"  />
               <InterpolatingParam id="3785" interp="linr"  time="-9999999/1" value="0" leadInLength="0/1"  />
              </VectorParam>
              <VectorParam id="3786"  name="shear">
               <InterpolatingParam id="3787" interp="linr"  time="-9999999/1" value="0" leadInLength="0/1"  />
               <InterpolatingParam id="3788" interp="linr"  time="-9999999/1" value="0" leadInLength="0/1"  />
               <InterpolatingParam id="3789" interp="linr"  time="-9999999/1" value="0" leadInLength="0/1"  />
              </VectorParam>
              <VectorParam id="3790"  name="scale">
               <InterpolatingParam id="3791" interp="linr"  time="-9999999/1" value="1" leadInLength="0/1"  />
               <InterpolatingParam id="3792" interp="linr"  time="-9999999/1" value="1" leadInLength="0/1"  />
               <InterpolatingParam id="3793" interp="linr"  time="-9999999/1" value="1" leadInLength="0/1"  />
              </VectorParam>
              <VectorParam id="3794"  name="anchor">
               <InterpolatingParam id="3795" interp="linr"  time="0/1" value="0" leadInLength="0/1"  />
               <InterpolatingParam id="3796" interp="linr"  time="0/1" value="0" leadInLength="0/1"  />
               <InterpolatingParam id="3797" interp="linr"  time="0/1" value="0" leadInLength="0/1"  />
              </VectorParam>
             </Transformer>
             <Parameters>
              <VectorParam id="3798"  name="sourceCrop">
               <InterpolatingParam id="3799" interp="linr"  time="0/1" value="0" leadInLength="0/1"  />
               <InterpolatingParam id="3800" interp="linr"  time="0/1" value="0" leadInLength="0/1"  />
               <InterpolatingParam id="3801" interp="linr"  time="0/1" value="0" leadInLength="0/1"  />
               <InterpolatingParam id="3802" interp="linr"  time="0/1" value="0" leadInLength="0/1"  />
              </VectorParam>
              <VectorParam id="3803"  name="geometryCrop">
               <InterpolatingParam id="3804" interp="linr"  time="-9999999/1" value="0" leadInLength="0/1"  />
               <InterpolatingParam id="3805" interp="linr"  time="-9999999/1" value="0" leadInLength="0/1"  />
               <InterpolatingParam id="3806" interp="linr"  time="-9999999/1" value="0" leadInLength="0/1"  />
               <InterpolatingParam id="3807" interp="linr"  time="-9999999/1" value="0" leadInLength="0/1"  />
              </VectorParam>
              <InterpolatingParam id="3808" interp="linr"  time="-9999999/1" value="1" leadInLength="0/1"  name="opacity"/>
              <InterpolatingParam id="3809" interp="linr"  time="0/1" value="0" leadInLength="0/1"  name="cursorOpacity"/>
              <InterpolatingParam id="3810" interp="linr"  time="0/1" value="0" leadInLength="0/1"  name="cursorScale"/>
             </Parameters>
             <Attributes>
              <Attribute id="3811" value="" name="ident"/>
             </Attributes>
             <ExtraData>
              <Entry key="ZoomPanBin">
               <ZoomPanBin id="3812"  >
                <ZoomPanKeyframes>
                 <ZoomPanKeyframe id="3813" timeRangeEnd="-9999999/1" timeRangeDuration="0/1" interpolaterName="linr"  />
                </ZoomPanKeyframes>
               </ZoomPanBin>
              </Entry>
              <Entry key="CursorEffectBin">
               <CursorEffectBin id="3814"  >
                <CursorEffectKeyframes>
                </CursorEffectKeyframes>
               </CursorEffectBin>
              </Entry>
             </ExtraData>
            </ScreenVMFile>
            <MetaData>
             <entry key="AutoAppliedSmartFocus" val="False"/>
             <entry key="WinSubProjectDisplayName" val=""/>
            </MetaData>
           </UnifiedMedia>
           <UnifiedMedia id="3815"  >
            <AMFile id="3816" start="331" duration="412" scalar="1/1" mediaStart="345/1" mediaDuration="412/1" trackNumber="1" src="12" channelNumber="0,1" >
             <Parameters>
              <InterpolatingParam id="3817" interp="linr"  time="0/1" value="1" leadInLength="0/1"  name="volume"/>
              <Parameter id="3818"  name="captions"/>
             </Parameters>
             <Attributes>
              <Attribute id="3819" value="" name="ident"/>
              <Attribute id="3820" value="44100" name="sampleRate"/>
              <Attribute id="3821" value="16" name="bitDepth"/>
              <Attribute id="3822" value="1" name="gain"/>
              <Attribute id="3823" value="0" name="mixToMono"/>
             </Attributes>
            </AMFile>
            <ScreenVMFile id="3824" start="331" duration="412" scalar="1/1" mediaStart="345/1" mediaDuration="412/1" trackNumber="0" src="12" >
             <Transformer>
              <VectorParam id="3825"  name="translation">
               <InterpolatingParam id="3826" interp="linr"  time="-9999999/1" value="0" leadInLength="0/1"  />
               <InterpolatingParam id="3827" interp="linr"  time="-9999999/1" value="0" leadInLength="0/1"  />
               <InterpolatingParam id="3828" interp="linr"  time="-9999999/1" value="0" leadInLength="0/1"  />
              </VectorParam>
              <VectorParam id="3829"  name="rotation">
               <InterpolatingParam id="3830" interp="linr"  time="-9999999/1" value="0" leadInLength="0/1"  />
               <InterpolatingParam id="3831" interp="linr"  time="-9999999/1" value="0" leadInLength="0/1"  />
               <InterpolatingParam id="3832" interp="linr"  time="-9999999/1" value="0" leadInLength="0/1"  />
              </VectorParam>
              <VectorParam id="3833"  name="shear">
               <InterpolatingParam id="3834" interp="linr"  time="-9999999/1" value="0" leadInLength="0/1"  />
               <InterpolatingParam id="3835" interp="linr"  time="-9999999/1" value="0" leadInLength="0/1"  />
               <InterpolatingParam id="3836" interp="linr"  time="-9999999/1" value="0" leadInLength="0/1"  />
              </VectorParam>
              <VectorParam id="3837"  name="scale">
               <InterpolatingParam id="3838" interp="linr"  time="-9999999/1" value="1" leadInLength="0/1"  />
               <InterpolatingParam id="3839" interp="linr"  time="-9999999/1" value="1" leadInLength="0/1"  />
               <InterpolatingParam id="3840" interp="linr"  time="-9999999/1" value="1" leadInLength="0/1"  />
              </VectorParam>
              <VectorParam id="3841"  name="anchor">
               <InterpolatingParam id="3842" interp="linr"  time="0/1" value="0" leadInLength="0/1"  />
               <InterpolatingParam id="3843" interp="linr"  time="0/1" value="0" leadInLength="0/1"  />
               <InterpolatingParam id="3844" interp="linr"  time="0/1" value="0" leadInLength="0/1"  />
              </VectorParam>
             </Transformer>
             <Parameters>
              <VectorParam id="3845"  name="sourceCrop">
               <InterpolatingParam id="3846" interp="linr"  time="0/1" value="0" leadInLength="0/1"  />
               <InterpolatingParam id="3847" interp="linr"  time="0/1" value="0" leadInLength="0/1"  />
               <InterpolatingParam id="3848" interp="linr"  time="0/1" value="0" leadInLength="0/1"  />
               <InterpolatingParam id="3849" interp="linr"  time="0/1" value="0" leadInLength="0/1"  />
              </VectorParam>
              <VectorParam id="3850"  name="geometryCrop">
               <InterpolatingParam id="3851" interp="linr"  time="-9999999/1" value="0" leadInLength="0/1"  />
               <InterpolatingParam id="3852" interp="linr"  time="-9999999/1" value="0" leadInLength="0/1"  />
               <InterpolatingParam id="3853" interp="linr"  time="-9999999/1" value="0" leadInLength="0/1"  />
               <InterpolatingParam id="3854" interp="linr"  time="-9999999/1" value="0" leadInLength="0/1"  />
              </VectorParam>
              <InterpolatingParam id="3855" interp="linr"  time="-9999999/1" value="1" leadInLength="0/1"  name="opacity"/>
              <InterpolatingParam id="3856" interp="linr"  time="0/1" value="0" leadInLength="0/1"  name="cursorOpacity"/>
              <InterpolatingParam id="3857" interp="linr"  time="0/1" value="0" leadInLength="0/1"  name="cursorScale"/>
             </Parameters>
             <Attributes>
              <Attribute id="3858" value="" name="ident"/>
             </Attributes>
             <ExtraData>
              <Entry key="ZoomPanBin">
               <ZoomPanBin id="3859"  >
                <ZoomPanKeyframes>
                 <ZoomPanKeyframe id="3860" timeRangeEnd="-9999999/1" timeRangeDuration="0/1" interpolaterName="linr"  />
                </ZoomPanKeyframes>
               </ZoomPanBin>
              </Entry>
              <Entry key="CursorEffectBin">
               <CursorEffectBin id="3861"  >
                <CursorEffectKeyframes>
                </CursorEffectKeyframes>
               </CursorEffectBin>
              </Entry>
             </ExtraData>
            </ScreenVMFile>
            <MetaData>
             <entry key="AutoAppliedSmartFocus" val="False"/>
             <entry key="WinSubProjectDisplayName" val=""/>
            </MetaData>
           </UnifiedMedia>
           <UnifiedMedia id="3862"  >
            <AMFile id="3863" start="743" duration="281" scalar="1/1" mediaStart="781/1" mediaDuration="281/1" trackNumber="1" src="12" channelNumber="0,1" >
             <Parameters>
              <InterpolatingParam id="3864" interp="linr"  time="0/1" value="1" leadInLength="0/1"  name="volume"/>
              <Parameter id="3865"  name="captions"/>
             </Parameters>
             <Attributes>
              <Attribute id="3866" value="" name="ident"/>
              <Attribute id="3867" value="44100" name="sampleRate"/>
              <Attribute id="3868" value="16" name="bitDepth"/>
              <Attribute id="3869" value="1" name="gain"/>
              <Attribute id="3870" value="0" name="mixToMono"/>
             </Attributes>
            </AMFile>
            <ScreenVMFile id="3871" start="743" duration="281" scalar="1/1" mediaStart="781/1" mediaDuration="281/1" trackNumber="0" src="12" >
             <Transformer>
              <VectorParam id="3872"  name="translation">
               <InterpolatingParam id="3873" interp="linr"  time="-9999999/1" value="0" leadInLength="0/1"  />
               <InterpolatingParam id="3874" interp="linr"  time="-9999999/1" value="0" leadInLength="0/1"  />
               <InterpolatingParam id="3875" interp="linr"  time="-9999999/1" value="0" leadInLength="0/1"  />
              </VectorParam>
              <VectorParam id="3876"  name="rotation">
               <InterpolatingParam id="3877" interp="linr"  time="-9999999/1" value="0" leadInLength="0/1"  />
               <InterpolatingParam id="3878" interp="linr"  time="-9999999/1" value="0" leadInLength="0/1"  />
               <InterpolatingParam id="3879" interp="linr"  time="-9999999/1" value="0" leadInLength="0/1"  />
              </VectorParam>
              <VectorParam id="3880"  name="shear">
               <InterpolatingParam id="3881" interp="linr"  time="-9999999/1" value="0" leadInLength="0/1"  />
               <InterpolatingParam id="3882" interp="linr"  time="-9999999/1" value="0" leadInLength="0/1"  />
               <InterpolatingParam id="3883" interp="linr"  time="-9999999/1" value="0" leadInLength="0/1"  />
              </VectorParam>
              <VectorParam id="3884"  name="scale">
               <InterpolatingParam id="3885" interp="linr"  time="-9999999/1" value="1" leadInLength="0/1"  />
               <InterpolatingParam id="3886" interp="linr"  time="-9999999/1" value="1" leadInLength="0/1"  />
               <InterpolatingParam id="3887" interp="linr"  time="-9999999/1" value="1" leadInLength="0/1"  />
              </VectorParam>
              <VectorParam id="3888"  name="anchor">
               <InterpolatingParam id="3889" interp="linr"  time="0/1" value="0" leadInLength="0/1"  />
               <InterpolatingParam id="3890" interp="linr"  time="0/1" value="0" leadInLength="0/1"  />
               <InterpolatingParam id="3891" interp="linr"  time="0/1" value="0" leadInLength="0/1"  />
              </VectorParam>
             </Transformer>
             <Parameters>
              <VectorParam id="3892"  name="sourceCrop">
               <InterpolatingParam id="3893" interp="linr"  time="0/1" value="0" leadInLength="0/1"  />
               <InterpolatingParam id="3894" interp="linr"  time="0/1" value="0" leadInLength="0/1"  />
               <InterpolatingParam id="3895" interp="linr"  time="0/1" value="0" leadInLength="0/1"  />
               <InterpolatingParam id="3896" interp="linr"  time="0/1" value="0" leadInLength="0/1"  />
              </VectorParam>
              <VectorParam id="3897"  name="geometryCrop">
               <InterpolatingParam id="3898" interp="linr"  time="-9999999/1" value="0" leadInLength="0/1"  />
               <InterpolatingParam id="3899" interp="linr"  time="-9999999/1" value="0" leadInLength="0/1"  />
               <InterpolatingParam id="3900" interp="linr"  time="-9999999/1" value="0" leadInLength="0/1"  />
               <InterpolatingParam id="3901" interp="linr"  time="-9999999/1" value="0" leadInLength="0/1"  />
              </VectorParam>
              <InterpolatingParam id="3902" interp="linr"  time="-9999999/1" value="1" leadInLength="0/1"  name="opacity"/>
              <InterpolatingParam id="3903" interp="linr"  time="0/1" value="0" leadInLength="0/1"  name="cursorOpacity"/>
              <InterpolatingParam id="3904" interp="linr"  time="0/1" value="0" leadInLength="0/1"  name="cursorScale"/>
             </Parameters>
             <Attributes>
              <Attribute id="3905" value="" name="ident"/>
             </Attributes>
             <ExtraData>
              <Entry key="ZoomPanBin">
               <ZoomPanBin id="3906"  >
                <ZoomPanKeyframes>
                 <ZoomPanKeyframe id="3907" timeRangeEnd="-9999999/1" timeRangeDuration="0/1" interpolaterName="linr"  />
                </ZoomPanKeyframes>
               </ZoomPanBin>
              </Entry>
              <Entry key="CursorEffectBin">
               <CursorEffectBin id="3908"  >
                <CursorEffectKeyframes>
                </CursorEffectKeyframes>
               </CursorEffectBin>
              </Entry>
             </ExtraData>
            </ScreenVMFile>
            <MetaData>
             <entry key="AutoAppliedSmartFocus" val="False"/>
             <entry key="WinSubProjectDisplayName" val=""/>
            </MetaData>
           </UnifiedMedia>
           <UnifiedMedia id="3909"  >
            <AMFile id="3910" start="1024" duration="274" scalar="1/1" mediaStart="1082/1" mediaDuration="274/1" trackNumber="1" src="12" channelNumber="0,1" >
             <Parameters>
              <InterpolatingParam id="3911" interp="linr"  time="0/1" value="1" leadInLength="0/1"  name="volume"/>
              <Parameter id="3912"  name="captions"/>
             </Parameters>
             <Attributes>
              <Attribute id="3913" value="" name="ident"/>
              <Attribute id="3914" value="44100" name="sampleRate"/>
              <Attribute id="3915" value="16" name="bitDepth"/>
              <Attribute id="3916" value="1" name="gain"/>
              <Attribute id="3917" value="0" name="mixToMono"/>
             </Attributes>
            </AMFile>
            <ScreenVMFile id="3918" start="1024" duration="274" scalar="1/1" mediaStart="1082/1" mediaDuration="274/1" trackNumber="0" src="12" >
             <Transformer>
              <VectorParam id="3919"  name="translation">
               <InterpolatingParam id="3920" interp="linr"  time="-9999999/1" value="0" leadInLength="0/1"  />
               <InterpolatingParam id="3921" interp="linr"  time="-9999999/1" value="0" leadInLength="0/1"  />
               <InterpolatingParam id="3922" interp="linr"  time="-9999999/1" value="0" leadInLength="0/1"  />
              </VectorParam>
              <VectorParam id="3923"  name="rotation">
               <InterpolatingParam id="3924" interp="linr"  time="-9999999/1" value="0" leadInLength="0/1"  />
               <InterpolatingParam id="3925" interp="linr"  time="-9999999/1" value="0" leadInLength="0/1"  />
               <InterpolatingParam id="3926" interp="linr"  time="-9999999/1" value="0" leadInLength="0/1"  />
              </VectorParam>
              <VectorParam id="3927"  name="shear">
               <InterpolatingParam id="3928" interp="linr"  time="-9999999/1" value="0" leadInLength="0/1"  />
               <InterpolatingParam id="3929" interp="linr"  time="-9999999/1" value="0" leadInLength="0/1"  />
               <InterpolatingParam id="3930" interp="linr"  time="-9999999/1" value="0" leadInLength="0/1"  />
              </VectorParam>
              <VectorParam id="3931"  name="scale">
               <InterpolatingParam id="3932" interp="linr"  time="-9999999/1" value="1" leadInLength="0/1"  />
               <InterpolatingParam id="3933" interp="linr"  time="-9999999/1" value="1" leadInLength="0/1"  />
               <InterpolatingParam id="3934" interp="linr"  time="-9999999/1" value="1" leadInLength="0/1"  />
              </VectorParam>
              <VectorParam id="3935"  name="anchor">
               <InterpolatingParam id="3936" interp="linr"  time="0/1" value="0" leadInLength="0/1"  />
               <InterpolatingParam id="3937" interp="linr"  time="0/1" value="0" leadInLength="0/1"  />
               <InterpolatingParam id="3938" interp="linr"  time="0/1" value="0" leadInLength="0/1"  />
              </VectorParam>
             </Transformer>
             <Parameters>
              <VectorParam id="3939"  name="sourceCrop">
               <InterpolatingParam id="3940" interp="linr"  time="0/1" value="0" leadInLength="0/1"  />
               <InterpolatingParam id="3941" interp="linr"  time="0/1" value="0" leadInLength="0/1"  />
               <InterpolatingParam id="3942" interp="linr"  time="0/1" value="0" leadInLength="0/1"  />
               <InterpolatingParam id="3943" interp="linr"  time="0/1" value="0" leadInLength="0/1"  />
              </VectorParam>
              <VectorParam id="3944"  name="geometryCrop">
               <InterpolatingParam id="3945" interp="linr"  time="-9999999/1" value="0" leadInLength="0/1"  />
               <InterpolatingParam id="3946" interp="linr"  time="-9999999/1" value="0" leadInLength="0/1"  />
               <InterpolatingParam id="3947" interp="linr"  time="-9999999/1" value="0" leadInLength="0/1"  />
               <InterpolatingParam id="3948" interp="linr"  time="-9999999/1" value="0" leadInLength="0/1"  />
              </VectorParam>
              <InterpolatingParam id="3949" interp="linr"  time="-9999999/1" value="1" leadInLength="0/1"  name="opacity"/>
              <InterpolatingParam id="3950" interp="linr"  time="0/1" value="0" leadInLength="0/1"  name="cursorOpacity"/>
              <InterpolatingParam id="3951" interp="linr"  time="0/1" value="0" leadInLength="0/1"  name="cursorScale"/>
             </Parameters>
             <Attributes>
              <Attribute id="3952" value="" name="ident"/>
             </Attributes>
             <ExtraData>
              <Entry key="ZoomPanBin">
               <ZoomPanBin id="3953"  >
                <ZoomPanKeyframes>
                 <ZoomPanKeyframe id="3954" timeRangeEnd="-9999999/1" timeRangeDuration="0/1" interpolaterName="linr"  />
                </ZoomPanKeyframes>
               </ZoomPanBin>
              </Entry>
              <Entry key="CursorEffectBin">
               <CursorEffectBin id="3955"  >
                <CursorEffectKeyframes>
                </CursorEffectKeyframes>
               </CursorEffectBin>
              </Entry>
             </ExtraData>
            </ScreenVMFile>
            <MetaData>
             <entry key="AutoAppliedSmartFocus" val="False"/>
             <entry key="WinSubProjectDisplayName" val=""/>
            </MetaData>
           </UnifiedMedia>
           <UnifiedMedia id="3956"  >
            <AMFile id="3957" start="1298" duration="264" scalar="1/1" mediaStart="1371/1" mediaDuration="264/1" trackNumber="1" src="12" channelNumber="0,1" >
             <Parameters>
              <InterpolatingParam id="3958" interp="linr"  time="0/1" value="1" leadInLength="0/1"  name="volume"/>
              <Parameter id="3959"  name="captions"/>
             </Parameters>
             <Attributes>
              <Attribute id="3960" value="" name="ident"/>
              <Attribute id="3961" value="44100" name="sampleRate"/>
              <Attribute id="3962" value="16" name="bitDepth"/>
              <Attribute id="3963" value="1" name="gain"/>
              <Attribute id="3964" value="0" name="mixToMono"/>
             </Attributes>
            </AMFile>
            <ScreenVMFile id="3965" start="1298" duration="264" scalar="1/1" mediaStart="1371/1" mediaDuration="264/1" trackNumber="0" src="12" >
             <Transformer>
              <VectorParam id="3966"  name="translation">
               <InterpolatingParam id="3967" interp="linr"  time="-9999999/1" value="0" leadInLength="0/1"  />
               <InterpolatingParam id="3968" interp="linr"  time="-9999999/1" value="0" leadInLength="0/1"  />
               <InterpolatingParam id="3969" interp="linr"  time="-9999999/1" value="0" leadInLength="0/1"  />
              </VectorParam>
              <VectorParam id="3970"  name="rotation">
               <InterpolatingParam id="3971" interp="linr"  time="-9999999/1" value="0" leadInLength="0/1"  />
               <InterpolatingParam id="3972" interp="linr"  time="-9999999/1" value="0" leadInLength="0/1"  />
               <InterpolatingParam id="3973" interp="linr"  time="-9999999/1" value="0" leadInLength="0/1"  />
              </VectorParam>
              <VectorParam id="3974"  name="shear">
               <InterpolatingParam id="3975" interp="linr"  time="-9999999/1" value="0" leadInLength="0/1"  />
               <InterpolatingParam id="3976" interp="linr"  time="-9999999/1" value="0" leadInLength="0/1"  />
               <InterpolatingParam id="3977" interp="linr"  time="-9999999/1" value="0" leadInLength="0/1"  />
              </VectorParam>
              <VectorParam id="3978"  name="scale">
               <InterpolatingParam id="3979" interp="linr"  time="-9999999/1" value="1" leadInLength="0/1"  />
               <InterpolatingParam id="3980" interp="linr"  time="-9999999/1" value="1" leadInLength="0/1"  />
               <InterpolatingParam id="3981" interp="linr"  time="-9999999/1" value="1" leadInLength="0/1"  />
              </VectorParam>
              <VectorParam id="3982"  name="anchor">
               <InterpolatingParam id="3983" interp="linr"  time="0/1" value="0" leadInLength="0/1"  />
               <InterpolatingParam id="3984" interp="linr"  time="0/1" value="0" leadInLength="0/1"  />
               <InterpolatingParam id="3985" interp="linr"  time="0/1" value="0" leadInLength="0/1"  />
              </VectorParam>
             </Transformer>
             <Parameters>
              <VectorParam id="3986"  name="sourceCrop">
               <InterpolatingParam id="3987" interp="linr"  time="0/1" value="0" leadInLength="0/1"  />
               <InterpolatingParam id="3988" interp="linr"  time="0/1" value="0" leadInLength="0/1"  />
               <InterpolatingParam id="3989" interp="linr"  time="0/1" value="0" leadInLength="0/1"  />
               <InterpolatingParam id="3990" interp="linr"  time="0/1" value="0" leadInLength="0/1"  />
              </VectorParam>
              <VectorParam id="3991"  name="geometryCrop">
               <InterpolatingParam id="3992" interp="linr"  time="-9999999/1" value="0" leadInLength="0/1"  />
               <InterpolatingParam id="3993" interp="linr"  time="-9999999/1" value="0" leadInLength="0/1"  />
               <InterpolatingParam id="3994" interp="linr"  time="-9999999/1" value="0" leadInLength="0/1"  />
               <InterpolatingParam id="3995" interp="linr"  time="-9999999/1" value="0" leadInLength="0/1"  />
              </VectorParam>
              <InterpolatingParam id="3996" interp="linr"  time="-9999999/1" value="1" leadInLength="0/1"  name="opacity"/>
              <InterpolatingParam id="3997" interp="linr"  time="0/1" value="0" leadInLength="0/1"  name="cursorOpacity"/>
              <InterpolatingParam id="3998" interp="linr"  time="0/1" value="0" leadInLength="0/1"  name="cursorScale"/>
             </Parameters>
             <Attributes>
              <Attribute id="3999" value="" name="ident"/>
             </Attributes>
             <ExtraData>
              <Entry key="ZoomPanBin">
               <ZoomPanBin id="4000"  >
                <ZoomPanKeyframes>
                 <ZoomPanKeyframe id="4001" timeRangeEnd="-9999999/1" timeRangeDuration="0/1" interpolaterName="linr"  />
                </ZoomPanKeyframes>
               </ZoomPanBin>
              </Entry>
              <Entry key="CursorEffectBin">
               <CursorEffectBin id="4002"  >
                <CursorEffectKeyframes>
                </CursorEffectKeyframes>
               </CursorEffectBin>
              </Entry>
             </ExtraData>
            </ScreenVMFile>
            <MetaData>
             <entry key="AutoAppliedSmartFocus" val="False"/>
             <entry key="WinSubProjectDisplayName" val=""/>
            </MetaData>
           </UnifiedMedia>
          </Medias>
         </GenericTrack>
        </StitchedMedia>
        <UnifiedMedia id="4003"  >
         <AMFile id="4004" start="15939" duration="551" scalar="1/1" mediaStart="0/1" mediaDuration="551/1" trackNumber="1" src="13" channelNumber="0,1" >
          <Parameters>
           <InterpolatingParam id="4005" interp="linr"  time="0/1" value="1" leadInLength="0/1"  name="volume"/>
           <Parameter id="4006"  name="captions"/>
          </Parameters>
          <Attributes>
           <Attribute id="4007" value="" name="ident"/>
           <Attribute id="4008" value="44100" name="sampleRate"/>
           <Attribute id="4009" value="16" name="bitDepth"/>
           <Attribute id="4010" value="1" name="gain"/>
           <Attribute id="4011" value="0" name="mixToMono"/>
          </Attributes>
         </AMFile>
         <ScreenVMFile id="4012" start="15939" duration="551" scalar="1/1" mediaStart="0/1" mediaDuration="551/1" trackNumber="0" src="13" >
          <Transformer>
           <VectorParam id="4013"  name="translation">
            <InterpolatingParam id="4014" interp="linr"  time="-9999999/1" value="0" leadInLength="0/1"  />
            <InterpolatingParam id="4015" interp="linr"  time="-9999999/1" value="0" leadInLength="0/1"  />
            <InterpolatingParam id="4016" interp="linr"  time="-9999999/1" value="0" leadInLength="0/1"  />
           </VectorParam>
           <VectorParam id="4017"  name="rotation">
            <InterpolatingParam id="4018" interp="linr"  time="-9999999/1" value="0" leadInLength="0/1"  />
            <InterpolatingParam id="4019" interp="linr"  time="-9999999/1" value="0" leadInLength="0/1"  />
            <InterpolatingParam id="4020" interp="linr"  time="-9999999/1" value="0" leadInLength="0/1"  />
           </VectorParam>
           <VectorParam id="4021"  name="shear">
            <InterpolatingParam id="4022" interp="linr"  time="-9999999/1" value="0" leadInLength="0/1"  />
            <InterpolatingParam id="4023" interp="linr"  time="-9999999/1" value="0" leadInLength="0/1"  />
            <InterpolatingParam id="4024" interp="linr"  time="-9999999/1" value="0" leadInLength="0/1"  />
           </VectorParam>
           <VectorParam id="4025"  name="scale">
            <InterpolatingParam id="4026" interp="linr"  time="-9999999/1" value="0.66666666666666663" leadInLength="0/1"  />
            <InterpolatingParam id="4027" interp="linr"  time="-9999999/1" value="0.66666666666666663" leadInLength="0/1"  />
            <InterpolatingParam id="4028" interp="linr"  time="-9999999/1" value="1" leadInLength="0/1"  />
           </VectorParam>
           <VectorParam id="4029"  name="anchor">
            <InterpolatingParam id="4030" interp="linr"  time="0/1" value="0" leadInLength="0/1"  />
            <InterpolatingParam id="4031" interp="linr"  time="0/1" value="0" leadInLength="0/1"  />
            <InterpolatingParam id="4032" interp="linr"  time="0/1" value="0" leadInLength="0/1"  />
           </VectorParam>
          </Transformer>
          <Parameters>
           <VectorParam id="4033"  name="sourceCrop">
            <InterpolatingParam id="4034" interp="linr"  time="0/1" value="0" leadInLength="0/1"  />
            <InterpolatingParam id="4035" interp="linr"  time="0/1" value="0" leadInLength="0/1"  />
            <InterpolatingParam id="4036" interp="linr"  time="0/1" value="0" leadInLength="0/1"  />
            <InterpolatingParam id="4037" interp="linr"  time="0/1" value="0" leadInLength="0/1"  />
           </VectorParam>
           <VectorParam id="4038"  name="geometryCrop">
            <InterpolatingParam id="4039" interp="linr"  time="-9999999/1" value="0" leadInLength="0/1"  />
            <InterpolatingParam id="4040" interp="linr"  time="-9999999/1" value="0" leadInLength="0/1"  />
            <InterpolatingParam id="4041" interp="linr"  time="-9999999/1" value="0" leadInLength="0/1"  />
            <InterpolatingParam id="4042" interp="linr"  time="-9999999/1" value="0" leadInLength="0/1"  />
           </VectorParam>
           <InterpolatingParam id="4043" interp="linr"  time="-9999999/1" value="1" leadInLength="0/1"  name="opacity"/>
           <Parameter id="4044"  name="toc">
            <Keyframes>
            <Keyframe id="4045"  time="0/1" value="Video demo" leadInLength="0/1"  />
            </Keyframes>
           </Parameter>
           <InterpolatingParam id="4046" interp="linr"  time="0/1" value="1" leadInLength="0/1"  name="cursorOpacity"/>
           <InterpolatingParam id="4047" interp="linr"  time="0/1" value="1" leadInLength="0/1"  name="cursorScale"/>
          </Parameters>
          <Effects>
           <GenericEffect id="4048" name = "CursorBaseEffectName" >
            <Parameters>
            <InterpolatingParam id="4049" interp="linr"  time="-9999999/1" value="1" leadInLength="0/1"   name="cursorSize"/>
            <InterpolatingParam id="4050" interp="linr"  time="-9999999/1" value="0" leadInLength="0/1"   name="highlightBlurRadius"/>
            <InterpolatingParam id="4051" interp="linr"  time="-9999999/1" value="0" leadInLength="0/1"   name="highlightColorBlue"/>
            <InterpolatingParam id="4052" interp="linr"  time="-9999999/1" value="255" leadInLength="0/1"   name="highlightColorGreen"/>
            <InterpolatingParam id="4053" interp="linr"  time="-9999999/1" value="255" leadInLength="0/1"   name="highlightColorRed"/>
            <InterpolatingParam id="4054" interp="linr"  time="-9999999/1" value="5" leadInLength="0/1"   name="highlightFeatherSize"/>
            <InterpolatingParam id="4055" interp="linr"  time="-9999999/1" value="2" leadInLength="0/1"   name="highlightMagnification"/>
            <InterpolatingParam id="4056" interp="linr"  time="-9999999/1" value="1" leadInLength="0/1"   name="highlightOpacity"/>
            <InterpolatingParam id="4057" interp="linr"  time="-9999999/1" value="45" leadInLength="0/1"   name="highlightSize"/>
            <Parameter id="4058"   name="highlightType">
             <Keyframes>
             <Keyframe id="4059"  time="-9999999/1" value="0" leadInLength="0/1"  />
             </Keyframes>
            </Parameter>
            <InterpolatingParam id="4060" interp="linr"  time="-9999999/1" value="0" leadInLength="0/1"   name="leftClickColorBlue"/>
            <InterpolatingParam id="4061" interp="linr"  time="-9999999/1" value="0" leadInLength="0/1"   name="leftClickColorGreen"/>
            <InterpolatingParam id="4062" interp="linr"  time="-9999999/1" value="255" leadInLength="0/1"   name="leftClickColorRed"/>
            <InterpolatingParam id="4063" interp="linr"  time="-9999999/1" value="0.80000000000000004" leadInLength="0/1"   name="leftClickDuration"/>
            <InterpolatingParam id="4064" interp="linr"  time="-9999999/1" value="20" leadInLength="0/1"   name="leftClickSize"/>
            <Parameter id="4065"   name="leftClickSoundFilename">
             <Keyframes>
             <Keyframe id="4066"  time="-9999999/1" value="" leadInLength="0/1"  />
             </Keyframes>
            </Parameter>
            <InterpolatingParam id="4067" interp="linr"  time="-9999999/1" value="1" leadInLength="0/1"   name="leftClickSoundVolume"/>
            <Parameter id="4068"   name="leftClickType">
             <Keyframes>
             <Keyframe id="4069"  time="-9999999/1" value="0" leadInLength="0/1"  />
             </Keyframes>
            </Parameter>
            <InterpolatingParam id="4070" interp="linr"  time="-9999999/1" value="1" leadInLength="0/1"   name="opacity"/>
            <InterpolatingParam id="4071" interp="linr"  time="-9999999/1" value="255" leadInLength="0/1"   name="rightClickColorBlue"/>
            <InterpolatingParam id="4072" interp="linr"  time="-9999999/1" value="0" leadInLength="0/1"   name="rightClickColorGreen"/>
            <InterpolatingParam id="4073" interp="linr"  time="-9999999/1" value="0" leadInLength="0/1"   name="rightClickColorRed"/>
            <InterpolatingParam id="4074" interp="linr"  time="-9999999/1" value="0.80000000000000004" leadInLength="0/1"   name="rightClickDuration"/>
            <InterpolatingParam id="4075" interp="linr"  time="-9999999/1" value="20" leadInLength="0/1"   name="rightClickSize"/>
            <Parameter id="4076"   name="rightClickSoundFilename">
             <Keyframes>
             <Keyframe id="4077"  time="-9999999/1" value="" leadInLength="0/1"  />
             </Keyframes>
            </Parameter>
            <InterpolatingParam id="4078" interp="linr"  time="-9999999/1" value="1" leadInLength="0/1"   name="rightClickSoundVolume"/>
            <Parameter id="4079"   name="rightClickType">
             <Keyframes>
             <Keyframe id="4080"  time="-9999999/1" value="0" leadInLength="0/1"  />
             </Keyframes>
            </Parameter>
            </Parameters>
            <MetaData>
             <entry key="effectIndex" val="0"/>
            </MetaData>
           </GenericEffect>
          </Effects>
          <Attributes>
           <Attribute id="4081" value="" name="ident"/>
          </Attributes>
          <ExtraData>
           <Entry key="ZoomPanBin">
            <ZoomPanBin id="4082"  >
             <ZoomPanKeyframes>
              <ZoomPanKeyframe id="4083" timeRangeEnd="-9999999/1" timeRangeDuration="0/1" interpolaterName="linr"  />
             </ZoomPanKeyframes>
            </ZoomPanBin>
           </Entry>
           <Entry key="CursorEffectBin">
            <CursorEffectBin id="4084"  >
             <CursorEffectKeyframes>
              <CursorEffectKeyframe id="4085" timeRangeEnd="-9999999/1" timeRangeDuration="0/1" interpolaterName=""  />
             </CursorEffectKeyframes>
            </CursorEffectBin>
           </Entry>
          </ExtraData>
         </ScreenVMFile>
         <MetaData>
          <entry key="AutoAppliedSmartFocus" val="False"/>
          <entry key="WinSubProjectDisplayName" val=""/>
         </MetaData>
        </UnifiedMedia>
        <StitchedMedia id="4086" start="16490" duration="1560" scalar="1/1" mediaStart="0/1" mediaDuration="1560/1" minMediaStart="0/1" >
         <Transformer>
          <VectorParam id="4087"  name="translation">
           <InterpolatingParam id="4088" interp="linr"  time="-9999999/1" value="0" leadInLength="0/1"  />
           <InterpolatingParam id="4089" interp="linr"  time="-9999999/1" value="0" leadInLength="0/1"  />
           <InterpolatingParam id="4090" interp="linr"  time="-9999999/1" value="0" leadInLength="0/1"  />
          </VectorParam>
          <VectorParam id="4091"  name="rotation">
           <InterpolatingParam id="4092" interp="linr"  time="-9999999/1" value="0" leadInLength="0/1"  />
           <InterpolatingParam id="4093" interp="linr"  time="-9999999/1" value="0" leadInLength="0/1"  />
           <InterpolatingParam id="4094" interp="linr"  time="-9999999/1" value="0" leadInLength="0/1"  />
          </VectorParam>
          <VectorParam id="4095"  name="shear">
           <InterpolatingParam id="4096" interp="linr"  time="-9999999/1" value="0" leadInLength="0/1"  />
           <InterpolatingParam id="4097" interp="linr"  time="-9999999/1" value="0" leadInLength="0/1"  />
           <InterpolatingParam id="4098" interp="linr"  time="-9999999/1" value="0" leadInLength="0/1"  />
          </VectorParam>
          <VectorParam id="4099"  name="scale">
           <InterpolatingParam id="4100" interp="linr"  time="-9999999/1" value="0.66666666666666663" leadInLength="0/1"  />
           <InterpolatingParam id="4101" interp="linr"  time="-9999999/1" value="0.66666666666666663" leadInLength="0/1"  />
           <InterpolatingParam id="4102" interp="linr"  time="-9999999/1" value="1" leadInLength="0/1"  />
          </VectorParam>
          <VectorParam id="4103"  name="anchor">
           <InterpolatingParam id="4104" interp="linr"  time="0/1" value="0" leadInLength="0/1"  />
           <InterpolatingParam id="4105" interp="linr"  time="0/1" value="0" leadInLength="0/1"  />
           <InterpolatingParam id="4106" interp="linr"  time="0/1" value="0" leadInLength="0/1"  />
          </VectorParam>
         </Transformer>
         <Parameters>
          <VectorParam id="4107"  name="sourceCrop">
           <InterpolatingParam id="4108" interp="linr"  time="0/1" value="0" leadInLength="0/1"  />
           <InterpolatingParam id="4109" interp="linr"  time="0/1" value="0" leadInLength="0/1"  />
           <InterpolatingParam id="4110" interp="linr"  time="0/1" value="0" leadInLength="0/1"  />
           <InterpolatingParam id="4111" interp="linr"  time="0/1" value="0" leadInLength="0/1"  />
          </VectorParam>
          <VectorParam id="4112"  name="geometryCrop">
           <InterpolatingParam id="4113" interp="linr"  time="-9999999/1" value="0" leadInLength="0/1"  />
           <InterpolatingParam id="4114" interp="linr"  time="-9999999/1" value="0" leadInLength="0/1"  />
           <InterpolatingParam id="4115" interp="linr"  time="-9999999/1" value="0" leadInLength="0/1"  />
           <InterpolatingParam id="4116" interp="linr"  time="-9999999/1" value="0" leadInLength="0/1"  />
          </VectorParam>
          <InterpolatingParam id="4117" interp="linr"  time="-9999999/1" value="1" leadInLength="0/1"  name="opacity"/>
          <InterpolatingParam id="4118" interp="linr"  time="0/1" value="1" leadInLength="0/1"  name="cursorOpacity"/>
          <InterpolatingParam id="4119" interp="linr"  time="0/1" value="1" leadInLength="0/1"  name="cursorScale"/>
          <InterpolatingParam id="4120" interp="linr"  time="0/1" value="1" leadInLength="0/1"  name="volume"/>
          <Parameter id="4121"  name="captions"/>
         </Parameters>
         <Effects>
          <GenericEffect id="4122" name = "CursorBaseEffectName" >
           <Parameters>
           <InterpolatingParam id="4123" interp="linr"  time="-9999999/1" value="1" leadInLength="0/1"   name="cursorSize"/>
           <InterpolatingParam id="4124" interp="linr"  time="-9999999/1" value="0" leadInLength="0/1"   name="highlightBlurRadius"/>
           <InterpolatingParam id="4125" interp="linr"  time="-9999999/1" value="0" leadInLength="0/1"   name="highlightColorBlue"/>
           <InterpolatingParam id="4126" interp="linr"  time="-9999999/1" value="255" leadInLength="0/1"   name="highlightColorGreen"/>
           <InterpolatingParam id="4127" interp="linr"  time="-9999999/1" value="255" leadInLength="0/1"   name="highlightColorRed"/>
           <InterpolatingParam id="4128" interp="linr"  time="-9999999/1" value="5" leadInLength="0/1"   name="highlightFeatherSize"/>
           <InterpolatingParam id="4129" interp="linr"  time="-9999999/1" value="2" leadInLength="0/1"   name="highlightMagnification"/>
           <InterpolatingParam id="4130" interp="linr"  time="-9999999/1" value="1" leadInLength="0/1"   name="highlightOpacity"/>
           <InterpolatingParam id="4131" interp="linr"  time="-9999999/1" value="45" leadInLength="0/1"   name="highlightSize"/>
           <Parameter id="4132"   name="highlightType">
            <Keyframes>
            <Keyframe id="4133"  time="-9999999/1" value="0" leadInLength="0/1"  />
            </Keyframes>
           </Parameter>
           <InterpolatingParam id="4134" interp="linr"  time="-9999999/1" value="0" leadInLength="0/1"   name="leftClickColorBlue"/>
           <InterpolatingParam id="4135" interp="linr"  time="-9999999/1" value="0" leadInLength="0/1"   name="leftClickColorGreen"/>
           <InterpolatingParam id="4136" interp="linr"  time="-9999999/1" value="255" leadInLength="0/1"   name="leftClickColorRed"/>
           <InterpolatingParam id="4137" interp="linr"  time="-9999999/1" value="0.80000000000000004" leadInLength="0/1"   name="leftClickDuration"/>
           <InterpolatingParam id="4138" interp="linr"  time="-9999999/1" value="20" leadInLength="0/1"   name="leftClickSize"/>
           <Parameter id="4139"   name="leftClickSoundFilename">
            <Keyframes>
            <Keyframe id="4140"  time="-9999999/1" value="" leadInLength="0/1"  />
            </Keyframes>
           </Parameter>
           <InterpolatingParam id="4141" interp="linr"  time="-9999999/1" value="1" leadInLength="0/1"   name="leftClickSoundVolume"/>
           <Parameter id="4142"   name="leftClickType">
            <Keyframes>
            <Keyframe id="4143"  time="-9999999/1" value="0" leadInLength="0/1"  />
            </Keyframes>
           </Parameter>
           <InterpolatingParam id="4144" interp="linr"  time="-9999999/1" value="1" leadInLength="0/1"   name="opacity"/>
           <InterpolatingParam id="4145" interp="linr"  time="-9999999/1" value="255" leadInLength="0/1"   name="rightClickColorBlue"/>
           <InterpolatingParam id="4146" interp="linr"  time="-9999999/1" value="0" leadInLength="0/1"   name="rightClickColorGreen"/>
           <InterpolatingParam id="4147" interp="linr"  time="-9999999/1" value="0" leadInLength="0/1"   name="rightClickColorRed"/>
           <InterpolatingParam id="4148" interp="linr"  time="-9999999/1" value="0.80000000000000004" leadInLength="0/1"   name="rightClickDuration"/>
           <InterpolatingParam id="4149" interp="linr"  time="-9999999/1" value="20" leadInLength="0/1"   name="rightClickSize"/>
           <Parameter id="4150"   name="rightClickSoundFilename">
            <Keyframes>
            <Keyframe id="4151"  time="-9999999/1" value="" leadInLength="0/1"  />
            </Keyframes>
           </Parameter>
           <InterpolatingParam id="4152" interp="linr"  time="-9999999/1" value="1" leadInLength="0/1"   name="rightClickSoundVolume"/>
           <Parameter id="4153"   name="rightClickType">
            <Keyframes>
            <Keyframe id="4154"  time="-9999999/1" value="0" leadInLength="0/1"  />
            </Keyframes>
           </Parameter>
           </Parameters>
           <MetaData>
            <entry key="effectIndex" val="0"/>
           </MetaData>
          </GenericEffect>
         </Effects>
         <Attributes>
          <Attribute id="4155" value="" name="ident"/>
          <Attribute id="4156" value="0" name="mixToMono"/>
         </Attributes>
         <MetaData>
          <entry key="AutoAppliedSmartFocus" val="False"/>
          <entry key="WinSubProjectDisplayName" val=""/>
         </MetaData>
         <ExtraData>
          <Entry key="ZoomPanBin">
           <ZoomPanBin id="4157"  >
            <ZoomPanKeyframes>
             <ZoomPanKeyframe id="4158" timeRangeEnd="-9999999/1" timeRangeDuration="0/1" interpolaterName="linr"  />
            </ZoomPanKeyframes>
           </ZoomPanBin>
          </Entry>
          <Entry key="CursorEffectBin">
           <CursorEffectBin id="4159"  >
            <CursorEffectKeyframes>
             <CursorEffectKeyframe id="4160" timeRangeEnd="-9999999/1" timeRangeDuration="0/1" interpolaterName=""  />
            </CursorEffectKeyframes>
           </CursorEffectBin>
          </Entry>
         </ExtraData>
         <GenericTrack id="4161"  >
          <Attributes>
           <Attribute id="4162" value="" name="ident"/>
           <Attribute id="4163" value="0" name="audioMuted"/>
           <Attribute id="4164" value="0" name="videoHidden"/>
          </Attributes>
          <MetaData>
           <entry key="IsLocked" val="False"/>
           <entry key="WinTrackHeight" val="0"/>
          </MetaData>
          <Medias>
           <UnifiedMedia id="4165"  >
            <AMFile id="4166" start="0" duration="136" scalar="1/1" mediaStart="0/1" mediaDuration="136/1" trackNumber="1" src="14" channelNumber="0,1" >
             <Parameters>
              <InterpolatingParam id="4167" interp="linr"  time="0/1" value="1" leadInLength="0/1"  name="volume"/>
              <Parameter id="4168"  name="captions"/>
             </Parameters>
             <Attributes>
              <Attribute id="4169" value="" name="ident"/>
              <Attribute id="4170" value="44100" name="sampleRate"/>
              <Attribute id="4171" value="16" name="bitDepth"/>
              <Attribute id="4172" value="1" name="gain"/>
              <Attribute id="4173" value="0" name="mixToMono"/>
             </Attributes>
            </AMFile>
            <ScreenVMFile id="4174" start="0" duration="136" scalar="1/1" mediaStart="0/1" mediaDuration="136/1" trackNumber="0" src="14" >
             <Transformer>
              <VectorParam id="4175"  name="translation">
               <InterpolatingParam id="4176" interp="linr"  time="-9999999/1" value="0" leadInLength="0/1"  />
               <InterpolatingParam id="4177" interp="linr"  time="-9999999/1" value="0" leadInLength="0/1"  />
               <InterpolatingParam id="4178" interp="linr"  time="-9999999/1" value="0" leadInLength="0/1"  />
              </VectorParam>
              <VectorParam id="4179"  name="rotation">
               <InterpolatingParam id="4180" interp="linr"  time="-9999999/1" value="0" leadInLength="0/1"  />
               <InterpolatingParam id="4181" interp="linr"  time="-9999999/1" value="0" leadInLength="0/1"  />
               <InterpolatingParam id="4182" interp="linr"  time="-9999999/1" value="0" leadInLength="0/1"  />
              </VectorParam>
              <VectorParam id="4183"  name="shear">
               <InterpolatingParam id="4184" interp="linr"  time="-9999999/1" value="0" leadInLength="0/1"  />
               <InterpolatingParam id="4185" interp="linr"  time="-9999999/1" value="0" leadInLength="0/1"  />
               <InterpolatingParam id="4186" interp="linr"  time="-9999999/1" value="0" leadInLength="0/1"  />
              </VectorParam>
              <VectorParam id="4187"  name="scale">
               <InterpolatingParam id="4188" interp="linr"  time="-9999999/1" value="1" leadInLength="0/1"  />
               <InterpolatingParam id="4189" interp="linr"  time="-9999999/1" value="1" leadInLength="0/1"  />
               <InterpolatingParam id="4190" interp="linr"  time="-9999999/1" value="1" leadInLength="0/1"  />
              </VectorParam>
              <VectorParam id="4191"  name="anchor">
               <InterpolatingParam id="4192" interp="linr"  time="0/1" value="0" leadInLength="0/1"  />
               <InterpolatingParam id="4193" interp="linr"  time="0/1" value="0" leadInLength="0/1"  />
               <InterpolatingParam id="4194" interp="linr"  time="0/1" value="0" leadInLength="0/1"  />
              </VectorParam>
             </Transformer>
             <Parameters>
              <VectorParam id="4195"  name="sourceCrop">
               <InterpolatingParam id="4196" interp="linr"  time="0/1" value="0" leadInLength="0/1"  />
               <InterpolatingParam id="4197" interp="linr"  time="0/1" value="0" leadInLength="0/1"  />
               <InterpolatingParam id="4198" interp="linr"  time="0/1" value="0" leadInLength="0/1"  />
               <InterpolatingParam id="4199" interp="linr"  time="0/1" value="0" leadInLength="0/1"  />
              </VectorParam>
              <VectorParam id="4200"  name="geometryCrop">
               <InterpolatingParam id="4201" interp="linr"  time="-9999999/1" value="0" leadInLength="0/1"  />
               <InterpolatingParam id="4202" interp="linr"  time="-9999999/1" value="0" leadInLength="0/1"  />
               <InterpolatingParam id="4203" interp="linr"  time="-9999999/1" value="0" leadInLength="0/1"  />
               <InterpolatingParam id="4204" interp="linr"  time="-9999999/1" value="0" leadInLength="0/1"  />
              </VectorParam>
              <InterpolatingParam id="4205" interp="linr"  time="-9999999/1" value="1" leadInLength="0/1"  name="opacity"/>
              <InterpolatingParam id="4206" interp="linr"  time="0/1" value="0" leadInLength="0/1"  name="cursorOpacity"/>
              <InterpolatingParam id="4207" interp="linr"  time="0/1" value="0" leadInLength="0/1"  name="cursorScale"/>
             </Parameters>
             <Attributes>
              <Attribute id="4208" value="" name="ident"/>
             </Attributes>
             <ExtraData>
              <Entry key="ZoomPanBin">
               <ZoomPanBin id="4209"  >
                <ZoomPanKeyframes>
                 <ZoomPanKeyframe id="4210" timeRangeEnd="-9999999/1" timeRangeDuration="0/1" interpolaterName="linr"  />
                </ZoomPanKeyframes>
               </ZoomPanBin>
              </Entry>
              <Entry key="CursorEffectBin">
               <CursorEffectBin id="4211"  >
                <CursorEffectKeyframes>
                </CursorEffectKeyframes>
               </CursorEffectBin>
              </Entry>
             </ExtraData>
            </ScreenVMFile>
            <MetaData>
             <entry key="AutoAppliedSmartFocus" val="False"/>
             <entry key="WinSubProjectDisplayName" val=""/>
            </MetaData>
           </UnifiedMedia>
           <UnifiedMedia id="4212"  >
            <AMFile id="4213" start="136" duration="4159" scalar="1/1" mediaStart="247/1" mediaDuration="4159/1" trackNumber="1" src="14" channelNumber="0,1" >
             <Parameters>
              <InterpolatingParam id="4214" interp="linr"  time="0/1" value="1" leadInLength="0/1"  name="volume"/>
              <Parameter id="4215"  name="captions"/>
             </Parameters>
             <Attributes>
              <Attribute id="4216" value="" name="ident"/>
              <Attribute id="4217" value="44100" name="sampleRate"/>
              <Attribute id="4218" value="16" name="bitDepth"/>
              <Attribute id="4219" value="1" name="gain"/>
              <Attribute id="4220" value="0" name="mixToMono"/>
             </Attributes>
            </AMFile>
            <ScreenVMFile id="4221" start="136" duration="4159" scalar="1/1" mediaStart="247/1" mediaDuration="4159/1" trackNumber="0" src="14" >
             <Transformer>
              <VectorParam id="4222"  name="translation">
               <InterpolatingParam id="4223" interp="linr"  time="-9999999/1" value="0" leadInLength="0/1"  />
               <InterpolatingParam id="4224" interp="linr"  time="-9999999/1" value="0" leadInLength="0/1"  />
               <InterpolatingParam id="4225" interp="linr"  time="-9999999/1" value="0" leadInLength="0/1"  />
              </VectorParam>
              <VectorParam id="4226"  name="rotation">
               <InterpolatingParam id="4227" interp="linr"  time="-9999999/1" value="0" leadInLength="0/1"  />
               <InterpolatingParam id="4228" interp="linr"  time="-9999999/1" value="0" leadInLength="0/1"  />
               <InterpolatingParam id="4229" interp="linr"  time="-9999999/1" value="0" leadInLength="0/1"  />
              </VectorParam>
              <VectorParam id="4230"  name="shear">
               <InterpolatingParam id="4231" interp="linr"  time="-9999999/1" value="0" leadInLength="0/1"  />
               <InterpolatingParam id="4232" interp="linr"  time="-9999999/1" value="0" leadInLength="0/1"  />
               <InterpolatingParam id="4233" interp="linr"  time="-9999999/1" value="0" leadInLength="0/1"  />
              </VectorParam>
              <VectorParam id="4234"  name="scale">
               <InterpolatingParam id="4235" interp="linr"  time="-9999999/1" value="1" leadInLength="0/1"  />
               <InterpolatingParam id="4236" interp="linr"  time="-9999999/1" value="1" leadInLength="0/1"  />
               <InterpolatingParam id="4237" interp="linr"  time="-9999999/1" value="1" leadInLength="0/1"  />
              </VectorParam>
              <VectorParam id="4238"  name="anchor">
               <InterpolatingParam id="4239" interp="linr"  time="0/1" value="0" leadInLength="0/1"  />
               <InterpolatingParam id="4240" interp="linr"  time="0/1" value="0" leadInLength="0/1"  />
               <InterpolatingParam id="4241" interp="linr"  time="0/1" value="0" leadInLength="0/1"  />
              </VectorParam>
             </Transformer>
             <Parameters>
              <VectorParam id="4242"  name="sourceCrop">
               <InterpolatingParam id="4243" interp="linr"  time="0/1" value="0" leadInLength="0/1"  />
               <InterpolatingParam id="4244" interp="linr"  time="0/1" value="0" leadInLength="0/1"  />
               <InterpolatingParam id="4245" interp="linr"  time="0/1" value="0" leadInLength="0/1"  />
               <InterpolatingParam id="4246" interp="linr"  time="0/1" value="0" leadInLength="0/1"  />
              </VectorParam>
              <VectorParam id="4247"  name="geometryCrop">
               <InterpolatingParam id="4248" interp="linr"  time="-9999999/1" value="0" leadInLength="0/1"  />
               <InterpolatingParam id="4249" interp="linr"  time="-9999999/1" value="0" leadInLength="0/1"  />
               <InterpolatingParam id="4250" interp="linr"  time="-9999999/1" value="0" leadInLength="0/1"  />
               <InterpolatingParam id="4251" interp="linr"  time="-9999999/1" value="0" leadInLength="0/1"  />
              </VectorParam>
              <InterpolatingParam id="4252" interp="linr"  time="-9999999/1" value="1" leadInLength="0/1"  name="opacity"/>
              <InterpolatingParam id="4253" interp="linr"  time="0/1" value="0" leadInLength="0/1"  name="cursorOpacity"/>
              <InterpolatingParam id="4254" interp="linr"  time="0/1" value="0" leadInLength="0/1"  name="cursorScale"/>
             </Parameters>
             <Attributes>
              <Attribute id="4255" value="" name="ident"/>
             </Attributes>
             <ExtraData>
              <Entry key="ZoomPanBin">
               <ZoomPanBin id="4256"  >
                <ZoomPanKeyframes>
                 <ZoomPanKeyframe id="4257" timeRangeEnd="-9999999/1" timeRangeDuration="0/1" interpolaterName="linr"  />
                </ZoomPanKeyframes>
               </ZoomPanBin>
              </Entry>
              <Entry key="CursorEffectBin">
               <CursorEffectBin id="4258"  >
                <CursorEffectKeyframes>
                </CursorEffectKeyframes>
               </CursorEffectBin>
              </Entry>
             </ExtraData>
            </ScreenVMFile>
            <MetaData>
             <entry key="AutoAppliedSmartFocus" val="False"/>
             <entry key="WinSubProjectDisplayName" val=""/>
            </MetaData>
           </UnifiedMedia>
          </Medias>
         </GenericTrack>
        </StitchedMedia>
        <UnifiedMedia id="4259"  >
         <AudioTransition id="4260" start="18050" duration="30" >
          <Parameters>
           <InterpolatingParam id="4261" interp="linr"  time="0/1" value="1" leadInLength="0/1"  name="volume"/>
           <Parameter id="4262"  name="captions"/>
          </Parameters>
          <Effects>
           <GenericEffect id="4263" name = "AudioTransition" >
            <Parameters>
            <Parameter id="4264"   name="audioEdgeModType">
             <Keyframes>
             <Keyframe id="4265"  time="0/1" value="0" leadInLength="0/1"  />
             </Keyframes>
            </Parameter>
            <Parameter id="4266"   name="audioTransitionType">
             <Keyframes>
             <Keyframe id="4267"  time="0/1" value="" leadInLength="0/1"  />
             </Keyframes>
            </Parameter>
            </Parameters>
            <MetaData>
            </MetaData>
           </GenericEffect>
          </Effects>
          <Attributes>
           <Attribute id="4268" value="" name="ident"/>
           <Attribute id="4269" value="0" name="sampleRate"/>
           <Attribute id="4270" value="0" name="bitDepth"/>
           <Attribute id="4271" value="1" name="gain"/>
           <Attribute id="4272" value="0" name="mixToMono"/>
          </Attributes>
         </AudioTransition>
         <ImageTransition id="4273" start="18050" duration="30" >
          <Transformer>
           <VectorParam id="4274"  name="translation">
            <InterpolatingParam id="4275" interp="linr"  time="0/1" value="0" leadInLength="0/1"  />
            <InterpolatingParam id="4276" interp="linr"  time="0/1" value="0" leadInLength="0/1"  />
            <InterpolatingParam id="4277" interp="linr"  time="0/1" value="0" leadInLength="0/1"  />
           </VectorParam>
           <VectorParam id="4278"  name="rotation">
            <InterpolatingParam id="4279" interp="linr"  time="0/1" value="0" leadInLength="0/1"  />
            <InterpolatingParam id="4280" interp="linr"  time="0/1" value="0" leadInLength="0/1"  />
            <InterpolatingParam id="4281" interp="linr"  time="0/1" value="0" leadInLength="0/1"  />
           </VectorParam>
           <VectorParam id="4282"  name="shear">
            <InterpolatingParam id="4283" interp="linr"  time="0/1" value="0" leadInLength="0/1"  />
            <InterpolatingParam id="4284" interp="linr"  time="0/1" value="0" leadInLength="0/1"  />
            <InterpolatingParam id="4285" interp="linr"  time="0/1" value="0" leadInLength="0/1"  />
           </VectorParam>
           <VectorParam id="4286"  name="scale">
            <InterpolatingParam id="4287" interp="linr"  time="0/1" value="1" leadInLength="0/1"  />
            <InterpolatingParam id="4288" interp="linr"  time="0/1" value="1" leadInLength="0/1"  />
            <InterpolatingParam id="4289" interp="linr"  time="0/1" value="1" leadInLength="0/1"  />
           </VectorParam>
           <VectorParam id="4290"  name="anchor">
            <InterpolatingParam id="4291" interp="linr"  time="0/1" value="0" leadInLength="0/1"  />
            <InterpolatingParam id="4292" interp="linr"  time="0/1" value="0" leadInLength="0/1"  />
            <InterpolatingParam id="4293" interp="linr"  time="0/1" value="0" leadInLength="0/1"  />
           </VectorParam>
          </Transformer>
          <Parameters>
           <VectorParam id="4294"  name="sourceCrop">
            <InterpolatingParam id="4295" interp="linr"  time="0/1" value="0" leadInLength="0/1"  />
            <InterpolatingParam id="4296" interp="linr"  time="0/1" value="0" leadInLength="0/1"  />
            <InterpolatingParam id="4297" interp="linr"  time="0/1" value="0" leadInLength="0/1"  />
            <InterpolatingParam id="4298" interp="linr"  time="0/1" value="0" leadInLength="0/1"  />
           </VectorParam>
           <VectorParam id="4299"  name="geometryCrop">
            <InterpolatingParam id="4300" interp="linr"  time="0/1" value="0" leadInLength="0/1"  />
            <InterpolatingParam id="4301" interp="linr"  time="0/1" value="0" leadInLength="0/1"  />
            <InterpolatingParam id="4302" interp="linr"  time="0/1" value="0" leadInLength="0/1"  />
            <InterpolatingParam id="4303" interp="linr"  time="0/1" value="0" leadInLength="0/1"  />
           </VectorParam>
           <InterpolatingParam id="4304" interp="linr"  time="0/1" value="1" leadInLength="0/1"  name="opacity"/>
          </Parameters>
          <Effects>
           <GenericEffect id="4305" name = "VisualTransition" >
            <Parameters>
            <InterpolatingParam id="4306" interp="linr"  time="0/1" value="1" leadInLength="0/1"   name="leftFramePercentage"/>
            <InterpolatingParam id="4307" interp="linr"  time="0/1" value="1" leadInLength="0/1"   name="rightFramePercentage"/>
            <Parameter id="4308"   name="visualEdgeModType">
             <Keyframes>
             <Keyframe id="4309"  time="0/1" value="0" leadInLength="0/1"  />
             </Keyframes>
            </Parameter>
            <Parameter id="4310"   name="visualTransitionType">
             <Keyframes>
             <Keyframe id="4311"  time="0/1" value="Fold" leadInLength="0/1"  />
             </Keyframes>
            </Parameter>
            </Parameters>
            <MetaData>
            </MetaData>
           </GenericEffect>
          </Effects>
          <Attributes>
           <Attribute id="4312" value="" name="ident"/>
          </Attributes>
          <ExtraData>
           <Entry key="ZoomPanBin">
            <ZoomPanBin id="4313"  >
             <ZoomPanKeyframes>
             </ZoomPanKeyframes>
            </ZoomPanBin>
           </Entry>
          </ExtraData>
         </ImageTransition>
         <MetaData>
          <entry key="WinSubProjectDisplayName" val=""/>
         </MetaData>
        </UnifiedMedia>
        <StitchedMedia id="4314" start="18080" duration="1532" scalar="1/1" mediaStart="2657/1" mediaDuration="1532/1" minMediaStart="0/1" >
         <Transformer>
          <VectorParam id="4315"  name="translation">
           <InterpolatingParam id="4316" interp="linr"  time="-9999999/1" value="1.9129142714288149e-010" leadInLength="0/1"  />
           <InterpolatingParam id="4317" interp="linr"  time="-9999999/1" value="-9.822542779147625e-011" leadInLength="0/1"  />
           <InterpolatingParam id="4318" interp="linr"  time="-9999999/1" value="0" leadInLength="0/1"  />
          </VectorParam>
          <VectorParam id="4319"  name="rotation">
           <InterpolatingParam id="4320" interp="linr"  time="-9999999/1" value="0" leadInLength="0/1"  />
           <InterpolatingParam id="4321" interp="linr"  time="-9999999/1" value="0" leadInLength="0/1"  />
           <InterpolatingParam id="4322" interp="linr"  time="-9999999/1" value="0" leadInLength="0/1"  />
          </VectorParam>
          <VectorParam id="4323"  name="shear">
           <InterpolatingParam id="4324" interp="linr"  time="-9999999/1" value="0" leadInLength="0/1"  />
           <InterpolatingParam id="4325" interp="linr"  time="-9999999/1" value="0" leadInLength="0/1"  />
           <InterpolatingParam id="4326" interp="linr"  time="-9999999/1" value="0" leadInLength="0/1"  />
          </VectorParam>
          <VectorParam id="4327"  name="scale">
           <InterpolatingParam id="4328" interp="linr"  time="-9999999/1" value="0.66666666666666663" leadInLength="0/1"  />
           <InterpolatingParam id="4329" interp="linr"  time="-9999999/1" value="0.66666666666666663" leadInLength="0/1"  />
           <InterpolatingParam id="4330" interp="linr"  time="-9999999/1" value="1" leadInLength="0/1"  />
          </VectorParam>
          <VectorParam id="4331"  name="anchor">
           <InterpolatingParam id="4332" interp="linr"  time="0/1" value="0" leadInLength="0/1"  />
           <InterpolatingParam id="4333" interp="linr"  time="0/1" value="0" leadInLength="0/1"  />
           <InterpolatingParam id="4334" interp="linr"  time="0/1" value="0" leadInLength="0/1"  />
          </VectorParam>
         </Transformer>
         <Parameters>
          <VectorParam id="4335"  name="sourceCrop">
           <InterpolatingParam id="4336" interp="linr"  time="0/1" value="0" leadInLength="0/1"  />
           <InterpolatingParam id="4337" interp="linr"  time="0/1" value="0" leadInLength="0/1"  />
           <InterpolatingParam id="4338" interp="linr"  time="0/1" value="0" leadInLength="0/1"  />
           <InterpolatingParam id="4339" interp="linr"  time="0/1" value="0" leadInLength="0/1"  />
          </VectorParam>
          <VectorParam id="4340"  name="geometryCrop">
           <InterpolatingParam id="4341" interp="linr"  time="-9999999/1" value="0" leadInLength="0/1"  />
           <InterpolatingParam id="4342" interp="linr"  time="-9999999/1" value="0" leadInLength="0/1"  />
           <InterpolatingParam id="4343" interp="linr"  time="-9999999/1" value="0" leadInLength="0/1"  />
           <InterpolatingParam id="4344" interp="linr"  time="-9999999/1" value="0" leadInLength="0/1"  />
          </VectorParam>
          <InterpolatingParam id="4345" interp="linr"  time="-9999999/1" value="1" leadInLength="0/1"  name="opacity"/>
          <InterpolatingParam id="4346" interp="linr"  time="0/1" value="1" leadInLength="0/1"  name="cursorOpacity"/>
          <InterpolatingParam id="4347" interp="linr"  time="0/1" value="1" leadInLength="0/1"  name="cursorScale"/>
          <InterpolatingParam id="4348" interp="linr"  time="0/1" value="1" leadInLength="0/1"  name="volume"/>
          <Parameter id="4349"  name="captions"/>
         </Parameters>
         <Effects>
          <GenericEffect id="4350" name = "CursorBaseEffectName" >
           <Parameters>
           <InterpolatingParam id="4351" interp="linr"  time="-9999999/1" value="1" leadInLength="0/1"   name="cursorSize"/>
           <InterpolatingParam id="4352" interp="linr"  time="-9999999/1" value="0" leadInLength="0/1"   name="highlightBlurRadius"/>
           <InterpolatingParam id="4353" interp="linr"  time="-9999999/1" value="0" leadInLength="0/1"   name="highlightColorBlue"/>
           <InterpolatingParam id="4354" interp="linr"  time="-9999999/1" value="255" leadInLength="0/1"   name="highlightColorGreen"/>
           <InterpolatingParam id="4355" interp="linr"  time="-9999999/1" value="255" leadInLength="0/1"   name="highlightColorRed"/>
           <InterpolatingParam id="4356" interp="linr"  time="-9999999/1" value="5" leadInLength="0/1"   name="highlightFeatherSize"/>
           <InterpolatingParam id="4357" interp="linr"  time="-9999999/1" value="2" leadInLength="0/1"   name="highlightMagnification"/>
           <InterpolatingParam id="4358" interp="linr"  time="-9999999/1" value="1" leadInLength="0/1"   name="highlightOpacity"/>
           <InterpolatingParam id="4359" interp="linr"  time="-9999999/1" value="45" leadInLength="0/1"   name="highlightSize"/>
           <Parameter id="4360"   name="highlightType">
            <Keyframes>
            <Keyframe id="4361"  time="-9999999/1" value="0" leadInLength="0/1"  />
            </Keyframes>
           </Parameter>
           <InterpolatingParam id="4362" interp="linr"  time="-9999999/1" value="0" leadInLength="0/1"   name="leftClickColorBlue"/>
           <InterpolatingParam id="4363" interp="linr"  time="-9999999/1" value="0" leadInLength="0/1"   name="leftClickColorGreen"/>
           <InterpolatingParam id="4364" interp="linr"  time="-9999999/1" value="255" leadInLength="0/1"   name="leftClickColorRed"/>
           <InterpolatingParam id="4365" interp="linr"  time="-9999999/1" value="0.80000000000000004" leadInLength="0/1"   name="leftClickDuration"/>
           <InterpolatingParam id="4366" interp="linr"  time="-9999999/1" value="20" leadInLength="0/1"   name="leftClickSize"/>
           <Parameter id="4367"   name="leftClickSoundFilename">
            <Keyframes>
            <Keyframe id="4368"  time="-9999999/1" value="" leadInLength="0/1"  />
            </Keyframes>
           </Parameter>
           <InterpolatingParam id="4369" interp="linr"  time="-9999999/1" value="1" leadInLength="0/1"   name="leftClickSoundVolume"/>
           <Parameter id="4370"   name="leftClickType">
            <Keyframes>
            <Keyframe id="4371"  time="-9999999/1" value="0" leadInLength="0/1"  />
            </Keyframes>
           </Parameter>
           <InterpolatingParam id="4372" interp="linr"  time="-9999999/1" value="1" leadInLength="0/1"   name="opacity"/>
           <InterpolatingParam id="4373" interp="linr"  time="-9999999/1" value="255" leadInLength="0/1"   name="rightClickColorBlue"/>
           <InterpolatingParam id="4374" interp="linr"  time="-9999999/1" value="0" leadInLength="0/1"   name="rightClickColorGreen"/>
           <InterpolatingParam id="4375" interp="linr"  time="-9999999/1" value="0" leadInLength="0/1"   name="rightClickColorRed"/>
           <InterpolatingParam id="4376" interp="linr"  time="-9999999/1" value="0.80000000000000004" leadInLength="0/1"   name="rightClickDuration"/>
           <InterpolatingParam id="4377" interp="linr"  time="-9999999/1" value="20" leadInLength="0/1"   name="rightClickSize"/>
           <Parameter id="4378"   name="rightClickSoundFilename">
            <Keyframes>
            <Keyframe id="4379"  time="-9999999/1" value="" leadInLength="0/1"  />
            </Keyframes>
           </Parameter>
           <InterpolatingParam id="4380" interp="linr"  time="-9999999/1" value="1" leadInLength="0/1"   name="rightClickSoundVolume"/>
           <Parameter id="4381"   name="rightClickType">
            <Keyframes>
            <Keyframe id="4382"  time="-9999999/1" value="0" leadInLength="0/1"  />
            </Keyframes>
           </Parameter>
           </Parameters>
           <MetaData>
            <entry key="effectIndex" val="0"/>
           </MetaData>
          </GenericEffect>
         </Effects>
         <Attributes>
          <Attribute id="4383" value="" name="ident"/>
          <Attribute id="4384" value="0" name="mixToMono"/>
         </Attributes>
         <MetaData>
          <entry key="AutoAppliedSmartFocus" val="False"/>
          <entry key="WinSubProjectDisplayName" val=""/>
         </MetaData>
         <ExtraData>
          <Entry key="ZoomPanBin">
           <ZoomPanBin id="4385"  >
            <ZoomPanKeyframes>
             <ZoomPanKeyframe id="4386" timeRangeEnd="-9999999/1" timeRangeDuration="0/1" interpolaterName="linr"  />
            </ZoomPanKeyframes>
           </ZoomPanBin>
          </Entry>
          <Entry key="CursorEffectBin">
           <CursorEffectBin id="4387"  >
            <CursorEffectKeyframes>
             <CursorEffectKeyframe id="4388" timeRangeEnd="-9999999/1" timeRangeDuration="0/1" interpolaterName=""  />
            </CursorEffectKeyframes>
           </CursorEffectBin>
          </Entry>
         </ExtraData>
         <GenericTrack id="4389"  >
          <Attributes>
           <Attribute id="4390" value="" name="ident"/>
           <Attribute id="4391" value="0" name="audioMuted"/>
           <Attribute id="4392" value="0" name="videoHidden"/>
          </Attributes>
          <MetaData>
           <entry key="IsLocked" val="False"/>
           <entry key="WinTrackHeight" val="0"/>
          </MetaData>
          <Medias>
           <UnifiedMedia id="4393"  >
            <AMFile id="4394" start="0" duration="136" scalar="1/1" mediaStart="0/1" mediaDuration="136/1" trackNumber="1" src="14" channelNumber="0,1" >
             <Parameters>
              <InterpolatingParam id="4395" interp="linr"  time="0/1" value="1" leadInLength="0/1"  name="volume"/>
              <Parameter id="4396"  name="captions"/>
             </Parameters>
             <Attributes>
              <Attribute id="4397" value="" name="ident"/>
              <Attribute id="4398" value="44100" name="sampleRate"/>
              <Attribute id="4399" value="16" name="bitDepth"/>
              <Attribute id="4400" value="1" name="gain"/>
              <Attribute id="4401" value="0" name="mixToMono"/>
             </Attributes>
            </AMFile>
            <ScreenVMFile id="4402" start="0" duration="136" scalar="1/1" mediaStart="0/1" mediaDuration="136/1" trackNumber="0" src="14" >
             <Transformer>
              <VectorParam id="4403"  name="translation">
               <InterpolatingParam id="4404" interp="linr"  time="-9999999/1" value="0" leadInLength="0/1"  />
               <InterpolatingParam id="4405" interp="linr"  time="-9999999/1" value="0" leadInLength="0/1"  />
               <InterpolatingParam id="4406" interp="linr"  time="-9999999/1" value="0" leadInLength="0/1"  />
              </VectorParam>
              <VectorParam id="4407"  name="rotation">
               <InterpolatingParam id="4408" interp="linr"  time="-9999999/1" value="0" leadInLength="0/1"  />
               <InterpolatingParam id="4409" interp="linr"  time="-9999999/1" value="0" leadInLength="0/1"  />
               <InterpolatingParam id="4410" interp="linr"  time="-9999999/1" value="0" leadInLength="0/1"  />
              </VectorParam>
              <VectorParam id="4411"  name="shear">
               <InterpolatingParam id="4412" interp="linr"  time="-9999999/1" value="0" leadInLength="0/1"  />
               <InterpolatingParam id="4413" interp="linr"  time="-9999999/1" value="0" leadInLength="0/1"  />
               <InterpolatingParam id="4414" interp="linr"  time="-9999999/1" value="0" leadInLength="0/1"  />
              </VectorParam>
              <VectorParam id="4415"  name="scale">
               <InterpolatingParam id="4416" interp="linr"  time="-9999999/1" value="1" leadInLength="0/1"  />
               <InterpolatingParam id="4417" interp="linr"  time="-9999999/1" value="1" leadInLength="0/1"  />
               <InterpolatingParam id="4418" interp="linr"  time="-9999999/1" value="1" leadInLength="0/1"  />
              </VectorParam>
              <VectorParam id="4419"  name="anchor">
               <InterpolatingParam id="4420" interp="linr"  time="0/1" value="0" leadInLength="0/1"  />
               <InterpolatingParam id="4421" interp="linr"  time="0/1" value="0" leadInLength="0/1"  />
               <InterpolatingParam id="4422" interp="linr"  time="0/1" value="0" leadInLength="0/1"  />
              </VectorParam>
             </Transformer>
             <Parameters>
              <VectorParam id="4423"  name="sourceCrop">
               <InterpolatingParam id="4424" interp="linr"  time="0/1" value="0" leadInLength="0/1"  />
               <InterpolatingParam id="4425" interp="linr"  time="0/1" value="0" leadInLength="0/1"  />
               <InterpolatingParam id="4426" interp="linr"  time="0/1" value="0" leadInLength="0/1"  />
               <InterpolatingParam id="4427" interp="linr"  time="0/1" value="0" leadInLength="0/1"  />
              </VectorParam>
              <VectorParam id="4428"  name="geometryCrop">
               <InterpolatingParam id="4429" interp="linr"  time="-9999999/1" value="0" leadInLength="0/1"  />
               <InterpolatingParam id="4430" interp="linr"  time="-9999999/1" value="0" leadInLength="0/1"  />
               <InterpolatingParam id="4431" interp="linr"  time="-9999999/1" value="0" leadInLength="0/1"  />
               <InterpolatingParam id="4432" interp="linr"  time="-9999999/1" value="0" leadInLength="0/1"  />
              </VectorParam>
              <InterpolatingParam id="4433" interp="linr"  time="-9999999/1" value="1" leadInLength="0/1"  name="opacity"/>
              <InterpolatingParam id="4434" interp="linr"  time="0/1" value="0" leadInLength="0/1"  name="cursorOpacity"/>
              <InterpolatingParam id="4435" interp="linr"  time="0/1" value="0" leadInLength="0/1"  name="cursorScale"/>
             </Parameters>
             <Attributes>
              <Attribute id="4436" value="" name="ident"/>
             </Attributes>
             <ExtraData>
              <Entry key="ZoomPanBin">
               <ZoomPanBin id="4437"  >
                <ZoomPanKeyframes>
                 <ZoomPanKeyframe id="4438" timeRangeEnd="-9999999/1" timeRangeDuration="0/1" interpolaterName="linr"  />
                </ZoomPanKeyframes>
               </ZoomPanBin>
              </Entry>
              <Entry key="CursorEffectBin">
               <CursorEffectBin id="4439"  >
                <CursorEffectKeyframes>
                </CursorEffectKeyframes>
               </CursorEffectBin>
              </Entry>
             </ExtraData>
            </ScreenVMFile>
            <MetaData>
             <entry key="AutoAppliedSmartFocus" val="False"/>
             <entry key="WinSubProjectDisplayName" val=""/>
            </MetaData>
           </UnifiedMedia>
           <UnifiedMedia id="4440"  >
            <AMFile id="4441" start="136" duration="4159" scalar="1/1" mediaStart="247/1" mediaDuration="4159/1" trackNumber="1" src="14" channelNumber="0,1" >
             <Parameters>
              <InterpolatingParam id="4442" interp="linr"  time="0/1" value="1" leadInLength="0/1"  name="volume"/>
              <Parameter id="4443"  name="captions"/>
             </Parameters>
             <Attributes>
              <Attribute id="4444" value="" name="ident"/>
              <Attribute id="4445" value="44100" name="sampleRate"/>
              <Attribute id="4446" value="16" name="bitDepth"/>
              <Attribute id="4447" value="1" name="gain"/>
              <Attribute id="4448" value="0" name="mixToMono"/>
             </Attributes>
            </AMFile>
            <ScreenVMFile id="4449" start="136" duration="4159" scalar="1/1" mediaStart="247/1" mediaDuration="4159/1" trackNumber="0" src="14" >
             <Transformer>
              <VectorParam id="4450"  name="translation">
               <InterpolatingParam id="4451" interp="linr"  time="-9999999/1" value="0" leadInLength="0/1"  />
               <InterpolatingParam id="4452" interp="linr"  time="-9999999/1" value="0" leadInLength="0/1"  />
               <InterpolatingParam id="4453" interp="linr"  time="-9999999/1" value="0" leadInLength="0/1"  />
              </VectorParam>
              <VectorParam id="4454"  name="rotation">
               <InterpolatingParam id="4455" interp="linr"  time="-9999999/1" value="0" leadInLength="0/1"  />
               <InterpolatingParam id="4456" interp="linr"  time="-9999999/1" value="0" leadInLength="0/1"  />
               <InterpolatingParam id="4457" interp="linr"  time="-9999999/1" value="0" leadInLength="0/1"  />
              </VectorParam>
              <VectorParam id="4458"  name="shear">
               <InterpolatingParam id="4459" interp="linr"  time="-9999999/1" value="0" leadInLength="0/1"  />
               <InterpolatingParam id="4460" interp="linr"  time="-9999999/1" value="0" leadInLength="0/1"  />
               <InterpolatingParam id="4461" interp="linr"  time="-9999999/1" value="0" leadInLength="0/1"  />
              </VectorParam>
              <VectorParam id="4462"  name="scale">
               <InterpolatingParam id="4463" interp="linr"  time="-9999999/1" value="1" leadInLength="0/1"  />
               <InterpolatingParam id="4464" interp="linr"  time="-9999999/1" value="1" leadInLength="0/1"  />
               <InterpolatingParam id="4465" interp="linr"  time="-9999999/1" value="1" leadInLength="0/1"  />
              </VectorParam>
              <VectorParam id="4466"  name="anchor">
               <InterpolatingParam id="4467" interp="linr"  time="0/1" value="0" leadInLength="0/1"  />
               <InterpolatingParam id="4468" interp="linr"  time="0/1" value="0" leadInLength="0/1"  />
               <InterpolatingParam id="4469" interp="linr"  time="0/1" value="0" leadInLength="0/1"  />
              </VectorParam>
             </Transformer>
             <Parameters>
              <VectorParam id="4470"  name="sourceCrop">
               <InterpolatingParam id="4471" interp="linr"  time="0/1" value="0" leadInLength="0/1"  />
               <InterpolatingParam id="4472" interp="linr"  time="0/1" value="0" leadInLength="0/1"  />
               <InterpolatingParam id="4473" interp="linr"  time="0/1" value="0" leadInLength="0/1"  />
               <InterpolatingParam id="4474" interp="linr"  time="0/1" value="0" leadInLength="0/1"  />
              </VectorParam>
              <VectorParam id="4475"  name="geometryCrop">
               <InterpolatingParam id="4476" interp="linr"  time="-9999999/1" value="0" leadInLength="0/1"  />
               <InterpolatingParam id="4477" interp="linr"  time="-9999999/1" value="0" leadInLength="0/1"  />
               <InterpolatingParam id="4478" interp="linr"  time="-9999999/1" value="0" leadInLength="0/1"  />
               <InterpolatingParam id="4479" interp="linr"  time="-9999999/1" value="0" leadInLength="0/1"  />
              </VectorParam>
              <InterpolatingParam id="4480" interp="linr"  time="-9999999/1" value="1" leadInLength="0/1"  name="opacity"/>
              <InterpolatingParam id="4481" interp="linr"  time="0/1" value="0" leadInLength="0/1"  name="cursorOpacity"/>
              <InterpolatingParam id="4482" interp="linr"  time="0/1" value="0" leadInLength="0/1"  name="cursorScale"/>
             </Parameters>
             <Attributes>
              <Attribute id="4483" value="" name="ident"/>
             </Attributes>
             <ExtraData>
              <Entry key="ZoomPanBin">
               <ZoomPanBin id="4484"  >
                <ZoomPanKeyframes>
                 <ZoomPanKeyframe id="4485" timeRangeEnd="-9999999/1" timeRangeDuration="0/1" interpolaterName="linr"  />
                </ZoomPanKeyframes>
               </ZoomPanBin>
              </Entry>
              <Entry key="CursorEffectBin">
               <CursorEffectBin id="4486"  >
                <CursorEffectKeyframes>
                </CursorEffectKeyframes>
               </CursorEffectBin>
              </Entry>
             </ExtraData>
            </ScreenVMFile>
            <MetaData>
             <entry key="AutoAppliedSmartFocus" val="False"/>
             <entry key="WinSubProjectDisplayName" val=""/>
            </MetaData>
           </UnifiedMedia>
          </Medias>
         </GenericTrack>
        </StitchedMedia>
        <UnifiedMedia id="4487"  >
         <AMFile id="4488" start="19612" duration="32653" scalar="1/1" mediaStart="0/1" mediaDuration="32653/1" trackNumber="1" src="16" channelNumber="0,1" >
          <Parameters>
           <InterpolatingParam id="4489" interp="linr"  time="0/1" value="1" leadInLength="0/1"  name="volume"/>
           <Parameter id="4490"  name="captions"/>
          </Parameters>
          <Attributes>
           <Attribute id="4491" value="" name="ident"/>
           <Attribute id="4492" value="44100" name="sampleRate"/>
           <Attribute id="4493" value="16" name="bitDepth"/>
           <Attribute id="4494" value="1" name="gain"/>
           <Attribute id="4495" value="0" name="mixToMono"/>
          </Attributes>
         </AMFile>
         <ScreenVMFile id="4496" start="19612" duration="32653" scalar="1/1" mediaStart="0/1" mediaDuration="32653/1" trackNumber="0" src="16" >
          <Transformer>
           <VectorParam id="4497"  name="translation">
            <InterpolatingParam id="4498" interp="linr"  time="-9999999/1" value="0" leadInLength="0/1"  />
            <InterpolatingParam id="4499" interp="linr"  time="-9999999/1" value="0" leadInLength="0/1"  />
            <InterpolatingParam id="4500" interp="linr"  time="-9999999/1" value="0" leadInLength="0/1"  />
           </VectorParam>
           <VectorParam id="4501"  name="rotation">
            <InterpolatingParam id="4502" interp="linr"  time="-9999999/1" value="0" leadInLength="0/1"  />
            <InterpolatingParam id="4503" interp="linr"  time="-9999999/1" value="0" leadInLength="0/1"  />
            <InterpolatingParam id="4504" interp="linr"  time="-9999999/1" value="0" leadInLength="0/1"  />
           </VectorParam>
           <VectorParam id="4505"  name="shear">
            <InterpolatingParam id="4506" interp="linr"  time="-9999999/1" value="0" leadInLength="0/1"  />
            <InterpolatingParam id="4507" interp="linr"  time="-9999999/1" value="0" leadInLength="0/1"  />
            <InterpolatingParam id="4508" interp="linr"  time="-9999999/1" value="0" leadInLength="0/1"  />
           </VectorParam>
           <VectorParam id="4509"  name="scale">
            <InterpolatingParam id="4510" interp="linr"  time="-9999999/1" value="0.66666666666666663" leadInLength="0/1"  />
            <InterpolatingParam id="4511" interp="linr"  time="-9999999/1" value="0.66666666666666663" leadInLength="0/1"  />
            <InterpolatingParam id="4512" interp="linr"  time="-9999999/1" value="1" leadInLength="0/1"  />
           </VectorParam>
           <VectorParam id="4513"  name="anchor">
            <InterpolatingParam id="4514" interp="linr"  time="0/1" value="0" leadInLength="0/1"  />
            <InterpolatingParam id="4515" interp="linr"  time="0/1" value="0" leadInLength="0/1"  />
            <InterpolatingParam id="4516" interp="linr"  time="0/1" value="0" leadInLength="0/1"  />
           </VectorParam>
          </Transformer>
          <Parameters>
           <VectorParam id="4517"  name="sourceCrop">
            <InterpolatingParam id="4518" interp="linr"  time="0/1" value="0" leadInLength="0/1"  />
            <InterpolatingParam id="4519" interp="linr"  time="0/1" value="0" leadInLength="0/1"  />
            <InterpolatingParam id="4520" interp="linr"  time="0/1" value="0" leadInLength="0/1"  />
            <InterpolatingParam id="4521" interp="linr"  time="0/1" value="0" leadInLength="0/1"  />
           </VectorParam>
           <VectorParam id="4522"  name="geometryCrop">
            <InterpolatingParam id="4523" interp="linr"  time="-9999999/1" value="0" leadInLength="0/1"  />
            <InterpolatingParam id="4524" interp="linr"  time="-9999999/1" value="0" leadInLength="0/1"  />
            <InterpolatingParam id="4525" interp="linr"  time="-9999999/1" value="0" leadInLength="0/1"  />
            <InterpolatingParam id="4526" interp="linr"  time="-9999999/1" value="0" leadInLength="0/1"  />
           </VectorParam>
           <InterpolatingParam id="4527" interp="linr"  time="-9999999/1" value="1" leadInLength="0/1"  name="opacity"/>
           <InterpolatingParam id="4528" interp="linr"  time="0/1" value="1" leadInLength="0/1"  name="cursorOpacity"/>
           <InterpolatingParam id="4529" interp="linr"  time="0/1" value="1" leadInLength="0/1"  name="cursorScale"/>
          </Parameters>
          <Effects>
           <GenericEffect id="4530" name = "CursorBaseEffectName" >
            <Parameters>
            <InterpolatingParam id="4531" interp="linr"  time="-9999999/1" value="1" leadInLength="0/1"   name="cursorSize"/>
            <InterpolatingParam id="4532" interp="linr"  time="-9999999/1" value="0" leadInLength="0/1"   name="highlightBlurRadius"/>
            <InterpolatingParam id="4533" interp="linr"  time="-9999999/1" value="0" leadInLength="0/1"   name="highlightColorBlue"/>
            <InterpolatingParam id="4534" interp="linr"  time="-9999999/1" value="255" leadInLength="0/1"   name="highlightColorGreen"/>
            <InterpolatingParam id="4535" interp="linr"  time="-9999999/1" value="255" leadInLength="0/1"   name="highlightColorRed"/>
            <InterpolatingParam id="4536" interp="linr"  time="-9999999/1" value="5" leadInLength="0/1"   name="highlightFeatherSize"/>
            <InterpolatingParam id="4537" interp="linr"  time="-9999999/1" value="2" leadInLength="0/1"   name="highlightMagnification"/>
            <InterpolatingParam id="4538" interp="linr"  time="-9999999/1" value="1" leadInLength="0/1"   name="highlightOpacity"/>
            <InterpolatingParam id="4539" interp="linr"  time="-9999999/1" value="45" leadInLength="0/1"   name="highlightSize"/>
            <Parameter id="4540"   name="highlightType">
             <Keyframes>
             <Keyframe id="4541"  time="-9999999/1" value="0" leadInLength="0/1"  />
             </Keyframes>
            </Parameter>
            <InterpolatingParam id="4542" interp="linr"  time="-9999999/1" value="0" leadInLength="0/1"   name="leftClickColorBlue"/>
            <InterpolatingParam id="4543" interp="linr"  time="-9999999/1" value="0" leadInLength="0/1"   name="leftClickColorGreen"/>
            <InterpolatingParam id="4544" interp="linr"  time="-9999999/1" value="255" leadInLength="0/1"   name="leftClickColorRed"/>
            <InterpolatingParam id="4545" interp="linr"  time="-9999999/1" value="0.80000000000000004" leadInLength="0/1"   name="leftClickDuration"/>
            <InterpolatingParam id="4546" interp="linr"  time="-9999999/1" value="20" leadInLength="0/1"   name="leftClickSize"/>
            <Parameter id="4547"   name="leftClickSoundFilename">
             <Keyframes>
             <Keyframe id="4548"  time="-9999999/1" value="" leadInLength="0/1"  />
             </Keyframes>
            </Parameter>
            <InterpolatingParam id="4549" interp="linr"  time="-9999999/1" value="1" leadInLength="0/1"   name="leftClickSoundVolume"/>
            <Parameter id="4550"   name="leftClickType">
             <Keyframes>
             <Keyframe id="4551"  time="-9999999/1" value="0" leadInLength="0/1"  />
             </Keyframes>
            </Parameter>
            <InterpolatingParam id="4552" interp="linr"  time="-9999999/1" value="1" leadInLength="0/1"   name="opacity"/>
            <InterpolatingParam id="4553" interp="linr"  time="-9999999/1" value="255" leadInLength="0/1"   name="rightClickColorBlue"/>
            <InterpolatingParam id="4554" interp="linr"  time="-9999999/1" value="0" leadInLength="0/1"   name="rightClickColorGreen"/>
            <InterpolatingParam id="4555" interp="linr"  time="-9999999/1" value="0" leadInLength="0/1"   name="rightClickColorRed"/>
            <InterpolatingParam id="4556" interp="linr"  time="-9999999/1" value="0.80000000000000004" leadInLength="0/1"   name="rightClickDuration"/>
            <InterpolatingParam id="4557" interp="linr"  time="-9999999/1" value="20" leadInLength="0/1"   name="rightClickSize"/>
            <Parameter id="4558"   name="rightClickSoundFilename">
             <Keyframes>
             <Keyframe id="4559"  time="-9999999/1" value="" leadInLength="0/1"  />
             </Keyframes>
            </Parameter>
            <InterpolatingParam id="4560" interp="linr"  time="-9999999/1" value="1" leadInLength="0/1"   name="rightClickSoundVolume"/>
            <Parameter id="4561"   name="rightClickType">
             <Keyframes>
             <Keyframe id="4562"  time="-9999999/1" value="0" leadInLength="0/1"  />
             </Keyframes>
            </Parameter>
            </Parameters>
            <MetaData>
             <entry key="effectIndex" val="0"/>
            </MetaData>
           </GenericEffect>
          </Effects>
          <Attributes>
           <Attribute id="4563" value="" name="ident"/>
          </Attributes>
          <ExtraData>
           <Entry key="ZoomPanBin">
            <ZoomPanBin id="4564"  >
             <ZoomPanKeyframes>
              <ZoomPanKeyframe id="4565" timeRangeEnd="-9999999/1" timeRangeDuration="0/1" interpolaterName="linr"  />
             </ZoomPanKeyframes>
            </ZoomPanBin>
           </Entry>
           <Entry key="CursorEffectBin">
            <CursorEffectBin id="4566"  >
             <CursorEffectKeyframes>
              <CursorEffectKeyframe id="4567" timeRangeEnd="-9999999/1" timeRangeDuration="0/1" interpolaterName=""  />
             </CursorEffectKeyframes>
            </CursorEffectBin>
           </Entry>
          </ExtraData>
         </ScreenVMFile>
         <MetaData>
          <entry key="AutoAppliedSmartFocus" val="False"/>
          <entry key="WinSubProjectDisplayName" val=""/>
         </MetaData>
        </UnifiedMedia>
       </Medias>
      </GenericTrack>
      <GenericTrack id="4568"  >
       <Attributes>
        <Attribute id="4569" value="" name="ident"/>
        <Attribute id="4570" value="0" name="audioMuted"/>
        <Attribute id="4571" value="0" name="videoHidden"/>
       </Attributes>
       <MetaData>
        <entry key="IsLocked" val="False"/>
        <entry key="WinTrackHeight" val="62"/>
       </MetaData>
       <Medias>
       </Medias>
      </GenericTrack>
     </Tracks>
    </GenericMixer>
   <CaptionAttributes id="4572"  >
    <Attribute id="4573" value="1" name="captionsEnabled"/>
    <Attribute id="4574" value="Arial" name="captionsFontName"/>
    <Attribute id="4575" value="28" name="captionsFontSize"/>
    <Attribute id="4576" value="(0,0,0,255)" name="captionsBackgroundColor"/>
    <Attribute id="4577" value="(255,255,255,255)" name="captionsForegroundColor"/>
    <Attribute id="4578" value="en" name="lang"/>
    <Attribute id="4579" value="0" name="captionsAlignment"/>
    <Attribute id="4580" value="1" name="captionsDefaultFontSize"/>
    <Attribute id="4581" value="0.5" name="captionsOpacity"/>
    <Attribute id="4582" value="1" name="captionsBackgroundEnabled"/>
    <Attribute id="4583" value="1" name="captionsBackgroundOnlyAroundText"/>
   </CaptionAttributes>
   <Parameters>
    <VectorParam id="4584"  name="eyePosition">
     <InterpolatingParam id="4585" interp="linr"  time="0/1" value="0" leadInLength="0/1"  />
     <InterpolatingParam id="4586" interp="linr"  time="0/1" value="0" leadInLength="0/1"  />
     <InterpolatingParam id="4587" interp="linr"  time="0/1" value="3000" leadInLength="0/1"  />
    </VectorParam>
    <VectorParam id="4588"  name="eyeLookAtPosition">
     <InterpolatingParam id="4589" interp="linr"  time="0/1" value="0" leadInLength="0/1"  />
     <InterpolatingParam id="4590" interp="linr"  time="0/1" value="0" leadInLength="0/1"  />
     <InterpolatingParam id="4591" interp="linr"  time="0/1" value="0" leadInLength="0/1"  />
    </VectorParam>
    <VectorParam id="4592"  name="eyeUpVector">
     <InterpolatingParam id="4593" interp="linr"  time="0/1" value="0" leadInLength="0/1"  />
     <InterpolatingParam id="4594" interp="linr"  time="0/1" value="1" leadInLength="0/1"  />
     <InterpolatingParam id="4595" interp="linr"  time="0/1" value="0" leadInLength="0/1"  />
    </VectorParam>
    <InterpolatingParam id="4596" interp="linr"  time="0/1" value="0.23885785" leadInLength="0/1"  name="fov"/>
    <InterpolatingParam id="4597" interp="linr"  time="0/1" value="1.5" leadInLength="0/1"  name="nearClipDistance"/>
    <InterpolatingParam id="4598" interp="linr"  time="0/1" value="6000" leadInLength="0/1"  name="farClipDistance"/>
   </Parameters>
  </Timeline>
 </Project>
</GoProject>
</CSMLData>

</Project_Data>
